<?xml version="1.0" encoding="utf-8"?>
<!-- Generator: Adobe Illustrator 16.0.4, SVG Export Plug-In . SVG Version: 6.00 Build 0)  -->
<svg version="1.2" baseProfile="tiny" id="Layer_1" xmlns="http://www.w3.org/2000/svg" xmlns:xlink="http://www.w3.org/1999/xlink"
	 x="0px" y="0px" width="16px" height="16px" viewBox="0 0 16 16" xml:space="preserve">
<path fill="#00AEEF" d="M15.098,2.286v1.143c0,1.258-3.071,2.286-6.857,2.286S1.384,4.687,1.384,3.429V2.286
	C1.384,1.027,4.455,0,8.241,0S15.098,1.027,15.098,2.286z"/>
<path fill="#00AEEF" d="M15.098,5.339v1.518c0,1.259-3.071,2.286-6.857,2.286S1.384,8.116,1.384,6.857V5.339
	c1.473,1.035,4.17,1.518,6.857,1.518S13.625,6.375,15.098,5.339z"/>
<path fill="#00AEEF" d="M15.098,8.768v1.518c0,1.258-3.071,2.285-6.857,2.285s-6.857-1.027-6.857-2.285V8.768
	c1.473,1.036,4.17,1.518,6.857,1.518S13.625,9.804,15.098,8.768z"/>
<path fill="#00AEEF" d="M15.098,12.197v1.517c0,1.259-3.071,2.286-6.857,2.286s-6.857-1.027-6.857-2.286v-1.517
	c1.473,1.034,4.17,1.517,6.857,1.517S13.625,13.231,15.098,12.197z"/>
<g>
</g>
<g>
</g>
<g>
</g>
<g>
</g>
<g>
</g>
<g>
</g>
</svg>
