<?xml version="1.0" encoding="UTF-8" standalone="no"?>
<svg
   xmlns:dc="http://purl.org/dc/elements/1.1/"
   xmlns:cc="http://creativecommons.org/ns#"
   xmlns:rdf="http://www.w3.org/1999/02/22-rdf-syntax-ns#"
   xmlns:svg="http://www.w3.org/2000/svg"
   xmlns="http://www.w3.org/2000/svg"
   xmlns:xlink="http://www.w3.org/1999/xlink"
   xmlns:sodipodi="http://sodipodi.sourceforge.net/DTD/sodipodi-0.dtd"
   xmlns:inkscape="http://www.inkscape.org/namespaces/inkscape"
   id="svg8993"
   version="1.1"
   viewBox="0 0 158.75 26.458334"
   height="100"
   width="600"
   inkscape:version="0.91+devel_64bit r14762"
   sodipodi:docname="logo-mcv-ms.svg">
  <sodipodi:namedview
     pagecolor="#ffffff"
     bordercolor="#666666"
     borderopacity="1"
     objecttolerance="10"
     gridtolerance="10"
     guidetolerance="10"
     inkscape:pageopacity="0"
     inkscape:pageshadow="2"
     inkscape:window-width="1920"
     inkscape:window-height="1046"
     id="namedview22"
     showgrid="false"
     inkscape:showpageshadow="false"
     inkscape:zoom="1.96"
     inkscape:cx="303.73146"
     inkscape:cy="50"
     inkscape:window-x="-11"
     inkscape:window-y="-11"
     inkscape:window-maximized="1"
     inkscape:current-layer="svg8993"
     showguides="true"
     inkscape:guide-bbox="true"
     inkscape:locked="false" />
  <defs
     id="defs8987">
    <linearGradient
       gradientUnits="userSpaceOnUse"
       y2="242.47702"
       x2="114.39136"
       y1="138.77644"
       x1="116.79678"
       id="linearGradient8946"
       xlink:href="#linearGradient8944"
       gradientTransform="translate(-111.79475,114.61983)" />
    <linearGradient
       id="linearGradient8944">
      <stop
         id="stop8940"
         offset="0"
         style="stop-color:#82d14b;stop-opacity:1" />
      <stop
         id="stop8942"
         offset="1"
         style="stop-color:#58942e;stop-opacity:1" />
    </linearGradient>
    <linearGradient
       gradientUnits="userSpaceOnUse"
       y2="139.04372"
       x2="132.29842"
       y1="166.83975"
       x1="115.72771"
       id="linearGradient8954"
       xlink:href="#linearGradient8952"
       gradientTransform="translate(-111.79475,114.61983)" />
    <linearGradient
       id="linearGradient8952">
      <stop
         id="stop8948"
         offset="0"
         style="stop-color:#f29628;stop-opacity:1;" />
      <stop
         id="stop8950"
         offset="1"
         style="stop-color:#f29628;stop-opacity:0;" />
    </linearGradient>
    <linearGradient
       gradientUnits="userSpaceOnUse"
       y2="206.93018"
       x2="252.30243"
       y1="215.75006"
       x1="90.871643"
       id="linearGradient8962"
       xlink:href="#linearGradient8960"
       gradientTransform="translate(-111.79475,114.61983)" />
    <linearGradient
       id="linearGradient8960">
      <stop
         id="stop8956"
         offset="0"
         style="stop-color:#0d6328;stop-opacity:1;" />
      <stop
         id="stop8958"
         offset="1"
         style="stop-color:#6da482;stop-opacity:1" />
    </linearGradient>
  </defs>
  <metadata
     id="metadata8990">
    <rdf:RDF>
      <cc:Work
         rdf:about="">
        <dc:format>image/svg+xml</dc:format>
        <dc:type
           rdf:resource="http://purl.org/dc/dcmitype/StillImage" />
        <dc:title></dc:title>
      </cc:Work>
    </rdf:RDF>
  </metadata>
  <g
     transform="matrix(0.77419646,0,0,0.77419646,0.63113872,-206.74774)"
     id="layer1">
    <g
       transform="matrix(0.28100712,0,0,0.28100712,19.259546,198.79607)"
       id="g9575">
      <path
         style="fill:url(#linearGradient8962);fill-opacity:1;fill-rule:evenodd;stroke:none;stroke-width:1.10358703px;stroke-linecap:butt;stroke-linejoin:miter;stroke-opacity:1"
         d="m -55.083094,337.95644 c 0,0 23.070398,-13.84199 44.26541,-19.27656 21.194958,-5.43461 43.657999,-7.42733 49.636058,-7.42733 5.978101,0 20.470371,1.26808 29.165731,2.89846 18.14476,4.27625 30.61496,7.78962 34.781495,10.68808 4.16653,2.89846 2.34482,3.38718 -1.7757,2.16201 -4.120505,-1.22516 -39.889465,-10.85738 -67.243676,-8.86471 -27.3541702,1.99272 -44.926081,6.7027 -57.244541,10.86923 -12.31841,4.16653 -22.179369,8.04794 -29.606649,10.9464 -6.107285,2.46801 -7.607518,1.40006 -1.978128,-1.99558 z"
         id="path8309"
         inkscape:connector-curvature="0" />
      <circle
         style="opacity:1;fill:url(#linearGradient8954);fill-opacity:1;stroke:none;stroke-width:3.9735465;stroke-miterlimit:4;stroke-dasharray:none;stroke-opacity:1"
         id="path8307"
         cx="9.0850086"
         cy="272.90079"
         r="6.8167634" />
      <path
         style="fill:url(#linearGradient8946);fill-opacity:1;fill-rule:evenodd;stroke:none;stroke-width:1.10358703px;stroke-linecap:butt;stroke-linejoin:miter;stroke-opacity:1"
         d="m -25.299605,270.70381 c 2.148385,-2.46114 5.818206,-0.74383 3.395636,2.43633 -2.42257,3.18016 -12.958173,19.83666 -12.958173,19.83666 0,0 14.371699,-13.50578 22.497254,-17.53475 7.3073518,-3.96127 15.6250528,-2.34999 14.0468028,3.74632 -1.81157003,6.15924 -5.43461,14.85461 -5.43461,14.85461 0,0 24.4557102,-21.9196 38.5856792,-24.81805 14.130021,-2.89846 -15.579198,41.84648 -15.579198,41.84648 0,0 27.173059,-11.77497 43.476899,-15.57921 8.1519,-1.90212 18.35573,-3.98721 28.0898,-4.49328 9.734065,-0.50606 15.313095,-0.37803 24.137255,1.57916 7.25397,2.21351 9.98509,7.64468 9.17663,13.6492 -0.43358,3.22024 -2.84987,11.70324 -4.71743,15.09546 -1.86757,3.39223 -2.42451,3.06523 -2.63154,1.72046 -0.11038,-0.71696 3.44978,-13.91723 3.30754,-15.8629 0.54241,-6.44512 -5.23273,-10.05115 -10.25502,-11.04182 -4.05243,-1.30334 -12.956975,-1.11312 -22.397305,0.0674 -4.40987,0.55144 -18.20007,3.41099 -27.79553,6.51932 -9.58205,3.10398 -19.13092,7.48154 -23.06134,9.68433 -4.27102,2.63139 -28.2130502,16.84562 -30.8227012,18.05366 -3.757999,1.73963 -4.65265,-0.86831 -3.90584,-2.26985 5.573382,-10.45949 21.4745412,-38.04511 21.7462602,-41.39645 1.29944,-5.47427 -1.51348,-4.376 -2.536108,-3.62309 -0.637542,0.46939 -38.161486,32.12133 -40.101782,32.86455 -1.940293,0.74323 -3.324516,-0.45024 -3.222186,-2.23029 0.008,-3.33935 14.7245758,-28.03042 16.2978358,-31.39145 1.584759,-3.38563 -2.28219,-4.96544 -8.5186068,0.2316 -5.434615,4.52883 -30.831729,30.71337 -34.01162,33.42993 -5.518826,4.71469 -10.265598,2.59284 -7.242414,-2.25972 2.079541,-3.3951 5.549631,-8.5186 8.784949,-13.27518 3.235317,-4.75657 10.645808,-15.15979 11.786254,-17.08722 1.925658,-2.68996 7.869293,-10.47642 9.862609,-12.75221 z"
         id="path8305-3"
         inkscape:connector-curvature="0" />
    </g>
  </g>
  <g
     aria-label="Pusat Rujukan Sehenti
bagi Maklumat dan Penyelidikan Alam Melayu"
     style="font-style:normal;font-variant:normal;font-weight:normal;font-stretch:normal;font-size:13.80586338px;line-height:57.98670959px;font-family:sans-serif;-inkscape-font-specification:'sans-serif, Normal';font-variant-ligatures:normal;font-variant-caps:normal;font-variant-numeric:normal;font-feature-settings:normal;text-align:start;letter-spacing:0px;word-spacing:0px;writing-mode:lr-tb;text-anchor:start;fill:#000000;fill-opacity:1;stroke:none;stroke-width:0.28993356px;stroke-linecap:butt;stroke-linejoin:miter;stroke-opacity:1"
     id="text4444">
    <path
       d="m 51.858247,9.3693091 q 0,0.3737424 -0.132131,0.6946329 -0.128356,0.317114 -0.362417,0.551175 -0.290689,0.290689 -0.687083,0.437921 -0.396393,0.143457 -1.000421,0.143457 H 48.92871 v 2.095223 H 48.181225 V 7.6704796 h 1.525171 q 0.505874,0 0.856965,0.086829 0.351092,0.083054 0.622904,0.2642624 0.32089,0.2151851 0.494548,0.5360751 0.177434,0.32089 0.177434,0.811663 z m -0.777687,0.018876 q 0,-0.2906886 -0.101929,-0.5058736 Q 50.876701,8.6671262 50.669066,8.5312198 50.487858,8.4141894 50.253797,8.3651121 50.023511,8.3122596 49.668644,8.3122596 H 48.92871 V 10.55849 h 0.630454 q 0.453021,0 0.73616,-0.07928 0.283138,-0.08305 0.460571,-0.260487 0.177433,-0.181209 0.249162,-0.3812931 0.0755,-0.2000843 0.0755,-0.449246 z"
       style="font-size:7.73156166px;line-height:4.9288702px;stroke-width:0.28993356px"
       id="path4448" />
    <path
       d="m 56.286529,13.291718 h -0.709733 v -0.468122 q -0.358642,0.283138 -0.687083,0.434145 -0.32844,0.151007 -0.724833,0.151007 -0.664432,0 -1.034399,-0.403944 -0.369967,-0.407719 -0.369967,-1.192956 V 9.0748453 h 0.709733 v 2.4010127 q 0,0.32089 0.0302,0.551175 0.0302,0.226511 0.128356,0.388844 0.10193,0.166107 0.264263,0.241611 0.162332,0.0755 0.471897,0.0755 0.275588,0 0.600253,-0.143456 0.32844,-0.143457 0.611579,-0.366192 V 9.0748453 h 0.709733 z"
       style="font-size:7.73156166px;line-height:4.9288702px;stroke-width:0.28993356px"
       id="path4450" />
    <path
       d="m 60.695934,12.076111 q 0,0.577602 -0.479447,0.947569 -0.475672,0.369967 -1.302436,0.369967 -0.468122,0 -0.86074,-0.10948 -0.388843,-0.113255 -0.653106,-0.245386 v -0.796563 h 0.03775 q 0.335991,0.252937 0.747485,0.403944 0.411494,0.147232 0.789012,0.147232 0.468122,0 0.732384,-0.151007 0.264262,-0.151007 0.264262,-0.475672 0,-0.249162 -0.143456,-0.377518 -0.143457,-0.128356 -0.551176,-0.21896 -0.151007,-0.03398 -0.396394,-0.07928 -0.241611,-0.0453 -0.441695,-0.09815 -0.554951,-0.147232 -0.789012,-0.43037 -0.230286,-0.286914 -0.230286,-0.702183 0,-0.2604875 0.105705,-0.4907732 0.10948,-0.2302858 0.32844,-0.4114943 0.21141,-0.1774333 0.536075,-0.279363 0.328441,-0.105705 0.732385,-0.105705 0.377517,0 0.762585,0.094379 0.388844,0.090604 0.645556,0.2227354 v 0.7588107 h -0.03775 Q 60.220262,9.8487565 59.831419,9.7128501 59.442576,9.5731686 59.068833,9.5731686 q -0.388843,0 -0.65688,0.151007 -0.268038,0.1472319 -0.268038,0.4416954 0,0.260487 0.162333,0.392619 0.158557,0.132131 0.513424,0.215185 0.196309,0.0453 0.43792,0.0906 0.245387,0.0453 0.407719,0.08305 0.494548,0.113255 0.762586,0.388843 0.268037,0.279363 0.268037,0.739935 z"
       style="font-size:7.73156166px;line-height:4.9288702px;stroke-width:0.28993356px"
       id="path4452" />
    <path
       d="m 64.992086,13.291718 h -0.705958 v -0.449246 q -0.09438,0.06418 -0.256712,0.181208 -0.158558,0.113255 -0.309565,0.181208 -0.177433,0.08683 -0.407719,0.143457 -0.230286,0.0604 -0.53985,0.0604 -0.570052,0 -0.966445,-0.377518 -0.396394,-0.377517 -0.396394,-0.96267 0,-0.479447 0.20386,-0.773911 0.207634,-0.298239 0.588927,-0.468122 0.385068,-0.169883 0.924918,-0.230286 0.539851,-0.0604 1.15898,-0.0906 v -0.10948 q 0,-0.241611 -0.08683,-0.4001686 -0.08305,-0.1585575 -0.241612,-0.2491617 -0.151007,-0.086829 -0.362417,-0.1170305 -0.21141,-0.030201 -0.441695,-0.030201 -0.279363,0 -0.622904,0.075504 -0.343542,0.071728 -0.709734,0.2114098 h -0.03775 V 9.1654495 q 0.207634,-0.056628 0.600253,-0.1245808 0.392618,-0.067953 0.773911,-0.067953 0.445471,0 0.773911,0.075504 0.332216,0.071728 0.573827,0.2491617 0.237836,0.1736581 0.362417,0.449246 0.124581,0.2755883 0.124581,0.6833073 z m -0.705958,-1.038174 v -1.17408 q -0.324666,0.01888 -0.766361,0.05663 -0.437921,0.03775 -0.694633,0.10948 -0.305789,0.08683 -0.494548,0.271813 -0.188759,0.181208 -0.188759,0.502098 0,0.362417 0.218961,0.547401 0.21896,0.181208 0.668206,0.181208 0.373742,0 0.683307,-0.143457 0.309564,-0.147231 0.573827,-0.351091 z"
       style="font-size:7.73156166px;line-height:4.9288702px;stroke-width:0.28993356px"
       id="path4454" />
    <path
       d="m 68.555853,13.253966 q -0.200084,0.05285 -0.437921,0.08683 -0.23406,0.03398 -0.419044,0.03398 -0.645555,0 -0.981546,-0.347316 -0.335991,-0.347316 -0.335991,-1.113677 V 9.6713232 H 65.901904 V 9.0748453 h 0.479447 V 7.8630136 h 0.709733 v 1.2118317 h 1.464769 v 0.5964779 h -1.464769 v 1.9215648 q 0,0.332216 0.0151,0.520974 0.0151,0.184984 0.105705,0.347317 0.08305,0.151007 0.226511,0.222735 0.147232,0.06795 0.445471,0.06795 0.173658,0 0.362416,-0.04908 0.188759,-0.05285 0.271813,-0.08683 h 0.03775 z"
       style="font-size:7.73156166px;line-height:4.9288702px;stroke-width:0.28993356px"
       id="path4456" />
    <path
       d="m 76.842365,13.291718 h -0.970221 l -1.880038,-2.234905 h -1.053274 v 2.234905 H 72.191347 V 7.6704796 h 1.574249 q 0.509649,0 0.849414,0.067953 0.339766,0.064178 0.611579,0.2340609 0.305789,0.192534 0.475672,0.4869978 0.173658,0.2906886 0.173658,0.7399346 0,0.6078034 -0.305789,1.0192979 -0.305789,0.407719 -0.841864,0.615354 z M 75.094458,9.2522786 q 0,-0.2416113 -0.08683,-0.426595 -0.08305,-0.1887588 -0.279363,-0.3171148 -0.162333,-0.1094801 -0.385068,-0.1510071 -0.222736,-0.045302 -0.52475,-0.045302 h -0.879616 v 2.1216494 h 0.755035 q 0.354867,0 0.619129,-0.0604 0.264263,-0.06418 0.449246,-0.234061 0.169883,-0.1585573 0.249162,-0.3624169 0.08305,-0.2076347 0.08305,-0.5247495 z"
       style="font-size:7.73156166px;line-height:4.9288702px;stroke-width:0.28993356px"
       id="path4458" />
    <path
       d="m 80.930881,13.291718 h -0.709733 v -0.468122 q -0.358642,0.283138 -0.687082,0.434145 -0.328441,0.151007 -0.724834,0.151007 -0.664431,0 -1.034398,-0.403944 -0.369968,-0.407719 -0.369968,-1.192956 V 9.0748453 h 0.709733 v 2.4010127 q 0,0.32089 0.0302,0.551175 0.0302,0.226511 0.128356,0.388844 0.10193,0.166107 0.264262,0.241611 0.162333,0.0755 0.471897,0.0755 0.275588,0 0.600253,-0.143456 0.328441,-0.143457 0.611579,-0.366192 V 9.0748453 h 0.709733 z"
       style="font-size:7.73156166px;line-height:4.9288702px;stroke-width:0.28993356px"
       id="path4460" />
    <path
       d="M 83.641457,8.3688873 H 82.841119 V 7.6327278 h 0.800338 z m -0.0453,5.0247597 q 0,0.739935 -0.377518,1.117453 -0.377518,0.377517 -1.011747,0.377517 -0.151007,0 -0.400169,-0.0302 -0.245386,-0.0302 -0.411494,-0.0755 v -0.675756 h 0.03775 q 0.105704,0.04153 0.283138,0.09438 0.181208,0.05285 0.351091,0.05285 0.271813,0 0.437921,-0.0755 0.166107,-0.0755 0.249161,-0.226511 0.08305,-0.151007 0.105705,-0.366192 0.02643,-0.21141 0.02643,-0.517199 V 9.6713232 H 82.006805 V 9.0748453 h 1.58935 z"
       style="font-size:7.73156166px;line-height:4.9288702px;stroke-width:0.28993356px"
       id="path4462" />
    <path
       d="m 88.481235,13.291718 h -0.709733 v -0.468122 q -0.358642,0.283138 -0.687082,0.434145 -0.328441,0.151007 -0.724834,0.151007 -0.664431,0 -1.034398,-0.403944 Q 84.95522,12.597085 84.95522,11.811848 V 9.0748453 h 0.709733 v 2.4010127 q 0,0.32089 0.0302,0.551175 0.0302,0.226511 0.128356,0.388844 0.10193,0.166107 0.264262,0.241611 0.162333,0.0755 0.471897,0.0755 0.275588,0 0.600253,-0.143456 0.328441,-0.143457 0.611579,-0.366192 V 9.0748453 h 0.709733 z"
       style="font-size:7.73156166px;line-height:4.9288702px;stroke-width:0.28993356px"
       id="path4464" />
    <path
       d="m 93.706078,13.291718 h -0.936243 l -1.691279,-1.846062 -0.460572,0.437921 v 1.408141 H 89.908251 V 7.4175428 h 0.709733 v 3.7676262 l 2.049921,-2.1103237 h 0.894717 l -1.959317,1.9479907 z"
       style="font-size:7.73156166px;line-height:4.9288702px;stroke-width:0.28993356px"
       id="path4466" />
    <path
       d="M 97.730418,13.291718 H 97.02446 v -0.449246 q -0.09438,0.06418 -0.256712,0.181208 -0.158557,0.113255 -0.309564,0.181208 -0.177433,0.08683 -0.407719,0.143457 -0.230286,0.0604 -0.53985,0.0604 -0.570052,0 -0.966446,-0.377518 -0.396393,-0.377517 -0.396393,-0.96267 0,-0.479447 0.203859,-0.773911 0.207635,-0.298239 0.588928,-0.468122 0.385068,-0.169883 0.924918,-0.230286 0.53985,-0.0604 1.158979,-0.0906 v -0.10948 q 0,-0.241611 -0.08683,-0.4001686 -0.08305,-0.1585575 -0.241611,-0.2491617 -0.151007,-0.086829 -0.362417,-0.1170305 -0.21141,-0.030201 -0.441696,-0.030201 -0.279363,0 -0.622904,0.075504 -0.343541,0.071728 -0.709733,0.2114098 h -0.03775 V 9.1654495 q 0.207635,-0.056628 0.600253,-0.1245808 0.392619,-0.067953 0.773912,-0.067953 0.44547,0 0.773911,0.075504 0.332215,0.071728 0.573827,0.2491617 0.237836,0.1736581 0.362417,0.449246 0.12458,0.2755883 0.12458,0.6833073 z M 97.02446,12.253544 v -1.17408 q -0.324665,0.01888 -0.76636,0.05663 -0.437921,0.03775 -0.694633,0.10948 -0.305789,0.08683 -0.494548,0.271813 -0.188759,0.181208 -0.188759,0.502098 0,0.362417 0.21896,0.547401 0.218961,0.181208 0.668207,0.181208 0.373742,0 0.683307,-0.143457 0.309564,-0.147231 0.573826,-0.351091 z"
       style="font-size:7.73156166px;line-height:4.9288702px;stroke-width:0.28993356px"
       id="path4468" />
    <path
       d="m 102.6306,13.291718 h -0.70974 v -2.401013 q 0,-0.290688 -0.034,-0.543625 -0.034,-0.256712 -0.12458,-0.4001689 -0.0944,-0.1585574 -0.27182,-0.234061 -0.17743,-0.079279 -0.46057,-0.079279 -0.29069,0 -0.6078,0.1434567 -0.31712,0.1434567 -0.607805,0.3661919 v 3.148498 H 99.104581 V 9.0748453 h 0.709734 v 0.4681219 q 0.332215,-0.2755879 0.687085,-0.4303702 0.35486,-0.1547822 0.72861,-0.1547822 0.6833,0 1.04194,0.4114943 0.35865,0.4114942 0.35865,1.1854049 z"
       style="font-size:7.73156166px;line-height:4.9288702px;stroke-width:0.28993356px"
       id="path4470" />
    <path
       d="m 110.85671,11.687267 q 0,0.328441 -0.15479,0.649331 -0.151,0.32089 -0.42659,0.543625 -0.30202,0.241612 -0.70596,0.377518 -0.40017,0.135906 -0.96644,0.135906 -0.60781,0 -1.09481,-0.113255 -0.48322,-0.113255 -0.98532,-0.335991 v -0.936244 h 0.0529 q 0.42659,0.354867 0.98532,0.547401 0.55872,0.192534 1.0495,0.192534 0.69463,0 1.0797,-0.260487 0.38884,-0.260487 0.38884,-0.694633 0,-0.373742 -0.18498,-0.551175 -0.18121,-0.177434 -0.55495,-0.275588 -0.28314,-0.0755 -0.61536,-0.124581 -0.32844,-0.04908 -0.69841,-0.124581 -0.74748,-0.158557 -1.1099,-0.53985 -0.35864,-0.3850682 -0.35864,-1.000422 0,-0.705958 0.59648,-1.155204 0.59648,-0.4530212 1.51384,-0.4530212 0.59271,0 1.08725,0.1132553 0.49455,0.1132553 0.87585,0.2793631 v 0.8833913 h -0.0529 q -0.32089,-0.2718127 -0.84564,-0.449246 -0.52097,-0.1812085 -1.06837,-0.1812085 -0.60025,0 -0.96645,0.2491617 -0.36241,0.2491616 -0.36241,0.64178 0,0.3510914 0.1812,0.5511758 0.18121,0.2000843 0.63801,0.3057893 0.24161,0.052852 0.68708,0.1283562 0.44547,0.0755 0.75504,0.154782 0.62668,0.166108 0.94379,0.502099 0.31712,0.33599 0.31712,0.940018 z"
       style="font-size:7.73156166px;line-height:4.9288702px;stroke-width:0.28993356px"
       id="path4472" />
    <path
       d="m 115.53038,11.256897 h -3.10698 q 0,0.388844 0.11704,0.679532 0.11703,0.286914 0.32089,0.471897 0.1963,0.181209 0.46434,0.271813 0.27181,0.0906 0.59648,0.0906 0.43037,0 0.86452,-0.169883 0.43792,-0.173658 0.6229,-0.339766 h 0.0378 v 0.773912 q -0.35864,0.151007 -0.73238,0.252936 -0.37375,0.10193 -0.78524,0.10193 -1.0495,0 -1.63843,-0.566276 -0.58892,-0.570052 -0.58892,-1.615776 0,-1.034398 0.5625,-1.6422018 0.56627,-0.6078034 1.48742,-0.6078034 0.85319,0 1.31376,0.4983233 0.46435,0.4983233 0.46435,1.4156909 z m -0.69086,-0.543625 q -0.004,-0.558726 -0.28314,-0.8645155 -0.27559,-0.3057893 -0.84186,-0.3057893 -0.57006,0 -0.90982,0.3359907 -0.33599,0.3359911 -0.3813,0.8343141 z"
       style="font-size:7.73156166px;line-height:4.9288702px;stroke-width:0.28993356px"
       id="path4474" />
    <path
       d="m 120.13232,13.291718 h -0.70974 v -2.401013 q 0,-0.290688 -0.034,-0.543625 -0.034,-0.256712 -0.12458,-0.4001689 -0.0944,-0.1585574 -0.27182,-0.234061 -0.17743,-0.079279 -0.46057,-0.079279 -0.29069,0 -0.6078,0.1434567 -0.31712,0.1434567 -0.6078,0.3661919 v 3.148498 H 116.6063 V 7.4175428 h 0.70974 v 2.1254244 q 0.33221,-0.2755879 0.68708,-0.4303702 0.35486,-0.1547822 0.72861,-0.1547822 0.6833,0 1.04194,0.4114943 0.35865,0.4114942 0.35865,1.1854049 z"
       style="font-size:7.73156166px;line-height:4.9288702px;stroke-width:0.28993356px"
       id="path4476" />
    <path
       d="m 125.02872,11.256897 h -3.10697 q 0,0.388844 0.11703,0.679532 0.11703,0.286914 0.32089,0.471897 0.19631,0.181209 0.46434,0.271813 0.27182,0.0906 0.59648,0.0906 0.43037,0 0.86452,-0.169883 0.43792,-0.173658 0.6229,-0.339766 h 0.0378 v 0.773912 q -0.35864,0.151007 -0.73238,0.252936 -0.37374,0.10193 -0.78524,0.10193 -1.0495,0 -1.63843,-0.566276 -0.58892,-0.570052 -0.58892,-1.615776 0,-1.034398 0.5625,-1.6422018 0.56627,-0.6078034 1.48742,-0.6078034 0.85319,0 1.31376,0.4983233 0.46435,0.4983233 0.46435,1.4156909 z m -0.69086,-0.543625 q -0.004,-0.558726 -0.28314,-0.8645155 -0.27559,-0.3057893 -0.84186,-0.3057893 -0.57006,0 -0.90982,0.3359907 -0.33599,0.3359911 -0.38129,0.8343141 z"
       style="font-size:7.73156166px;line-height:4.9288702px;stroke-width:0.28993356px"
       id="path4478" />
    <path
       d="m 129.63066,13.291718 h -0.70973 v -2.401013 q 0,-0.290688 -0.034,-0.543625 -0.034,-0.256712 -0.12458,-0.4001689 -0.0944,-0.1585574 -0.27181,-0.234061 -0.17744,-0.079279 -0.46057,-0.079279 -0.29069,0 -0.60781,0.1434567 -0.31711,0.1434567 -0.6078,0.3661919 v 3.148498 h -0.70973 V 9.0748453 h 0.70973 v 0.4681219 q 0.33221,-0.2755879 0.68708,-0.4303702 0.35487,-0.1547822 0.72861,-0.1547822 0.68331,0 1.04195,0.4114943 0.35864,0.4114942 0.35864,1.1854049 z"
       style="font-size:7.73156166px;line-height:4.9288702px;stroke-width:0.28993356px"
       id="path4480" />
    <path
       d="m 133.18687,13.253966 q -0.20008,0.05285 -0.43792,0.08683 -0.23406,0.03398 -0.41904,0.03398 -0.64556,0 -0.98155,-0.347316 -0.33599,-0.347316 -0.33599,-1.113677 V 9.6713232 h -0.47945 V 9.0748453 h 0.47945 V 7.8630136 h 0.70973 v 1.2118317 h 1.46477 v 0.5964779 h -1.46477 v 1.9215648 q 0,0.332216 0.0151,0.520974 0.0151,0.184984 0.10571,0.347317 0.0831,0.151007 0.22651,0.222735 0.14723,0.06795 0.44547,0.06795 0.17366,0 0.36242,-0.04908 0.18876,-0.05285 0.27181,-0.08683 h 0.0377 z"
       style="font-size:7.73156166px;line-height:4.9288702px;stroke-width:0.28993356px"
       id="path4482" />
    <path
       d="m 134.8102,8.3688873 h -0.80034 V 7.6327278 h 0.80034 z m -0.0453,4.9228307 h -0.70973 V 9.0748453 h 0.70973 z"
       style="font-size:7.73156166px;line-height:4.9288702px;stroke-width:0.28993356px"
       id="path4484" />
    <path
       d="m 49.630893,17.150325 q 0,0.264262 -0.0755,0.475672 -0.07362,0.21141 -0.200084,0.354867 -0.134019,0.149119 -0.294464,0.224623 -0.160445,0.07362 -0.352979,0.07362 -0.179321,0 -0.31334,-0.04341 -0.134019,-0.04153 -0.264262,-0.113255 l -0.02265,0.09815 H 47.775393 V 15.2835 h 0.354867 v 1.049499 q 0.149119,-0.122693 0.317115,-0.200084 0.167995,-0.07928 0.377517,-0.07928 0.373743,0 0.588928,0.286914 0.217073,0.286913 0.217073,0.809775 z m -0.366193,0.0094 q 0,-0.377518 -0.12458,-0.571939 -0.124581,-0.19631 -0.402057,-0.19631 -0.154782,0 -0.313339,0.06795 -0.158558,0.06606 -0.294464,0.17177 v 1.208057 q 0.151007,0.06795 0.258599,0.09438 0.109481,0.02643 0.247275,0.02643 0.294463,0 0.460571,-0.192534 0.167995,-0.194421 0.167995,-0.607803 z"
       style="font-size:3.86578083px;line-height:4.9288702px;stroke-width:0.28993356px"
       id="path4486" />
    <path
       d="m 51.822383,18.220588 h -0.352979 v -0.224623 q -0.04719,0.03209 -0.128356,0.0906 -0.07928,0.05663 -0.154783,0.0906 -0.08872,0.04341 -0.203859,0.07173 -0.115143,0.0302 -0.269925,0.0302 -0.285026,0 -0.483223,-0.188759 -0.198197,-0.188759 -0.198197,-0.481335 0,-0.239724 0.10193,-0.386956 0.103817,-0.149119 0.294464,-0.234061 0.192534,-0.08494 0.462459,-0.115143 0.269925,-0.0302 0.57949,-0.0453 v -0.05474 q 0,-0.120805 -0.04341,-0.200084 -0.04153,-0.07928 -0.120806,-0.124581 -0.0755,-0.04341 -0.181208,-0.05851 -0.105705,-0.0151 -0.220848,-0.0151 -0.139681,0 -0.311452,0.03775 -0.171771,0.03586 -0.354867,0.105705 h -0.01888 v -0.360529 q 0.103817,-0.02831 0.300126,-0.06229 0.196309,-0.03398 0.386956,-0.03398 0.222735,0 0.386955,0.03775 0.166108,0.03586 0.286914,0.124581 0.118918,0.08683 0.181208,0.224623 0.06229,0.137794 0.06229,0.341654 z m -0.352979,-0.519087 v -0.58704 q -0.162333,0.0094 -0.383181,0.02831 -0.21896,0.01888 -0.347316,0.05474 -0.152895,0.04341 -0.247274,0.135906 -0.09438,0.0906 -0.09438,0.251049 0,0.181209 0.109481,0.273701 0.10948,0.0906 0.334103,0.0906 0.186871,0 0.341653,-0.07173 0.154782,-0.07362 0.286914,-0.175545 z"
       style="font-size:3.86578083px;line-height:4.9288702px;stroke-width:0.28993356px"
       id="path4488" />
    <path
       d="m 54.21962,17.980864 q 0,0.536075 -0.243499,0.787124 -0.243499,0.251049 -0.749372,0.251049 -0.167996,0 -0.328441,-0.02454 -0.158557,-0.02265 -0.313339,-0.06607 v -0.362417 h 0.01888 q 0.08683,0.03398 0.275588,0.08305 0.188759,0.05097 0.377518,0.05097 0.181208,0 0.300126,-0.04341 0.118919,-0.04341 0.184984,-0.120805 0.06607,-0.07362 0.09438,-0.177434 0.02831,-0.103817 0.02831,-0.232173 v -0.192534 q -0.160445,0.128356 -0.307677,0.192534 -0.145344,0.06229 -0.371854,0.06229 -0.377518,0 -0.600253,-0.271813 -0.220848,-0.2737 -0.220848,-0.770136 0,-0.271813 0.0755,-0.468122 0.07739,-0.198197 0.209523,-0.341654 0.122693,-0.134018 0.298238,-0.207634 0.175546,-0.0755 0.349204,-0.0755 0.183096,0 0.30579,0.03775 0.12458,0.03586 0.262374,0.111368 l 0.02265,-0.09061 h 0.332216 z m -0.354867,-0.339766 v -1.149541 q -0.141569,-0.06418 -0.264262,-0.09061 -0.120806,-0.02831 -0.241611,-0.02831 -0.292576,0 -0.460572,0.196309 -0.167995,0.196309 -0.167995,0.570051 0,0.354867 0.124581,0.537963 0.12458,0.183096 0.413381,0.183096 0.154783,0 0.309565,-0.05851 0.15667,-0.0604 0.286913,-0.160445 z"
       style="font-size:3.86578083px;line-height:4.9288702px;stroke-width:0.28993356px"
       id="path4490" />
    <path
       d="m 55.29932,15.759172 h -0.400168 v -0.368079 h 0.400168 z m -0.02265,2.461416 h -0.354866 v -2.108437 h 0.354866 z"
       style="font-size:3.86578083px;line-height:4.9288702px;stroke-width:0.28993356px"
       id="path4492" />
    <path
       d="m 59.857846,18.220588 h -0.373742 v -2.421776 l -0.781462,1.647864 h -0.222735 l -0.775799,-1.647864 v 2.421776 h -0.349204 v -2.810619 h 0.509649 l 0.749373,1.56481 0.724833,-1.56481 h 0.519087 z"
       style="font-size:3.86578083px;line-height:4.9288702px;stroke-width:0.28993356px"
       id="path4494" />
    <path
       d="M 62.226769,18.220588 H 61.87379 v -0.224623 q -0.04719,0.03209 -0.128356,0.0906 -0.07928,0.05663 -0.154782,0.0906 -0.08872,0.04341 -0.20386,0.07173 -0.115143,0.0302 -0.269925,0.0302 -0.285026,0 -0.483222,-0.188759 -0.198197,-0.188759 -0.198197,-0.481335 0,-0.239724 0.10193,-0.386956 0.103817,-0.149119 0.294463,-0.234061 0.192534,-0.08494 0.462459,-0.115143 0.269926,-0.0302 0.57949,-0.0453 v -0.05474 q 0,-0.120805 -0.04341,-0.200084 -0.04153,-0.07928 -0.120806,-0.124581 -0.0755,-0.04341 -0.181209,-0.05851 -0.105705,-0.0151 -0.220847,-0.0151 -0.139682,0 -0.311452,0.03775 -0.171771,0.03586 -0.354867,0.105705 h -0.01888 v -0.360529 q 0.103817,-0.02831 0.300127,-0.06229 0.196309,-0.03398 0.386955,-0.03398 0.222736,0 0.386956,0.03775 0.166108,0.03586 0.286913,0.124581 0.118918,0.08683 0.181209,0.224623 0.06229,0.137794 0.06229,0.341654 z M 61.87379,17.701501 v -0.58704 q -0.162333,0.0094 -0.38318,0.02831 -0.218961,0.01888 -0.347317,0.05474 -0.152894,0.04341 -0.247274,0.135906 -0.09438,0.0906 -0.09438,0.251049 0,0.181209 0.10948,0.273701 0.10948,0.0906 0.334103,0.0906 0.186871,0 0.341654,-0.07173 0.154782,-0.07362 0.286913,-0.175545 z"
       style="font-size:3.86578083px;line-height:4.9288702px;stroke-width:0.28993356px"
       id="path4496" />
    <path
       d="m 64.827866,18.220588 h -0.468122 l -0.845639,-0.923031 -0.230286,0.21896 v 0.704071 H 62.928952 V 15.2835 h 0.354867 v 1.883813 l 1.02496,-1.055162 h 0.447359 l -0.979659,0.973996 z"
       style="font-size:3.86578083px;line-height:4.9288702px;stroke-width:0.28993356px"
       id="path4498" />
    <path
       d="M 65.560251,18.220588 H 65.205385 V 15.2835 h 0.354866 z"
       style="font-size:3.86578083px;line-height:4.9288702px;stroke-width:0.28993356px"
       id="path4500" />
    <path
       d="m 67.999014,18.220588 h -0.354867 v -0.234061 q -0.179321,0.141569 -0.343541,0.217072 -0.16422,0.0755 -0.362417,0.0755 -0.332215,0 -0.517199,-0.201972 -0.184984,-0.20386 -0.184984,-0.596478 v -1.368502 h 0.354867 v 1.200507 q 0,0.160445 0.0151,0.275587 0.0151,0.113256 0.06418,0.194422 0.05096,0.08305 0.132131,0.120806 0.08117,0.03775 0.235948,0.03775 0.137794,0 0.300127,-0.07173 0.16422,-0.07173 0.305789,-0.183096 v -1.574249 h 0.354867 z"
       style="font-size:3.86578083px;line-height:4.9288702px;stroke-width:0.28993356px"
       id="path4502" />
    <path
       d="m 71.77419,18.220588 h -0.354867 v -1.200507 q 0,-0.135906 -0.01321,-0.262374 -0.01132,-0.126469 -0.05097,-0.201972 -0.04341,-0.08117 -0.124581,-0.122694 -0.08117,-0.04153 -0.234061,-0.04153 -0.149119,0 -0.298239,0.0755 -0.149119,0.07362 -0.298239,0.188759 0.0057,0.04341 0.0094,0.10193 0.0038,0.05663 0.0038,0.113255 v 1.349626 h -0.354867 v -1.200507 q 0,-0.139681 -0.01321,-0.264262 -0.01133,-0.126468 -0.05097,-0.201972 -0.04341,-0.08117 -0.124581,-0.120806 -0.08117,-0.04153 -0.234061,-0.04153 -0.145344,0 -0.292576,0.07173 -0.145344,0.07173 -0.290689,0.183096 v 1.574249 h -0.354866 v -2.108437 h 0.354866 v 0.234061 q 0.166108,-0.137794 0.330328,-0.215185 0.166108,-0.07739 0.352979,-0.07739 0.215185,0 0.364305,0.0906 0.151007,0.09061 0.224623,0.25105 0.215185,-0.181209 0.392618,-0.260488 0.177434,-0.08117 0.379406,-0.08117 0.347316,0 0.511536,0.21141 0.166108,0.209522 0.166108,0.58704 z"
       style="font-size:3.86578083px;line-height:4.9288702px;stroke-width:0.28993356px"
       id="path4504" />
    <path
       d="m 74.095924,18.220588 h -0.352979 v -0.224623 q -0.04719,0.03209 -0.128356,0.0906 -0.07928,0.05663 -0.154782,0.0906 -0.08872,0.04341 -0.20386,0.07173 -0.115143,0.0302 -0.269925,0.0302 -0.285026,0 -0.483223,-0.188759 -0.198196,-0.188759 -0.198196,-0.481335 0,-0.239724 0.101929,-0.386956 0.103818,-0.149119 0.294464,-0.234061 0.192534,-0.08494 0.462459,-0.115143 0.269926,-0.0302 0.57949,-0.0453 v -0.05474 q 0,-0.120805 -0.04342,-0.200084 -0.04153,-0.07928 -0.120805,-0.124581 -0.0755,-0.04341 -0.181209,-0.05851 -0.105705,-0.0151 -0.220847,-0.0151 -0.139682,0 -0.311453,0.03775 -0.17177,0.03586 -0.354866,0.105705 h -0.01888 v -0.360529 q 0.103817,-0.02831 0.300126,-0.06229 0.19631,-0.03398 0.386956,-0.03398 0.222736,0 0.386956,0.03775 0.166107,0.03586 0.286913,0.124581 0.118918,0.08683 0.181209,0.224623 0.06229,0.137794 0.06229,0.341654 z m -0.352979,-0.519087 v -0.58704 q -0.162333,0.0094 -0.38318,0.02831 -0.218961,0.01888 -0.347317,0.05474 -0.152894,0.04341 -0.247274,0.135906 -0.09438,0.0906 -0.09438,0.251049 0,0.181209 0.10948,0.273701 0.10948,0.0906 0.334103,0.0906 0.186871,0 0.341654,-0.07173 0.154782,-0.07362 0.286913,-0.175545 z"
       style="font-size:3.86578083px;line-height:4.9288702px;stroke-width:0.28993356px"
       id="path4506" />
    <path
       d="m 75.877809,18.201712 q -0.100043,0.02643 -0.218961,0.04341 -0.11703,0.01699 -0.209522,0.01699 -0.322778,0 -0.490773,-0.173658 -0.167995,-0.173658 -0.167995,-0.556838 V 16.41039 h -0.239724 v -0.298239 h 0.239724 v -0.605915 h 0.354866 v 0.605915 h 0.732385 v 0.298239 h -0.732385 v 0.960783 q 0,0.166108 0.0076,0.260487 0.0076,0.09249 0.05285,0.173658 0.04153,0.0755 0.113255,0.111368 0.07362,0.03398 0.222736,0.03398 0.08683,0 0.181208,-0.02454 0.09438,-0.02643 0.135907,-0.04342 h 0.01888 z"
       style="font-size:3.86578083px;line-height:4.9288702px;stroke-width:0.28993356px"
       id="path4508" />
    <path
       d="M 79.377396,18.220588 H 79.022529 V 17.99974 q -0.152894,0.132131 -0.319002,0.205747 -0.166108,0.07362 -0.36053,0.07362 -0.377517,0 -0.600253,-0.290689 -0.220847,-0.290688 -0.220847,-0.806 0,-0.268038 0.0755,-0.47756 0.07739,-0.209522 0.207635,-0.356754 0.128356,-0.143457 0.298239,-0.21896 0.17177,-0.0755 0.354866,-0.0755 0.166108,0 0.294464,0.03586 0.128356,0.03398 0.269925,0.107593 V 15.2835 h 0.354867 z m -0.354867,-0.519087 v -1.209944 q -0.143456,-0.06418 -0.256712,-0.08872 -0.113255,-0.02454 -0.247274,-0.02454 -0.298239,0 -0.464347,0.207635 -0.166107,0.207635 -0.166107,0.588928 0,0.37563 0.128356,0.571939 0.128356,0.194421 0.411494,0.194421 0.151007,0 0.305789,-0.06606 0.154782,-0.06795 0.288801,-0.173658 z"
       style="font-size:3.86578083px;line-height:4.9288702px;stroke-width:0.28993356px"
       id="path4510" />
    <path
       d="m 81.714231,18.220588 h -0.352979 v -0.224623 q -0.04719,0.03209 -0.128356,0.0906 -0.07928,0.05663 -0.154782,0.0906 -0.08872,0.04341 -0.20386,0.07173 -0.115143,0.0302 -0.269925,0.0302 -0.285026,0 -0.483222,-0.188759 -0.198197,-0.188759 -0.198197,-0.481335 0,-0.239724 0.10193,-0.386956 0.103817,-0.149119 0.294463,-0.234061 0.192534,-0.08494 0.46246,-0.115143 0.269925,-0.0302 0.579489,-0.0453 v -0.05474 q 0,-0.120805 -0.04341,-0.200084 -0.04153,-0.07928 -0.120806,-0.124581 -0.0755,-0.04341 -0.181209,-0.05851 -0.105704,-0.0151 -0.220847,-0.0151 -0.139682,0 -0.311452,0.03775 -0.171771,0.03586 -0.354867,0.105705 h -0.01888 v -0.360529 q 0.103817,-0.02831 0.300127,-0.06229 0.196309,-0.03398 0.386955,-0.03398 0.222736,0 0.386956,0.03775 0.166108,0.03586 0.286913,0.124581 0.118918,0.08683 0.181209,0.224623 0.06229,0.137794 0.06229,0.341654 z m -0.352979,-0.519087 v -0.58704 q -0.162332,0.0094 -0.38318,0.02831 -0.218961,0.01888 -0.347317,0.05474 -0.152894,0.04341 -0.247274,0.135906 -0.09438,0.0906 -0.09438,0.251049 0,0.181209 0.10948,0.273701 0.10948,0.0906 0.334103,0.0906 0.186871,0 0.341654,-0.07173 0.154782,-0.07362 0.286913,-0.175545 z"
       style="font-size:3.86578083px;line-height:4.9288702px;stroke-width:0.28993356px"
       id="path4512" />
    <path
       d="m 84.16432,18.220588 h -0.354867 v -1.200507 q 0,-0.145344 -0.01699,-0.271812 -0.01699,-0.128356 -0.06229,-0.200085 -0.04719,-0.07928 -0.135907,-0.11703 -0.08872,-0.03964 -0.230285,-0.03964 -0.145345,0 -0.303902,0.07173 -0.158558,0.07173 -0.303902,0.183096 v 1.574249 h -0.354866 v -2.108437 h 0.354866 v 0.234061 q 0.166108,-0.137794 0.343541,-0.215185 0.177434,-0.07739 0.364305,-0.07739 0.341653,0 0.520974,0.205747 0.179321,0.205747 0.179321,0.592703 z"
       style="font-size:3.86578083px;line-height:4.9288702px;stroke-width:0.28993356px"
       id="path4514" />
    <path
       d="m 88.073515,16.259383 q 0,0.186872 -0.06606,0.347317 -0.06418,0.158557 -0.181209,0.275587 -0.145344,0.145345 -0.343541,0.218961 -0.198197,0.07173 -0.500211,0.07173 h -0.373742 v 1.047612 h -0.373743 v -2.810619 h 0.762586 q 0.252937,0 0.428483,0.04341 0.175545,0.04153 0.311452,0.132131 0.160445,0.107593 0.247274,0.268038 0.08872,0.160445 0.08872,0.405831 z m -0.388843,0.0094 q 0,-0.145344 -0.05097,-0.252937 -0.05097,-0.107592 -0.154782,-0.175545 -0.0906,-0.05852 -0.207635,-0.08305 -0.115143,-0.02643 -0.292576,-0.02643 h -0.369967 v 1.123115 h 0.315227 q 0.226511,0 0.36808,-0.03964 0.141569,-0.04153 0.230286,-0.130243 0.08872,-0.09061 0.12458,-0.190647 0.03775,-0.100042 0.03775,-0.224623 z"
       style="font-size:3.86578083px;line-height:4.9288702px;stroke-width:0.28993356px"
       id="path4516" />
    <path
       d="m 90.21404,17.203177 h -1.553485 q 0,0.194422 0.05851,0.339766 0.05851,0.143457 0.160445,0.235949 0.09816,0.0906 0.232174,0.135906 0.135906,0.0453 0.298239,0.0453 0.215185,0 0.432257,-0.08494 0.21896,-0.08683 0.311452,-0.169883 h 0.01888 v 0.386956 q -0.179321,0.0755 -0.366192,0.126468 -0.186871,0.05097 -0.392618,0.05097 -0.52475,0 -0.819214,-0.283138 -0.294463,-0.285026 -0.294463,-0.807888 0,-0.517199 0.28125,-0.821101 0.283139,-0.303902 0.74371,-0.303902 0.426595,0 0.656881,0.249162 0.232173,0.249161 0.232173,0.707845 z m -0.345429,-0.271812 q -0.0019,-0.279363 -0.141569,-0.432258 -0.137794,-0.152895 -0.420932,-0.152895 -0.285026,0 -0.454909,0.167996 -0.167995,0.167995 -0.190646,0.417157 z"
       style="font-size:3.86578083px;line-height:4.9288702px;stroke-width:0.28993356px"
       id="path4518" />
    <path
       d="m 92.515013,18.220588 h -0.354867 v -1.200507 q 0,-0.145344 -0.01699,-0.271812 -0.01699,-0.128356 -0.06229,-0.200085 -0.04719,-0.07928 -0.135907,-0.11703 -0.08872,-0.03964 -0.230286,-0.03964 -0.145344,0 -0.303901,0.07173 -0.158558,0.07173 -0.303902,0.183096 v 1.574249 h -0.354867 v -2.108437 h 0.354867 v 0.234061 q 0.166108,-0.137794 0.343541,-0.215185 0.177433,-0.07739 0.364305,-0.07739 0.341653,0 0.520974,0.205747 0.179321,0.205747 0.179321,0.592703 z"
       style="font-size:3.86578083px;line-height:4.9288702px;stroke-width:0.28993356px"
       id="path4520" />
    <path
       d="m 94.983977,16.112151 -1.230707,2.886123 h -0.379405 l 0.392618,-0.879616 -0.839977,-2.006507 h 0.385068 l 0.647443,1.562924 0.653105,-1.562924 z"
       style="font-size:3.86578083px;line-height:4.9288702px;stroke-width:0.28993356px"
       id="path4522" />
    <path
       d="M 97.183015,17.203177 H 95.62953 q 0,0.194422 0.05851,0.339766 0.05852,0.143457 0.160445,0.235949 0.09816,0.0906 0.232174,0.135906 0.135906,0.0453 0.298239,0.0453 0.215185,0 0.432257,-0.08494 0.218961,-0.08683 0.311452,-0.169883 h 0.01888 v 0.386956 q -0.179321,0.0755 -0.366192,0.126468 -0.186871,0.05097 -0.392618,0.05097 -0.52475,0 -0.819214,-0.283138 -0.294463,-0.285026 -0.294463,-0.807888 0,-0.517199 0.28125,-0.821101 0.283139,-0.303902 0.74371,-0.303902 0.426595,0 0.656881,0.249162 0.232173,0.249161 0.232173,0.707845 z m -0.345428,-0.271812 q -0.0019,-0.279363 -0.14157,-0.432258 -0.137794,-0.152895 -0.420932,-0.152895 -0.285026,0 -0.454909,0.167996 -0.167995,0.167995 -0.190646,0.417157 z"
       style="font-size:3.86578083px;line-height:4.9288702px;stroke-width:0.28993356px"
       id="path4524" />
    <path
       d="M 98.079622,18.220588 H 97.724756 V 15.2835 h 0.354866 z"
       style="font-size:3.86578083px;line-height:4.9288702px;stroke-width:0.28993356px"
       id="path4526" />
    <path
       d="m 99.151773,15.759172 h -0.400169 v -0.368079 h 0.400169 z m -0.02265,2.461416 h -0.354867 v -2.108437 h 0.354867 z"
       style="font-size:3.86578083px;line-height:4.9288702px;stroke-width:0.28993356px"
       id="path4528" />
    <path
       d="m 101.53013,18.220588 h -0.35487 V 17.99974 q -0.15289,0.132131 -0.319,0.205747 -0.16611,0.07362 -0.36053,0.07362 -0.37752,0 -0.600251,-0.290689 -0.220848,-0.290688 -0.220848,-0.806 0,-0.268038 0.0755,-0.47756 0.07739,-0.209522 0.207635,-0.356754 0.12836,-0.143457 0.29824,-0.21896 0.17177,-0.0755 0.35487,-0.0755 0.1661,0 0.29446,0.03586 0.12835,0.03398 0.26992,0.107593 V 15.2835 h 0.35487 z m -0.35487,-0.519087 v -1.209944 q -0.14345,-0.06418 -0.25671,-0.08872 -0.11325,-0.02454 -0.24727,-0.02454 -0.29824,0 -0.46435,0.207635 -0.16611,0.207635 -0.16611,0.588928 0,0.37563 0.12836,0.571939 0.12836,0.194421 0.41149,0.194421 0.15101,0 0.30579,-0.06606 0.15479,-0.06795 0.2888,-0.173658 z"
       style="font-size:3.86578083px;line-height:4.9288702px;stroke-width:0.28993356px"
       id="path4530" />
    <path
       d="m 102.60983,15.759172 h -0.40016 v -0.368079 h 0.40016 z m -0.0226,2.461416 h -0.35486 v -2.108437 h 0.35486 z"
       style="font-size:3.86578083px;line-height:4.9288702px;stroke-width:0.28993356px"
       id="path4532" />
    <path
       d="m 105.19206,18.220588 h -0.46813 l -0.84564,-0.923031 -0.23028,0.21896 v 0.704071 h -0.35487 V 15.2835 h 0.35487 v 1.883813 l 1.02496,-1.055162 h 0.44736 l -0.97966,0.973996 z"
       style="font-size:3.86578083px;line-height:4.9288702px;stroke-width:0.28993356px"
       id="path4534" />
    <path
       d="m 107.20422,18.220588 h -0.35298 v -0.224623 q -0.0472,0.03209 -0.12835,0.0906 -0.0793,0.05663 -0.15479,0.0906 -0.0887,0.04341 -0.20386,0.07173 -0.11514,0.0302 -0.26992,0.0302 -0.28503,0 -0.48322,-0.188759 -0.1982,-0.188759 -0.1982,-0.481335 0,-0.239724 0.10193,-0.386956 0.10382,-0.149119 0.29446,-0.234061 0.19254,-0.08494 0.46246,-0.115143 0.26993,-0.0302 0.57949,-0.0453 v -0.05474 q 0,-0.120805 -0.0434,-0.200084 -0.0415,-0.07928 -0.12081,-0.124581 -0.0755,-0.04341 -0.18121,-0.05851 -0.1057,-0.0151 -0.22084,-0.0151 -0.13969,0 -0.31146,0.03775 -0.17177,0.03586 -0.35486,0.105705 h -0.0189 v -0.360529 q 0.10382,-0.02831 0.30013,-0.06229 0.19631,-0.03398 0.38695,-0.03398 0.22274,0 0.38696,0.03775 0.16611,0.03586 0.28691,0.124581 0.11892,0.08683 0.18121,0.224623 0.0623,0.137794 0.0623,0.341654 z m -0.35298,-0.519087 v -0.58704 q -0.16233,0.0094 -0.38318,0.02831 -0.21896,0.01888 -0.34731,0.05474 -0.1529,0.04341 -0.24728,0.135906 -0.0944,0.0906 -0.0944,0.251049 0,0.181209 0.10948,0.273701 0.10948,0.0906 0.33411,0.0906 0.18687,0 0.34165,-0.07173 0.15478,-0.07362 0.28691,-0.175545 z"
       style="font-size:3.86578083px;line-height:4.9288702px;stroke-width:0.28993356px"
       id="path4536" />
    <path
       d="m 109.65431,18.220588 h -0.35486 v -1.200507 q 0,-0.145344 -0.017,-0.271812 -0.017,-0.128356 -0.0623,-0.200085 -0.0472,-0.07928 -0.13591,-0.11703 -0.0887,-0.03964 -0.23028,-0.03964 -0.14535,0 -0.30391,0.07173 -0.15855,0.07173 -0.3039,0.183096 v 1.574249 h -0.35486 v -2.108437 h 0.35486 v 0.234061 q 0.16611,-0.137794 0.34354,-0.215185 0.17744,-0.07739 0.36431,-0.07739 0.34165,0 0.52097,0.205747 0.17932,0.205747 0.17932,0.592703 z"
       style="font-size:3.86578083px;line-height:4.9288702px;stroke-width:0.28993356px"
       id="path4538" />
    <path
       d="m 113.94103,18.220588 h -0.39828 l -0.27559,-0.78335 h -1.21561 l -0.27559,0.78335 h -0.3794 l 1.02307,-2.810619 h 0.49832 z m -0.78901,-1.10424 -0.49267,-1.379827 -0.49454,1.379827 z"
       style="font-size:3.86578083px;line-height:4.9288702px;stroke-width:0.28993356px"
       id="path4540" />
    <path
       d="m 114.69795,18.220588 h -0.35487 V 15.2835 h 0.35487 z"
       style="font-size:3.86578083px;line-height:4.9288702px;stroke-width:0.28993356px"
       id="path4542" />
    <path
       d="m 117.02723,18.220588 h -0.35298 v -0.224623 q -0.0472,0.03209 -0.12835,0.0906 -0.0793,0.05663 -0.15479,0.0906 -0.0887,0.04341 -0.20386,0.07173 -0.11514,0.0302 -0.26992,0.0302 -0.28503,0 -0.48322,-0.188759 -0.1982,-0.188759 -0.1982,-0.481335 0,-0.239724 0.10193,-0.386956 0.10382,-0.149119 0.29446,-0.234061 0.19254,-0.08494 0.46246,-0.115143 0.26993,-0.0302 0.57949,-0.0453 v -0.05474 q 0,-0.120805 -0.0434,-0.200084 -0.0415,-0.07928 -0.12081,-0.124581 -0.0755,-0.04341 -0.18121,-0.05851 -0.1057,-0.0151 -0.22084,-0.0151 -0.13969,0 -0.31146,0.03775 -0.17177,0.03586 -0.35486,0.105705 h -0.0189 v -0.360529 q 0.10382,-0.02831 0.30013,-0.06229 0.19631,-0.03398 0.38695,-0.03398 0.22274,0 0.38696,0.03775 0.16611,0.03586 0.28691,0.124581 0.11892,0.08683 0.18121,0.224623 0.0623,0.137794 0.0623,0.341654 z m -0.35298,-0.519087 v -0.58704 q -0.16233,0.0094 -0.38318,0.02831 -0.21896,0.01888 -0.34731,0.05474 -0.1529,0.04341 -0.24728,0.135906 -0.0944,0.0906 -0.0944,0.251049 0,0.181209 0.10948,0.273701 0.10948,0.0906 0.3341,0.0906 0.18688,0 0.34166,-0.07173 0.15478,-0.07362 0.28691,-0.175545 z"
       style="font-size:3.86578083px;line-height:4.9288702px;stroke-width:0.28993356px"
       id="path4544" />
    <path
       d="m 120.79108,18.220588 h -0.35487 v -1.200507 q 0,-0.135906 -0.0132,-0.262374 -0.0113,-0.126469 -0.051,-0.201972 -0.0434,-0.08117 -0.12458,-0.122694 -0.0812,-0.04153 -0.23407,-0.04153 -0.14911,0 -0.29823,0.0755 -0.14912,0.07362 -0.29824,0.188759 0.006,0.04341 0.009,0.10193 0.004,0.05663 0.004,0.113255 v 1.349626 h -0.35487 v -1.200507 q 0,-0.139681 -0.0132,-0.264262 -0.0113,-0.126468 -0.051,-0.201972 -0.0434,-0.08117 -0.12459,-0.120806 -0.0812,-0.04153 -0.23406,-0.04153 -0.14534,0 -0.29257,0.07173 -0.14535,0.07173 -0.29069,0.183096 v 1.574249 h -0.35487 v -2.108437 h 0.35487 v 0.234061 q 0.16611,-0.137794 0.33033,-0.215185 0.1661,-0.07739 0.35298,-0.07739 0.21518,0 0.3643,0.0906 0.15101,0.09061 0.22462,0.25105 0.21519,-0.181209 0.39262,-0.260488 0.17744,-0.08117 0.37941,-0.08117 0.34731,0 0.51153,0.21141 0.16611,0.209522 0.16611,0.58704 z"
       style="font-size:3.86578083px;line-height:4.9288702px;stroke-width:0.28993356px"
       id="path4546" />
    <path
       d="m 125.36471,18.220588 h -0.37374 v -2.421776 l -0.78147,1.647864 h -0.22273 l -0.7758,-1.647864 v 2.421776 h -0.3492 v -2.810619 h 0.50965 l 0.74937,1.56481 0.72483,-1.56481 h 0.51909 z"
       style="font-size:3.86578083px;line-height:4.9288702px;stroke-width:0.28993356px"
       id="path4548" />
    <path
       d="m 127.8601,17.203177 h -1.55348 q 0,0.194422 0.0585,0.339766 0.0585,0.143457 0.16045,0.235949 0.0981,0.0906 0.23217,0.135906 0.13591,0.0453 0.29824,0.0453 0.21519,0 0.43226,-0.08494 0.21896,-0.08683 0.31145,-0.169883 h 0.0189 v 0.386956 q -0.17932,0.0755 -0.36619,0.126468 -0.18688,0.05097 -0.39262,0.05097 -0.52475,0 -0.81922,-0.283138 -0.29446,-0.285026 -0.29446,-0.807888 0,-0.517199 0.28125,-0.821101 0.28314,-0.303902 0.74371,-0.303902 0.4266,0 0.65688,0.249162 0.23217,0.249161 0.23217,0.707845 z m -0.34542,-0.271812 q -0.002,-0.279363 -0.14157,-0.432258 -0.1378,-0.152895 -0.42094,-0.152895 -0.28502,0 -0.4549,0.167996 -0.168,0.167995 -0.19065,0.417157 z"
       style="font-size:3.86578083px;line-height:4.9288702px;stroke-width:0.28993356px"
       id="path4550" />
    <path
       d="m 128.75671,18.220588 h -0.35487 V 15.2835 h 0.35487 z"
       style="font-size:3.86578083px;line-height:4.9288702px;stroke-width:0.28993356px"
       id="path4552" />
    <path
       d="m 131.08599,18.220588 h -0.35298 v -0.224623 q -0.0472,0.03209 -0.12835,0.0906 -0.0793,0.05663 -0.15478,0.0906 -0.0887,0.04341 -0.20386,0.07173 -0.11515,0.0302 -0.26993,0.0302 -0.28503,0 -0.48322,-0.188759 -0.1982,-0.188759 -0.1982,-0.481335 0,-0.239724 0.10193,-0.386956 0.10382,-0.149119 0.29446,-0.234061 0.19254,-0.08494 0.46246,-0.115143 0.26993,-0.0302 0.57949,-0.0453 v -0.05474 q 0,-0.120805 -0.0434,-0.200084 -0.0415,-0.07928 -0.12081,-0.124581 -0.0755,-0.04341 -0.18121,-0.05851 -0.1057,-0.0151 -0.22084,-0.0151 -0.13968,0 -0.31146,0.03775 -0.17177,0.03586 -0.35486,0.105705 h -0.0189 v -0.360529 q 0.10382,-0.02831 0.30013,-0.06229 0.19631,-0.03398 0.38695,-0.03398 0.22274,0 0.38696,0.03775 0.16611,0.03586 0.28691,0.124581 0.11892,0.08683 0.18121,0.224623 0.0623,0.137794 0.0623,0.341654 z m -0.35298,-0.519087 v -0.58704 q -0.16233,0.0094 -0.38318,0.02831 -0.21896,0.01888 -0.34731,0.05474 -0.1529,0.04341 -0.24728,0.135906 -0.0944,0.0906 -0.0944,0.251049 0,0.181209 0.10948,0.273701 0.10948,0.0906 0.33411,0.0906 0.18687,0 0.34165,-0.07173 0.15478,-0.07362 0.28691,-0.175545 z"
       style="font-size:3.86578083px;line-height:4.9288702px;stroke-width:0.28993356px"
       id="path4554" />
    <path
       d="m 133.56628,16.112151 -1.23071,2.886123 h -0.3794 l 0.39261,-0.879616 -0.83997,-2.006507 h 0.38507 l 0.64744,1.562924 0.6531,-1.562924 z"
       style="font-size:3.86578083px;line-height:4.9288702px;stroke-width:0.28993356px"
       id="path4556" />
    <path
       d="m 135.77853,18.220588 h -0.35486 v -0.234061 q -0.17932,0.141569 -0.34354,0.217072 -0.16422,0.0755 -0.36242,0.0755 -0.33222,0 -0.5172,-0.201972 -0.18498,-0.20386 -0.18498,-0.596478 v -1.368502 h 0.35486 v 1.200507 q 0,0.160445 0.0151,0.275587 0.0151,0.113256 0.0642,0.194422 0.051,0.08305 0.13213,0.120806 0.0812,0.03775 0.23595,0.03775 0.1378,0 0.30013,-0.07173 0.16422,-0.07173 0.30579,-0.183096 v -1.574249 h 0.35486 z"
       style="font-size:3.86578083px;line-height:4.9288702px;stroke-width:0.28993356px"
       id="path4558" />
  </g>
</svg>
