<?xml version="1.0" encoding="UTF-8" standalone="no"?>
<svg
   xmlns:dc="http://purl.org/dc/elements/1.1/"
   xmlns:cc="http://creativecommons.org/ns#"
   xmlns:rdf="http://www.w3.org/1999/02/22-rdf-syntax-ns#"
   xmlns:svg="http://www.w3.org/2000/svg"
   xmlns="http://www.w3.org/2000/svg"
   xmlns:xlink="http://www.w3.org/1999/xlink"
   xmlns:sodipodi="http://sodipodi.sourceforge.net/DTD/sodipodi-0.dtd"
   xmlns:inkscape="http://www.inkscape.org/namespaces/inkscape"
   id="svg8993"
   version="1.1"
   viewBox="0 0 158.75 26.458334"
   height="100"
   width="600"
   inkscape:version="0.91+devel_64bit r14762"
   sodipodi:docname="logo-mcv.svg">
  <sodipodi:namedview
     pagecolor="#ffffff"
     bordercolor="#666666"
     borderopacity="1"
     objecttolerance="10"
     gridtolerance="10"
     guidetolerance="10"
     inkscape:pageopacity="0"
     inkscape:pageshadow="2"
     inkscape:window-width="1920"
     inkscape:window-height="1046"
     id="namedview22"
     showgrid="false"
     inkscape:showpageshadow="false"
     inkscape:zoom="1.3859293"
     inkscape:cx="384.68452"
     inkscape:cy="50"
     inkscape:window-x="-11"
     inkscape:window-y="-11"
     inkscape:window-maximized="1"
     inkscape:current-layer="svg8993" />
  <defs
     id="defs8987">
    <linearGradient
       gradientUnits="userSpaceOnUse"
       y2="242.47702"
       x2="114.39136"
       y1="138.77644"
       x1="116.79678"
       id="linearGradient8946"
       xlink:href="#linearGradient8944"
       gradientTransform="translate(-111.79475,114.61983)" />
    <linearGradient
       id="linearGradient8944">
      <stop
         id="stop8940"
         offset="0"
         style="stop-color:#82d14b;stop-opacity:1" />
      <stop
         id="stop8942"
         offset="1"
         style="stop-color:#58942e;stop-opacity:1" />
    </linearGradient>
    <linearGradient
       gradientUnits="userSpaceOnUse"
       y2="139.04372"
       x2="132.29842"
       y1="166.83975"
       x1="115.72771"
       id="linearGradient8954"
       xlink:href="#linearGradient8952"
       gradientTransform="translate(-111.79475,114.61983)" />
    <linearGradient
       id="linearGradient8952">
      <stop
         id="stop8948"
         offset="0"
         style="stop-color:#f29628;stop-opacity:1;" />
      <stop
         id="stop8950"
         offset="1"
         style="stop-color:#f29628;stop-opacity:0;" />
    </linearGradient>
    <linearGradient
       gradientUnits="userSpaceOnUse"
       y2="206.93018"
       x2="252.30243"
       y1="215.75006"
       x1="90.871643"
       id="linearGradient8962"
       xlink:href="#linearGradient8960"
       gradientTransform="translate(-111.79475,114.61983)" />
    <linearGradient
       id="linearGradient8960">
      <stop
         id="stop8956"
         offset="0"
         style="stop-color:#0d6328;stop-opacity:1;" />
      <stop
         id="stop8958"
         offset="1"
         style="stop-color:#6da482;stop-opacity:1" />
    </linearGradient>
  </defs>
  <metadata
     id="metadata8990">
    <rdf:RDF>
      <cc:Work
         rdf:about="">
        <dc:format>image/svg+xml</dc:format>
        <dc:type
           rdf:resource="http://purl.org/dc/dcmitype/StillImage" />
        <dc:title></dc:title>
      </cc:Work>
    </rdf:RDF>
  </metadata>
  <g
     transform="matrix(0.77419646,0,0,0.77419646,0.63113872,-206.74774)"
     id="layer1">
    <g
       transform="matrix(0.28100712,0,0,0.28100712,19.259546,198.79607)"
       id="g9575">
      <path
         style="fill:url(#linearGradient8962);fill-opacity:1;fill-rule:evenodd;stroke:none;stroke-width:1.10358703px;stroke-linecap:butt;stroke-linejoin:miter;stroke-opacity:1"
         d="m -55.083094,337.95644 c 0,0 23.070398,-13.84199 44.26541,-19.27656 21.194958,-5.43461 43.657999,-7.42733 49.636058,-7.42733 5.978101,0 20.470371,1.26808 29.165731,2.89846 18.14476,4.27625 30.61496,7.78962 34.781495,10.68808 4.16653,2.89846 2.34482,3.38718 -1.7757,2.16201 -4.120505,-1.22516 -39.889465,-10.85738 -67.243676,-8.86471 -27.3541702,1.99272 -44.926081,6.7027 -57.244541,10.86923 -12.31841,4.16653 -22.179369,8.04794 -29.606649,10.9464 -6.107285,2.46801 -7.607518,1.40006 -1.978128,-1.99558 z"
         id="path8309"
         inkscape:connector-curvature="0" />
      <circle
         style="opacity:1;fill:url(#linearGradient8954);fill-opacity:1;stroke:none;stroke-width:3.9735465;stroke-miterlimit:4;stroke-dasharray:none;stroke-opacity:1"
         id="path8307"
         cx="9.0850086"
         cy="272.90079"
         r="6.8167634" />
      <path
         style="fill:url(#linearGradient8946);fill-opacity:1;fill-rule:evenodd;stroke:none;stroke-width:1.10358703px;stroke-linecap:butt;stroke-linejoin:miter;stroke-opacity:1"
         d="m -25.299605,270.70381 c 2.148385,-2.46114 5.818206,-0.74383 3.395636,2.43633 -2.42257,3.18016 -12.958173,19.83666 -12.958173,19.83666 0,0 14.371699,-13.50578 22.497254,-17.53475 7.3073518,-3.96127 15.6250528,-2.34999 14.0468028,3.74632 -1.81157003,6.15924 -5.43461,14.85461 -5.43461,14.85461 0,0 24.4557102,-21.9196 38.5856792,-24.81805 14.130021,-2.89846 -15.579198,41.84648 -15.579198,41.84648 0,0 27.173059,-11.77497 43.476899,-15.57921 8.1519,-1.90212 18.35573,-3.98721 28.0898,-4.49328 9.734065,-0.50606 15.313095,-0.37803 24.137255,1.57916 7.25397,2.21351 9.98509,7.64468 9.17663,13.6492 -0.43358,3.22024 -2.84987,11.70324 -4.71743,15.09546 -1.86757,3.39223 -2.42451,3.06523 -2.63154,1.72046 -0.11038,-0.71696 3.44978,-13.91723 3.30754,-15.8629 0.54241,-6.44512 -5.23273,-10.05115 -10.25502,-11.04182 -4.05243,-1.30334 -12.956975,-1.11312 -22.397305,0.0674 -4.40987,0.55144 -18.20007,3.41099 -27.79553,6.51932 -9.58205,3.10398 -19.13092,7.48154 -23.06134,9.68433 -4.27102,2.63139 -28.2130502,16.84562 -30.8227012,18.05366 -3.757999,1.73963 -4.65265,-0.86831 -3.90584,-2.26985 5.573382,-10.45949 21.4745412,-38.04511 21.7462602,-41.39645 1.29944,-5.47427 -1.51348,-4.376 -2.536108,-3.62309 -0.637542,0.46939 -38.161486,32.12133 -40.101782,32.86455 -1.940293,0.74323 -3.324516,-0.45024 -3.222186,-2.23029 0.008,-3.33935 14.7245758,-28.03042 16.2978358,-31.39145 1.584759,-3.38563 -2.28219,-4.96544 -8.5186068,0.2316 -5.434615,4.52883 -30.831729,30.71337 -34.01162,33.42993 -5.518826,4.71469 -10.265598,2.59284 -7.242414,-2.25972 2.079541,-3.3951 5.549631,-8.5186 8.784949,-13.27518 3.235317,-4.75657 10.645808,-15.15979 11.786254,-17.08722 1.925658,-2.68996 7.869293,-10.47642 9.862609,-12.75221 z"
         id="path8305-3"
         inkscape:connector-curvature="0" />
    </g>
  </g>
  <g
     id="g4611"
     transform="translate(0,-0.52916667)">
    <path
       d="m 52.701821,9.0119047 q 0.344854,0.3789605 0.526755,0.9284532 0.185691,0.5494931 0.185691,1.2467801 0,0.697287 -0.189481,1.25057 -0.18569,0.549492 -0.522965,0.917084 -0.348644,0.38275 -0.826134,0.57602 -0.473701,0.19327 -1.083827,0.19327 -0.594968,0 -1.083827,-0.19706 -0.48507,-0.197059 -0.826134,-0.57223 -0.341065,-0.375171 -0.526755,-0.920874 -0.181901,-0.545703 -0.181901,-1.24678 0,-0.689708 0.181901,-1.2354113 0.181901,-0.5494927 0.530545,-0.939822 0.333485,-0.3713813 0.826133,-0.5684408 0.496439,-0.1970595 1.080038,-0.1970595 0.606337,0 1.087617,0.2008491 0.485069,0.1970595 0.822344,0.5646512 z m -0.06821,2.1752333 q 0,-1.098985 -0.492649,-1.6939535 -0.492648,-0.5987576 -1.345309,-0.5987576 -0.860241,0 -1.352889,0.5987576 -0.48886,0.5949685 -0.48886,1.6939535 0,1.110354 0.500228,1.701533 0.500228,0.587388 1.341521,0.587388 0.841292,0 1.33773,-0.587388 0.500228,-0.591179 0.500228,-1.701533 z"
       style="font-style:normal;font-variant:normal;font-weight:normal;font-stretch:normal;font-size:7.76111126px;line-height:4.06400013px;font-family:sans-serif;-inkscape-font-specification:'sans-serif, Normal';font-variant-ligatures:normal;font-variant-caps:normal;font-variant-numeric:normal;font-feature-settings:normal;text-align:start;letter-spacing:0px;word-spacing:0px;writing-mode:lr-tb;text-anchor:start;fill:#000000;fill-opacity:1;stroke:none;stroke-width:0.1023384px;stroke-linecap:butt;stroke-linejoin:miter;stroke-opacity:1"
       id="path4386"
       inkscape:connector-curvature="0" />
    <path
       d="m 58.08685,14.006604 h -0.712446 v -2.410189 q 0,-0.291799 -0.03411,-0.545703 -0.03411,-0.257693 -0.125057,-0.401698 -0.09474,-0.159163 -0.272851,-0.234955 -0.178112,-0.07958 -0.462332,-0.07958 -0.2918,0 -0.610126,0.144005 -0.318327,0.144005 -0.610127,0.367592 v 3.16053 H 54.547358 V 9.7736153 h 0.712446 v 0.4699107 q 0.333485,-0.2766408 0.689708,-0.4320147 0.356223,-0.1553738 0.731394,-0.1553738 0.685919,0 1.045931,0.4130665 0.360013,0.413067 0.360013,1.189936 z"
       style="font-style:normal;font-variant:normal;font-weight:normal;font-stretch:normal;font-size:7.76111126px;line-height:4.06400013px;font-family:sans-serif;-inkscape-font-specification:'sans-serif, Normal';font-variant-ligatures:normal;font-variant-caps:normal;font-variant-numeric:normal;font-feature-settings:normal;text-align:start;letter-spacing:0px;word-spacing:0px;writing-mode:lr-tb;text-anchor:start;fill:#000000;fill-opacity:1;stroke:none;stroke-width:0.1023384px;stroke-linecap:butt;stroke-linejoin:miter;stroke-opacity:1"
       id="path4388"
       inkscape:connector-curvature="0" />
    <path
       d="m 63.001968,11.964007 h -3.118845 q 0,0.390329 0.117478,0.682129 0.117478,0.28801 0.322116,0.473701 0.19706,0.181901 0.466122,0.272851 0.272851,0.09095 0.598757,0.09095 0.432015,0 0.86782,-0.170533 0.439594,-0.174321 0.625285,-0.341064 h 0.0379 v 0.776869 q -0.360013,0.151584 -0.735184,0.253904 -0.375171,0.102319 -0.788238,0.102319 -1.05351,0 -1.644688,-0.568441 -0.591179,-0.57223 -0.591179,-1.621951 0,-1.038352 0.564652,-1.648478 0.56844,-0.6101265 1.493104,-0.6101265 0.856451,0 1.318783,0.5002275 0.466121,0.500228 0.466121,1.421102 z M 62.30847,11.418304 q -0.0038,-0.560862 -0.28422,-0.86782 -0.276641,-0.306958 -0.845082,-0.306958 -0.57223,0 -0.913295,0.337275 -0.337275,0.337275 -0.38275,0.837503 z"
       style="font-style:normal;font-variant:normal;font-weight:normal;font-stretch:normal;font-size:7.76111126px;line-height:4.06400013px;font-family:sans-serif;-inkscape-font-specification:'sans-serif, Normal';font-variant-ligatures:normal;font-variant-caps:normal;font-variant-numeric:normal;font-feature-settings:normal;text-align:start;letter-spacing:0px;word-spacing:0px;writing-mode:lr-tb;text-anchor:start;fill:#000000;fill-opacity:1;stroke:none;stroke-width:0.1023384px;stroke-linecap:butt;stroke-linejoin:miter;stroke-opacity:1"
       id="path4390"
       inkscape:connector-curvature="0" />
    <path
       d="m 70.967717,12.396022 q 0,0.329696 -0.155373,0.651812 -0.151585,0.322117 -0.428226,0.545703 -0.303168,0.242535 -0.708656,0.378961 -0.401698,0.136426 -0.970139,0.136426 -0.610126,0 -1.098985,-0.113689 -0.48507,-0.113688 -0.989087,-0.337274 v -0.939823 h 0.05305 q 0.428226,0.356223 0.989087,0.549493 0.560862,0.19327 1.05351,0.19327 0.697288,0 1.083827,-0.261483 0.39033,-0.261482 0.39033,-0.697287 0,-0.375171 -0.185691,-0.553282 -0.181901,-0.178112 -0.557072,-0.276642 -0.28422,-0.07579 -0.617705,-0.125057 -0.329696,-0.04926 -0.701077,-0.125056 -0.750342,-0.159164 -1.114144,-0.541914 -0.360013,-0.38654 -0.360013,-1.0042454 0,-0.7086561 0.598758,-1.1596191 0.598757,-0.4547526 1.519631,-0.4547526 0.594968,0 1.091407,0.1136881 0.496438,0.1136882 0.879188,0.2804308 v 0.8867676 h -0.05305 Q 70.36517,9.2695978 69.838415,9.0914864 69.31545,8.9095853 68.765957,8.9095853 q -0.602547,0 -0.970139,0.250114 -0.363802,0.2501139 -0.363802,0.6442328 0,0.3524329 0.181901,0.5532819 0.181901,0.20085 0.640443,0.306958 0.242535,0.05305 0.689708,0.128847 0.447174,0.07579 0.757921,0.155374 0.629075,0.166742 0.947402,0.504017 0.318326,0.337275 0.318326,0.943612 z"
       style="font-style:normal;font-variant:normal;font-weight:normal;font-stretch:normal;font-size:7.76111126px;line-height:4.06400013px;font-family:sans-serif;-inkscape-font-specification:'sans-serif, Normal';font-variant-ligatures:normal;font-variant-caps:normal;font-variant-numeric:normal;font-feature-settings:normal;text-align:start;letter-spacing:0px;word-spacing:0px;writing-mode:lr-tb;text-anchor:start;fill:#000000;fill-opacity:1;stroke:none;stroke-width:0.1023384px;stroke-linecap:butt;stroke-linejoin:miter;stroke-opacity:1"
       id="path4392"
       inkscape:connector-curvature="0" />
    <path
       d="m 74.313938,13.968708 q -0.200849,0.05306 -0.439594,0.08716 -0.234956,0.03411 -0.420646,0.03411 -0.648023,0 -0.985297,-0.348644 Q 72.131126,13.39269 72.131126,12.6234 v -2.251025 h -0.48128 V 9.7736153 h 0.48128 V 8.5571521 h 0.712445 v 1.2164632 h 1.470367 v 0.5987577 h -1.470367 v 1.928909 q 0,0.333485 0.01516,0.522965 0.01516,0.185691 0.106109,0.348644 0.08337,0.151584 0.227376,0.223587 0.147795,0.06821 0.447173,0.06821 0.174322,0 0.363803,-0.04927 0.18948,-0.05306 0.272851,-0.08716 h 0.0379 z"
       style="font-style:normal;font-variant:normal;font-weight:normal;font-stretch:normal;font-size:7.76111126px;line-height:4.06400013px;font-family:sans-serif;-inkscape-font-specification:'sans-serif, Normal';font-variant-ligatures:normal;font-variant-caps:normal;font-variant-numeric:normal;font-feature-settings:normal;text-align:start;letter-spacing:0px;word-spacing:0px;writing-mode:lr-tb;text-anchor:start;fill:#000000;fill-opacity:1;stroke:none;stroke-width:0.1023384px;stroke-linecap:butt;stroke-linejoin:miter;stroke-opacity:1"
       id="path4394"
       inkscape:connector-curvature="0" />
    <path
       d="m 78.785673,11.892005 q 0,1.034562 -0.530544,1.633319 -0.530545,0.598758 -1.421102,0.598758 -0.898137,0 -1.428681,-0.598758 -0.526755,-0.598757 -0.526755,-1.633319 0,-1.034563 0.526755,-1.63332 0.530544,-0.6025475 1.428681,-0.6025475 0.890557,0 1.421102,0.6025475 0.530544,0.598757 0.530544,1.63332 z m -0.735183,0 q 0,-0.822345 -0.322116,-1.220253 -0.322117,-0.401698 -0.894347,-0.401698 -0.57981,0 -0.901926,0.401698 -0.318327,0.397908 -0.318327,1.220253 0,0.795817 0.322116,1.208884 0.322117,0.409277 0.898137,0.409277 0.568441,0 0.890557,-0.405488 0.325906,-0.409277 0.325906,-1.212673 z"
       style="font-style:normal;font-variant:normal;font-weight:normal;font-stretch:normal;font-size:7.76111126px;line-height:4.06400013px;font-family:sans-serif;-inkscape-font-specification:'sans-serif, Normal';font-variant-ligatures:normal;font-variant-caps:normal;font-variant-numeric:normal;font-feature-settings:normal;text-align:start;letter-spacing:0px;word-spacing:0px;writing-mode:lr-tb;text-anchor:start;fill:#000000;fill-opacity:1;stroke:none;stroke-width:0.1023384px;stroke-linecap:butt;stroke-linejoin:miter;stroke-opacity:1"
       id="path4396"
       inkscape:connector-curvature="0" />
    <path
       d="m 83.617419,11.83895 q 0,0.515386 -0.147795,0.943612 -0.147794,0.424436 -0.416856,0.720025 -0.250114,0.28043 -0.591179,0.435804 -0.337274,0.151585 -0.716235,0.151585 -0.329696,0 -0.598758,-0.072 -0.265272,-0.072 -0.541913,-0.223587 v 1.773535 H 79.892237 V 9.7736153 h 0.712446 v 0.4433837 q 0.28422,-0.238745 0.636654,-0.3979084 0.356222,-0.1629531 0.757921,-0.1629531 0.7655,0 1.189936,0.5798095 0.428225,0.57602 0.428225,1.603003 z m -0.735183,0.01895 q 0,-0.7655 -0.261483,-1.144461 -0.261483,-0.37896 -0.803396,-0.37896 -0.306958,0 -0.617706,0.132636 -0.310748,0.132636 -0.594968,0.348644 v 2.39882 q 0.303168,0.136426 0.519176,0.18569 0.219797,0.04927 0.496438,0.04927 0.594968,0 0.928453,-0.401698 0.333486,-0.401698 0.333486,-1.189936 z"
       style="font-style:normal;font-variant:normal;font-weight:normal;font-stretch:normal;font-size:7.76111126px;line-height:4.06400013px;font-family:sans-serif;-inkscape-font-specification:'sans-serif, Normal';font-variant-ligatures:normal;font-variant-caps:normal;font-variant-numeric:normal;font-feature-settings:normal;text-align:start;letter-spacing:0px;word-spacing:0px;writing-mode:lr-tb;text-anchor:start;fill:#000000;fill-opacity:1;stroke:none;stroke-width:0.1023384px;stroke-linecap:butt;stroke-linejoin:miter;stroke-opacity:1"
       id="path4398"
       inkscape:connector-curvature="0" />
    <path
       d="m 92.181925,14.006604 h -0.973928 l -1.887223,-2.243446 h -1.0573 v 2.243446 H 87.513132 V 8.3638822 h 1.580265 q 0.511597,0 0.852661,0.068213 0.341065,0.064423 0.613916,0.2349555 0.306958,0.1932699 0.477491,0.4888591 0.174321,0.2917996 0.174321,0.7427626 0,0.6101266 -0.306958,1.0231936 -0.306958,0.409277 -0.845081,0.617705 z M 90.427338,9.9517267 q 0,-0.2425347 -0.08716,-0.4282253 Q 90.256806,9.3340211 90.059747,9.2051745 89.896794,9.095276 89.673207,9.0535903 89.44962,9.0081151 89.146452,9.0081151 h -0.882978 v 2.1297579 h 0.757921 q 0.356223,0 0.621495,-0.06063 0.265272,-0.06442 0.450963,-0.234955 0.170532,-0.159163 0.250114,-0.363802 0.08337,-0.208428 0.08337,-0.5267553 z"
       style="font-style:normal;font-variant:normal;font-weight:normal;font-stretch:normal;font-size:7.76111126px;line-height:4.06400013px;font-family:sans-serif;-inkscape-font-specification:'sans-serif, Normal';font-variant-ligatures:normal;font-variant-caps:normal;font-variant-numeric:normal;font-feature-settings:normal;text-align:start;letter-spacing:0px;word-spacing:0px;writing-mode:lr-tb;text-anchor:start;fill:#000000;fill-opacity:1;stroke:none;stroke-width:0.1023384px;stroke-linecap:butt;stroke-linejoin:miter;stroke-opacity:1"
       id="path4400"
       inkscape:connector-curvature="0" />
    <path
       d="M 96.214065,11.964007 H 93.09522 q 0,0.390329 0.117478,0.682129 0.117478,0.28801 0.322116,0.473701 0.19706,0.181901 0.466122,0.272851 0.272851,0.09095 0.598757,0.09095 0.432015,0 0.86782,-0.170533 0.439594,-0.174321 0.625285,-0.341064 h 0.0379 v 0.776869 q -0.360013,0.151584 -0.735183,0.253904 -0.375171,0.102319 -0.788238,0.102319 -1.053511,0 -1.644689,-0.568441 -0.591178,-0.57223 -0.591178,-1.621951 0,-1.038352 0.564651,-1.648478 0.568441,-0.6101265 1.493104,-0.6101265 0.856451,0 1.318783,0.5002275 0.466121,0.500228 0.466121,1.421102 z m -0.693498,-0.545703 q -0.0038,-0.560862 -0.28422,-0.86782 -0.276641,-0.306958 -0.845082,-0.306958 -0.57223,0 -0.913295,0.337275 -0.337275,0.337275 -0.38275,0.837503 z"
       style="font-style:normal;font-variant:normal;font-weight:normal;font-stretch:normal;font-size:7.76111126px;line-height:4.06400013px;font-family:sans-serif;-inkscape-font-specification:'sans-serif, Normal';font-variant-ligatures:normal;font-variant-caps:normal;font-variant-numeric:normal;font-feature-settings:normal;text-align:start;letter-spacing:0px;word-spacing:0px;writing-mode:lr-tb;text-anchor:start;fill:#000000;fill-opacity:1;stroke:none;stroke-width:0.1023384px;stroke-linecap:butt;stroke-linejoin:miter;stroke-opacity:1"
       id="path4402"
       inkscape:connector-curvature="0" />
    <path
       d="m 100.31821,12.786351 q 0,0.57981 -0.481283,0.951191 -0.47749,0.371382 -1.307414,0.371382 -0.469911,0 -0.86403,-0.109899 -0.390329,-0.113688 -0.655601,-0.246324 v -0.799607 h 0.0379 q 0.337275,0.253904 0.750342,0.405488 0.413067,0.147794 0.792027,0.147794 0.469911,0 0.735183,-0.151584 0.265273,-0.151584 0.265273,-0.47749 0,-0.250114 -0.144005,-0.378961 -0.144005,-0.128846 -0.553282,-0.219797 -0.151585,-0.03411 -0.397909,-0.07958 -0.242535,-0.04548 -0.443384,-0.09853 -0.557072,-0.147795 -0.792027,-0.432015 -0.231166,-0.28801 -0.231166,-0.704867 0,-0.261482 0.106109,-0.492648 0.109898,-0.231166 0.329695,-0.413067 0.212218,-0.1781118 0.538124,-0.2804311 0.329696,-0.1061089 0.735184,-0.1061089 0.37896,0 0.7655,0.09474 0.390329,0.09095 0.648014,0.2235867 v 0.7617103 h -0.0379 q -0.272849,-0.200849 -0.663179,-0.337274 -0.390329,-0.140216 -0.7655,-0.140216 -0.390329,0 -0.659391,0.151584 -0.269062,0.147795 -0.269062,0.443384 0,0.261483 0.162953,0.394119 0.159163,0.132636 0.515386,0.216008 0.19706,0.04547 0.439594,0.09095 0.246325,0.04547 0.409278,0.08337 0.496438,0.113689 0.765501,0.39033 0.26906,0.280431 0.26906,0.742762 z"
       style="font-style:normal;font-variant:normal;font-weight:normal;font-stretch:normal;font-size:7.76111126px;line-height:4.06400013px;font-family:sans-serif;-inkscape-font-specification:'sans-serif, Normal';font-variant-ligatures:normal;font-variant-caps:normal;font-variant-numeric:normal;font-feature-settings:normal;text-align:start;letter-spacing:0px;word-spacing:0px;writing-mode:lr-tb;text-anchor:start;fill:#000000;fill-opacity:1;stroke:none;stroke-width:0.1023384px;stroke-linecap:butt;stroke-linejoin:miter;stroke-opacity:1"
       id="path4404"
       inkscape:connector-curvature="0" />
    <path
       d="m 104.9491,11.892005 q 0,1.034562 -0.53054,1.633319 -0.53054,0.598758 -1.4211,0.598758 -0.89814,0 -1.42868,-0.598758 -0.52676,-0.598757 -0.52676,-1.633319 0,-1.034563 0.52676,-1.63332 0.53054,-0.6025475 1.42868,-0.6025475 0.89056,0 1.4211,0.6025475 0.53054,0.598757 0.53054,1.63332 z m -0.73518,0 q 0,-0.822345 -0.32212,-1.220253 -0.32211,-0.401698 -0.89434,-0.401698 -0.57981,0 -0.90193,0.401698 -0.31832,0.397908 -0.31832,1.220253 0,0.795817 0.32211,1.208884 0.32212,0.409277 0.89814,0.409277 0.56844,0 0.89056,-0.405488 0.3259,-0.409277 0.3259,-1.212673 z"
       style="font-style:normal;font-variant:normal;font-weight:normal;font-stretch:normal;font-size:7.76111126px;line-height:4.06400013px;font-family:sans-serif;-inkscape-font-specification:'sans-serif, Normal';font-variant-ligatures:normal;font-variant-caps:normal;font-variant-numeric:normal;font-feature-settings:normal;text-align:start;letter-spacing:0px;word-spacing:0px;writing-mode:lr-tb;text-anchor:start;fill:#000000;fill-opacity:1;stroke:none;stroke-width:0.1023384px;stroke-linecap:butt;stroke-linejoin:miter;stroke-opacity:1"
       id="path4406"
       inkscape:connector-curvature="0" />
    <path
       d="m 109.56485,14.006604 h -0.71245 v -0.469911 q -0.36001,0.284221 -0.68971,0.435805 -0.32969,0.151584 -0.7276,0.151584 -0.66697,0 -1.03835,-0.405488 -0.37138,-0.409277 -0.37138,-1.197515 V 9.7736153 h 0.71244 v 2.4101887 q 0,0.322117 0.0303,0.553282 0.0303,0.227377 0.12884,0.39033 0.10232,0.166742 0.26528,0.242535 0.16295,0.07579 0.4737,0.07579 0.27664,0 0.60254,-0.144005 0.3297,-0.144005 0.61392,-0.367592 V 9.7736153 h 0.71245 z"
       style="font-style:normal;font-variant:normal;font-weight:normal;font-stretch:normal;font-size:7.76111126px;line-height:4.06400013px;font-family:sans-serif;-inkscape-font-specification:'sans-serif, Normal';font-variant-ligatures:normal;font-variant-caps:normal;font-variant-numeric:normal;font-feature-settings:normal;text-align:start;letter-spacing:0px;word-spacing:0px;writing-mode:lr-tb;text-anchor:start;fill:#000000;fill-opacity:1;stroke:none;stroke-width:0.1023384px;stroke-linecap:butt;stroke-linejoin:miter;stroke-opacity:1"
       id="path4408"
       inkscape:connector-curvature="0" />
    <path
       d="m 113.60835,10.550484 h -0.0379 q -0.15917,-0.0379 -0.31075,-0.05305 -0.14779,-0.01895 -0.35243,-0.01895 -0.3297,0 -0.63666,0.147794 -0.30695,0.144005 -0.59117,0.375171 v 3.005157 H 110.967 V 9.7736153 h 0.71245 V 10.3989 q 0.42443,-0.341064 0.74655,-0.4812797 0.3259,-0.144005 0.66318,-0.144005 0.18569,0 0.26906,0.011369 0.0834,0.00758 0.25011,0.034106 z"
       style="font-style:normal;font-variant:normal;font-weight:normal;font-stretch:normal;font-size:7.76111126px;line-height:4.06400013px;font-family:sans-serif;-inkscape-font-specification:'sans-serif, Normal';font-variant-ligatures:normal;font-variant-caps:normal;font-variant-numeric:normal;font-feature-settings:normal;text-align:start;letter-spacing:0px;word-spacing:0px;writing-mode:lr-tb;text-anchor:start;fill:#000000;fill-opacity:1;stroke:none;stroke-width:0.1023384px;stroke-linecap:butt;stroke-linejoin:miter;stroke-opacity:1"
       id="path4410"
       inkscape:connector-curvature="0" />
    <path
       d="m 117.4169,13.741332 q -0.35622,0.170532 -0.67834,0.265272 -0.31832,0.09474 -0.67833,0.09474 -0.45855,0 -0.8413,-0.132636 -0.38275,-0.136426 -0.6556,-0.409277 -0.27664,-0.272852 -0.42822,-0.689708 -0.15159,-0.416857 -0.15159,-0.973929 0,-1.038352 0.56844,-1.62953 0.57223,-0.5911784 1.50827,-0.5911784 0.3638,0 0.71244,0.1023193 0.35243,0.1023193 0.64423,0.2501141 v 0.792027 h -0.0379 q -0.32591,-0.253903 -0.67455,-0.390329 -0.34486,-0.136426 -0.67455,-0.136426 -0.60634,0 -0.95877,0.409278 -0.34865,0.405487 -0.34865,1.193725 0,0.7655 0.34107,1.178567 0.34485,0.409278 0.96635,0.409278 0.21601,0 0.43959,-0.05684 0.22359,-0.05684 0.4017,-0.147795 0.15537,-0.07958 0.2918,-0.166743 0.13643,-0.09095 0.21601,-0.155373 h 0.0379 z"
       style="font-style:normal;font-variant:normal;font-weight:normal;font-stretch:normal;font-size:7.76111126px;line-height:4.06400013px;font-family:sans-serif;-inkscape-font-specification:'sans-serif, Normal';font-variant-ligatures:normal;font-variant-caps:normal;font-variant-numeric:normal;font-feature-settings:normal;text-align:start;letter-spacing:0px;word-spacing:0px;writing-mode:lr-tb;text-anchor:start;fill:#000000;fill-opacity:1;stroke:none;stroke-width:0.1023384px;stroke-linecap:butt;stroke-linejoin:miter;stroke-opacity:1"
       id="path4412"
       inkscape:connector-curvature="0" />
    <path
       d="m 121.87727,11.964007 h -3.11884 q 0,0.390329 0.11748,0.682129 0.11747,0.28801 0.32211,0.473701 0.19706,0.181901 0.46612,0.272851 0.27286,0.09095 0.59876,0.09095 0.43202,0 0.86782,-0.170533 0.4396,-0.174321 0.62529,-0.341064 h 0.0379 v 0.776869 q -0.36001,0.151584 -0.73518,0.253904 -0.37517,0.102319 -0.78824,0.102319 -1.05351,0 -1.64469,-0.568441 -0.59118,-0.57223 -0.59118,-1.621951 0,-1.038352 0.56465,-1.648478 0.56845,-0.6101265 1.49311,-0.6101265 0.85645,0 1.31878,0.5002275 0.46612,0.500228 0.46612,1.421102 z m -0.69349,-0.545703 q -0.004,-0.560862 -0.28422,-0.86782 -0.27665,-0.306958 -0.84509,-0.306958 -0.57223,0 -0.91329,0.337275 -0.33728,0.337275 -0.38275,0.837503 z"
       style="font-style:normal;font-variant:normal;font-weight:normal;font-stretch:normal;font-size:7.76111126px;line-height:4.06400013px;font-family:sans-serif;-inkscape-font-specification:'sans-serif, Normal';font-variant-ligatures:normal;font-variant-caps:normal;font-variant-numeric:normal;font-feature-settings:normal;text-align:start;letter-spacing:0px;word-spacing:0px;writing-mode:lr-tb;text-anchor:start;fill:#000000;fill-opacity:1;stroke:none;stroke-width:0.1023384px;stroke-linecap:butt;stroke-linejoin:miter;stroke-opacity:1"
       id="path4414"
       inkscape:connector-curvature="0" />
    <path
       d="m 130.10071,13.597327 q -0.20843,0.09095 -0.37896,0.170532 -0.16674,0.07958 -0.43959,0.166743 -0.23117,0.072 -0.50402,0.121267 -0.26906,0.05306 -0.59497,0.05306 -0.61391,0 -1.11793,-0.170533 -0.50023,-0.174322 -0.87161,-0.541913 -0.3638,-0.360013 -0.56844,-0.913295 -0.20464,-0.557072 -0.20464,-1.292255 0,-0.697288 0.19706,-1.2467805 0.19706,-0.5494927 0.56844,-0.9284532 0.36001,-0.3675917 0.86782,-0.5608616 0.5116,-0.1932698 1.13309,-0.1932698 0.45475,0 0.90572,0.1098985 0.45475,0.1098985 1.00803,0.3865397 v 0.8905572 h -0.0568 q -0.46612,-0.3903293 -0.92467,-0.5684407 -0.45854,-0.1781115 -0.9815,-0.1781115 -0.42823,0 -0.77308,0.1402154 -0.34107,0.1364258 -0.61013,0.4282254 -0.26148,0.2842204 -0.40928,0.7200251 -0.144,0.432015 -0.144,1.000456 0,0.594968 0.15916,1.023193 0.16295,0.428225 0.41686,0.697287 0.26527,0.280431 0.6177,0.416857 0.35623,0.132636 0.75035,0.132636 0.54191,0 1.01561,-0.185691 0.4737,-0.18569 0.88677,-0.557072 h 0.053 z"
       style="font-style:normal;font-variant:normal;font-weight:normal;font-stretch:normal;font-size:7.76111126px;line-height:4.06400013px;font-family:sans-serif;-inkscape-font-specification:'sans-serif, Normal';font-variant-ligatures:normal;font-variant-caps:normal;font-variant-numeric:normal;font-feature-settings:normal;text-align:start;letter-spacing:0px;word-spacing:0px;writing-mode:lr-tb;text-anchor:start;fill:#000000;fill-opacity:1;stroke:none;stroke-width:0.1023384px;stroke-linecap:butt;stroke-linejoin:miter;stroke-opacity:1"
       id="path4416"
       inkscape:connector-curvature="0" />
    <path
       d="m 134.65582,11.964007 h -3.11884 q 0,0.390329 0.11748,0.682129 0.11747,0.28801 0.32211,0.473701 0.19706,0.181901 0.46612,0.272851 0.27285,0.09095 0.59876,0.09095 0.43202,0 0.86782,-0.170533 0.43959,-0.174321 0.62529,-0.341064 h 0.0379 v 0.776869 q -0.36001,0.151584 -0.73518,0.253904 -0.37517,0.102319 -0.78824,0.102319 -1.05351,0 -1.64469,-0.568441 -0.59118,-0.57223 -0.59118,-1.621951 0,-1.038352 0.56465,-1.648478 0.56844,-0.6101265 1.49311,-0.6101265 0.85645,0 1.31878,0.5002275 0.46612,0.500228 0.46612,1.421102 z m -0.6935,-0.545703 q -0.004,-0.560862 -0.28422,-0.86782 -0.27664,-0.306958 -0.84508,-0.306958 -0.57223,0 -0.91329,0.337275 -0.33728,0.337275 -0.38275,0.837503 z"
       style="font-style:normal;font-variant:normal;font-weight:normal;font-stretch:normal;font-size:7.76111126px;line-height:4.06400013px;font-family:sans-serif;-inkscape-font-specification:'sans-serif, Normal';font-variant-ligatures:normal;font-variant-caps:normal;font-variant-numeric:normal;font-feature-settings:normal;text-align:start;letter-spacing:0px;word-spacing:0px;writing-mode:lr-tb;text-anchor:start;fill:#000000;fill-opacity:1;stroke:none;stroke-width:0.1023384px;stroke-linecap:butt;stroke-linejoin:miter;stroke-opacity:1"
       id="path4418"
       inkscape:connector-curvature="0" />
    <path
       d="m 139.27535,14.006604 h -0.71245 v -2.410189 q 0,-0.291799 -0.0341,-0.545703 -0.0341,-0.257693 -0.12505,-0.401698 -0.0947,-0.159163 -0.27285,-0.234955 -0.17812,-0.07958 -0.46234,-0.07958 -0.2918,0 -0.61012,0.144005 -0.31833,0.144005 -0.61013,0.367592 v 3.16053 h -0.71244 V 9.7736153 h 0.71244 v 0.4699107 q 0.33349,-0.2766408 0.68971,-0.4320147 0.35622,-0.1553738 0.73139,-0.1553738 0.68592,0 1.04593,0.4130665 0.36002,0.413067 0.36002,1.189936 z"
       style="font-style:normal;font-variant:normal;font-weight:normal;font-stretch:normal;font-size:7.76111126px;line-height:4.06400013px;font-family:sans-serif;-inkscape-font-specification:'sans-serif, Normal';font-variant-ligatures:normal;font-variant-caps:normal;font-variant-numeric:normal;font-feature-settings:normal;text-align:start;letter-spacing:0px;word-spacing:0px;writing-mode:lr-tb;text-anchor:start;fill:#000000;fill-opacity:1;stroke:none;stroke-width:0.1023384px;stroke-linecap:butt;stroke-linejoin:miter;stroke-opacity:1"
       id="path4420"
       inkscape:connector-curvature="0" />
    <path
       d="m 142.84516,13.968708 q -0.20085,0.05306 -0.4396,0.08716 -0.23495,0.03411 -0.42064,0.03411 -0.64803,0 -0.9853,-0.348644 -0.33727,-0.348644 -0.33727,-1.117934 v -2.251025 h -0.48128 V 9.7736153 h 0.48128 V 8.5571521 h 0.71244 v 1.2164632 h 1.47037 v 0.5987577 h -1.47037 v 1.928909 q 0,0.333485 0.0152,0.522965 0.0152,0.185691 0.10611,0.348644 0.0834,0.151584 0.22737,0.223587 0.1478,0.06821 0.44718,0.06821 0.17432,0 0.3638,-0.04927 0.18948,-0.05306 0.27285,-0.08716 h 0.0379 z"
       style="font-style:normal;font-variant:normal;font-weight:normal;font-stretch:normal;font-size:7.76111126px;line-height:4.06400013px;font-family:sans-serif;-inkscape-font-specification:'sans-serif, Normal';font-variant-ligatures:normal;font-variant-caps:normal;font-variant-numeric:normal;font-feature-settings:normal;text-align:start;letter-spacing:0px;word-spacing:0px;writing-mode:lr-tb;text-anchor:start;fill:#000000;fill-opacity:1;stroke:none;stroke-width:0.1023384px;stroke-linecap:butt;stroke-linejoin:miter;stroke-opacity:1"
       id="path4422"
       inkscape:connector-curvature="0" />
    <path
       d="m 146.35055,10.550484 h -0.0379 q -0.15916,-0.0379 -0.31075,-0.05305 -0.14779,-0.01895 -0.35243,-0.01895 -0.3297,0 -0.63666,0.147794 -0.30695,0.144005 -0.59117,0.375171 v 3.005157 h -0.71245 V 9.7736153 h 0.71245 V 10.3989 q 0.42443,-0.341064 0.74655,-0.4812797 0.3259,-0.144005 0.66318,-0.144005 0.18569,0 0.26906,0.011369 0.0834,0.00758 0.25012,0.034106 z"
       style="font-style:normal;font-variant:normal;font-weight:normal;font-stretch:normal;font-size:7.76111126px;line-height:4.06400013px;font-family:sans-serif;-inkscape-font-specification:'sans-serif, Normal';font-variant-ligatures:normal;font-variant-caps:normal;font-variant-numeric:normal;font-feature-settings:normal;text-align:start;letter-spacing:0px;word-spacing:0px;writing-mode:lr-tb;text-anchor:start;fill:#000000;fill-opacity:1;stroke:none;stroke-width:0.1023384px;stroke-linecap:butt;stroke-linejoin:miter;stroke-opacity:1"
       id="path4424"
       inkscape:connector-curvature="0" />
    <path
       d="m 150.57216,11.964007 h -3.11885 q 0,0.390329 0.11748,0.682129 0.11748,0.28801 0.32212,0.473701 0.19706,0.181901 0.46612,0.272851 0.27285,0.09095 0.59876,0.09095 0.43201,0 0.86782,-0.170533 0.43959,-0.174321 0.62528,-0.341064 h 0.0379 v 0.776869 q -0.36002,0.151584 -0.73519,0.253904 -0.37517,0.102319 -0.78823,0.102319 -1.05351,0 -1.64469,-0.568441 -0.59118,-0.57223 -0.59118,-1.621951 0,-1.038352 0.56465,-1.648478 0.56844,-0.6101265 1.4931,-0.6101265 0.85646,0 1.31879,0.5002275 0.46612,0.500228 0.46612,1.421102 z m -0.6935,-0.545703 q -0.004,-0.560862 -0.28422,-0.86782 -0.27664,-0.306958 -0.84508,-0.306958 -0.57223,0 -0.9133,0.337275 -0.33727,0.337275 -0.38275,0.837503 z"
       style="font-style:normal;font-variant:normal;font-weight:normal;font-stretch:normal;font-size:7.76111126px;line-height:4.06400013px;font-family:sans-serif;-inkscape-font-specification:'sans-serif, Normal';font-variant-ligatures:normal;font-variant-caps:normal;font-variant-numeric:normal;font-feature-settings:normal;text-align:start;letter-spacing:0px;word-spacing:0px;writing-mode:lr-tb;text-anchor:start;fill:#000000;fill-opacity:1;stroke:none;stroke-width:0.1023384px;stroke-linecap:butt;stroke-linejoin:miter;stroke-opacity:1"
       id="path4426"
       inkscape:connector-curvature="0" />
    <path
       d="m 49.607674,15.859595 h -0.02379 q -0.07376,-0.02142 -0.192734,-0.04283 -0.118971,-0.02379 -0.20939,-0.02379 -0.287912,0 -0.41878,0.128489 -0.12849,0.12611 -0.12849,0.459231 v 0.09042 h 0.806628 v 0.37595 h -0.792351 v 2.281878 H 48.201428 V 16.84706 H 47.89924 v -0.37595 h 0.302188 v -0.08804 q 0,-0.473508 0.235564,-0.725728 0.235564,-0.2546 0.680518,-0.2546 0.149905,0 0.268876,0.01428 0.121352,0.01428 0.221288,0.03331 z"
       style="font-style:normal;font-variant:normal;font-weight:normal;font-stretch:normal;font-size:medium;line-height:4.06400013px;font-family:sans-serif;-inkscape-font-specification:'sans-serif, Normal';font-variant-ligatures:normal;font-variant-caps:normal;font-variant-numeric:normal;font-feature-settings:normal;text-align:start;letter-spacing:0px;word-spacing:0px;writing-mode:lr-tb;text-anchor:start;fill:#000000;fill-opacity:1;stroke:none;stroke-width:0.1023384px;stroke-linecap:butt;stroke-linejoin:miter;stroke-opacity:1"
       id="path4428"
       inkscape:connector-curvature="0" />
    <path
       d="m 52.156048,17.801214 q 0,0.649585 -0.333121,1.025536 -0.33312,0.375951 -0.892288,0.375951 -0.563926,0 -0.897046,-0.375951 -0.330742,-0.375951 -0.330742,-1.025536 0,-0.649586 0.330742,-1.025537 0.33312,-0.37833 0.897046,-0.37833 0.559168,0 0.892288,0.37833 0.333121,0.375951 0.333121,1.025537 z m -0.46161,0 q 0,-0.516338 -0.202252,-0.766178 -0.202252,-0.25222 -0.561547,-0.25222 -0.364053,0 -0.566305,0.25222 -0.199872,0.24984 -0.199872,0.766178 0,0.499681 0.202251,0.759039 0.202252,0.256979 0.563926,0.256979 0.356916,0 0.559168,-0.254599 0.204631,-0.256979 0.204631,-0.761419 z"
       style="font-style:normal;font-variant:normal;font-weight:normal;font-stretch:normal;font-size:medium;line-height:4.06400013px;font-family:sans-serif;-inkscape-font-specification:'sans-serif, Normal';font-variant-ligatures:normal;font-variant-caps:normal;font-variant-numeric:normal;font-feature-settings:normal;text-align:start;letter-spacing:0px;word-spacing:0px;writing-mode:lr-tb;text-anchor:start;fill:#000000;fill-opacity:1;stroke:none;stroke-width:0.1023384px;stroke-linecap:butt;stroke-linejoin:miter;stroke-opacity:1"
       id="path4430"
       inkscape:connector-curvature="0" />
    <path
       d="m 54.509309,16.958894 h -0.02379 q -0.09994,-0.02379 -0.195114,-0.03331 -0.0928,-0.0119 -0.221287,-0.0119 -0.207011,0 -0.399745,0.0928 -0.192734,0.09042 -0.371192,0.235564 v 1.886892 h -0.447334 v -2.657828 h 0.447334 v 0.392606 q 0.266497,-0.214149 0.468749,-0.302188 0.204631,-0.09042 0.416401,-0.09042 0.116592,0 0.16894,0.0071 0.05235,0.0048 0.157042,0.02141 z"
       style="font-style:normal;font-variant:normal;font-weight:normal;font-stretch:normal;font-size:medium;line-height:4.06400013px;font-family:sans-serif;-inkscape-font-specification:'sans-serif, Normal';font-variant-ligatures:normal;font-variant-caps:normal;font-variant-numeric:normal;font-feature-settings:normal;text-align:start;letter-spacing:0px;word-spacing:0px;writing-mode:lr-tb;text-anchor:start;fill:#000000;fill-opacity:1;stroke:none;stroke-width:0.1023384px;stroke-linecap:butt;stroke-linejoin:miter;stroke-opacity:1"
       id="path4432"
       inkscape:connector-curvature="0" />
    <path
       d="m 59.839243,19.128938 h -0.471129 v -3.052815 l -0.985085,2.077247 h -0.280774 l -0.977947,-2.077247 v 3.052815 H 56.684112 V 15.58596 h 0.642448 l 0.944635,1.972551 0.913703,-1.972551 h 0.654345 z"
       style="font-style:normal;font-variant:normal;font-weight:normal;font-stretch:normal;font-size:medium;line-height:4.06400013px;font-family:sans-serif;-inkscape-font-specification:'sans-serif, Normal';font-variant-ligatures:normal;font-variant-caps:normal;font-variant-numeric:normal;font-feature-settings:normal;text-align:start;letter-spacing:0px;word-spacing:0px;writing-mode:lr-tb;text-anchor:start;fill:#000000;fill-opacity:1;stroke:none;stroke-width:0.1023384px;stroke-linecap:butt;stroke-linejoin:miter;stroke-opacity:1"
       id="path4434"
       inkscape:connector-curvature="0" />
    <path
       d="m 62.825433,19.128938 h -0.444954 v -0.283153 q -0.05949,0.04045 -0.161802,0.114213 -0.09994,0.07138 -0.195114,0.114213 -0.111833,0.05473 -0.256979,0.09042 -0.145145,0.03807 -0.340259,0.03807 -0.359294,0 -0.609135,-0.237944 -0.249841,-0.237943 -0.249841,-0.606756 0,-0.302188 0.12849,-0.487784 0.130869,-0.187975 0.371192,-0.29505 0.242702,-0.107074 0.582961,-0.145145 0.340259,-0.03807 0.730487,-0.05711 v -0.069 q 0,-0.152284 -0.05473,-0.25222 -0.05235,-0.09994 -0.152284,-0.157043 -0.09518,-0.05473 -0.228426,-0.07376 -0.133248,-0.01903 -0.278394,-0.01903 -0.176078,0 -0.392607,0.04759 -0.216528,0.04521 -0.447333,0.133248 h -0.0238 v -0.454472 q 0.130869,-0.03569 0.37833,-0.07852 0.247462,-0.04283 0.487785,-0.04283 0.280773,0 0.487784,0.04759 0.20939,0.04521 0.361674,0.157042 0.149904,0.109454 0.228425,0.283153 0.07852,0.173699 0.07852,0.430678 z m -0.444954,-0.654344 v -0.740005 q -0.204632,0.0119 -0.483026,0.03569 -0.276014,0.02379 -0.437816,0.069 -0.192734,0.05473 -0.311706,0.171319 -0.118971,0.114213 -0.118971,0.316465 0,0.228425 0.138007,0.345018 0.138007,0.114213 0.42116,0.114213 0.235564,0 0.430677,-0.09042 0.195114,-0.0928 0.361675,-0.221287 z"
       style="font-style:normal;font-variant:normal;font-weight:normal;font-stretch:normal;font-size:medium;line-height:4.06400013px;font-family:sans-serif;-inkscape-font-specification:'sans-serif, Normal';font-variant-ligatures:normal;font-variant-caps:normal;font-variant-numeric:normal;font-feature-settings:normal;text-align:start;letter-spacing:0px;word-spacing:0px;writing-mode:lr-tb;text-anchor:start;fill:#000000;fill-opacity:1;stroke:none;stroke-width:0.1023384px;stroke-linecap:butt;stroke-linejoin:miter;stroke-opacity:1"
       id="path4436"
       inkscape:connector-curvature="0" />
    <path
       d="m 64.14364,19.128938 h -0.447333 v -3.7024 h 0.447333 z"
       style="font-style:normal;font-variant:normal;font-weight:normal;font-stretch:normal;font-size:medium;line-height:4.06400013px;font-family:sans-serif;-inkscape-font-specification:'sans-serif, Normal';font-variant-ligatures:normal;font-variant-caps:normal;font-variant-numeric:normal;font-feature-settings:normal;text-align:start;letter-spacing:0px;word-spacing:0px;writing-mode:lr-tb;text-anchor:start;fill:#000000;fill-opacity:1;stroke:none;stroke-width:0.1023384px;stroke-linecap:butt;stroke-linejoin:miter;stroke-opacity:1"
       id="path4438"
       inkscape:connector-curvature="0" />
    <path
       d="m 67.079863,19.128938 h -0.444955 v -0.283153 q -0.05949,0.04045 -0.161801,0.114213 -0.09994,0.07138 -0.195114,0.114213 -0.111833,0.05473 -0.256979,0.09042 -0.145145,0.03807 -0.340259,0.03807 -0.359295,0 -0.609135,-0.237944 -0.249841,-0.237943 -0.249841,-0.606756 0,-0.302188 0.12849,-0.487784 0.130869,-0.187975 0.371191,-0.29505 0.242703,-0.107074 0.582962,-0.145145 0.340259,-0.03807 0.730486,-0.05711 v -0.069 q 0,-0.152284 -0.05473,-0.25222 -0.05235,-0.09994 -0.152283,-0.157043 -0.09518,-0.05473 -0.228426,-0.07376 -0.133249,-0.01903 -0.278394,-0.01903 -0.176078,0 -0.392607,0.04759 -0.216528,0.04521 -0.447333,0.133248 h -0.02379 v -0.454472 q 0.130869,-0.03569 0.37833,-0.07852 0.247461,-0.04283 0.487784,-0.04283 0.280774,0 0.487784,0.04759 0.209391,0.04521 0.361675,0.157042 0.149904,0.109454 0.228425,0.283153 0.07852,0.173699 0.07852,0.430678 z m -0.444955,-0.654344 v -0.740005 q -0.204631,0.0119 -0.483025,0.03569 -0.276014,0.02379 -0.437816,0.069 -0.192734,0.05473 -0.311706,0.171319 -0.118972,0.114213 -0.118972,0.316465 0,0.228425 0.138008,0.345018 0.138007,0.114213 0.42116,0.114213 0.235564,0 0.430677,-0.09042 0.195114,-0.0928 0.361674,-0.221287 z"
       style="font-style:normal;font-variant:normal;font-weight:normal;font-stretch:normal;font-size:medium;line-height:4.06400013px;font-family:sans-serif;-inkscape-font-specification:'sans-serif, Normal';font-variant-ligatures:normal;font-variant-caps:normal;font-variant-numeric:normal;font-feature-settings:normal;text-align:start;letter-spacing:0px;word-spacing:0px;writing-mode:lr-tb;text-anchor:start;fill:#000000;fill-opacity:1;stroke:none;stroke-width:0.1023384px;stroke-linecap:butt;stroke-linejoin:miter;stroke-opacity:1"
       id="path4440"
       inkscape:connector-curvature="0" />
    <path
       d="m 70.20644,16.47111 -1.551392,3.638155 h -0.478266 l 0.494922,-1.108816 -1.058848,-2.529339 h 0.485405 l 0.816146,1.970171 0.823284,-1.970171 z"
       style="font-style:normal;font-variant:normal;font-weight:normal;font-stretch:normal;font-size:medium;line-height:4.06400013px;font-family:sans-serif;-inkscape-font-specification:'sans-serif, Normal';font-variant-ligatures:normal;font-variant-caps:normal;font-variant-numeric:normal;font-feature-settings:normal;text-align:start;letter-spacing:0px;word-spacing:0px;writing-mode:lr-tb;text-anchor:start;fill:#000000;fill-opacity:1;stroke:none;stroke-width:0.1023384px;stroke-linecap:butt;stroke-linejoin:miter;stroke-opacity:1"
       id="path4442"
       inkscape:connector-curvature="0" />
    <path
       d="m 76.664225,15.58596 -0.920842,3.542978 h -0.530614 l -0.744763,-2.940981 -0.728107,2.940981 H 73.221183 L 72.283685,15.58596 h 0.483026 l 0.744763,2.94574 0.732866,-2.94574 h 0.478266 l 0.740004,2.974293 0.740004,-2.974293 z"
       style="font-style:normal;font-variant:normal;font-weight:normal;font-stretch:normal;font-size:medium;line-height:4.06400013px;font-family:sans-serif;-inkscape-font-specification:'sans-serif, Normal';font-variant-ligatures:normal;font-variant-caps:normal;font-variant-numeric:normal;font-feature-settings:normal;text-align:start;letter-spacing:0px;word-spacing:0px;writing-mode:lr-tb;text-anchor:start;fill:#000000;fill-opacity:1;stroke:none;stroke-width:0.1023384px;stroke-linecap:butt;stroke-linejoin:miter;stroke-opacity:1"
       id="path4444"
       inkscape:connector-curvature="0" />
    <path
       d="m 79.348228,17.801214 q 0,0.649585 -0.333121,1.025536 -0.333121,0.375951 -0.892288,0.375951 -0.563926,0 -0.897047,-0.375951 -0.330741,-0.375951 -0.330741,-1.025536 0,-0.649586 0.330741,-1.025537 0.333121,-0.37833 0.897047,-0.37833 0.559167,0 0.892288,0.37833 0.333121,0.375951 0.333121,1.025537 z m -0.46161,0 q 0,-0.516338 -0.202252,-0.766178 -0.202252,-0.25222 -0.561547,-0.25222 -0.364053,0 -0.566305,0.25222 -0.199873,0.24984 -0.199873,0.766178 0,0.499681 0.202252,0.759039 0.202252,0.256979 0.563926,0.256979 0.356915,0 0.559167,-0.254599 0.204632,-0.256979 0.204632,-0.761419 z"
       style="font-style:normal;font-variant:normal;font-weight:normal;font-stretch:normal;font-size:medium;line-height:4.06400013px;font-family:sans-serif;-inkscape-font-specification:'sans-serif, Normal';font-variant-ligatures:normal;font-variant-caps:normal;font-variant-numeric:normal;font-feature-settings:normal;text-align:start;letter-spacing:0px;word-spacing:0px;writing-mode:lr-tb;text-anchor:start;fill:#000000;fill-opacity:1;stroke:none;stroke-width:0.1023384px;stroke-linecap:butt;stroke-linejoin:miter;stroke-opacity:1"
       id="path4446"
       inkscape:connector-curvature="0" />
    <path
       d="m 81.701488,16.958894 h -0.02379 q -0.09994,-0.02379 -0.195114,-0.03331 -0.0928,-0.0119 -0.221287,-0.0119 -0.207011,0 -0.399745,0.0928 -0.192734,0.09042 -0.371192,0.235564 v 1.886892 h -0.447334 v -2.657828 h 0.447334 v 0.392606 q 0.266497,-0.214149 0.468749,-0.302188 0.204631,-0.09042 0.416401,-0.09042 0.116592,0 0.16894,0.0071 0.05235,0.0048 0.157042,0.02141 z"
       style="font-style:normal;font-variant:normal;font-weight:normal;font-stretch:normal;font-size:medium;line-height:4.06400013px;font-family:sans-serif;-inkscape-font-specification:'sans-serif, Normal';font-variant-ligatures:normal;font-variant-caps:normal;font-variant-numeric:normal;font-feature-settings:normal;text-align:start;letter-spacing:0px;word-spacing:0px;writing-mode:lr-tb;text-anchor:start;fill:#000000;fill-opacity:1;stroke:none;stroke-width:0.1023384px;stroke-linecap:butt;stroke-linejoin:miter;stroke-opacity:1"
       id="path4448"
       inkscape:connector-curvature="0" />
    <path
       d="m 82.579498,19.128938 h -0.447334 v -3.7024 h 0.447334 z"
       style="font-style:normal;font-variant:normal;font-weight:normal;font-stretch:normal;font-size:medium;line-height:4.06400013px;font-family:sans-serif;-inkscape-font-specification:'sans-serif, Normal';font-variant-ligatures:normal;font-variant-caps:normal;font-variant-numeric:normal;font-feature-settings:normal;text-align:start;letter-spacing:0px;word-spacing:0px;writing-mode:lr-tb;text-anchor:start;fill:#000000;fill-opacity:1;stroke:none;stroke-width:0.1023384px;stroke-linecap:butt;stroke-linejoin:miter;stroke-opacity:1"
       id="path4450"
       inkscape:connector-curvature="0" />
    <path
       d="m 85.606141,19.128938 h -0.447334 v -0.278394 q -0.192734,0.166561 -0.402124,0.259359 -0.209391,0.0928 -0.454472,0.0928 -0.475887,0 -0.756661,-0.366433 -0.278393,-0.366433 -0.278393,-1.016019 0,-0.33788 0.09518,-0.601997 0.09756,-0.264117 0.261738,-0.449713 0.161801,-0.180837 0.37595,-0.276014 0.216529,-0.09518 0.447334,-0.09518 0.20939,0 0.371192,0.04521 0.161802,0.04283 0.340259,0.135628 v -1.151646 h 0.447334 z m -0.447334,-0.654344 v -1.525218 q -0.180837,-0.0809 -0.323603,-0.111833 -0.142766,-0.03093 -0.311706,-0.03093 -0.375951,0 -0.585341,0.261738 -0.20939,0.261738 -0.20939,0.742383 0,0.473508 0.161801,0.720969 0.161802,0.245082 0.518717,0.245082 0.190355,0 0.385469,-0.08328 0.195113,-0.08566 0.364053,-0.218908 z"
       style="font-style:normal;font-variant:normal;font-weight:normal;font-stretch:normal;font-size:medium;line-height:4.06400013px;font-family:sans-serif;-inkscape-font-specification:'sans-serif, Normal';font-variant-ligatures:normal;font-variant-caps:normal;font-variant-numeric:normal;font-feature-settings:normal;text-align:start;letter-spacing:0px;word-spacing:0px;writing-mode:lr-tb;text-anchor:start;fill:#000000;fill-opacity:1;stroke:none;stroke-width:0.1023384px;stroke-linecap:butt;stroke-linejoin:miter;stroke-opacity:1"
       id="path4452"
       inkscape:connector-curvature="0" />
    <path
       d="m 89.484619,19.128938 h -1.399107 v -0.361674 h 0.463989 v -2.81963 H 88.085512 V 15.58596 h 1.399107 v 0.361674 h -0.46399 v 2.81963 h 0.46399 z"
       style="font-style:normal;font-variant:normal;font-weight:normal;font-stretch:normal;font-size:medium;line-height:4.06400013px;font-family:sans-serif;-inkscape-font-specification:'sans-serif, Normal';font-variant-ligatures:normal;font-variant-caps:normal;font-variant-numeric:normal;font-feature-settings:normal;text-align:start;letter-spacing:0px;word-spacing:0px;writing-mode:lr-tb;text-anchor:start;fill:#000000;fill-opacity:1;stroke:none;stroke-width:0.1023384px;stroke-linecap:butt;stroke-linejoin:miter;stroke-opacity:1"
       id="path4454"
       inkscape:connector-curvature="0" />
    <path
       d="m 92.477948,19.128938 h -0.447333 v -1.51332 q 0,-0.183217 -0.02141,-0.342639 -0.02142,-0.161801 -0.07852,-0.25222 -0.05948,-0.09994 -0.171319,-0.147525 -0.111833,-0.04997 -0.290291,-0.04997 -0.183216,0 -0.383089,0.09042 -0.199872,0.09042 -0.383089,0.230806 v 1.984448 H 90.255563 V 16.47111 h 0.447334 v 0.295049 q 0.20939,-0.173698 0.433057,-0.271255 0.223667,-0.09756 0.459231,-0.09756 0.430678,0 0.656724,0.259358 0.226046,0.259359 0.226046,0.747143 z"
       style="font-style:normal;font-variant:normal;font-weight:normal;font-stretch:normal;font-size:medium;line-height:4.06400013px;font-family:sans-serif;-inkscape-font-specification:'sans-serif, Normal';font-variant-ligatures:normal;font-variant-caps:normal;font-variant-numeric:normal;font-feature-settings:normal;text-align:start;letter-spacing:0px;word-spacing:0px;writing-mode:lr-tb;text-anchor:start;fill:#000000;fill-opacity:1;stroke:none;stroke-width:0.1023384px;stroke-linecap:butt;stroke-linejoin:miter;stroke-opacity:1"
       id="path4456"
       inkscape:connector-curvature="0" />
    <path
       d="m 94.769345,15.859595 h -0.0238 q -0.07376,-0.02142 -0.192734,-0.04283 -0.118972,-0.02379 -0.20939,-0.02379 -0.287912,0 -0.418781,0.128489 -0.128489,0.12611 -0.128489,0.459231 v 0.09042 h 0.806628 v 0.37595 h -0.792352 v 2.281878 H 93.363099 V 16.84706 H 93.06091 v -0.37595 h 0.302189 v -0.08804 q 0,-0.473508 0.235564,-0.725728 0.235564,-0.2546 0.680518,-0.2546 0.149904,0 0.268876,0.01428 0.121351,0.01428 0.221288,0.03331 z"
       style="font-style:normal;font-variant:normal;font-weight:normal;font-stretch:normal;font-size:medium;line-height:4.06400013px;font-family:sans-serif;-inkscape-font-specification:'sans-serif, Normal';font-variant-ligatures:normal;font-variant-caps:normal;font-variant-numeric:normal;font-feature-settings:normal;text-align:start;letter-spacing:0px;word-spacing:0px;writing-mode:lr-tb;text-anchor:start;fill:#000000;fill-opacity:1;stroke:none;stroke-width:0.1023384px;stroke-linecap:butt;stroke-linejoin:miter;stroke-opacity:1"
       id="path4458"
       inkscape:connector-curvature="0" />
    <path
       d="m 97.317718,17.801214 q 0,0.649585 -0.333121,1.025536 -0.333121,0.375951 -0.892288,0.375951 -0.563926,0 -0.897047,-0.375951 -0.330741,-0.375951 -0.330741,-1.025536 0,-0.649586 0.330741,-1.025537 0.333121,-0.37833 0.897047,-0.37833 0.559167,0 0.892288,0.37833 0.333121,0.375951 0.333121,1.025537 z m -0.46161,0 q 0,-0.516338 -0.202252,-0.766178 -0.202252,-0.25222 -0.561547,-0.25222 -0.364053,0 -0.566305,0.25222 -0.199873,0.24984 -0.199873,0.766178 0,0.499681 0.202252,0.759039 0.202252,0.256979 0.563926,0.256979 0.356915,0 0.559167,-0.254599 0.204632,-0.256979 0.204632,-0.761419 z"
       style="font-style:normal;font-variant:normal;font-weight:normal;font-stretch:normal;font-size:medium;line-height:4.06400013px;font-family:sans-serif;-inkscape-font-specification:'sans-serif, Normal';font-variant-ligatures:normal;font-variant-caps:normal;font-variant-numeric:normal;font-feature-settings:normal;text-align:start;letter-spacing:0px;word-spacing:0px;writing-mode:lr-tb;text-anchor:start;fill:#000000;fill-opacity:1;stroke:none;stroke-width:0.1023384px;stroke-linecap:butt;stroke-linejoin:miter;stroke-opacity:1"
       id="path4460"
       inkscape:connector-curvature="0" />
    <path
       d="m 99.67098,16.958894 h -0.02379 q -0.09994,-0.02379 -0.195114,-0.03331 -0.0928,-0.0119 -0.221287,-0.0119 -0.207011,0 -0.399745,0.0928 -0.192734,0.09042 -0.371192,0.235564 v 1.886892 h -0.447334 v -2.657828 h 0.447334 v 0.392606 q 0.266497,-0.214149 0.468749,-0.302188 0.204631,-0.09042 0.416401,-0.09042 0.116592,0 0.16894,0.0071 0.05235,0.0048 0.157042,0.02141 z"
       style="font-style:normal;font-variant:normal;font-weight:normal;font-stretch:normal;font-size:medium;line-height:4.06400013px;font-family:sans-serif;-inkscape-font-specification:'sans-serif, Normal';font-variant-ligatures:normal;font-variant-caps:normal;font-variant-numeric:normal;font-feature-settings:normal;text-align:start;letter-spacing:0px;word-spacing:0px;writing-mode:lr-tb;text-anchor:start;fill:#000000;fill-opacity:1;stroke:none;stroke-width:0.1023384px;stroke-linecap:butt;stroke-linejoin:miter;stroke-opacity:1"
       id="path4462"
       inkscape:connector-curvature="0" />
    <path
       d="m 103.97538,19.128938 h -0.44734 v -1.51332 q 0,-0.17132 -0.0166,-0.330742 -0.0143,-0.159422 -0.0643,-0.254599 -0.0547,-0.102316 -0.15704,-0.154664 -0.10232,-0.05235 -0.29505,-0.05235 -0.18797,0 -0.37595,0.09518 -0.18798,0.0928 -0.37595,0.237944 0.007,0.05473 0.0119,0.128489 0.005,0.07138 0.005,0.142766 v 1.701296 h -0.44734 v -1.51332 q 0,-0.176079 -0.0166,-0.333121 -0.0143,-0.159422 -0.0643,-0.2546 -0.0547,-0.102315 -0.15704,-0.152284 -0.10232,-0.05235 -0.29505,-0.05235 -0.18322,0 -0.36881,0.09042 -0.18322,0.09042 -0.36644,0.230806 v 1.984448 h -0.44733 v -2.657828 h 0.44733 v 0.295049 q 0.20939,-0.173698 0.4164,-0.271255 0.20939,-0.09756 0.44496,-0.09756 0.27125,0 0.45923,0.114213 0.19035,0.114213 0.28315,0.316465 0.27126,-0.228426 0.49492,-0.328362 0.22367,-0.102316 0.47827,-0.102316 0.43782,0 0.64483,0.266497 0.20939,0.264117 0.20939,0.740004 z"
       style="font-style:normal;font-variant:normal;font-weight:normal;font-stretch:normal;font-size:medium;line-height:4.06400013px;font-family:sans-serif;-inkscape-font-specification:'sans-serif, Normal';font-variant-ligatures:normal;font-variant-caps:normal;font-variant-numeric:normal;font-feature-settings:normal;text-align:start;letter-spacing:0px;word-spacing:0px;writing-mode:lr-tb;text-anchor:start;fill:#000000;fill-opacity:1;stroke:none;stroke-width:0.1023384px;stroke-linecap:butt;stroke-linejoin:miter;stroke-opacity:1"
       id="path4464"
       inkscape:connector-curvature="0" />
    <path
       d="m 106.90208,19.128938 h -0.44496 v -0.283153 q -0.0595,0.04045 -0.1618,0.114213 -0.0999,0.07138 -0.19511,0.114213 -0.11183,0.05473 -0.25698,0.09042 -0.14515,0.03807 -0.34026,0.03807 -0.35929,0 -0.60913,-0.237944 -0.24984,-0.237943 -0.24984,-0.606756 0,-0.302188 0.12848,-0.487784 0.13087,-0.187975 0.3712,-0.29505 0.2427,-0.107074 0.58296,-0.145145 0.34026,-0.03807 0.73048,-0.05711 v -0.069 q 0,-0.152284 -0.0547,-0.25222 -0.0524,-0.09994 -0.15229,-0.157043 -0.0952,-0.05473 -0.22842,-0.07376 -0.13325,-0.01903 -0.2784,-0.01903 -0.17607,0 -0.3926,0.04759 -0.21653,0.04521 -0.44734,0.133248 h -0.0238 v -0.454472 q 0.13087,-0.03569 0.37833,-0.07852 0.24746,-0.04283 0.48778,-0.04283 0.28078,0 0.48779,0.04759 0.20939,0.04521 0.36167,0.157042 0.14991,0.109454 0.22843,0.283153 0.0785,0.173699 0.0785,0.430678 z m -0.44496,-0.654344 v -0.740005 q -0.20463,0.0119 -0.48302,0.03569 -0.27602,0.02379 -0.43782,0.069 -0.19273,0.05473 -0.3117,0.171319 -0.11897,0.114213 -0.11897,0.316465 0,0.228425 0.138,0.345018 0.13801,0.114213 0.42116,0.114213 0.23557,0 0.43068,-0.09042 0.19511,-0.0928 0.36167,-0.221287 z"
       style="font-style:normal;font-variant:normal;font-weight:normal;font-stretch:normal;font-size:medium;line-height:4.06400013px;font-family:sans-serif;-inkscape-font-specification:'sans-serif, Normal';font-variant-ligatures:normal;font-variant-caps:normal;font-variant-numeric:normal;font-feature-settings:normal;text-align:start;letter-spacing:0px;word-spacing:0px;writing-mode:lr-tb;text-anchor:start;fill:#000000;fill-opacity:1;stroke:none;stroke-width:0.1023384px;stroke-linecap:butt;stroke-linejoin:miter;stroke-opacity:1"
       id="path4466"
       inkscape:connector-curvature="0" />
    <path
       d="m 109.14827,19.105144 q -0.12611,0.03331 -0.27602,0.05473 -0.14752,0.02142 -0.26412,0.02142 -0.40688,0 -0.61865,-0.218908 -0.21177,-0.218908 -0.21177,-0.701934 v -1.413384 h -0.30219 v -0.37595 h 0.30219 v -0.763799 h 0.44734 v 0.763799 h 0.92322 v 0.37595 h -0.92322 v 1.211133 q 0,0.20939 0.01,0.328361 0.01,0.116593 0.0666,0.218908 0.0523,0.09518 0.14276,0.140387 0.0928,0.04283 0.28078,0.04283 0.10945,0 0.22842,-0.03093 0.11897,-0.03331 0.17132,-0.05473 h 0.0238 z"
       style="font-style:normal;font-variant:normal;font-weight:normal;font-stretch:normal;font-size:medium;line-height:4.06400013px;font-family:sans-serif;-inkscape-font-specification:'sans-serif, Normal';font-variant-ligatures:normal;font-variant-caps:normal;font-variant-numeric:normal;font-feature-settings:normal;text-align:start;letter-spacing:0px;word-spacing:0px;writing-mode:lr-tb;text-anchor:start;fill:#000000;fill-opacity:1;stroke:none;stroke-width:0.1023384px;stroke-linecap:butt;stroke-linejoin:miter;stroke-opacity:1"
       id="path4468"
       inkscape:connector-curvature="0" />
    <path
       d="m 110.17142,16.026155 h -0.50444 v -0.463989 h 0.50444 z m -0.0285,3.102783 h -0.44733 V 16.47111 h 0.44733 z"
       style="font-style:normal;font-variant:normal;font-weight:normal;font-stretch:normal;font-size:medium;line-height:4.06400013px;font-family:sans-serif;-inkscape-font-specification:'sans-serif, Normal';font-variant-ligatures:normal;font-variant-caps:normal;font-variant-numeric:normal;font-feature-settings:normal;text-align:start;letter-spacing:0px;word-spacing:0px;writing-mode:lr-tb;text-anchor:start;fill:#000000;fill-opacity:1;stroke:none;stroke-width:0.1023384px;stroke-linecap:butt;stroke-linejoin:miter;stroke-opacity:1"
       id="path4470"
       inkscape:connector-curvature="0" />
    <path
       d="m 113.27896,17.801214 q 0,0.649585 -0.33312,1.025536 -0.33312,0.375951 -0.89228,0.375951 -0.56393,0 -0.89705,-0.375951 -0.33074,-0.375951 -0.33074,-1.025536 0,-0.649586 0.33074,-1.025537 0.33312,-0.37833 0.89705,-0.37833 0.55916,0 0.89228,0.37833 0.33312,0.375951 0.33312,1.025537 z m -0.46161,0 q 0,-0.516338 -0.20225,-0.766178 -0.20225,-0.25222 -0.56154,-0.25222 -0.36406,0 -0.56631,0.25222 -0.19987,0.24984 -0.19987,0.766178 0,0.499681 0.20225,0.759039 0.20225,0.256979 0.56393,0.256979 0.35691,0 0.55916,-0.254599 0.20463,-0.256979 0.20463,-0.761419 z"
       style="font-style:normal;font-variant:normal;font-weight:normal;font-stretch:normal;font-size:medium;line-height:4.06400013px;font-family:sans-serif;-inkscape-font-specification:'sans-serif, Normal';font-variant-ligatures:normal;font-variant-caps:normal;font-variant-numeric:normal;font-feature-settings:normal;text-align:start;letter-spacing:0px;word-spacing:0px;writing-mode:lr-tb;text-anchor:start;fill:#000000;fill-opacity:1;stroke:none;stroke-width:0.1023384px;stroke-linecap:butt;stroke-linejoin:miter;stroke-opacity:1"
       id="path4472"
       inkscape:connector-curvature="0" />
    <path
       d="m 116.19615,19.128938 h -0.44733 v -1.51332 q 0,-0.183217 -0.0214,-0.342639 -0.0214,-0.161801 -0.0785,-0.25222 -0.0595,-0.09994 -0.17132,-0.147525 -0.11183,-0.04997 -0.29029,-0.04997 -0.18321,0 -0.38309,0.09042 -0.19987,0.09042 -0.38309,0.230806 v 1.984448 H 113.9738 V 16.47111 h 0.44733 v 0.295049 q 0.20939,-0.173698 0.43306,-0.271255 0.22367,-0.09756 0.45923,-0.09756 0.43068,0 0.65673,0.259358 0.22604,0.259359 0.22604,0.747143 z"
       style="font-style:normal;font-variant:normal;font-weight:normal;font-stretch:normal;font-size:medium;line-height:4.06400013px;font-family:sans-serif;-inkscape-font-specification:'sans-serif, Normal';font-variant-ligatures:normal;font-variant-caps:normal;font-variant-numeric:normal;font-feature-settings:normal;text-align:start;letter-spacing:0px;word-spacing:0px;writing-mode:lr-tb;text-anchor:start;fill:#000000;fill-opacity:1;stroke:none;stroke-width:0.1023384px;stroke-linecap:butt;stroke-linejoin:miter;stroke-opacity:1"
       id="path4474"
       inkscape:connector-curvature="0" />
    <path
       d="m 120.83605,19.128938 h -0.44496 v -0.283153 q -0.0595,0.04045 -0.1618,0.114213 -0.0999,0.07138 -0.19511,0.114213 -0.11184,0.05473 -0.25698,0.09042 -0.14515,0.03807 -0.34026,0.03807 -0.3593,0 -0.60914,-0.237944 -0.24984,-0.237943 -0.24984,-0.606756 0,-0.302188 0.12849,-0.487784 0.13087,-0.187975 0.37119,-0.29505 0.24271,-0.107074 0.58297,-0.145145 0.34025,-0.03807 0.73048,-0.05711 v -0.069 q 0,-0.152284 -0.0547,-0.25222 -0.0523,-0.09994 -0.15228,-0.157043 -0.0952,-0.05473 -0.22842,-0.07376 -0.13325,-0.01903 -0.2784,-0.01903 -0.17608,0 -0.39261,0.04759 -0.21652,0.04521 -0.44733,0.133248 h -0.0238 v -0.454472 q 0.13087,-0.03569 0.37833,-0.07852 0.24746,-0.04283 0.48778,-0.04283 0.28077,0 0.48779,0.04759 0.20939,0.04521 0.36167,0.157042 0.1499,0.109454 0.22842,0.283153 0.0785,0.173699 0.0785,0.430678 z m -0.44496,-0.654344 v -0.740005 q -0.20463,0.0119 -0.48302,0.03569 -0.27602,0.02379 -0.43782,0.069 -0.19273,0.05473 -0.31171,0.171319 -0.11897,0.114213 -0.11897,0.316465 0,0.228425 0.13801,0.345018 0.13801,0.114213 0.42116,0.114213 0.23556,0 0.43068,-0.09042 0.19511,-0.0928 0.36167,-0.221287 z"
       style="font-style:normal;font-variant:normal;font-weight:normal;font-stretch:normal;font-size:medium;line-height:4.06400013px;font-family:sans-serif;-inkscape-font-specification:'sans-serif, Normal';font-variant-ligatures:normal;font-variant-caps:normal;font-variant-numeric:normal;font-feature-settings:normal;text-align:start;letter-spacing:0px;word-spacing:0px;writing-mode:lr-tb;text-anchor:start;fill:#000000;fill-opacity:1;stroke:none;stroke-width:0.1023384px;stroke-linecap:butt;stroke-linejoin:miter;stroke-opacity:1"
       id="path4476"
       inkscape:connector-curvature="0" />
    <path
       d="m 123.92455,19.128938 h -0.44733 v -1.51332 q 0,-0.183217 -0.0214,-0.342639 -0.0214,-0.161801 -0.0785,-0.25222 -0.0595,-0.09994 -0.17132,-0.147525 -0.11183,-0.04997 -0.29029,-0.04997 -0.18321,0 -0.38309,0.09042 -0.19987,0.09042 -0.38308,0.230806 v 1.984448 H 121.7022 V 16.47111 h 0.44734 v 0.295049 q 0.20939,-0.173698 0.43305,-0.271255 0.22367,-0.09756 0.45923,-0.09756 0.43068,0 0.65673,0.259358 0.22604,0.259359 0.22604,0.747143 z"
       style="font-style:normal;font-variant:normal;font-weight:normal;font-stretch:normal;font-size:medium;line-height:4.06400013px;font-family:sans-serif;-inkscape-font-specification:'sans-serif, Normal';font-variant-ligatures:normal;font-variant-caps:normal;font-variant-numeric:normal;font-feature-settings:normal;text-align:start;letter-spacing:0px;word-spacing:0px;writing-mode:lr-tb;text-anchor:start;fill:#000000;fill-opacity:1;stroke:none;stroke-width:0.1023384px;stroke-linecap:butt;stroke-linejoin:miter;stroke-opacity:1"
       id="path4478"
       inkscape:connector-curvature="0" />
    <path
       d="m 126.94168,19.128938 h -0.44734 v -0.278394 q -0.19273,0.166561 -0.40212,0.259359 -0.20939,0.0928 -0.45447,0.0928 -0.47589,0 -0.75666,-0.366433 -0.2784,-0.366433 -0.2784,-1.016019 0,-0.33788 0.0952,-0.601997 0.0976,-0.264117 0.26174,-0.449713 0.1618,-0.180837 0.37595,-0.276014 0.21653,-0.09518 0.44733,-0.09518 0.20939,0 0.37119,0.04521 0.16181,0.04283 0.34026,0.135628 v -1.151646 h 0.44734 z m -0.44734,-0.654344 v -1.525218 q -0.18083,-0.0809 -0.3236,-0.111833 -0.14277,-0.03093 -0.3117,-0.03093 -0.37596,0 -0.58535,0.261738 -0.20939,0.261738 -0.20939,0.742383 0,0.473508 0.16181,0.720969 0.1618,0.245082 0.51871,0.245082 0.19036,0 0.38547,-0.08328 0.19511,-0.08566 0.36405,-0.218908 z"
       style="font-style:normal;font-variant:normal;font-weight:normal;font-stretch:normal;font-size:medium;line-height:4.06400013px;font-family:sans-serif;-inkscape-font-specification:'sans-serif, Normal';font-variant-ligatures:normal;font-variant-caps:normal;font-variant-numeric:normal;font-feature-settings:normal;text-align:start;letter-spacing:0px;word-spacing:0px;writing-mode:lr-tb;text-anchor:start;fill:#000000;fill-opacity:1;stroke:none;stroke-width:0.1023384px;stroke-linecap:butt;stroke-linejoin:miter;stroke-opacity:1"
       id="path4480"
       inkscape:connector-curvature="0" />
    <path
       d="m 132.50242,19.128938 h -0.61152 l -1.18496,-1.408625 h -0.66386 v 1.408625 h -0.47113 V 15.58596 h 0.99223 q 0.32122,0 0.53537,0.04283 0.21415,0.04045 0.38547,0.147525 0.19273,0.121351 0.29981,0.306947 0.10945,0.183216 0.10945,0.466369 0,0.383089 -0.19273,0.642447 -0.19274,0.256979 -0.53062,0.387848 z m -1.10168,-2.545995 q 0,-0.152284 -0.0547,-0.268876 -0.0524,-0.118972 -0.17608,-0.199873 -0.10231,-0.069 -0.2427,-0.09518 -0.14039,-0.02855 -0.33074,-0.02855 h -0.55441 v 1.337242 h 0.47589 q 0.22366,0 0.39023,-0.03807 0.16656,-0.04045 0.28315,-0.147525 0.10707,-0.09994 0.15704,-0.228426 0.0524,-0.130868 0.0524,-0.330741 z"
       style="font-style:normal;font-variant:normal;font-weight:normal;font-stretch:normal;font-size:medium;line-height:4.06400013px;font-family:sans-serif;-inkscape-font-specification:'sans-serif, Normal';font-variant-ligatures:normal;font-variant-caps:normal;font-variant-numeric:normal;font-feature-settings:normal;text-align:start;letter-spacing:0px;word-spacing:0px;writing-mode:lr-tb;text-anchor:start;fill:#000000;fill-opacity:1;stroke:none;stroke-width:0.1023384px;stroke-linecap:butt;stroke-linejoin:miter;stroke-opacity:1"
       id="path4482"
       inkscape:connector-curvature="0" />
    <path
       d="m 135.03413,17.846423 h -1.95827 q 0,0.245082 0.0738,0.428298 0.0738,0.180837 0.20225,0.297429 0.12373,0.114213 0.29267,0.17132 0.17132,0.05711 0.37595,0.05711 0.27126,0 0.5449,-0.107074 0.27601,-0.109454 0.3926,-0.21415 h 0.0238 v 0.487785 q -0.22605,0.09518 -0.46161,0.159422 -0.23557,0.06424 -0.49493,0.06424 -0.66148,0 -1.03267,-0.356915 -0.37119,-0.359294 -0.37119,-1.018398 0,-0.651965 0.35453,-1.035054 0.35692,-0.383089 0.9375,-0.383089 0.53775,0 0.82804,0.314085 0.29267,0.314086 0.29267,0.892288 z m -0.43543,-0.342639 q -0.002,-0.352156 -0.17846,-0.54489 -0.1737,-0.192735 -0.53061,-0.192735 -0.3593,0 -0.57345,0.21177 -0.21177,0.21177 -0.24032,0.525855 z"
       style="font-style:normal;font-variant:normal;font-weight:normal;font-stretch:normal;font-size:medium;line-height:4.06400013px;font-family:sans-serif;-inkscape-font-specification:'sans-serif, Normal';font-variant-ligatures:normal;font-variant-caps:normal;font-variant-numeric:normal;font-feature-settings:normal;text-align:start;letter-spacing:0px;word-spacing:0px;writing-mode:lr-tb;text-anchor:start;fill:#000000;fill-opacity:1;stroke:none;stroke-width:0.1023384px;stroke-linecap:butt;stroke-linejoin:miter;stroke-opacity:1"
       id="path4484"
       inkscape:connector-curvature="0" />
    <path
       d="m 137.61107,18.36276 q 0,0.364054 -0.30219,0.597238 -0.29981,0.233185 -0.82091,0.233185 -0.29505,0 -0.54251,-0.069 -0.24508,-0.07138 -0.41164,-0.154663 v -0.502061 h 0.0238 q 0.21177,0.159422 0.47112,0.2546 0.25936,0.0928 0.49731,0.0928 0.29505,0 0.46161,-0.09518 0.16656,-0.09518 0.16656,-0.299808 0,-0.157043 -0.0904,-0.237944 -0.0904,-0.0809 -0.3474,-0.138007 -0.0952,-0.02142 -0.24984,-0.04997 -0.15228,-0.02855 -0.27839,-0.06187 -0.34978,-0.0928 -0.49731,-0.271255 -0.14514,-0.180837 -0.14514,-0.442575 0,-0.164181 0.0666,-0.309326 0.069,-0.145146 0.20701,-0.259359 0.13325,-0.111833 0.33788,-0.176078 0.20701,-0.06662 0.46161,-0.06662 0.23795,0 0.48065,0.05949 0.24508,0.05711 0.40688,0.140386 v 0.478267 h -0.0238 q -0.17132,-0.12611 -0.4164,-0.21177 -0.24508,-0.08804 -0.48065,-0.08804 -0.24508,0 -0.41402,0.09518 -0.16894,0.0928 -0.16894,0.278394 0,0.164181 0.10232,0.247461 0.0999,0.08328 0.3236,0.135628 0.12373,0.02855 0.27601,0.05711 0.15467,0.02855 0.25698,0.05235 0.31171,0.07138 0.48065,0.245082 0.16894,0.176078 0.16894,0.466369 z"
       style="font-style:normal;font-variant:normal;font-weight:normal;font-stretch:normal;font-size:medium;line-height:4.06400013px;font-family:sans-serif;-inkscape-font-specification:'sans-serif, Normal';font-variant-ligatures:normal;font-variant-caps:normal;font-variant-numeric:normal;font-feature-settings:normal;text-align:start;letter-spacing:0px;word-spacing:0px;writing-mode:lr-tb;text-anchor:start;fill:#000000;fill-opacity:1;stroke:none;stroke-width:0.1023384px;stroke-linecap:butt;stroke-linejoin:miter;stroke-opacity:1"
       id="path4486"
       inkscape:connector-curvature="0" />
    <path
       d="M 140.47828,17.846423 H 138.52 q 0,0.245082 0.0738,0.428298 0.0738,0.180837 0.20225,0.297429 0.12373,0.114213 0.29267,0.17132 0.17132,0.05711 0.37595,0.05711 0.27126,0 0.54489,-0.107074 0.27602,-0.109454 0.39261,-0.21415 h 0.0238 v 0.487785 q -0.22604,0.09518 -0.46161,0.159422 -0.23556,0.06424 -0.49492,0.06424 -0.66148,0 -1.03268,-0.356915 -0.37119,-0.359294 -0.37119,-1.018398 0,-0.651965 0.35454,-1.035054 0.35691,-0.383089 0.9375,-0.383089 0.53775,0 0.82804,0.314085 0.29267,0.314086 0.29267,0.892288 z m -0.43544,-0.342639 q -0.002,-0.352156 -0.17845,-0.54489 -0.1737,-0.192735 -0.53062,-0.192735 -0.35929,0 -0.57344,0.21177 -0.21177,0.21177 -0.24033,0.525855 z"
       style="font-style:normal;font-variant:normal;font-weight:normal;font-stretch:normal;font-size:medium;line-height:4.06400013px;font-family:sans-serif;-inkscape-font-specification:'sans-serif, Normal';font-variant-ligatures:normal;font-variant-caps:normal;font-variant-numeric:normal;font-feature-settings:normal;text-align:start;letter-spacing:0px;word-spacing:0px;writing-mode:lr-tb;text-anchor:start;fill:#000000;fill-opacity:1;stroke:none;stroke-width:0.1023384px;stroke-linecap:butt;stroke-linejoin:miter;stroke-opacity:1"
       id="path4488"
       inkscape:connector-curvature="0" />
    <path
       d="m 143.22177,19.128938 h -0.44495 v -0.283153 q -0.0595,0.04045 -0.1618,0.114213 -0.0999,0.07138 -0.19512,0.114213 -0.11183,0.05473 -0.25698,0.09042 -0.14514,0.03807 -0.34025,0.03807 -0.3593,0 -0.60914,-0.237944 -0.24984,-0.237943 -0.24984,-0.606756 0,-0.302188 0.12849,-0.487784 0.13087,-0.187975 0.37119,-0.29505 0.2427,-0.107074 0.58296,-0.145145 0.34026,-0.03807 0.73049,-0.05711 v -0.069 q 0,-0.152284 -0.0547,-0.25222 -0.0524,-0.09994 -0.15228,-0.157043 -0.0952,-0.05473 -0.22843,-0.07376 -0.13325,-0.01903 -0.27839,-0.01903 -0.17608,0 -0.39261,0.04759 -0.21653,0.04521 -0.44733,0.133248 h -0.0238 v -0.454472 q 0.13087,-0.03569 0.37833,-0.07852 0.24747,-0.04283 0.48779,-0.04283 0.28077,0 0.48778,0.04759 0.20939,0.04521 0.36168,0.157042 0.1499,0.109454 0.22842,0.283153 0.0785,0.173699 0.0785,0.430678 z m -0.44495,-0.654344 v -0.740005 q -0.20463,0.0119 -0.48303,0.03569 -0.27601,0.02379 -0.43781,0.069 -0.19274,0.05473 -0.31171,0.171319 -0.11897,0.114213 -0.11897,0.316465 0,0.228425 0.13801,0.345018 0.138,0.114213 0.42116,0.114213 0.23556,0 0.43067,-0.09042 0.19512,-0.0928 0.36168,-0.221287 z"
       style="font-style:normal;font-variant:normal;font-weight:normal;font-stretch:normal;font-size:medium;line-height:4.06400013px;font-family:sans-serif;-inkscape-font-specification:'sans-serif, Normal';font-variant-ligatures:normal;font-variant-caps:normal;font-variant-numeric:normal;font-feature-settings:normal;text-align:start;letter-spacing:0px;word-spacing:0px;writing-mode:lr-tb;text-anchor:start;fill:#000000;fill-opacity:1;stroke:none;stroke-width:0.1023384px;stroke-linecap:butt;stroke-linejoin:miter;stroke-opacity:1"
       id="path4490"
       inkscape:connector-curvature="0" />
    <path
       d="m 145.74635,16.958894 h -0.0238 q -0.0999,-0.02379 -0.19511,-0.03331 -0.0928,-0.0119 -0.22129,-0.0119 -0.20701,0 -0.39974,0.0928 -0.19274,0.09042 -0.37119,0.235564 v 1.886892 h -0.44734 v -2.657828 h 0.44734 v 0.392606 q 0.26649,-0.214149 0.46874,-0.302188 0.20464,-0.09042 0.4164,-0.09042 0.1166,0 0.16894,0.0071 0.0523,0.0048 0.15705,0.02141 z"
       style="font-style:normal;font-variant:normal;font-weight:normal;font-stretch:normal;font-size:medium;line-height:4.06400013px;font-family:sans-serif;-inkscape-font-specification:'sans-serif, Normal';font-variant-ligatures:normal;font-variant-caps:normal;font-variant-numeric:normal;font-feature-settings:normal;text-align:start;letter-spacing:0px;word-spacing:0px;writing-mode:lr-tb;text-anchor:start;fill:#000000;fill-opacity:1;stroke:none;stroke-width:0.1023384px;stroke-linecap:butt;stroke-linejoin:miter;stroke-opacity:1"
       id="path4492"
       inkscape:connector-curvature="0" />
    <path
       d="m 148.13768,18.962378 q -0.22366,0.107074 -0.42592,0.16656 -0.19987,0.05949 -0.42591,0.05949 -0.28792,0 -0.52824,-0.08328 -0.24032,-0.08566 -0.41164,-0.256979 -0.1737,-0.171319 -0.26888,-0.433057 -0.0952,-0.261738 -0.0952,-0.611515 0,-0.651965 0.35691,-1.023157 0.3593,-0.371192 0.94702,-0.371192 0.22842,0 0.44733,0.06424 0.22129,0.06424 0.4045,0.157043 v 0.497303 h -0.0238 q -0.20463,-0.159423 -0.42354,-0.245082 -0.21653,-0.08566 -0.42354,-0.08566 -0.38071,0 -0.602,0.256979 -0.2189,0.2546 -0.2189,0.749522 0,0.480646 0.21414,0.740004 0.21653,0.256979 0.60676,0.256979 0.13563,0 0.27601,-0.03569 0.14039,-0.03569 0.25222,-0.0928 0.0976,-0.04997 0.18322,-0.104695 0.0857,-0.05711 0.13563,-0.09756 h 0.0238 z"
       style="font-style:normal;font-variant:normal;font-weight:normal;font-stretch:normal;font-size:medium;line-height:4.06400013px;font-family:sans-serif;-inkscape-font-specification:'sans-serif, Normal';font-variant-ligatures:normal;font-variant-caps:normal;font-variant-numeric:normal;font-feature-settings:normal;text-align:start;letter-spacing:0px;word-spacing:0px;writing-mode:lr-tb;text-anchor:start;fill:#000000;fill-opacity:1;stroke:none;stroke-width:0.1023384px;stroke-linecap:butt;stroke-linejoin:miter;stroke-opacity:1"
       id="path4494"
       inkscape:connector-curvature="0" />
    <path
       d="m 150.9359,19.128938 h -0.44733 v -1.51332 q 0,-0.183217 -0.0214,-0.342639 -0.0214,-0.161801 -0.0785,-0.25222 -0.0595,-0.09994 -0.17132,-0.147525 -0.11183,-0.04997 -0.29029,-0.04997 -0.18322,0 -0.38309,0.09042 -0.19987,0.09042 -0.38309,0.230806 v 1.984448 h -0.44733 v -3.7024 h 0.44733 v 1.339621 q 0.20939,-0.173698 0.43306,-0.271255 0.22366,-0.09756 0.45923,-0.09756 0.43068,0 0.65672,0.259358 0.22605,0.259359 0.22605,0.747143 z"
       style="font-style:normal;font-variant:normal;font-weight:normal;font-stretch:normal;font-size:medium;line-height:4.06400013px;font-family:sans-serif;-inkscape-font-specification:'sans-serif, Normal';font-variant-ligatures:normal;font-variant-caps:normal;font-variant-numeric:normal;font-feature-settings:normal;text-align:start;letter-spacing:0px;word-spacing:0px;writing-mode:lr-tb;text-anchor:start;fill:#000000;fill-opacity:1;stroke:none;stroke-width:0.1023384px;stroke-linecap:butt;stroke-linejoin:miter;stroke-opacity:1"
       id="path4496"
       inkscape:connector-curvature="0" />
  </g>
</svg>
