<?xml version="1.0" encoding="utf-8"?>
<!-- Generator: Adobe Illustrator 20.1.0, SVG Export Plug-In . SVG Version: 6.00 Build 0)  -->
<svg version="1.1"
	 id="svg8993" inkscape:version="0.92pre1_64bit r15044" sodipodi:docname="logo-mcv-en.svg" xmlns:cc="http://creativecommons.org/ns#" xmlns:dc="http://purl.org/dc/elements/1.1/" xmlns:inkscape="http://www.inkscape.org/namespaces/inkscape" xmlns:rdf="http://www.w3.org/1999/02/22-rdf-syntax-ns#" xmlns:sodipodi="http://sodipodi.sourceforge.net/DTD/sodipodi-0.dtd" xmlns:svg="http://www.w3.org/2000/svg"
	 xmlns="http://www.w3.org/2000/svg" xmlns:xlink="http://www.w3.org/1999/xlink" x="0px" y="0px" viewBox="0 0 600 100"
	 style="enable-background:new 0 0 600 100;" xml:space="preserve">
<style type="text/css">
	.st0{fill:url(#path8309_1_);}
	.st1{fill:url(#path8307_1_);}
	.st2{fill:url(#path8305-3_1_);}
</style>
<sodipodi:namedview  bordercolor="#666666" borderopacity="1" gridtolerance="10" guidetolerance="10" id="namedview22" inkscape:current-layer="svg8993" inkscape:cx="362.46785" inkscape:cy="50" inkscape:guide-bbox="true" inkscape:pageopacity="0" inkscape:pageshadow="2" inkscape:showpageshadow="false" inkscape:window-height="986" inkscape:window-maximized="1" inkscape:window-width="1920" inkscape:window-x="-11" inkscape:window-y="-11" inkscape:zoom="1.3859293" objecttolerance="10" pagecolor="#ffffff" showgrid="false" showguides="true">
	</sodipodi:namedview>
<g id="layer1" transform="matrix(0.77419646,0,0,0.77419646,0.63113872,-206.74774)">
	<g id="g9575" transform="matrix(0.28100712,0,0,0.28100712,19.259546,198.79607)">
		
			<linearGradient id="path8309_1_" gradientUnits="userSpaceOnUse" x1="343.3932" y1="-642.2598" x2="504.824" y2="-633.4399" gradientTransform="matrix(0.8223 0 0 -0.8223 -163.5911 32.2428)">
			<stop  offset="0" style="stop-color:#0D6328"/>
			<stop  offset="1" style="stop-color:#6DA482"/>
		</linearGradient>
		<path id="path8309" inkscape:connector-curvature="0" class="st0" d="M-9.6,602.2c0,0,87.2-52.3,167.3-72.9
			c80.1-20.5,165-28.1,187.6-28.1c22.6,0,77.4,4.8,110.2,11c68.6,16.2,115.7,29.4,131.5,40.4c15.7,11,8.9,12.8-6.7,8.2
			c-15.6-4.6-150.8-41-254.1-33.5c-103.4,7.5-169.8,25.3-216.4,41.1c-46.6,15.7-83.8,30.4-111.9,41.4
			C-25.2,619.1-30.9,615-9.6,602.2L-9.6,602.2z"/>
		
			<linearGradient id="path8307_1_" gradientUnits="userSpaceOnUse" x1="458.6907" y1="-433.5915" x2="475.2614" y2="-405.7954" gradientTransform="matrix(0.8223 0 0 -0.8223 -163.5911 32.2428)">
			<stop  offset="0" style="stop-color:#F29628"/>
			<stop  offset="1" style="stop-color:#F29628;stop-opacity:0"/>
		</linearGradient>
		<circle id="path8307" class="st1" cx="232.9" cy="356.3" r="25.8"/>
		
			<linearGradient id="path8305-3_1_" gradientUnits="userSpaceOnUse" x1="601.8065" y1="-307.7062" x2="599.4011" y2="-411.4068" gradientTransform="matrix(0.8223 0 0 -0.8223 -163.5911 32.2428)">
			<stop  offset="0" style="stop-color:#82D14B"/>
			<stop  offset="1" style="stop-color:#58942E"/>
		</linearGradient>
		<path id="path8305-3" inkscape:connector-curvature="0" class="st2" d="M102.9,348c8.1-9.3,22-2.8,12.8,9.2c-9.2,12-49,75-49,75
			s54.3-51,85-66.3c27.6-15,59.1-8.9,53.1,14.2c-6.8,23.3-20.5,56.1-20.5,56.1s92.4-82.8,145.8-93.8c53.4-11-58.9,158.2-58.9,158.2
			s102.7-44.5,164.3-58.9c30.8-7.2,69.4-15.1,106.2-17s57.9-1.4,91.2,6c27.4,8.4,37.7,28.9,34.7,51.6c-1.6,12.2-10.8,44.2-17.8,57.1
			c-7.1,12.8-9.2,11.6-9.9,6.5c-0.4-2.7,13-52.6,12.5-60c2.1-24.4-19.8-38-38.8-41.7c-15.3-4.9-49-4.2-84.7,0.3
			c-16.7,2.1-68.8,12.9-105.1,24.6c-36.2,11.7-72.3,28.3-87.2,36.6c-16.1,9.9-106.6,63.7-116.5,68.2c-14.2,6.6-17.6-3.3-14.8-8.6
			c21.1-39.5,81.2-143.8,82.2-156.5c4.9-20.7-5.7-16.5-9.6-13.7c-2.4,1.8-144.2,121.4-151.6,124.2c-7.3,2.8-12.6-1.7-12.2-8.4
			c0-12.6,55.7-105.9,61.6-118.6c6-12.8-8.6-18.8-32.2,0.9C123.3,410.3,27.3,509.3,15.3,519.5c-20.9,17.8-38.8,9.8-27.4-8.5
			c7.9-12.8,21-32.2,33.2-50.2c12.2-18,40.2-57.3,44.5-64.6C72.9,386.1,95.4,356.6,102.9,348L102.9,348z"/>
	</g>
</g>
<g>
	<path d="M186.1,41.5v-0.9h2.7V22.1h-2.7v-0.9h10c1.4,0,2.7,0.2,3.7,0.7c1.9,0.9,2.9,2.5,2.9,4.7c0,1-0.2,1.9-0.7,2.7
		c-1.2,2.1-3.6,3.1-7.3,3.1h-3v8.1h2.5c0.1,0,0.2,0,0.3,0c0.4,0.1,0.5,0.3,0.5,0.8H186.1z M191.7,22.1v9.5h3.1c0.3,0,0.5,0,0.8,0
		c2.6-0.3,3.9-1.9,3.9-4.8c0-0.7-0.1-1.3-0.3-1.9c-0.6-1.8-1.9-2.7-3.9-2.7H191.7z"/>
	<path d="M221.4,40.7c0.3,0,0.5,0.3,0.5,0.8h-4.8l-0.2-3.4c-0.2,0.6-0.6,1.2-1,1.7c-1.1,1.4-2.5,2.1-4.2,2.1c-3.2,0-4.8-2-4.8-5.8
		v-8h-2.6v-0.8h5.1v9.4c0,0.4,0,0.7,0.1,1c0.3,1.9,1.4,2.8,3.2,2.8c0.7,0,1.3-0.2,2-0.6c1.4-0.9,2.1-2.4,2.1-4.5V28h-2.8v-0.8h5.3
		v13.5h1.7C221.2,40.7,221.3,40.7,221.4,40.7z"/>
	<path d="M229.3,40.9c1.6,0,2.6-0.5,3.1-1.4c0.2-0.3,0.3-0.7,0.3-1.1c0-0.9-0.7-1.8-2.1-2.4c-0.3-0.2-0.8-0.4-1.5-0.7
		c-1.8-0.8-3.1-1.5-3.7-2.2c-0.7-0.7-1-1.6-1-2.6c0-1.6,0.9-2.6,2.6-3.3c0.8-0.3,1.6-0.4,2.6-0.4c1.5,0,2.8,0.3,3.9,0.9
		c0-0.7,0.2-1,0.5-1.1c0.1,0,0.3,0,0.4,0v4.2h-0.9c0-2.1-1.2-3.1-3.4-3.1c-1.7,0-2.7,0.5-3.1,1.5c-0.1,0.3-0.2,0.6-0.2,0.8
		c0,1,0.7,1.8,2.1,2.5c0.3,0.2,0.8,0.4,1.5,0.6c1.8,0.7,3,1.5,3.6,2.1c0.7,0.7,1,1.6,1,2.6c0,1.8-1,3-2.9,3.6
		c-0.7,0.2-1.6,0.4-2.4,0.4c-1.6,0-3-0.4-4.2-1.2c0,0.6-0.1,0.9-0.4,1c-0.1,0-0.3,0-0.5,0v-5.1h0.9
		C225.5,39.4,226.8,40.9,229.3,40.9z"/>
	<path d="M246.8,38.8c-0.2,0.5-0.5,0.9-0.9,1.4c-1.1,1.1-2.5,1.7-4.2,1.7c-0.7,0-1.3-0.1-1.9-0.4c-1.5-0.6-2.3-1.8-2.3-3.5
		c0-0.5,0.1-1,0.2-1.4c0.8-2.2,3.8-3.3,9.1-3.3v-2.1c-0.1-2.2-1.2-3.3-3.3-3.5c-0.9,0-1.6,0.3-2,0.8c-0.1,0.2-0.3,0.7-0.6,1.5
		c-0.2,0.7-0.6,1-1.1,1c-0.1,0-0.2,0-0.3,0c-0.7-0.1-1-0.5-1-1.2c0-0.4,0.1-0.8,0.4-1.1c0.9-1.2,2.5-1.8,5.1-1.8c0.2,0,0.4,0,0.6,0
		c3.2,0.2,4.8,1.9,4.8,5.1V39c0,1.1,0.3,1.7,0.9,1.8c0.7,0,1.2-0.9,1.3-2.5l0.9,0c0,0.1,0,0.2,0,0.4c-0.2,2.1-1.1,3.1-2.9,3.1
		C248,41.8,247.1,40.8,246.8,38.8z M244.4,40.1c1.3-0.6,2.1-1.7,2.5-3.3v-2.7c-1.8,0-3.1,0.1-4,0.3c-1.7,0.4-2.6,1.4-2.6,2.9
		c0,0.4,0,0.7,0.1,1c0.3,1.4,1.2,2.1,2.5,2.1C243.3,40.5,243.8,40.4,244.4,40.1z"/>
	<path d="M253.3,27.1h2.4v-3.2l2.5-0.7v3.9h5.2V28h-5.2v10.3c0,1.7,0.6,2.6,1.9,2.6c1.1-0.2,1.9-1.2,2.5-3l0.9,0.2c0,0,0,0,0,0.1
		c-0.5,2.5-1.8,3.8-3.9,3.8c-2.4-0.1-3.7-1.5-3.9-4.4V28h-2.4V27.1z"/>
	<path d="M271.6,41.5v-0.9h2.7V22.1h-2.7v-0.9h10c1.8,0,3.2,0.4,4.4,1.2c1.5,1,2.2,2.4,2.2,4.1c0,0.7-0.1,1.4-0.4,2.1
		c-0.8,1.7-2.3,2.8-4.4,3.3l5.4,8.7h1.3c0.2,0,0.3,0,0.4,0c0.3,0.1,0.4,0.3,0.4,0.8h-5.1l-5.4-9.3h-3.2v8.4h2.7v0.9H271.6z
		 M277.2,22.1v9.1h3.5c1,0,1.9-0.3,2.7-0.9c1.1-0.9,1.7-2.2,1.7-3.8c0-0.7-0.1-1.4-0.4-2.1c-0.7-1.6-2.1-2.4-4-2.4H277.2z"/>
	<path d="M308.6,40.7c0.3,0,0.5,0.3,0.5,0.8h-4.8l-0.2-3.4c-0.2,0.6-0.6,1.2-1,1.7c-1.1,1.4-2.5,2.1-4.2,2.1c-3.2,0-4.8-2-4.8-5.8
		v-8h-2.6v-0.8h5.1v9.4c0,0.4,0,0.7,0.1,1c0.3,1.9,1.4,2.8,3.2,2.8c0.7,0,1.3-0.2,2-0.6c1.4-0.9,2.1-2.4,2.1-4.5V28h-2.8v-0.8h5.3
		v13.5h1.7C308.4,40.7,308.5,40.7,308.6,40.7z"/>
	<path d="M316.4,27.1v14.8c0,1.6-0.3,2.8-0.9,3.9c-0.9,1.4-2.1,2.1-3.6,2.1c-0.5,0-0.9-0.1-1.4-0.3c-1-0.4-1.5-1-1.5-1.8
		c0-0.1,0-0.2,0-0.3c0.2-0.6,0.6-0.9,1.3-0.9c0.2,0,0.5,0.1,0.7,0.2c0.2,0.2,0.4,0.6,0.6,1.3c0.2,0.6,0.5,0.9,0.9,0.9
		c0.9,0,1.3-1.1,1.4-3.3V28h-2.7v-0.8H316.4z M316.6,23c-0.3,0.7-0.9,1.1-1.7,1.1c-0.2,0-0.5,0-0.7-0.1c-0.7-0.3-1.1-0.9-1.1-1.7
		c0-0.3,0.1-0.5,0.2-0.8c0.3-0.7,0.9-1.1,1.7-1.1c0.2,0,0.5,0.1,0.8,0.2c0.7,0.3,1,0.9,1,1.7C316.7,22.5,316.7,22.7,316.6,23z"/>
	<path d="M336.8,40.7c0.3,0,0.5,0.3,0.5,0.8h-4.8l-0.2-3.4c-0.2,0.6-0.6,1.2-1,1.7c-1.1,1.4-2.5,2.1-4.2,2.1c-3.2,0-4.8-2-4.8-5.8
		v-8h-2.6v-0.8h5.1v9.4c0,0.4,0,0.7,0.1,1c0.3,1.9,1.4,2.8,3.2,2.8c0.7,0,1.3-0.2,2-0.6c1.4-0.9,2.1-2.4,2.1-4.5V28h-2.8v-0.8h5.3
		v13.5h1.7C336.6,40.7,336.7,40.7,336.8,40.7z"/>
	<path d="M346.2,40.7c0.3,0,0.5,0.3,0.5,0.8h-7.4v-0.8c0.8,0,1.3-0.1,1.7-0.2c0.6-0.2,0.9-0.8,0.9-1.9V20.4h-2.5v-0.8h5.1v14.8
		l6.8-6.3h-2.5v-0.8h5.7c0,0.1,0,0.2,0,0.3c0,0.3-0.3,0.5-0.8,0.5c-0.2,0-0.4,0-0.6,0.1c-0.4,0.1-1,0.5-1.8,1.2l-3.2,3l5.4,8.4h1.2
		c0.1,0,0.2,0,0.3,0c0.3,0,0.5,0.3,0.5,0.8h-4.5l-4.8-7.6l-1.9,1.7v5h1.5C345.9,40.7,346.1,40.7,346.2,40.7z"/>
	<path d="M365.5,38.8c-0.2,0.5-0.5,0.9-0.9,1.4c-1.1,1.1-2.5,1.7-4.2,1.7c-0.7,0-1.3-0.1-1.9-0.4c-1.5-0.6-2.3-1.8-2.3-3.5
		c0-0.5,0.1-1,0.2-1.4c0.8-2.2,3.8-3.3,9.1-3.3v-2.1c-0.1-2.2-1.2-3.3-3.3-3.5c-0.9,0-1.6,0.3-2,0.8c-0.1,0.2-0.3,0.7-0.6,1.5
		c-0.2,0.7-0.6,1-1.1,1c-0.1,0-0.2,0-0.3,0c-0.7-0.1-1-0.5-1-1.2c0-0.4,0.1-0.8,0.4-1.1c0.9-1.2,2.5-1.8,5.1-1.8c0.2,0,0.4,0,0.6,0
		c3.2,0.2,4.8,1.9,4.8,5.1V39c0,1.1,0.3,1.7,0.9,1.8c0.7,0,1.2-0.9,1.3-2.5l0.9,0c0,0.1,0,0.2,0,0.4c-0.2,2.1-1.1,3.1-2.9,3.1
		C366.7,41.8,365.8,40.8,365.5,38.8z M363.1,40.1c1.3-0.6,2.1-1.7,2.5-3.3v-2.7c-1.8,0-3.1,0.1-4,0.3c-1.7,0.4-2.6,1.4-2.6,2.9
		c0,0.4,0,0.7,0.1,1c0.3,1.4,1.2,2.1,2.5,2.1C362.1,40.5,362.6,40.4,363.1,40.1z"/>
	<path d="M379.3,40.7c0.3,0,0.5,0.3,0.5,0.8h-7.4v-0.8c0.8,0,1.3-0.1,1.7-0.2c0.6-0.2,0.9-0.8,0.9-1.9V28h-2.5v-0.8h4.9l0.1,3.4
		c0.2-0.6,0.6-1.2,1-1.7c1.1-1.3,2.5-2,4.1-2c0.8,0,1.6,0.2,2.3,0.6c1.6,1,2.3,2.6,2.3,4.8v8.4h1.7c0.1,0,0.2,0,0.3,0
		c0.3,0,0.5,0.3,0.5,0.8h-7.6v-0.8c0.8,0,1.3-0.1,1.7-0.2c0.6-0.2,0.9-0.8,0.9-1.9v-6.7c0-0.7-0.1-1.2-0.3-1.8
		c-0.5-1.3-1.4-1.9-2.8-1.9c-0.6,0-1.2,0.2-1.9,0.6c-1.4,0.9-2.2,2.4-2.2,4.5v7.3h1.5C379.1,40.7,379.2,40.7,379.3,40.7z"/>
	<path d="M412.1,39.7c-1.4,1.4-3.4,2.1-6,2.1c-2.2,0-4.2-0.6-5.9-1.7c0,0.5,0,0.8-0.1,1c-0.1,0.3-0.4,0.5-0.9,0.5v-7h1
		c0.4,4.2,2.3,6.3,5.7,6.3c0.9,0,1.7-0.2,2.4-0.5c1.5-0.7,2.3-1.8,2.3-3.4c0-0.6-0.1-1.2-0.4-1.7c-0.5-0.9-1.8-1.8-3.9-2.7
		c-2.2-0.9-3.5-1.5-3.9-1.7c-2.1-1.2-3.2-2.7-3.2-4.6c0-1.3,0.5-2.4,1.4-3.3c1.4-1.4,3.2-2,5.7-2c2,0,3.8,0.4,5.4,1.3
		c0-0.3,0-0.5,0.1-0.6c0.1-0.3,0.4-0.5,0.9-0.5V27h-1c0-1.3-0.3-2.3-0.9-3.2c-1-1.3-2.4-1.9-4.3-1.9c-0.8,0-1.5,0.1-2.1,0.4
		c-1.5,0.6-2.2,1.6-2.2,3.1c0,0.6,0.1,1.1,0.4,1.6c0.5,0.9,1.8,1.8,3.8,2.6c2.2,1,3.5,1.6,4,1.8c2.2,1.2,3.2,2.8,3.2,4.8
		C413.5,37.6,413.1,38.8,412.1,39.7z"/>
	<path d="M429.1,39.2c-1.1,1.8-2.9,2.6-5.4,2.6c-1.5,0-2.9-0.4-4.1-1.2c-2-1.4-3-3.4-3-6.2c0-1.5,0.3-2.9,0.9-4.1
		c1.2-2.3,3.2-3.5,6-3.5c1.4,0,2.7,0.3,3.8,1c1.6,0.9,2.3,2.1,2.3,3.6c0,0.8-0.3,1.5-0.9,1.9c-0.8,0.6-2.6,0.8-5.3,0.8l-4.1-0.1
		c0,0.9,0.1,1.8,0.3,2.6c0.6,2.8,2.1,4.2,4.5,4.2c0.2,0,0.4,0,0.6,0c1.8-0.2,3-1.2,3.8-2.9l0.8,0.3
		C429.4,38.6,429.2,38.9,429.1,39.2z M422,28.1c-1.6,0.8-2.4,2.5-2.5,5.1l3.6,0.1c1,0,1.8,0,2.4-0.1c1.1-0.2,1.6-0.9,1.6-2.1
		c0-0.5-0.1-1-0.3-1.4c-0.5-1.3-1.6-2-3.1-2C423.1,27.6,422.5,27.8,422,28.1z"/>
	<path d="M439.1,40.7c0.3,0,0.5,0.3,0.5,0.8H432v-0.8c0.8,0,1.3-0.1,1.7-0.2c0.6-0.2,0.9-0.8,0.9-1.9V20.4H432v-0.8h5.1v10.8
		c0.2-0.7,0.6-1.2,1.1-1.8c1.1-1.2,2.5-1.8,4.2-1.8c0.7,0,1.4,0.2,2,0.5c1.6,0.9,2.4,2.5,2.4,5v8.4h1.7c0.1,0,0.2,0,0.3,0
		c0.3,0,0.5,0.3,0.5,0.8h-7.4v-0.8c0.8,0,1.3-0.1,1.6-0.2c0.5-0.2,0.7-0.8,0.7-1.9v-6.4c0-0.7-0.1-1.4-0.4-2
		c-0.5-1.3-1.5-1.9-2.9-1.9c-0.6,0-1.2,0.2-1.8,0.6c-1.4,0.9-2.1,2.4-2.1,4.5v7.3h1.7C438.9,40.7,439,40.7,439.1,40.7z"/>
	<path d="M464,39.2c-1.1,1.8-2.9,2.6-5.4,2.6c-1.5,0-2.9-0.4-4.1-1.2c-2-1.4-3-3.4-3-6.2c0-1.5,0.3-2.9,0.9-4.1
		c1.2-2.3,3.2-3.5,6-3.5c1.4,0,2.7,0.3,3.8,1c1.6,0.9,2.3,2.1,2.3,3.6c0,0.8-0.3,1.5-0.9,1.9c-0.8,0.6-2.6,0.8-5.3,0.8l-4.1-0.1
		c0,0.9,0.1,1.8,0.3,2.6c0.6,2.8,2.1,4.2,4.5,4.2c0.2,0,0.4,0,0.6,0c1.8-0.2,3-1.2,3.8-2.9l0.8,0.3C464.4,38.6,464.2,38.9,464,39.2z
		 M457,28.1c-1.6,0.8-2.4,2.5-2.5,5.1l3.6,0.1c1,0,1.8,0,2.4-0.1c1.1-0.2,1.6-0.9,1.6-2.1c0-0.5-0.1-1-0.3-1.4c-0.5-1.3-1.6-2-3.1-2
		C458,27.6,457.5,27.8,457,28.1z"/>
	<path d="M473.8,40.7c0.3,0,0.5,0.3,0.5,0.8h-7.4v-0.8c0.8,0,1.3-0.1,1.7-0.2c0.6-0.2,0.9-0.8,0.9-1.9V28h-2.5v-0.8h4.9l0.1,3.4
		c0.2-0.6,0.6-1.2,1-1.7c1.1-1.3,2.5-2,4.1-2c0.8,0,1.6,0.2,2.3,0.6c1.6,1,2.3,2.6,2.3,4.8v8.4h1.7c0.1,0,0.2,0,0.3,0
		c0.3,0,0.5,0.3,0.5,0.8h-7.6v-0.8c0.8,0,1.3-0.1,1.7-0.2c0.6-0.2,0.9-0.8,0.9-1.9v-6.7c0-0.7-0.1-1.2-0.3-1.8
		c-0.5-1.3-1.4-1.9-2.8-1.9c-0.6,0-1.2,0.2-1.9,0.6c-1.4,0.9-2.2,2.4-2.2,4.5v7.3h1.5C473.6,40.7,473.7,40.7,473.8,40.7z"/>
	<path d="M485.7,27.1h2.4v-3.2l2.5-0.7v3.9h5.2V28h-5.2v10.3c0,1.7,0.6,2.6,1.9,2.6c1.1-0.2,1.9-1.2,2.5-3l0.9,0.2c0,0,0,0,0,0.1
		c-0.5,2.5-1.8,3.8-3.9,3.8c-2.4-0.1-3.7-1.5-3.9-4.4V28h-2.4V27.1z"/>
	<path d="M504.3,40.7c0.3,0,0.5,0.3,0.5,0.8h-7.8v-0.8c0.8,0,1.3,0,1.7-0.1c0.7-0.2,1-0.9,1-1.9V28h-2.7v-0.8h5.2v13.5h1.7
		C504.1,40.7,504.2,40.7,504.3,40.7z M502.5,23c-0.3,0.7-0.9,1.1-1.7,1.1c-0.2,0-0.5,0-0.7-0.1c-0.7-0.3-1.1-0.9-1.1-1.7
		c0-0.3,0.1-0.5,0.2-0.8c0.3-0.7,0.9-1.1,1.7-1.1c0.2,0,0.5,0.1,0.8,0.2c0.7,0.3,1,0.9,1,1.7C502.7,22.5,502.6,22.7,502.5,23z"/>
</g>
<g>
	<path d="M186.1,71.6v-0.9h2.7V52.2h-2.7v-0.9h10c1.4,0,2.7,0.2,3.7,0.7c1.9,0.9,2.9,2.5,2.9,4.7c0,1-0.2,1.9-0.7,2.7
		c-1.2,2.1-3.6,3.1-7.3,3.1h-3v8.1h2.5c0.1,0,0.2,0,0.3,0c0.4,0.1,0.5,0.3,0.5,0.8H186.1z M191.7,52.2v9.5h3.1c0.3,0,0.5,0,0.8,0
		c2.6-0.3,3.9-1.9,3.9-4.8c0-0.7-0.1-1.3-0.3-1.9c-0.6-1.8-1.9-2.7-3.9-2.7H191.7z"/>
	<path d="M217.5,69.3c-1.1,1.8-2.9,2.6-5.4,2.6c-1.5,0-2.9-0.4-4.1-1.2c-2-1.4-3-3.4-3-6.2c0-1.5,0.3-2.9,0.9-4.1
		c1.2-2.3,3.2-3.5,6-3.5c1.4,0,2.7,0.3,3.8,1c1.6,0.9,2.3,2.1,2.3,3.6c0,0.8-0.3,1.5-0.9,1.9c-0.8,0.6-2.6,0.8-5.3,0.8l-4.1-0.1
		c0,0.9,0.1,1.8,0.3,2.6c0.6,2.8,2.1,4.2,4.5,4.2c0.2,0,0.4,0,0.6,0c1.8-0.2,3-1.2,3.8-2.9l0.8,0.3C217.8,68.7,217.7,69,217.5,69.3z
		 M210.5,58.2c-1.6,0.8-2.4,2.5-2.5,5.1l3.6,0.1c1,0,1.8,0,2.4-0.1c1.1-0.2,1.6-0.9,1.6-2.1c0-0.5-0.1-1-0.3-1.4
		c-0.5-1.3-1.6-2-3.1-2C211.5,57.7,211,57.9,210.5,58.2z"/>
	<path d="M227.3,70.8c0.3,0,0.5,0.3,0.5,0.8h-7.4v-0.8c0.8,0,1.3-0.1,1.7-0.2c0.6-0.2,0.9-0.8,0.9-1.9V58.1h-2.5v-0.8h4.9l0.1,3.4
		c0.2-0.6,0.6-1.2,1-1.7c1.1-1.3,2.5-2,4.1-2c0.8,0,1.6,0.2,2.3,0.6c1.6,1,2.3,2.6,2.3,4.8v8.4h1.7c0.1,0,0.2,0,0.3,0
		c0.3,0,0.5,0.3,0.5,0.8h-7.6v-0.8c0.8,0,1.3-0.1,1.7-0.2c0.6-0.2,0.9-0.8,0.9-1.9V62c0-0.7-0.1-1.2-0.3-1.8
		c-0.5-1.3-1.4-1.9-2.8-1.9c-0.6,0-1.3,0.2-1.9,0.6c-1.4,0.9-2.2,2.4-2.2,4.5v7.3h1.5C227.1,70.8,227.2,70.8,227.3,70.8z"/>
	<path d="M243,76.8c1.1-0.5,2.3-2.2,3.5-5.2l-6.1-13.5h-1.7v-0.9h6.6v0.9h-2.3l4.6,10.8l4.3-10.8h-2.5v-0.9h5.1c0,0.2,0,0.4-0.1,0.5
		c-0.1,0.2-0.3,0.4-0.8,0.4c-0.2,0-0.4,0-0.5,0.1c-0.3,0.1-0.5,0.5-0.7,1.1l-5,12.3c-0.5,1.2-1,2.3-1.6,3.1
		c-1.3,2.2-2.8,3.3-4.6,3.3c-0.5,0-1-0.1-1.4-0.3c-1-0.4-1.5-1-1.5-1.9c0-0.1,0-0.1,0-0.2c0.1-0.6,0.5-0.9,1.3-0.9
		c0.3,0,0.5,0.1,0.7,0.2c0.2,0.2,0.5,0.6,0.7,1.2c0.2,0.5,0.5,0.8,0.8,0.8C242.4,77,242.7,76.9,243,76.8z"/>
	<path d="M268.7,69.3c-1.1,1.8-2.9,2.6-5.4,2.6c-1.5,0-2.9-0.4-4.1-1.2c-2-1.4-3-3.4-3-6.2c0-1.5,0.3-2.9,0.9-4.1
		c1.2-2.3,3.2-3.5,6-3.5c1.4,0,2.7,0.3,3.8,1c1.6,0.9,2.3,2.1,2.3,3.6c0,0.8-0.3,1.5-0.9,1.9c-0.8,0.6-2.6,0.8-5.3,0.8l-4.1-0.1
		c0,0.9,0.1,1.8,0.3,2.6c0.6,2.8,2.1,4.2,4.5,4.2c0.2,0,0.4,0,0.6,0c1.8-0.2,3-1.2,3.8-2.9l0.8,0.3C269.1,68.7,268.9,69,268.7,69.3z
		 M261.7,58.2c-1.6,0.8-2.4,2.5-2.5,5.1l3.6,0.1c1,0,1.8,0,2.4-0.1c1.1-0.2,1.6-0.9,1.6-2.1c0-0.5-0.1-1-0.3-1.4
		c-0.5-1.3-1.6-2-3.1-2C262.7,57.7,262.2,57.9,261.7,58.2z"/>
	<path d="M278.9,70.8c0.3,0,0.5,0.3,0.5,0.8h-7.7v-0.8c0.8,0,1.3-0.1,1.7-0.2c0.6-0.2,0.9-0.8,0.9-1.9V50.5h-2.5v-0.8h5.1v21.1h1.8
		C278.7,70.8,278.8,70.8,278.9,70.8z"/>
	<path d="M288.6,70.8c0.3,0,0.5,0.3,0.5,0.8h-7.8v-0.8c0.8,0,1.3,0,1.7-0.1c0.7-0.2,1-0.9,1-1.9V58.1h-2.7v-0.8h5.2v13.5h1.7
		C288.4,70.8,288.5,70.8,288.6,70.8z M286.8,53.1c-0.3,0.7-0.9,1.1-1.7,1.1c-0.2,0-0.5,0-0.7-0.1c-0.7-0.3-1.1-0.9-1.1-1.7
		c0-0.3,0.1-0.5,0.2-0.8c0.3-0.7,0.9-1.1,1.7-1.1c0.2,0,0.5,0.1,0.8,0.2c0.7,0.3,1,0.9,1,1.7C287,52.6,286.9,52.8,286.8,53.1z"/>
	<path d="M302.7,68c-1.1,2.6-2.9,3.9-5.3,3.9c-1.2,0-2.3-0.3-3.3-1c-1.8-1.3-2.6-3.3-2.6-6.1c0-1.7,0.4-3.2,1.1-4.6
		c1.3-2.2,3.1-3.3,5.6-3.3c1.9,0,3.4,0.6,4.5,1.8v-8.2h-3.2v-0.8h5.7l0.1,21.1h1.7c0.1,0,0.2,0,0.3,0c0.3,0,0.5,0.3,0.5,0.8H303
		L302.7,68z M294.7,67.2c0.6,2.3,1.8,3.4,3.6,3.4c0.9,0,1.7-0.3,2.5-1c1.4-1.2,2-3.2,2-5.9c0-1.3-0.2-2.4-0.6-3.3
		c-0.7-1.8-1.9-2.6-3.5-2.6c-0.7,0-1.3,0.1-1.8,0.4c-1.7,0.9-2.6,3-2.6,6.2C294.4,65.4,294.5,66.4,294.7,67.2z"/>
	<path d="M316.9,70.8c0.3,0,0.5,0.3,0.5,0.8h-7.8v-0.8c0.8,0,1.3,0,1.7-0.1c0.7-0.2,1-0.9,1-1.9V58.1h-2.7v-0.8h5.2v13.5h1.7
		C316.7,70.8,316.8,70.8,316.9,70.8z M315.1,53.1c-0.3,0.7-0.9,1.1-1.7,1.1c-0.2,0-0.5,0-0.7-0.1c-0.7-0.3-1.1-0.9-1.1-1.7
		c0-0.3,0.1-0.5,0.2-0.8c0.3-0.7,0.9-1.1,1.7-1.1c0.2,0,0.5,0.1,0.8,0.2c0.7,0.3,1,0.9,1,1.7C315.3,52.6,315.3,52.8,315.1,53.1z"/>
	<path d="M326.4,70.8c0.3,0,0.5,0.3,0.5,0.8h-7.4v-0.8c0.8,0,1.3-0.1,1.7-0.2c0.6-0.2,0.9-0.8,0.9-1.9V50.5h-2.5v-0.8h5.1v14.8
		l6.8-6.3h-2.5v-0.8h5.7c0,0.1,0,0.2,0,0.3c0,0.3-0.3,0.5-0.8,0.5c-0.2,0-0.4,0-0.6,0.1c-0.4,0.1-1,0.5-1.8,1.3l-3.2,3l5.4,8.4h1.2
		c0.1,0,0.2,0,0.3,0c0.3,0,0.5,0.3,0.5,0.8h-4.5l-4.8-7.6l-1.9,1.7v5h1.5C326.2,70.8,326.3,70.8,326.4,70.8z"/>
	<path d="M345.8,68.9c-0.2,0.5-0.5,0.9-0.9,1.4c-1.1,1.1-2.5,1.7-4.2,1.7c-0.7,0-1.3-0.1-1.9-0.4c-1.5-0.6-2.3-1.8-2.3-3.5
		c0-0.5,0.1-1,0.2-1.4c0.8-2.2,3.8-3.3,9.1-3.3v-2.1c-0.1-2.2-1.2-3.3-3.3-3.5c-0.9,0-1.6,0.3-2,0.8c-0.1,0.2-0.3,0.7-0.6,1.5
		c-0.2,0.7-0.6,1-1.1,1c-0.1,0-0.2,0-0.3,0c-0.7-0.1-1-0.5-1-1.2c0-0.4,0.1-0.8,0.4-1.1c0.9-1.2,2.5-1.8,5.1-1.8c0.2,0,0.4,0,0.6,0
		c3.2,0.2,4.8,1.9,4.8,5.1v7.1c0,1.1,0.3,1.7,0.9,1.8c0.7,0,1.2-0.9,1.3-2.5l0.9,0c0,0.1,0,0.2,0,0.4c-0.2,2.1-1.1,3.1-2.9,3.1
		C347,71.9,346.1,70.9,345.8,68.9z M343.3,70.2c1.3-0.6,2.1-1.7,2.5-3.3v-2.7c-1.8,0-3.1,0.1-4,0.3c-1.7,0.4-2.6,1.4-2.6,2.9
		c0,0.4,0,0.7,0.1,1c0.3,1.4,1.2,2.1,2.5,2.1C342.3,70.6,342.8,70.5,343.3,70.2z"/>
	<path d="M359.6,70.8c0.3,0,0.5,0.3,0.5,0.8h-7.4v-0.8c0.8,0,1.3-0.1,1.7-0.2c0.6-0.2,0.9-0.8,0.9-1.9V58.1h-2.5v-0.8h4.9l0.1,3.4
		c0.2-0.6,0.6-1.2,1-1.7c1.1-1.3,2.5-2,4.1-2c0.8,0,1.6,0.2,2.3,0.6c1.6,1,2.3,2.6,2.3,4.8v8.4h1.7c0.1,0,0.2,0,0.3,0
		c0.3,0,0.5,0.3,0.5,0.8h-7.6v-0.8c0.8,0,1.3-0.1,1.7-0.2c0.6-0.2,0.9-0.8,0.9-1.9V62c0-0.7-0.1-1.2-0.3-1.8
		c-0.5-1.3-1.4-1.9-2.8-1.9c-0.6,0-1.2,0.2-1.9,0.6c-1.4,0.9-2.2,2.4-2.2,4.5v7.3h1.5C359.4,70.8,359.5,70.8,359.6,70.8z"/>
	<path d="M390.8,71.6v-0.9h2.2l-2.5-6.6h-7.1l-2.5,6.6h1.7c0.1,0,0.2,0,0.3,0c0.4,0.1,0.5,0.3,0.5,0.8h-6v-0.9h2.1l7.6-19.4h1.3
		l7.7,19.4h1.1c0.1,0,0.2,0,0.3,0c0.4,0.1,0.5,0.3,0.5,0.8H390.8z M386.9,55l-3.1,8.2h6.3L386.9,55z"/>
	<path d="M406.5,70.8c0.3,0,0.5,0.3,0.5,0.8h-7.7v-0.8c0.8,0,1.3-0.1,1.7-0.2c0.6-0.2,0.9-0.8,0.9-1.9V50.5h-2.5v-0.8h5.1v21.1h1.8
		C406.2,70.8,406.4,70.8,406.5,70.8z"/>
	<path d="M418.3,68.9c-0.2,0.5-0.5,0.9-0.9,1.4c-1.1,1.1-2.5,1.7-4.2,1.7c-0.7,0-1.3-0.1-1.9-0.4c-1.5-0.6-2.3-1.8-2.3-3.5
		c0-0.5,0.1-1,0.2-1.4c0.8-2.2,3.8-3.3,9.1-3.3v-2.1c-0.1-2.2-1.2-3.3-3.3-3.5c-0.9,0-1.6,0.3-2,0.8c-0.1,0.2-0.3,0.7-0.6,1.5
		c-0.2,0.7-0.6,1-1.1,1c-0.1,0-0.2,0-0.3,0c-0.7-0.1-1-0.5-1-1.2c0-0.4,0.1-0.8,0.4-1.1c0.9-1.2,2.5-1.8,5.1-1.8c0.2,0,0.4,0,0.6,0
		c3.2,0.2,4.8,1.9,4.8,5.1v7.1c0,1.1,0.3,1.7,0.9,1.8c0.7,0,1.2-0.9,1.3-2.5l0.9,0c0,0.1,0,0.2,0,0.4c-0.2,2.1-1.1,3.1-2.9,3.1
		C419.5,71.9,418.6,70.9,418.3,68.9z M415.9,70.2c1.3-0.6,2.1-1.7,2.5-3.3v-2.7c-1.8,0-3.1,0.1-4,0.3c-1.7,0.4-2.6,1.4-2.6,2.9
		c0,0.4,0,0.7,0.1,1c0.3,1.4,1.2,2.1,2.5,2.1C414.9,70.6,415.4,70.5,415.9,70.2z"/>
	<path d="M432.1,70.8c0.3,0.1,0.5,0.3,0.5,0.8h-7.4v-0.8c0.8,0,1.3-0.1,1.7-0.2c0.6-0.2,0.9-0.8,0.9-1.9V58.1h-2.5v-0.8h4.9l0.1,3.4
		c0.2-0.6,0.5-1.2,0.9-1.7c1.1-1.4,2.4-2.1,4-2.1c0.4,0,0.8,0.1,1.3,0.2c1.4,0.5,2.3,1.7,2.7,3.4c0.2-0.5,0.4-0.9,0.7-1.3
		c1-1.6,2.4-2.4,4.1-2.4c0.8,0,1.5,0.2,2.2,0.6c1.5,0.9,2.3,2.5,2.3,4.9v8.4h1.7c0.1,0,0.2,0,0.3,0c0.3,0,0.5,0.3,0.5,0.8h-7.5v-0.8
		c0.8,0,1.3-0.1,1.6-0.2c0.5-0.2,0.7-0.8,0.7-1.9V62c0-0.7-0.1-1.4-0.3-1.9c-0.5-1.2-1.3-1.8-2.4-1.8c-0.4,0-0.9,0.1-1.4,0.3
		c-1.2,0.7-2,1.8-2.4,3.4v0.3v8.4h1.5c0.1,0,0.2,0,0.3,0c0.3,0,0.5,0.3,0.5,0.8h-7.3v-0.8c0.8,0,1.3-0.1,1.6-0.2
		c0.5-0.2,0.7-0.8,0.7-1.9V62c0-0.7-0.1-1.3-0.3-1.8c-0.4-1.2-1.2-1.9-2.3-1.9c-0.6,0-1.2,0.2-1.8,0.7c-1.3,1-2,2.4-2.1,4.4v7.3h1.5
		C431.9,70.8,432,70.8,432.1,70.8z"/>
	<path d="M484.7,52.2H482v18.5h1.8c0.1,0,0.2,0,0.3,0c0.4,0.1,0.5,0.3,0.5,0.8h-8.1v-0.9h2.7V54.4l-7.8,17.4h-0.7l-7.4-15.6v14.5
		h1.8c0.1,0,0.2,0,0.3,0c0.4,0.1,0.5,0.3,0.5,0.8h-6.8v-0.9h2.7V52.2h-2.7v-0.9h4.8l7.8,16.5l7.3-16.5h5.4V52.2z"/>
	<path d="M499.5,69.3c-1.1,1.8-2.9,2.6-5.4,2.6c-1.5,0-2.9-0.4-4.1-1.2c-2-1.4-3-3.4-3-6.2c0-1.5,0.3-2.9,0.9-4.1
		c1.2-2.3,3.2-3.5,6-3.5c1.4,0,2.7,0.3,3.8,1c1.6,0.9,2.3,2.1,2.3,3.6c0,0.8-0.3,1.5-0.9,1.9c-0.8,0.6-2.6,0.8-5.3,0.8l-4.1-0.1
		c0,0.9,0.1,1.8,0.3,2.6c0.6,2.8,2.1,4.2,4.5,4.2c0.2,0,0.4,0,0.6,0c1.8-0.2,3-1.2,3.8-2.9l0.8,0.3C499.9,68.7,499.7,69,499.5,69.3z
		 M492.5,58.2c-1.6,0.8-2.4,2.5-2.5,5.1l3.6,0.1c1,0,1.8,0,2.4-0.1c1.1-0.2,1.6-0.9,1.6-2.1c0-0.5-0.1-1-0.3-1.4
		c-0.5-1.3-1.6-2-3.1-2C493.5,57.7,493,57.9,492.5,58.2z"/>
	<path d="M509.7,70.8c0.3,0,0.5,0.3,0.5,0.8h-7.7v-0.8c0.8,0,1.3-0.1,1.7-0.2c0.6-0.2,0.9-0.8,0.9-1.9V50.5h-2.5v-0.8h5.1v21.1h1.8
		C509.5,70.8,509.6,70.8,509.7,70.8z"/>
	<path d="M521.6,68.9c-0.2,0.5-0.5,0.9-0.9,1.4c-1.1,1.1-2.5,1.7-4.2,1.7c-0.7,0-1.3-0.1-1.9-0.4c-1.5-0.6-2.3-1.8-2.3-3.5
		c0-0.5,0.1-1,0.2-1.4c0.8-2.2,3.8-3.3,9.1-3.3v-2.1c-0.1-2.2-1.2-3.3-3.3-3.5c-0.9,0-1.6,0.3-2,0.8c-0.1,0.2-0.3,0.7-0.6,1.5
		c-0.2,0.7-0.6,1-1.1,1c-0.1,0-0.2,0-0.3,0c-0.7-0.1-1-0.5-1-1.2c0-0.4,0.1-0.8,0.4-1.1c0.9-1.2,2.5-1.8,5.1-1.8c0.2,0,0.4,0,0.6,0
		c3.2,0.2,4.8,1.9,4.8,5.1v7.1c0,1.1,0.3,1.7,0.9,1.8c0.7,0,1.2-0.9,1.3-2.5l0.9,0c0,0.1,0,0.2,0,0.4c-0.2,2.1-1.1,3.1-2.9,3.1
		C522.8,71.9,521.8,70.9,521.6,68.9z M519.1,70.2c1.3-0.6,2.1-1.7,2.5-3.3v-2.7c-1.8,0-3.1,0.1-4,0.3c-1.7,0.4-2.6,1.4-2.6,2.9
		c0,0.4,0,0.7,0.1,1c0.3,1.4,1.2,2.1,2.5,2.1C518.1,70.6,518.6,70.5,519.1,70.2z"/>
	<path d="M531.8,76.8c1.1-0.5,2.3-2.2,3.5-5.2l-6.1-13.5h-1.7v-0.9h6.6v0.9H532l4.6,10.8l4.3-10.8h-2.5v-0.9h5.1
		c0,0.2,0,0.4-0.1,0.5c-0.1,0.2-0.3,0.4-0.8,0.4c-0.2,0-0.4,0-0.5,0.1c-0.3,0.1-0.5,0.5-0.7,1.1l-5,12.3c-0.5,1.2-1,2.3-1.6,3.1
		c-1.3,2.2-2.8,3.3-4.6,3.3c-0.5,0-1-0.1-1.4-0.3c-1-0.4-1.5-1-1.5-1.9c0-0.1,0-0.1,0-0.2c0.1-0.6,0.5-0.9,1.3-0.9
		c0.3,0,0.5,0.1,0.7,0.2c0.2,0.2,0.5,0.6,0.7,1.2c0.2,0.5,0.4,0.8,0.8,0.8C531.2,77,531.5,76.9,531.8,76.8z"/>
	<path d="M561.5,70.8c0.3,0,0.5,0.3,0.5,0.8h-4.8l-0.2-3.4c-0.2,0.6-0.6,1.2-1,1.7c-1.1,1.4-2.5,2.1-4.2,2.1c-3.2,0-4.8-2-4.8-5.8
		v-8h-2.6v-0.8h5.1v9.4c0,0.4,0,0.7,0.1,1c0.3,1.9,1.4,2.8,3.2,2.8c0.7,0,1.3-0.2,2-0.6c1.4-0.9,2.1-2.4,2.1-4.5v-7.3h-2.8v-0.8h5.3
		v13.5h1.7C561.3,70.8,561.4,70.8,561.5,70.8z"/>
</g>
</svg>
