<?xml version="1.0" encoding="UTF-8" standalone="no"?>
<svg
   xmlns:dc="http://purl.org/dc/elements/1.1/"
   xmlns:cc="http://creativecommons.org/ns#"
   xmlns:rdf="http://www.w3.org/1999/02/22-rdf-syntax-ns#"
   xmlns:svg="http://www.w3.org/2000/svg"
   xmlns="http://www.w3.org/2000/svg"
   xmlns:xlink="http://www.w3.org/1999/xlink"
   xmlns:sodipodi="http://sodipodi.sourceforge.net/DTD/sodipodi-0.dtd"
   xmlns:inkscape="http://www.inkscape.org/namespaces/inkscape"
   id="svg8993"
   version="1.1"
   viewBox="0 0 158.75 26.458334"
   height="100"
   width="600"
   inkscape:version="0.92pre1_64bit r15044"
   sodipodi:docname="logo-mcv-en.svg">
  <sodipodi:namedview
     pagecolor="#ffffff"
     bordercolor="#666666"
     borderopacity="1"
     objecttolerance="10"
     gridtolerance="10"
     guidetolerance="10"
     inkscape:pageopacity="0"
     inkscape:pageshadow="2"
     inkscape:window-width="1920"
     inkscape:window-height="986"
     id="namedview22"
     showgrid="false"
     inkscape:showpageshadow="false"
     inkscape:zoom="1.3859293"
     inkscape:cx="362.46785"
     inkscape:cy="50"
     inkscape:window-x="-11"
     inkscape:window-y="-11"
     inkscape:window-maximized="1"
     inkscape:current-layer="svg8993"
     showguides="true"
     inkscape:guide-bbox="true" />
  <defs
     id="defs8987">
    <linearGradient
       gradientUnits="userSpaceOnUse"
       y2="242.47702"
       x2="114.39136"
       y1="138.77644"
       x1="116.79678"
       id="linearGradient8946"
       xlink:href="#linearGradient8944"
       gradientTransform="translate(-111.79475,114.61983)" />
    <linearGradient
       id="linearGradient8944">
      <stop
         id="stop8940"
         offset="0"
         style="stop-color:#82d14b;stop-opacity:1" />
      <stop
         id="stop8942"
         offset="1"
         style="stop-color:#58942e;stop-opacity:1" />
    </linearGradient>
    <linearGradient
       gradientUnits="userSpaceOnUse"
       y2="139.04372"
       x2="132.29842"
       y1="166.83975"
       x1="115.72771"
       id="linearGradient8954"
       xlink:href="#linearGradient8952"
       gradientTransform="translate(-111.79475,114.61983)" />
    <linearGradient
       id="linearGradient8952">
      <stop
         id="stop8948"
         offset="0"
         style="stop-color:#f29628;stop-opacity:1;" />
      <stop
         id="stop8950"
         offset="1"
         style="stop-color:#f29628;stop-opacity:0;" />
    </linearGradient>
    <linearGradient
       gradientUnits="userSpaceOnUse"
       y2="206.93018"
       x2="252.30243"
       y1="215.75006"
       x1="90.871643"
       id="linearGradient8962"
       xlink:href="#linearGradient8960"
       gradientTransform="translate(-111.79475,114.61983)" />
    <linearGradient
       id="linearGradient8960">
      <stop
         id="stop8956"
         offset="0"
         style="stop-color:#0d6328;stop-opacity:1;" />
      <stop
         id="stop8958"
         offset="1"
         style="stop-color:#6da482;stop-opacity:1" />
    </linearGradient>
  </defs>
  <metadata
     id="metadata8990">
    <rdf:RDF>
      <cc:Work
         rdf:about="">
        <dc:format>image/svg+xml</dc:format>
        <dc:type
           rdf:resource="http://purl.org/dc/dcmitype/StillImage" />
        <dc:title></dc:title>
      </cc:Work>
    </rdf:RDF>
  </metadata>
  <g
     transform="matrix(0.77419646,0,0,0.77419646,0.63113872,-206.74774)"
     id="layer1">
    <g
       transform="matrix(0.28100712,0,0,0.28100712,19.259546,198.79607)"
       id="g9575">
      <path
         style="fill:url(#linearGradient8962);fill-opacity:1;fill-rule:evenodd;stroke:none;stroke-width:1.10358703px;stroke-linecap:butt;stroke-linejoin:miter;stroke-opacity:1"
         d="m -55.083094,337.95644 c 0,0 23.070398,-13.84199 44.26541,-19.27656 21.194958,-5.43461 43.657999,-7.42733 49.636058,-7.42733 5.978101,0 20.470371,1.26808 29.165731,2.89846 18.14476,4.27625 30.61496,7.78962 34.781495,10.68808 4.16653,2.89846 2.34482,3.38718 -1.7757,2.16201 -4.120505,-1.22516 -39.889465,-10.85738 -67.243676,-8.86471 -27.3541702,1.99272 -44.926081,6.7027 -57.244541,10.86923 -12.31841,4.16653 -22.179369,8.04794 -29.606649,10.9464 -6.107285,2.46801 -7.607518,1.40006 -1.978128,-1.99558 z"
         id="path8309"
         inkscape:connector-curvature="0" />
      <circle
         style="opacity:1;fill:url(#linearGradient8954);fill-opacity:1;stroke:none;stroke-width:3.9735465;stroke-miterlimit:4;stroke-dasharray:none;stroke-opacity:1"
         id="path8307"
         cx="9.0850086"
         cy="272.90079"
         r="6.8167634" />
      <path
         style="fill:url(#linearGradient8946);fill-opacity:1;fill-rule:evenodd;stroke:none;stroke-width:1.10358703px;stroke-linecap:butt;stroke-linejoin:miter;stroke-opacity:1"
         d="m -25.299605,270.70381 c 2.148385,-2.46114 5.818206,-0.74383 3.395636,2.43633 -2.42257,3.18016 -12.958173,19.83666 -12.958173,19.83666 0,0 14.371699,-13.50578 22.497254,-17.53475 7.3073518,-3.96127 15.6250528,-2.34999 14.0468028,3.74632 -1.81157003,6.15924 -5.43461,14.85461 -5.43461,14.85461 0,0 24.4557102,-21.9196 38.5856792,-24.81805 14.130021,-2.89846 -15.579198,41.84648 -15.579198,41.84648 0,0 27.173059,-11.77497 43.476899,-15.57921 8.1519,-1.90212 18.35573,-3.98721 28.0898,-4.49328 9.734065,-0.50606 15.313095,-0.37803 24.137255,1.57916 7.25397,2.21351 9.98509,7.64468 9.17663,13.6492 -0.43358,3.22024 -2.84987,11.70324 -4.71743,15.09546 -1.86757,3.39223 -2.42451,3.06523 -2.63154,1.72046 -0.11038,-0.71696 3.44978,-13.91723 3.30754,-15.8629 0.54241,-6.44512 -5.23273,-10.05115 -10.25502,-11.04182 -4.05243,-1.30334 -12.956975,-1.11312 -22.397305,0.0674 -4.40987,0.55144 -18.20007,3.41099 -27.79553,6.51932 -9.58205,3.10398 -19.13092,7.48154 -23.06134,9.68433 -4.27102,2.63139 -28.2130502,16.84562 -30.8227012,18.05366 -3.757999,1.73963 -4.65265,-0.86831 -3.90584,-2.26985 5.573382,-10.45949 21.4745412,-38.04511 21.7462602,-41.39645 1.29944,-5.47427 -1.51348,-4.376 -2.536108,-3.62309 -0.637542,0.46939 -38.161486,32.12133 -40.101782,32.86455 -1.940293,0.74323 -3.324516,-0.45024 -3.222186,-2.23029 0.008,-3.33935 14.7245758,-28.03042 16.2978358,-31.39145 1.584759,-3.38563 -2.28219,-4.96544 -8.5186068,0.2316 -5.434615,4.52883 -30.831729,30.71337 -34.01162,33.42993 -5.518826,4.71469 -10.265598,2.59284 -7.242414,-2.25972 2.079541,-3.3951 5.549631,-8.5186 8.784949,-13.27518 3.235317,-4.75657 10.645808,-15.15979 11.786254,-17.08722 1.925658,-2.68996 7.869293,-10.47642 9.862609,-12.75221 z"
         id="path8305-3"
         inkscape:connector-curvature="0" />
    </g>
  </g>
  <g
     aria-label="One Stop Resource Centre"
     style="font-style:normal;font-weight:normal;font-size:19.02620125px;line-height:11.89137554px;font-family:sans-serif;letter-spacing:0px;word-spacing:0px;fill:#000000;fill-opacity:1;stroke:none;stroke-width:0.47565505px;stroke-linecap:butt;stroke-linejoin:miter;stroke-opacity:1"
     id="text3498">
    <path
       d="m 51.967768,9.2008209 c 0,-1.2937817 -1.002047,-2.4290117 -2.365591,-2.4290117 -1.274756,0 -2.340223,1.040099 -2.340223,2.3275386 0.0063,0.6405488 0.279051,1.2684132 0.73568,1.7060162 0.450286,0.43126 1.071809,0.684943 1.693332,0.684943 1.236703,0 2.276802,-0.957652 2.276802,-2.2894861 z M 47.86445,8.9027438 c 0,-1.2557294 0.849837,-1.7948051 1.636254,-1.7948051 0.418576,0 0.83081,0.1522096 1.141572,0.4249185 0.513707,0.4502868 0.697627,1.1732825 0.697627,1.7821209 0,1.3318339 -0.95131,1.8074889 -1.674306,1.8074889 -1.19865,0 -1.801147,-1.1225456 -1.801147,-2.2197232 z"
       style="font-style:normal;font-variant:normal;font-weight:normal;font-stretch:normal;font-size:6.34206724px;line-height:5.23220491px;font-family:'Goudy Bookletter 1911';-inkscape-font-specification:'Goudy Bookletter 1911, ';stroke-width:0.47565505px"
       id="path3585" />
    <path
       d="m 52.971995,8.9471382 c 0,-0.00634 0.0063,-0.025368 0.0063,-0.038052 V 8.6617452 c 0,-0.050737 -0.01903,-0.095131 -0.07611,-0.095131 -0.02537,0 -0.04439,0.012684 -0.06342,0.025368 -0.589812,0.3171033 -0.602496,0.3107613 -0.602496,0.3614978 v 0.00634 c 0,0.025368 0.01903,0.044394 0.03805,0.063421 0.285393,0.2156303 0.285393,0.2029462 0.285393,0.3551558 v 1.5157542 c 0,0.107815 -0.0063,0.190262 -0.164894,0.21563 -0.196604,0.03171 -0.24734,0.02537 -0.24734,0.15221 0,0.08879 0.06342,0.114157 0.101473,0.114157 0.01903,0 0.253683,-0.03805 0.558102,-0.03805 0.310761,0 0.570786,0.04439 0.589812,0.04439 0.05708,0 0.08245,-0.05074 0.08245,-0.114157 0,-0.139526 -0.0761,-0.126842 -0.342472,-0.171236 -0.133183,-0.01903 -0.139525,-0.107815 -0.139525,-0.177578 v -0.01903 -1.50307 c 0,-0.025368 0,-0.057079 0.0063,-0.082447 0.02537,-0.1141572 0.285393,-0.4122343 0.653233,-0.4122343 0.145867,0 0.494681,0.057079 0.634207,0.380524 0.0761,0.190262 0.08245,0.570786 0.08245,0.6849432 v 0.98302 c 0,0.107816 -0.01903,0.139526 -0.101473,0.15221 -0.253682,0.04439 -0.329787,0.03171 -0.329787,0.145868 0,0.06342 0.01268,0.126841 0.08879,0.126841 0.01268,0 0.240998,-0.03805 0.520049,-0.03805 0.317104,0 0.475655,0.03805 0.532734,0.03805 0.03805,0 0.09513,-0.01903 0.09513,-0.126841 0,-0.04439 -0.0063,-0.101473 -0.08879,-0.114158 -0.221972,-0.03171 -0.304419,-0.01903 -0.304419,-0.196604 v -0.01268 c 0,-0.875205 0.0063,-0.9893623 0.0063,-1.0971774 0,-0.1078152 0,-0.2156303 -0.01268,-0.3234455 C 54.716063,8.7188238 54.164303,8.5919825 53.87891,8.5919825 h -0.01268 c -0.545418,0.00634 -0.843495,0.380524 -0.868863,0.380524 h -0.0063 c -0.0063,0 -0.01903,-0.00634 -0.01903,-0.025368 z"
       style="font-style:normal;font-variant:normal;font-weight:normal;font-stretch:normal;font-size:6.34206724px;line-height:5.23220491px;font-family:'Goudy Bookletter 1911';-inkscape-font-specification:'Goudy Bookletter 1911, ';stroke-width:0.47565505px"
       id="path3587" />
    <path
       d="m 55.375936,10.031632 c 0,1.084493 0.703969,1.426965 1.224019,1.426965 0.450286,0 0.862521,-0.228315 1.122545,-0.564444 0.03171,-0.03805 0.0444,-0.07611 0.0444,-0.101473 0,-0.05708 -0.0444,-0.09513 -0.101473,-0.09513 -0.06342,0 -0.114157,0.05708 -0.145868,0.08879 -0.196604,0.190262 -0.475655,0.310761 -0.754706,0.310761 -0.7991,0 -0.938626,-0.843495 -0.938626,-0.9196 0,-0.05708 0.03805,-0.05074 1.350861,-0.501023 0.18392,-0.063421 0.513707,-0.1268414 0.513707,-0.3171034 v -0.00634 c 0,-0.057079 -0.02537,-0.1078151 -0.05074,-0.1395255 -0.234657,-0.3234454 -0.653233,-0.6088384 -1.090836,-0.6088384 -0.634207,0 -1.173282,0.5390757 -1.173282,1.4269654 z M 57.07561,9.3720567 c 0,0.025368 -0.01903,0.057079 -0.05708,0.076105 -0.01268,0.00634 -1.16694,0.4566289 -1.185967,0.4566289 -0.01268,0 -0.03171,-0.00634 -0.03171,-0.044394 0,-0.564444 0.240999,-0.9069156 0.608839,-0.9069156 0.355155,0 0.665917,0.3424716 0.665917,0.4185764 z"
       style="font-style:normal;font-variant:normal;font-weight:normal;font-stretch:normal;font-size:6.34206724px;line-height:5.23220491px;font-family:'Goudy Bookletter 1911';-inkscape-font-specification:'Goudy Bookletter 1911, ';stroke-width:0.47565505px"
       id="path3589" />
    <path
       d="m 59.613724,8.0655909 c 0,0.4122343 0.234657,0.8244687 0.754706,1.0274149 0.424919,0.1712358 0.830811,0.1522096 1.198651,0.4185764 0.228314,0.1648938 0.36784,0.4185764 0.36784,0.6976278 0,0.494681 -0.418577,0.881547 -0.9196,0.881547 -0.374182,0 -0.659575,-0.202946 -0.818127,-0.418576 -0.190262,-0.253683 -0.120499,-0.09513 -0.164893,-0.539076 -0.03805,-0.3107615 -0.04439,-0.3678401 -0.177578,-0.3678401 -0.107815,0 -0.133184,0.063421 -0.139526,0.1331834 -0.05708,0.7229957 -0.145867,0.9576517 -0.145867,1.0337567 0,0.03805 0.02537,0.09513 0.114157,0.09513 0.05708,0 0.101473,-0.01903 0.164894,-0.01903 0.08879,0 0.133183,0.03171 0.196604,0.08879 0.240998,0.209288 0.596154,0.348814 0.963994,0.348814 0.780074,0 1.388913,-0.608839 1.388913,-1.363545 0,-0.5771279 -0.342472,-0.9893622 -0.799101,-1.1859663 C 61.192899,8.7251659 60.73627,8.7315079 60.393798,8.4841673 60.197194,8.3446418 60.070353,8.1416957 60.070353,7.9070392 c 0,-0.3297875 0.260025,-0.5961543 0.615181,-0.5961543 0.279051,0 0.526391,0.1648937 0.697627,0.3551557 0.304419,0.3488137 0.234656,0.5771282 0.437603,0.5834702 h 0.0063 c 0.06342,0 0.107815,-0.03171 0.107815,-0.095131 0,-0.050736 -0.02537,-0.2029461 -0.02537,-0.5137074 0,-0.3171034 0.02537,-0.4756551 0.02537,-0.5263916 0,-0.069763 -0.0444,-0.1204993 -0.101473,-0.1204993 -0.15221,0 -0.171236,0.2536827 -0.266367,0.2536827 -0.08245,0 -0.304419,-0.2536827 -0.818127,-0.2536827 -0.665917,0 -1.13523,0.5073654 -1.13523,1.0718094 z"
       style="font-style:normal;font-variant:normal;font-weight:normal;font-stretch:normal;font-size:6.34206724px;line-height:5.23220491px;font-family:'Goudy Bookletter 1911';-inkscape-font-specification:'Goudy Bookletter 1911, ';stroke-width:0.47565505px"
       id="path3591" />
    <path
       d="m 62.785947,9.023243 h 0.202947 c 0.03805,0 0.04439,0.025368 0.04439,0.057079 0,0.1395255 -0.02537,1.1225464 -0.02537,1.4015964 0,0.06976 0,0.133184 0.0063,0.202947 0.04439,0.596154 0.386866,0.773732 0.640549,0.773732 0.348813,0 0.659575,-0.317104 0.881547,-0.570786 0.01268,-0.01903 0.04439,-0.05708 0.04439,-0.107815 0,-0.05708 -0.04439,-0.114158 -0.114157,-0.114158 -0.139525,0 -0.386866,0.380524 -0.691285,0.380524 -0.266367,0 -0.323446,-0.24734 -0.323446,-0.469312 0,-0.15221 0,-0.298078 0.0063,-1.4840442 0,-0.044395 0.01903,-0.057079 0.06342,-0.057079 h 0.742022 c 0.05708,0 0.08879,-0.00634 0.114157,-0.03171 0.03171,-0.038052 0.05708,-0.1458675 0.05708,-0.1839199 0,-0.1204993 -0.107815,-0.1204993 -0.164894,-0.1204993 -0.01903,0 -0.03171,-0.00634 -0.05074,-0.00634 h -0.570786 c -0.0761,0 -0.126842,-0.019026 -0.126842,-0.1268413 0,-0.088789 0.0063,-0.3551558 0.0063,-0.4439447 0,-0.082447 -0.04439,-0.1014731 -0.08245,-0.1014731 -0.06976,0 -0.107815,0.082447 -0.126841,0.1141572 -0.342472,0.5834702 -0.659575,0.6976274 -0.659575,0.8054426 0,0.076105 0.06976,0.082447 0.126841,0.082447 z"
       style="font-style:normal;font-variant:normal;font-weight:normal;font-stretch:normal;font-size:6.34206724px;line-height:5.23220491px;font-family:'Goudy Bookletter 1911';-inkscape-font-specification:'Goudy Bookletter 1911, ';stroke-width:0.47565505px"
       id="path3593" />
    <path
       d="m 64.783599,10.044316 c 0,0.780074 0.539076,1.414281 1.344518,1.414281 0.710312,0 1.35086,-0.507366 1.35086,-1.414281 0,-0.8498372 -0.570786,-1.4459915 -1.325492,-1.4459915 -0.710311,0 -1.369886,0.564444 -1.369886,1.4459915 z m 1.363544,1.10352 c -0.520049,0 -0.868863,-0.475655 -0.868863,-1.13523 0,-0.8498375 0.501023,-1.1162043 0.830811,-1.1162043 0.481997,0 0.938626,0.4946812 0.938626,1.1732823 0,0.564444 -0.361498,1.078152 -0.900574,1.078152 z"
       style="font-style:normal;font-variant:normal;font-weight:normal;font-stretch:normal;font-size:6.34206724px;line-height:5.23220491px;font-family:'Goudy Bookletter 1911';-inkscape-font-specification:'Goudy Bookletter 1911, ';stroke-width:0.47565505px"
       id="path3595" />
    <path
       d="m 69.196389,11.166862 c -0.145867,0 -0.291735,-0.03805 -0.418576,-0.101473 -0.164894,-0.07611 -0.164894,-0.139526 -0.164894,-0.196604 V 9.5052401 c 0,-0.1839199 0.04439,-0.2917351 0.18392,-0.3932081 0.164894,-0.1268414 0.336129,-0.1331834 0.418576,-0.1331834 0.507366,0 0.983021,0.5073653 0.983021,1.1225454 0,0.634207 -0.488339,1.065468 -1.002047,1.065468 z m 0.228314,-2.5621954 c -0.05074,0 -0.09513,0 -0.145867,0.00634 -0.494681,0.069763 -0.697627,0.4122343 -0.729338,0.4122343 -0.01268,0 -0.01903,-0.019026 -0.01903,-0.038052 V 8.6110087 c 0,-0.038052 -0.01268,-0.069763 -0.05074,-0.069763 -0.03171,0 -0.04439,0.019026 -0.107815,0.050737 -0.665917,0.3932081 -0.678601,0.3868661 -0.678601,0.4249185 v 0.00634 c 0,0.044394 0.01268,0.038052 0.424919,0.2219724 0.0761,0.03171 0.08245,0.095131 0.08245,0.1268413 v 0.012684 2.9300351 c 0,0.107815 -0.03805,0.158552 -0.139526,0.177578 -0.291735,0.06342 -0.36784,0.05074 -0.36784,0.164894 0,0.107815 0.06342,0.126841 0.101473,0.126841 0.03171,0 0.380524,-0.05074 0.843495,-0.05074 0.355156,0 0.539076,0.02537 0.596154,0.02537 0.05708,0 0.0761,-0.04439 0.0761,-0.09513 0,-0.196604 -0.126841,-0.158552 -0.507365,-0.196604 -0.133184,-0.01269 -0.139526,-0.101474 -0.139526,-0.164894 v -0.01903 -0.868864 c 0,-0.04439 0.0063,-0.06976 0.04439,-0.06976 0.01268,0 0.190262,0.03805 0.405892,0.03805 0.881548,0 1.509412,-0.564444 1.509412,-1.4079389 0,-0.7356798 -0.494681,-1.3698865 -1.198651,-1.3698865 z"
       style="font-style:normal;font-variant:normal;font-weight:normal;font-stretch:normal;font-size:6.34206724px;line-height:5.23220491px;font-family:'Goudy Bookletter 1911';-inkscape-font-specification:'Goudy Bookletter 1911, ';stroke-width:0.47565505px"
       id="path3597" />
    <path
       d="m 75.108089,8.1924322 c 0,0.3805241 -0.253683,0.6278647 -0.52005,0.7356798 -0.177578,0.069763 -0.355156,0.088789 -0.58347,0.088789 -0.374182,0 -0.418577,0 -0.418577,-0.1141572 V 7.4123579 c 0,-0.00634 -0.0063,-0.012684 -0.0063,-0.019026 0,-0.044394 0.0063,-0.082447 0.03805,-0.101473 0.05708,-0.044395 0.298077,-0.063421 0.380524,-0.063421 0.640549,0 1.109862,0.4566288 1.109862,0.9639942 z M 74.125068,6.9810974 c -0.418576,0 -0.837153,0.076105 -1.401597,0.076105 h -0.221972 c -0.05708,0 -0.08245,0.025368 -0.08245,0.1204993 0,0.063421 0.03171,0.088789 0.09513,0.101473 0.437603,0.076105 0.532734,0.069763 0.532734,0.2727089 v 3.2788486 c 0,0.126842 -0.01903,0.202946 -0.171236,0.221973 -0.291735,0.02537 -0.393208,0.01268 -0.393208,0.152209 0,0.07611 0.01903,0.171236 0.114157,0.171236 0.02537,0 0.374182,-0.03805 0.811785,-0.03805 0.437602,0 0.792758,0.03805 0.818126,0.03805 0.08245,0 0.126842,-0.05708 0.126842,-0.139526 0,-0.196604 -0.15221,-0.171235 -0.577129,-0.209288 -0.158551,-0.01903 -0.164893,-0.126841 -0.164893,-0.202946 v -0.01903 -1.4650176 c 0,-0.076105 0.03171,-0.095131 0.08879,-0.095131 h 0.462971 c 0.04439,0 0.0761,0 0.107815,0.025368 0.03805,0.025368 0.01903,0 0.58347,0.7864163 l 0.634207,0.900574 c 0.0761,0.101473 0.336129,0.46297 0.672259,0.46297 0.36784,0 0.55176,-0.367839 0.55176,-0.46297 0,-0.03805 -0.02537,-0.06976 -0.06342,-0.06976 -0.08245,0 -0.107815,0.139525 -0.272709,0.139525 -0.133183,0 -0.253683,-0.101473 -0.342472,-0.202946 -0.240998,-0.285393 -0.393208,-0.716653 -1.173282,-1.6299112 -0.0063,-0.00634 -0.01268,-0.012684 -0.01268,-0.025368 0,-0.019026 0.01903,-0.025368 0.03171,-0.03171 0.171236,-0.063421 0.722996,-0.4185764 0.722996,-1.0527831 0,-0.4439447 -0.33613,-1.1035197 -1.477702,-1.1035197 z"
       style="font-style:normal;font-variant:normal;font-weight:normal;font-stretch:normal;font-size:6.34206724px;line-height:5.23220491px;font-family:'Goudy Bookletter 1911';-inkscape-font-specification:'Goudy Bookletter 1911, ';stroke-width:0.47565505px"
       id="path3599" />
    <path
       d="m 76.879506,10.031632 c 0,1.084493 0.70397,1.426965 1.224019,1.426965 0.450287,0 0.862521,-0.228315 1.122546,-0.564444 0.03171,-0.03805 0.04439,-0.07611 0.04439,-0.101473 0,-0.05708 -0.04439,-0.09513 -0.101474,-0.09513 -0.06342,0 -0.114157,0.05708 -0.145867,0.08879 -0.196604,0.190262 -0.475655,0.310761 -0.754706,0.310761 -0.799101,0 -0.938626,-0.843495 -0.938626,-0.9196 0,-0.05708 0.03805,-0.05074 1.35086,-0.501023 0.18392,-0.063421 0.513708,-0.1268414 0.513708,-0.3171034 v -0.00634 c 0,-0.057079 -0.02537,-0.1078151 -0.05074,-0.1395255 -0.234656,-0.3234454 -0.653233,-0.6088384 -1.090835,-0.6088384 -0.634207,0 -1.173283,0.5390757 -1.173283,1.4269654 z M 78.57918,9.3720567 c 0,0.025368 -0.01903,0.057079 -0.05708,0.076105 -0.01269,0.00634 -1.166941,0.4566289 -1.185967,0.4566289 -0.01268,0 -0.03171,-0.00634 -0.03171,-0.044394 0,-0.564444 0.240998,-0.9069156 0.608838,-0.9069156 0.355156,0 0.665917,0.3424716 0.665917,0.4185764 z"
       style="font-style:normal;font-variant:normal;font-weight:normal;font-stretch:normal;font-size:6.34206724px;line-height:5.23220491px;font-family:'Goudy Bookletter 1911';-inkscape-font-specification:'Goudy Bookletter 1911, ';stroke-width:0.47565505px"
       id="path3601" />
    <path
       d="m 79.525439,9.3783988 c 0,0.3107613 0.190262,0.6278642 0.703969,0.7737322 0.202946,0.05708 0.761048,0.120499 0.761048,0.539076 0,0.253682 -0.228314,0.424918 -0.513707,0.424918 -0.36784,0 -0.659575,-0.240998 -0.722996,-0.374182 -0.08879,-0.177578 0.01268,-0.393208 -0.145868,-0.393208 -0.09513,0 -0.114157,0.03171 -0.114157,0.196604 0,0.08879 0.0063,0.209288 0.0063,0.380524 0,0.09513 0.01268,0.145868 0.07611,0.21563 0.18392,0.215631 0.58347,0.317104 0.875205,0.317104 0.627865,0 0.963995,-0.450287 0.963995,-0.856179 0,-0.101473 -0.02537,-0.310762 -0.190262,-0.501024 C 80.990456,9.8286856 80.692379,9.8096594 80.368934,9.7208704 79.899621,9.587687 79.86791,9.3530305 79.86791,9.2642416 c 0,-0.2029462 0.18392,-0.3361296 0.39955,-0.3361296 0.209289,0 0.437603,0.1331834 0.52005,0.2473406 0.08879,0.1268414 0.06976,0.3107613 0.202946,0.3107613 0.05074,0 0.145868,-0.019026 0.145868,-0.101473 0,-0.025368 -0.08245,-0.4439447 -0.1205,-0.6659171 -0.0063,-0.03171 -0.02537,-0.1204993 -0.101473,-0.1204993 -0.0761,0 -0.101473,0.063421 -0.158551,0.063421 -0.03171,0 -0.126842,-0.03171 -0.317104,-0.03171 -0.570786,0 -0.913257,0.3678399 -0.913257,0.7483639 z"
       style="font-style:normal;font-variant:normal;font-weight:normal;font-stretch:normal;font-size:6.34206724px;line-height:5.23220491px;font-family:'Goudy Bookletter 1911';-inkscape-font-specification:'Goudy Bookletter 1911, ';stroke-width:0.47565505px"
       id="path3603" />
    <path
       d="m 81.604943,10.044316 c 0,0.780074 0.539076,1.414281 1.344518,1.414281 0.710312,0 1.350861,-0.507366 1.350861,-1.414281 0,-0.8498372 -0.570786,-1.4459915 -1.325492,-1.4459915 -0.710312,0 -1.369887,0.564444 -1.369887,1.4459915 z m 1.363545,1.10352 c -0.52005,0 -0.868864,-0.475655 -0.868864,-1.13523 0,-0.8498375 0.501024,-1.1162043 0.830811,-1.1162043 0.481997,0 0.938626,0.4946812 0.938626,1.1732823 0,0.564444 -0.361498,1.078152 -0.900573,1.078152 z"
       style="font-style:normal;font-variant:normal;font-weight:normal;font-stretch:normal;font-size:6.34206724px;line-height:5.23220491px;font-family:'Goudy Bookletter 1911';-inkscape-font-specification:'Goudy Bookletter 1911, ';stroke-width:0.47565505px"
       id="path3605" />
    <path
       d="m 86.709019,11.128809 c 0.0063,0 0.01903,0 0.01903,0.02537 v 0.145867 c 0,0.06342 0.01268,0.126842 0.08879,0.126842 0.02537,0 0.05074,-0.01269 0.06976,-0.02537 0.545417,-0.298077 0.634206,-0.152209 0.634206,-0.342471 0,-0.03805 -0.0063,-0.05708 -0.05074,-0.07611 -0.279051,-0.133184 -0.317104,-0.114157 -0.317104,-0.190262 V 8.8076127 c 0,-0.063421 -0.0063,-0.1268413 -0.09513,-0.1268413 -0.08245,0 -0.158551,0.00634 -0.780074,0.025368 -0.05074,0.00634 -0.08879,0.025368 -0.08879,0.1078151 0,0.063421 0.03171,0.088789 0.09513,0.1014731 0.323446,0.057079 0.418577,0.050737 0.418577,0.2283144 v 1.5601487 c 0,0.07611 -0.01268,0.08245 -0.107815,0.190262 -0.114158,0.114157 -0.298078,0.228314 -0.539076,0.228314 -0.33613,0 -0.570786,-0.228314 -0.672259,-0.424918 C 85.26937,10.469234 85.26937,10.234578 85.26937,10.044316 V 8.7441921 c 0,-0.044394 -0.01268,-0.076105 -0.06342,-0.076105 -0.06342,0 -0.133184,0.00634 -0.659575,0.038052 -0.06342,0.00634 -0.06976,0.044394 -0.06976,0.088789 v 0.019026 c 0,0.1078152 0.08245,0.082447 0.196604,0.1331834 0.171236,0.063421 0.171236,0.1204993 0.171236,0.1775779 0,0.1014731 -0.0063,0.8181267 -0.0063,1.0210729 0,0.133183 0.0063,0.260025 0.01903,0.386866 0.0761,0.58347 0.456629,0.9196 0.970336,0.9196 0.526392,0 0.849837,-0.323446 0.881548,-0.323446 z"
       style="font-style:normal;font-variant:normal;font-weight:normal;font-stretch:normal;font-size:6.34206724px;line-height:5.23220491px;font-family:'Goudy Bookletter 1911';-inkscape-font-specification:'Goudy Bookletter 1911, ';stroke-width:0.47565505px"
       id="path3607" />
    <path
       d="m 88.560011,8.9471382 c -0.01268,0 -0.01903,-0.012684 -0.01903,-0.03171 V 8.6617452 c 0,-0.057079 -0.0063,-0.1268413 -0.07611,-0.1268413 -0.01903,0 -0.03805,0.012684 -0.05708,0.019026 -0.659575,0.3234454 -0.665918,0.3107612 -0.665918,0.3424716 0.0063,0.025368 0.01903,0.038052 0.02537,0.044394 0.298077,0.2156302 0.348813,0.2092882 0.348813,0.3361295 v 1.6806483 c 0,0.09513 -0.02537,0.133183 -0.114157,0.152209 -0.171236,0.04439 -0.285393,0.0063 -0.285393,0.158552 0,0.06342 0.03805,0.107815 0.101473,0.107815 0.01903,0 0.291735,-0.03805 0.646891,-0.03805 0.342472,0 0.621523,0.03805 0.640549,0.03805 0.08245,0 0.08879,-0.07611 0.08879,-0.126841 0,-0.145868 -0.08245,-0.1205 -0.462971,-0.15221 -0.15221,-0.01268 -0.158552,-0.120499 -0.158552,-0.190262 v -0.02537 -1.5220964 c 0,-0.044395 0,-0.076105 0.02537,-0.1141572 0.03805,-0.057079 0.291735,-0.2600248 0.494681,-0.2600248 0.209288,0 0.21563,0.1585517 0.374182,0.1585517 0.107815,0 0.190262,-0.082447 0.260024,-0.1268413 0.05074,-0.044395 0.164894,-0.1141572 0.171236,-0.2219724 v -0.00634 c 0,-0.1775778 -0.291735,-0.2790509 -0.494681,-0.2790509 -0.06976,0 -0.126841,0.00634 -0.18392,0.025368 -0.171236,0.063421 -0.634207,0.4122343 -0.659575,0.4122343 z"
       style="font-style:normal;font-variant:normal;font-weight:normal;font-stretch:normal;font-size:6.34206724px;line-height:5.23220491px;font-family:'Goudy Bookletter 1911';-inkscape-font-specification:'Goudy Bookletter 1911, ';stroke-width:0.47565505px"
       id="path3609" />
    <path
       d="m 91.232696,11.452255 c 0.475655,0 0.843495,-0.260025 1.046441,-0.539076 0.01903,-0.02537 0.03805,-0.06342 0.03805,-0.101473 0,-0.06342 -0.05074,-0.107815 -0.107815,-0.107815 -0.145867,0 -0.279051,0.342471 -0.773732,0.342471 -0.58347,0 -1.002047,-0.526391 -1.002047,-1.1162034 0,-0.5327336 0.33613,-0.9766783 0.722996,-0.9766783 0.36784,0 0.475655,0.380524 0.76739,0.380524 0.133183,0 0.253683,-0.095131 0.253683,-0.2409985 0,-0.2409986 -0.348814,-0.469313 -0.805443,-0.469313 -0.811784,0 -1.357202,0.6024964 -1.357202,1.4650172 0,0.780075 0.488339,1.363545 1.217677,1.363545 z"
       style="font-style:normal;font-variant:normal;font-weight:normal;font-stretch:normal;font-size:6.34206724px;line-height:5.23220491px;font-family:'Goudy Bookletter 1911';-inkscape-font-specification:'Goudy Bookletter 1911, ';stroke-width:0.47565505px"
       id="path3611" />
    <path
       d="m 92.462165,10.031632 c 0,1.084493 0.703969,1.426965 1.224019,1.426965 0.450287,0 0.862521,-0.228315 1.122546,-0.564444 0.03171,-0.03805 0.04439,-0.07611 0.04439,-0.101473 0,-0.05708 -0.04439,-0.09513 -0.101473,-0.09513 -0.06342,0 -0.114157,0.05708 -0.145867,0.08879 -0.196604,0.190262 -0.475655,0.310761 -0.754706,0.310761 -0.799101,0 -0.938626,-0.843495 -0.938626,-0.9196 0,-0.05708 0.03805,-0.05074 1.35086,-0.501023 0.18392,-0.063421 0.513707,-0.1268414 0.513707,-0.3171034 v -0.00634 c 0,-0.057079 -0.02537,-0.1078151 -0.05074,-0.1395255 -0.234657,-0.3234454 -0.653233,-0.6088384 -1.090836,-0.6088384 -0.634206,0 -1.173282,0.5390757 -1.173282,1.4269654 z m 1.699674,-0.6595753 c 0,0.025368 -0.01903,0.057079 -0.05708,0.076105 -0.01268,0.00634 -1.16694,0.4566289 -1.185966,0.4566289 -0.01268,0 -0.03171,-0.00634 -0.03171,-0.044394 0,-0.564444 0.240999,-0.9069156 0.608839,-0.9069156 0.355156,0 0.665917,0.3424716 0.665917,0.4185764 z"
       style="font-style:normal;font-variant:normal;font-weight:normal;font-stretch:normal;font-size:6.34206724px;line-height:5.23220491px;font-family:'Goudy Bookletter 1911';-inkscape-font-specification:'Goudy Bookletter 1911, ';stroke-width:0.47565505px"
       id="path3613" />
    <path
       d="m 97.226343,9.0930058 c 0,-1.1732825 0.830811,-1.8772519 1.699674,-1.8772519 0.58347,0 1.033757,0.2917351 1.293783,0.6215226 0.11416,0.1458675 0.13952,0.2473406 0.16489,0.4185764 0.0317,0.2536827 0.019,0.2980772 0.18392,0.2980772 0.10782,0 0.12684,-0.063421 0.12684,-0.1078152 0,-0.063421 -0.17123,-1.3381762 -0.17123,-1.3445182 -0.006,-0.038052 -0.019,-0.076105 -0.0824,-0.076105 -0.0127,0 -0.0507,0.00634 -0.0698,0.00634 -0.1205,0.03171 -0.0761,0.2283144 -0.18392,0.2283144 -0.0825,0 -0.475656,-0.3361295 -1.243047,-0.3361295 h -0.0063 c -0.589812,0 -1.185966,0.2346565 -1.617227,0.6468908 -0.412234,0.3995503 -0.703969,1.0020467 -0.703969,1.6425954 0,0.6024964 0.253682,1.204993 0.684943,1.623569 0.424919,0.412235 1.014731,0.653233 1.604543,0.653233 0.355156,0 0.76739,-0.08245 1.173279,-0.317103 0.13319,-0.08245 0.14587,-0.133184 0.29808,-0.133184 h 0.17758 0.006 c 0.0317,0 0.11416,-0.0063 0.13953,-0.101473 0.019,-0.04439 0.15855,-1.0337566 0.15855,-1.0337566 0,-0.050737 -0.0571,-0.069763 -0.10148,-0.069763 -0.0761,0 -0.0888,0.063421 -0.0951,0.082447 -0.23465,0.7610485 -0.925938,1.2493875 -1.655276,1.2493875 -0.989362,0 -1.782121,-0.906916 -1.782121,-2.0738562 z"
       style="font-style:normal;font-variant:normal;font-weight:normal;font-stretch:normal;font-size:6.34206724px;line-height:5.23220491px;font-family:'Goudy Bookletter 1911';-inkscape-font-specification:'Goudy Bookletter 1911, ';stroke-width:0.47565505px"
       id="path3615" />
    <path
       d="m 101.07102,10.031632 c 0,1.084493 0.70397,1.426965 1.22402,1.426965 0.45029,0 0.86253,-0.228315 1.12255,-0.564444 0.0317,-0.03805 0.0444,-0.07611 0.0444,-0.101473 0,-0.05708 -0.0444,-0.09513 -0.10147,-0.09513 -0.0634,0 -0.11416,0.05708 -0.14587,0.08879 -0.1966,0.190262 -0.47565,0.310761 -0.7547,0.310761 -0.7991,0 -0.93863,-0.843495 -0.93863,-0.9196 0,-0.05708 0.038,-0.05074 1.35086,-0.501023 0.18392,-0.063421 0.51371,-0.1268414 0.51371,-0.3171034 v -0.00634 c 0,-0.057079 -0.0254,-0.1078151 -0.0507,-0.1395255 -0.23465,-0.3234454 -0.65323,-0.6088384 -1.09083,-0.6088384 -0.63421,0 -1.17329,0.5390757 -1.17329,1.4269654 z m 1.69968,-0.6595753 c 0,0.025368 -0.019,0.057079 -0.0571,0.076105 -0.0127,0.00634 -1.16694,0.4566289 -1.18597,0.4566289 -0.0127,0 -0.0317,-0.00634 -0.0317,-0.044394 0,-0.564444 0.241,-0.9069156 0.60884,-0.9069156 0.35516,0 0.66592,0.3424716 0.66592,0.4185764 z"
       style="font-style:normal;font-variant:normal;font-weight:normal;font-stretch:normal;font-size:6.34206724px;line-height:5.23220491px;font-family:'Goudy Bookletter 1911';-inkscape-font-specification:'Goudy Bookletter 1911, ';stroke-width:0.47565505px"
       id="path3617" />
    <path
       d="m 104.41458,8.9471382 c 0,-0.00634 0.006,-0.025368 0.006,-0.038052 V 8.6617452 c 0,-0.050737 -0.019,-0.095131 -0.0761,-0.095131 -0.0254,0 -0.0444,0.012684 -0.0634,0.025368 -0.58981,0.3171033 -0.6025,0.3107613 -0.6025,0.3614978 v 0.00634 c 0,0.025368 0.019,0.044394 0.0381,0.063421 0.28539,0.2156303 0.28539,0.2029462 0.28539,0.3551558 v 1.5157542 c 0,0.107815 -0.006,0.190262 -0.1649,0.21563 -0.1966,0.03171 -0.24734,0.02537 -0.24734,0.15221 0,0.08879 0.0634,0.114157 0.10148,0.114157 0.019,0 0.25368,-0.03805 0.5581,-0.03805 0.31076,0 0.57079,0.04439 0.58981,0.04439 0.0571,0 0.0824,-0.05074 0.0824,-0.114157 0,-0.139526 -0.0761,-0.126842 -0.34247,-0.171236 -0.13319,-0.01903 -0.13953,-0.107815 -0.13953,-0.177578 v -0.01903 -1.50307 c 0,-0.025368 0,-0.057079 0.006,-0.082447 0.0254,-0.1141572 0.2854,-0.4122343 0.65324,-0.4122343 0.14586,0 0.49468,0.057079 0.6342,0.380524 0.0761,0.190262 0.0825,0.570786 0.0825,0.6849432 v 0.98302 c 0,0.107816 -0.019,0.139526 -0.10147,0.15221 -0.25369,0.04439 -0.32979,0.03171 -0.32979,0.145868 0,0.06342 0.0127,0.126841 0.0888,0.126841 0.0127,0 0.241,-0.03805 0.52005,-0.03805 0.3171,0 0.47565,0.03805 0.53273,0.03805 0.038,0 0.0951,-0.01903 0.0951,-0.126841 0,-0.04439 -0.006,-0.101473 -0.0888,-0.114158 -0.22197,-0.03171 -0.30442,-0.01903 -0.30442,-0.196604 v -0.01268 c 0,-0.875205 0.006,-0.9893623 0.006,-1.0971774 0,-0.1078152 0,-0.2156303 -0.0127,-0.3234455 -0.0634,-0.7864163 -0.61518,-0.9132576 -0.90057,-0.9132576 h -0.0127 c -0.54541,0.00634 -0.84349,0.380524 -0.86886,0.380524 h -0.006 c -0.006,0 -0.019,-0.00634 -0.019,-0.025368 z"
       style="font-style:normal;font-variant:normal;font-weight:normal;font-stretch:normal;font-size:6.34206724px;line-height:5.23220491px;font-family:'Goudy Bookletter 1911';-inkscape-font-specification:'Goudy Bookletter 1911, ';stroke-width:0.47565505px"
       id="path3619" />
    <path
       d="m 106.93268,9.023243 h 0.20295 c 0.038,0 0.0444,0.025368 0.0444,0.057079 0,0.1395255 -0.0254,1.1225464 -0.0254,1.4015964 0,0.06976 0,0.133184 0.006,0.202947 0.0444,0.596154 0.38687,0.773732 0.64055,0.773732 0.34882,0 0.65958,-0.317104 0.88155,-0.570786 0.0127,-0.01903 0.0444,-0.05708 0.0444,-0.107815 0,-0.05708 -0.0444,-0.114158 -0.11415,-0.114158 -0.13953,0 -0.38687,0.380524 -0.69129,0.380524 -0.26636,0 -0.32344,-0.24734 -0.32344,-0.469312 0,-0.15221 0,-0.298078 0.006,-1.4840442 0,-0.044395 0.019,-0.057079 0.0634,-0.057079 h 0.74202 c 0.0571,0 0.0888,-0.00634 0.11416,-0.03171 0.0317,-0.038052 0.0571,-0.1458675 0.0571,-0.1839199 0,-0.1204993 -0.10782,-0.1204993 -0.1649,-0.1204993 -0.019,0 -0.0317,-0.00634 -0.0507,-0.00634 h -0.57079 c -0.0761,0 -0.12684,-0.019026 -0.12684,-0.1268413 0,-0.088789 0.006,-0.3551558 0.006,-0.4439447 0,-0.082447 -0.0444,-0.1014731 -0.0824,-0.1014731 -0.0698,0 -0.10781,0.082447 -0.12684,0.1141572 -0.34247,0.5834702 -0.65957,0.6976274 -0.65957,0.8054426 0,0.076105 0.0698,0.082447 0.12684,0.082447 z"
       style="font-style:normal;font-variant:normal;font-weight:normal;font-stretch:normal;font-size:6.34206724px;line-height:5.23220491px;font-family:'Goudy Bookletter 1911';-inkscape-font-specification:'Goudy Bookletter 1911, ';stroke-width:0.47565505px"
       id="path3621" />
    <path
       d="m 109.71675,8.9471382 c -0.0127,0 -0.019,-0.012684 -0.019,-0.03171 V 8.6617452 c 0,-0.057079 -0.006,-0.1268413 -0.0761,-0.1268413 -0.019,0 -0.038,0.012684 -0.0571,0.019026 -0.65958,0.3234454 -0.66592,0.3107612 -0.66592,0.3424716 0.006,0.025368 0.019,0.038052 0.0254,0.044394 0.29808,0.2156302 0.34881,0.2092882 0.34881,0.3361295 v 1.6806483 c 0,0.09513 -0.0254,0.133183 -0.11415,0.152209 -0.17124,0.04439 -0.2854,0.0063 -0.2854,0.158552 0,0.06342 0.0381,0.107815 0.10148,0.107815 0.019,0 0.29173,-0.03805 0.64689,-0.03805 0.34247,0 0.62152,0.03805 0.64055,0.03805 0.0824,0 0.0888,-0.07611 0.0888,-0.126841 0,-0.145868 -0.0824,-0.1205 -0.46297,-0.15221 -0.15221,-0.01268 -0.15856,-0.120499 -0.15856,-0.190262 v -0.02537 -1.5220964 c 0,-0.044395 0,-0.076105 0.0254,-0.1141572 0.038,-0.057079 0.29174,-0.2600248 0.49468,-0.2600248 0.20929,0 0.21563,0.1585517 0.37419,0.1585517 0.10781,0 0.19026,-0.082447 0.26002,-0.1268413 0.0507,-0.044395 0.16489,-0.1141572 0.17124,-0.2219724 v -0.00634 c 0,-0.1775778 -0.29174,-0.2790509 -0.49469,-0.2790509 -0.0698,0 -0.12684,0.00634 -0.18392,0.025368 -0.17123,0.063421 -0.6342,0.4122343 -0.65957,0.4122343 z"
       style="font-style:normal;font-variant:normal;font-weight:normal;font-stretch:normal;font-size:6.34206724px;line-height:5.23220491px;font-family:'Goudy Bookletter 1911';-inkscape-font-specification:'Goudy Bookletter 1911, ';stroke-width:0.47565505px"
       id="path3623" />
    <path
       d="m 111.20347,10.031632 c 0,1.084493 0.70397,1.426965 1.22402,1.426965 0.45028,0 0.86252,-0.228315 1.12254,-0.564444 0.0317,-0.03805 0.0444,-0.07611 0.0444,-0.101473 0,-0.05708 -0.0444,-0.09513 -0.10148,-0.09513 -0.0634,0 -0.11415,0.05708 -0.14586,0.08879 -0.19661,0.190262 -0.47566,0.310761 -0.75471,0.310761 -0.7991,0 -0.93863,-0.843495 -0.93863,-0.9196 0,-0.05708 0.0381,-0.05074 1.35086,-0.501023 0.18392,-0.063421 0.51371,-0.1268414 0.51371,-0.3171034 v -0.00634 c 0,-0.057079 -0.0254,-0.1078151 -0.0507,-0.1395255 -0.23466,-0.3234454 -0.65324,-0.6088384 -1.09084,-0.6088384 -0.63421,0 -1.17328,0.5390757 -1.17328,1.4269654 z m 1.69967,-0.6595753 c 0,0.025368 -0.019,0.057079 -0.0571,0.076105 -0.0127,0.00634 -1.16694,0.4566289 -1.18596,0.4566289 -0.0127,0 -0.0317,-0.00634 -0.0317,-0.044394 0,-0.564444 0.24099,-0.9069156 0.60883,-0.9069156 0.35516,0 0.66592,0.3424716 0.66592,0.4185764 z"
       style="font-style:normal;font-variant:normal;font-weight:normal;font-stretch:normal;font-size:6.34206724px;line-height:5.23220491px;font-family:'Goudy Bookletter 1911';-inkscape-font-specification:'Goudy Bookletter 1911, ';stroke-width:0.47565505px"
       id="path3625" />
  </g>
  <g
     aria-label="for Malay World Information and Research"
     style="font-style:normal;font-weight:normal;font-size:19.02620125px;line-height:11.89137554px;font-family:sans-serif;letter-spacing:0px;word-spacing:0px;fill:#000000;fill-opacity:1;stroke:none;stroke-width:0.47565505px;stroke-linecap:butt;stroke-linejoin:miter;stroke-opacity:1"
     id="text3506">
    <path
       d="m 47.407832,18.068602 c 0.01903,0 0.266367,-0.03805 0.577128,-0.03805 0.304419,0 0.55176,0.03805 0.570786,0.03805 0.0761,0 0.101473,-0.06342 0.101473,-0.139525 0,-0.145868 -0.06976,-0.107815 -0.361498,-0.133183 -0.120499,-0.0063 -0.126841,-0.08879 -0.126841,-0.15221 v -0.01903 -1.820174 c 0,-0.04439 0.01903,-0.05074 0.05708,-0.05074 h 0.596155 c 0.152209,0 0.164894,-0.139526 0.164894,-0.196604 v -0.0063 c 0,-0.101473 -0.06342,-0.126842 -0.139526,-0.126842 h -0.621523 c -0.05708,0 -0.06342,-0.01903 -0.06342,-0.101473 v -0.05708 c 0,-0.742022 0.202946,-1.376229 0.653233,-1.376229 0.196604,0 0.348813,0.15221 0.526391,0.15221 0.171236,0 0.266367,-0.126842 0.266367,-0.247341 0,-0.133183 -0.114157,-0.329787 -0.456629,-0.329787 -0.386866,0 -0.906915,0.260024 -1.160598,0.691285 -0.234657,0.412234 -0.266367,0.970336 -0.272709,1.217677 v 0.0063 c 0,0.07611 -0.0063,0.05074 -0.323445,0.06342 -0.08245,0 -0.133184,0.04439 -0.133184,0.190262 0,0.114157 0.09513,0.114157 0.133184,0.114157 0.304419,0.0063 0.336129,-0.01268 0.336129,0.06342 0,1.230362 -0.01268,1.661622 -0.02537,1.820174 -0.0063,0.0761 0,0.139525 -0.09513,0.152209 -0.234657,0.03805 -0.298077,0.02537 -0.298077,0.126842 0,0.06976 0.01268,0.158551 0.09513,0.158551 z"
       style="font-style:normal;font-variant:normal;font-weight:normal;font-stretch:normal;font-size:6.34206724px;line-height:5.23220491px;font-family:'Goudy Bookletter 1911';-inkscape-font-specification:'Goudy Bookletter 1911, ';stroke-width:0.47565505px"
       id="path3514" />
    <path
       d="m 49.189754,16.736768 c 0,0.780075 0.539076,1.414281 1.344519,1.414281 0.710311,0 1.35086,-0.507365 1.35086,-1.414281 0,-0.849837 -0.570786,-1.445991 -1.325492,-1.445991 -0.710312,0 -1.369887,0.564444 -1.369887,1.445991 z m 1.363545,1.10352 c -0.52005,0 -0.868863,-0.475655 -0.868863,-1.13523 0,-0.849837 0.501023,-1.116204 0.83081,-1.116204 0.481998,0 0.938626,0.494681 0.938626,1.173283 0,0.564444 -0.361497,1.078151 -0.900573,1.078151 z"
       style="font-style:normal;font-variant:normal;font-weight:normal;font-stretch:normal;font-size:6.34206724px;line-height:5.23220491px;font-family:'Goudy Bookletter 1911';-inkscape-font-specification:'Goudy Bookletter 1911, ';stroke-width:0.47565505px"
       id="path3516" />
    <path
       d="m 52.936628,15.639591 c -0.01268,0 -0.01903,-0.01268 -0.01903,-0.03171 v -0.253682 c 0,-0.05708 -0.0063,-0.126842 -0.0761,-0.126842 -0.01903,0 -0.03805,0.01268 -0.05708,0.01903 -0.659575,0.323446 -0.665917,0.310762 -0.665917,0.342472 0.0063,0.02537 0.01903,0.03805 0.02537,0.04439 0.298077,0.21563 0.348814,0.209288 0.348814,0.336129 v 1.680648 c 0,0.09513 -0.02537,0.133183 -0.114157,0.15221 -0.171236,0.04439 -0.285393,0.0063 -0.285393,0.158551 0,0.06342 0.03805,0.107815 0.101473,0.107815 0.01903,0 0.291735,-0.03805 0.646891,-0.03805 0.342471,0 0.621522,0.03805 0.640548,0.03805 0.08245,0 0.08879,-0.0761 0.08879,-0.126841 0,-0.145867 -0.08245,-0.120499 -0.462971,-0.15221 -0.152209,-0.01268 -0.158551,-0.120499 -0.158551,-0.190262 v -0.02537 -1.522096 c 0,-0.04439 0,-0.07611 0.02537,-0.114157 0.03805,-0.05708 0.291735,-0.260025 0.494681,-0.260025 0.209288,0 0.215631,0.158552 0.374182,0.158552 0.107815,0 0.190262,-0.08245 0.260025,-0.126842 0.05074,-0.04439 0.164894,-0.114157 0.171236,-0.221972 v -0.0063 c 0,-0.177578 -0.291735,-0.279051 -0.494681,-0.279051 -0.06976,0 -0.126842,0.0063 -0.18392,0.02537 -0.171236,0.06342 -0.634207,0.412235 -0.659575,0.412235 z"
       style="font-style:normal;font-variant:normal;font-weight:normal;font-stretch:normal;font-size:6.34206724px;line-height:5.23220491px;font-family:'Goudy Bookletter 1911';-inkscape-font-specification:'Goudy Bookletter 1911, ';stroke-width:0.47565505px"
       id="path3518" />
    <path
       d="m 60.441969,18.068602 c 0.02537,0 0.374181,-0.03805 0.805442,-0.03805 0.437603,0 0.786416,0.03805 0.818127,0.03805 0.07611,0 0.126841,-0.05708 0.126841,-0.139525 0,-0.18392 -0.126841,-0.158552 -0.405892,-0.18392 -0.215631,-0.02537 -0.221973,-0.15221 -0.221973,-0.310761 v -0.04439 c 0,-0.310761 -0.0063,-0.621522 -0.03171,-3.082244 0,-0.114158 0.05074,-0.158552 0.15221,-0.18392 0.342471,-0.107816 0.494681,-0.06342 0.494681,-0.234657 0,-0.133183 -0.05074,-0.139525 -0.09513,-0.139525 h -0.9196 c -0.05708,0 -0.08879,0.01268 -0.114157,0.05708 -0.0063,0 0,0 -1.7187,3.215428 -0.01903,0.04439 -0.0444,0.06976 -0.08879,0.06976 -0.05708,0 -0.09513,-0.05074 -0.107815,-0.0761 L 58.393481,15.836195 57.19483,13.832101 c -0.03805,-0.06342 -0.06976,-0.08245 -0.158552,-0.08245 h -0.913257 c -0.0444,0 -0.114157,0.0063 -0.114157,0.139525 0,0.107815 0.08245,0.107815 0.126841,0.114157 0.36784,0.0063 0.513707,0.285393 0.608838,0.386866 0.03171,0.03805 0.06976,0.07611 0.06976,0.158552 0,0.285393 -0.06342,1.706016 -0.158552,2.834904 -0.01903,0.177578 0.0063,0.310761 -0.202946,0.33613 -0.317103,0.03805 -0.469313,0.01903 -0.469313,0.209288 0,0.114157 0.06976,0.139525 0.114157,0.139525 0.02537,0 0.355156,-0.03805 0.761049,-0.03805 0.405892,0 0.735679,0.03805 0.761048,0.03805 0.08879,0 0.114157,-0.08879 0.114157,-0.145867 0,-0.304419 -0.532734,-0.0761 -0.596155,-0.285393 -0.01903,-0.06342 -0.03805,-1.021073 -0.03805,-1.28744 0,-0.443945 0.01268,-0.875205 0.03805,-1.31915 0,-0.01268 0.0063,-0.03171 0.02537,-0.03171 0.0063,0 0.01268,0 0.01903,0.0063 0.05074,0.03171 0.963994,1.484044 1.648937,2.891983 0.0444,0.08879 0.101474,0.228314 0.221973,0.228314 0.02537,0 0.08245,-0.0063 0.139525,-0.07611 0.114157,-0.139525 1.090836,-2.067514 1.65528,-2.968087 0.01903,-0.03171 0.04439,-0.07611 0.08879,-0.07611 0.01903,0 0.03805,0.0063 0.04439,0.03805 0.0063,0.01903 0.01903,0.577128 0.01903,1.014731 v 1.35086 c 0,0.03805 0,0.08245 -0.0063,0.1205 -0.06976,0.374182 -0.672259,0.101473 -0.672259,0.386866 0,0.05708 0.02537,0.152209 0.1205,0.152209 z"
       style="font-style:normal;font-variant:normal;font-weight:normal;font-stretch:normal;font-size:6.34206724px;line-height:5.23220491px;font-family:'Goudy Bookletter 1911';-inkscape-font-specification:'Goudy Bookletter 1911, ';stroke-width:0.47565505px"
       id="path3520" />
    <path
       d="m 62.382938,15.842537 c 0,0.145867 0.133184,0.228314 0.253683,0.228314 0.08245,0 0.120499,-0.04439 0.139526,-0.06976 0.01268,-0.02537 0.18392,-0.424918 0.545417,-0.424918 0.164894,0 0.291735,0.08879 0.36784,0.171236 0.126842,0.145867 0.15221,0.304419 0.15221,0.507365 v 0.228315 c 0,0.04439 -0.0063,0.0761 -0.05074,0.08879 -0.01268,0.0063 -0.773732,0.03171 -1.116203,0.304419 -0.15221,0.120499 -0.266367,0.323445 -0.266367,0.564444 v 0.0063 c 0,0.386866 0.285393,0.710311 0.722995,0.710311 0.234657,0 0.443945,-0.08245 0.589813,-0.177578 0.158551,-0.107815 0.139525,-0.139525 0.171235,-0.139525 0.0063,0 0.0063,0.0063 0.01268,0.0063 0.01268,0.0063 0.164893,0.260025 0.450286,0.260025 0.329788,0 0.48834,-0.355156 0.48834,-0.501024 0,-0.05708 -0.03171,-0.08245 -0.05708,-0.08245 -0.09513,0 -0.08245,0.209288 -0.279051,0.209288 -0.06342,0 -0.21563,-0.03171 -0.21563,-0.279051 v -1.249387 c 0,-0.07611 -0.0063,-0.15221 -0.01268,-0.228315 -0.06342,-0.621522 -0.678602,-0.697627 -0.9196,-0.697627 -0.526392,0 -0.976679,0.336129 -0.976679,0.564444 z m 0.900574,1.966041 c -0.08245,0 -0.196604,-0.01268 -0.272709,-0.08245 -0.101473,-0.08879 -0.133183,-0.247341 -0.133183,-0.348814 0,-0.158552 0.06976,-0.272709 0.152209,-0.342472 0.209289,-0.196604 0.640549,-0.228314 0.754706,-0.228314 0.05708,0 0.06342,0.03171 0.06342,0.18392 v 0.260025 0.152209 c 0,0.05708 -0.0063,0.101473 -0.03805,0.145868 -0.03171,0.04439 -0.215631,0.260025 -0.526392,0.260025 z"
       style="font-style:normal;font-variant:normal;font-weight:normal;font-stretch:normal;font-size:6.34206724px;line-height:5.23220491px;font-family:'Goudy Bookletter 1911';-inkscape-font-specification:'Goudy Bookletter 1911, ';stroke-width:0.47565505px"
       id="path3522" />
    <path
       d="m 66.332956,17.941761 c 0,-0.08245 -0.03171,-0.114157 -0.107815,-0.126841 -0.253683,-0.0444 -0.323445,-0.03171 -0.323445,-0.234657 v -4.014528 c 0,-0.05708 -0.01269,-0.1205 -0.08879,-0.1205 -0.03171,0 -0.05708,0.01268 -0.0761,0.02537 -0.76739,0.39955 -0.780074,0.386866 -0.780074,0.437602 v 0.0063 c 0,0.06976 0.08245,0.09513 0.336129,0.247341 0.107815,0.06342 0.145868,0.06342 0.145868,0.158552 v 3.228112 c 0,0.126841 -0.01268,0.221972 -0.177578,0.240998 -0.215631,0.02537 -0.260025,0.01903 -0.260025,0.139526 v 0.01903 c 0,0.0444 0.0063,0.114157 0.08879,0.114157 0.01903,0 0.266367,-0.03171 0.570786,-0.03171 0.317103,0 0.577128,0.03805 0.596154,0.03805 0.06342,0 0.0761,-0.05074 0.0761,-0.126841 z"
       style="font-style:normal;font-variant:normal;font-weight:normal;font-stretch:normal;font-size:6.34206724px;line-height:5.23220491px;font-family:'Goudy Bookletter 1911';-inkscape-font-specification:'Goudy Bookletter 1911, ';stroke-width:0.47565505px"
       id="path3524" />
    <path
       d="m 66.582081,15.842537 c 0,0.145867 0.133183,0.228314 0.253683,0.228314 0.08245,0 0.120499,-0.04439 0.139525,-0.06976 0.01268,-0.02537 0.18392,-0.424918 0.545418,-0.424918 0.164894,0 0.291735,0.08879 0.36784,0.171236 0.126841,0.145867 0.152209,0.304419 0.152209,0.507365 v 0.228315 c 0,0.04439 -0.0063,0.0761 -0.05074,0.08879 -0.01268,0.0063 -0.773732,0.03171 -1.116204,0.304419 -0.15221,0.120499 -0.266367,0.323445 -0.266367,0.564444 v 0.0063 c 0,0.386866 0.285393,0.710311 0.722996,0.710311 0.234656,0 0.443945,-0.08245 0.589812,-0.177578 0.158552,-0.107815 0.139526,-0.139525 0.171236,-0.139525 0.0063,0 0.0063,0.0063 0.01268,0.0063 0.01268,0.0063 0.164894,0.260025 0.450287,0.260025 0.329787,0 0.488339,-0.355156 0.488339,-0.501024 0,-0.05708 -0.03171,-0.08245 -0.05708,-0.08245 -0.09513,0 -0.08245,0.209288 -0.279051,0.209288 -0.06342,0 -0.21563,-0.03171 -0.21563,-0.279051 v -1.249387 c 0,-0.07611 -0.0063,-0.15221 -0.01268,-0.228315 -0.06342,-0.621522 -0.678601,-0.697627 -0.9196,-0.697627 -0.526391,0 -0.976678,0.336129 -0.976678,0.564444 z m 0.900573,1.966041 c -0.08245,0 -0.196604,-0.01268 -0.272708,-0.08245 -0.101474,-0.08879 -0.133184,-0.247341 -0.133184,-0.348814 0,-0.158552 0.06976,-0.272709 0.15221,-0.342472 0.209288,-0.196604 0.640549,-0.228314 0.754706,-0.228314 0.05708,0 0.06342,0.03171 0.06342,0.18392 v 0.260025 0.152209 c 0,0.05708 -0.0063,0.101473 -0.03805,0.145868 -0.03171,0.04439 -0.21563,0.260025 -0.526392,0.260025 z"
       style="font-style:normal;font-variant:normal;font-weight:normal;font-stretch:normal;font-size:6.34206724px;line-height:5.23220491px;font-family:'Goudy Bookletter 1911';-inkscape-font-specification:'Goudy Bookletter 1911, ';stroke-width:0.47565505px"
       id="path3526" />
    <path
       d="m 69.669577,19.444831 c 0.18392,0 0.317104,-0.158552 0.469313,-0.393208 0.462971,-0.70397 0.849837,-1.591859 1.13523,-2.283144 0.443945,-1.10352 0.36784,-1.10352 0.501024,-1.122546 0.202946,-0.02537 0.24734,-0.01903 0.24734,-0.1205 0,-0.06976 0,-0.126841 -0.0761,-0.126841 -0.0444,0 -0.190262,0.01903 -0.481998,0.01903 h -0.0063 c -0.298077,0 -0.450286,-0.01903 -0.494681,-0.01903 -0.0761,0 -0.120499,0.04439 -0.120499,0.114157 0,0.09513 0.06342,0.114158 0.120499,0.1205 0.209288,0.01903 0.304419,-0.0063 0.304419,0.145867 0,0.209288 -0.190262,0.70397 -0.520049,1.490386 -0.01268,0.01268 -0.02537,0.06342 -0.06342,0.06342 -0.03171,0 -0.04439,-0.02537 -0.04439,-0.03805 -0.431261,-0.811784 -0.691286,-1.50307 -0.691286,-1.560148 0,-0.06976 0.05074,-0.08245 0.09513,-0.08879 0.190262,-0.01903 0.234657,-0.0063 0.234657,-0.145868 0,-0.05074 -0.01268,-0.101473 -0.08245,-0.101473 -0.05074,0 -0.202946,0.01903 -0.501023,0.01903 -0.298077,0 -0.450287,-0.01903 -0.494682,-0.01903 -0.06976,0 -0.08879,0.04439 -0.08879,0.107815 0,0.209288 0.139525,0.07611 0.240998,0.209288 0.01268,0.01903 0.234657,0.431261 0.348814,0.646891 0.520049,1.040099 0.703969,1.433308 0.703969,1.572833 0,0.177578 -0.260025,0.577128 -0.424918,0.729338 -0.234657,0.221972 -0.558102,0.298077 -0.558102,0.55176 0,0.126841 0.107815,0.228314 0.24734,0.228314 z"
       style="font-style:normal;font-variant:normal;font-weight:normal;font-stretch:normal;font-size:6.34206724px;line-height:5.23220491px;font-family:'Goudy Bookletter 1911';-inkscape-font-specification:'Goudy Bookletter 1911, ';stroke-width:0.47565505px"
       id="path3528" />
    <path
       d="m 73.885467,13.660866 c -0.126841,0 -0.158552,0.107815 -0.158552,0.177578 0,0.05074 0.02537,0.08245 0.03171,0.08879 0.08879,0.107816 0.285393,-0.03171 0.367839,0.164894 0.05074,0.133184 0.469313,1.610885 1.331835,3.722794 0.06342,0.145867 0.107815,0.355155 0.24734,0.355155 0.01903,0 0.03805,-0.0063 0.05708,-0.01903 0.09513,-0.04439 0.04439,0.01903 0.906915,-2.213381 0.0063,-0.01268 0.01269,-0.02537 0.02537,-0.02537 0.03171,0 0.02537,0.01268 0.780074,1.921646 0.05708,0.158552 0.139525,0.336129 0.266367,0.336129 0.107815,0 0.177578,-0.120499 0.260025,-0.304419 1.033756,-2.207039 1.477701,-3.684741 1.522096,-3.767188 0.133183,-0.240998 0.462971,-0.04439 0.462971,-0.291735 0,-0.114157 -0.04439,-0.145867 -0.107816,-0.145867 -0.06342,0 -0.253682,0.01903 -0.627864,0.01903 h -0.0063 c -0.386866,0 -0.577128,-0.01903 -0.640549,-0.01903 -0.09513,0 -0.114157,0.06342 -0.114157,0.139525 0,0.07611 0.01268,0.133184 0.126841,0.145868 0.272709,0.03171 0.418576,0.01903 0.418576,0.177578 0,0.139525 -0.418576,1.617227 -1.046441,2.942719 -0.01268,0.03805 -0.04439,0.114157 -0.101473,0.114157 h -0.0063 c -0.03171,0 -0.05708,-0.03171 -0.0761,-0.05708 -0.08245,-0.114157 -0.697627,-1.598201 -1.141572,-2.936377 -0.0063,-0.03171 -0.01268,-0.05708 -0.01268,-0.08245 0,-0.120499 0.09513,-0.145867 0.196604,-0.158551 0.209288,-0.02537 0.272709,-0.01903 0.272709,-0.145868 0,-0.08245 -0.01903,-0.139525 -0.107815,-0.139525 -0.06342,0 -0.260025,0.01903 -0.646891,0.01903 h -0.0063 c -0.393208,0 -0.589812,-0.01903 -0.653233,-0.01903 -0.08879,0 -0.145867,0.05074 -0.145867,0.145867 0,0.114157 0.04439,0.139526 0.107815,0.139526 0.374182,0.01903 0.361498,0 0.443944,0.240998 0.412235,1.192309 0.418577,1.198651 0.418577,1.249388 v 0.0063 c 0,0.02537 -0.0063,0.05074 -0.01268,0.0761 -0.627865,1.585517 -0.608839,1.585517 -0.678601,1.585517 -0.03805,0 -0.0761,-0.06342 -0.09513,-0.114157 -0.52005,-1.395255 -0.627865,-1.674306 -0.989363,-2.809536 -0.01268,-0.02537 -0.01903,-0.05074 -0.01903,-0.08245 0,-0.01268 0.0063,-0.05074 0.03171,-0.08245 0.114157,-0.139525 0.437603,0.03805 0.437603,-0.196604 0,-0.05708 0,-0.158551 -0.114157,-0.158551 -0.05708,0 -0.240999,0.01903 -0.596155,0.01903 -0.36784,0 -0.55176,-0.01903 -0.608838,-0.01903 z"
       style="font-style:normal;font-variant:normal;font-weight:normal;font-stretch:normal;font-size:6.34206724px;line-height:5.23220491px;font-family:'Goudy Bookletter 1911';-inkscape-font-specification:'Goudy Bookletter 1911, ';stroke-width:0.47565505px"
       id="path3530" />
    <path
       d="m 79.748113,16.736768 c 0,0.780075 0.539075,1.414281 1.344518,1.414281 0.710311,0 1.35086,-0.507365 1.35086,-1.414281 0,-0.849837 -0.570786,-1.445991 -1.325492,-1.445991 -0.710311,0 -1.369886,0.564444 -1.369886,1.445991 z m 1.363544,1.10352 c -0.520049,0 -0.868863,-0.475655 -0.868863,-1.13523 0,-0.849837 0.501023,-1.116204 0.830811,-1.116204 0.481997,0 0.938626,0.494681 0.938626,1.173283 0,0.564444 -0.361498,1.078151 -0.900574,1.078151 z"
       style="font-style:normal;font-variant:normal;font-weight:normal;font-stretch:normal;font-size:6.34206724px;line-height:5.23220491px;font-family:'Goudy Bookletter 1911';-inkscape-font-specification:'Goudy Bookletter 1911, ';stroke-width:0.47565505px"
       id="path3532" />
    <path
       d="m 83.494986,15.639591 c -0.01268,0 -0.01903,-0.01268 -0.01903,-0.03171 v -0.253682 c 0,-0.05708 -0.0063,-0.126842 -0.0761,-0.126842 -0.01903,0 -0.03805,0.01268 -0.05708,0.01903 -0.659575,0.323446 -0.665917,0.310762 -0.665917,0.342472 0.0063,0.02537 0.01903,0.03805 0.02537,0.04439 0.298078,0.21563 0.348814,0.209288 0.348814,0.336129 v 1.680648 c 0,0.09513 -0.02537,0.133183 -0.114157,0.15221 -0.171236,0.04439 -0.285393,0.0063 -0.285393,0.158551 0,0.06342 0.03805,0.107815 0.101473,0.107815 0.01903,0 0.291735,-0.03805 0.646891,-0.03805 0.342471,0 0.621522,0.03805 0.640549,0.03805 0.08245,0 0.08879,-0.0761 0.08879,-0.126841 0,-0.145867 -0.08245,-0.120499 -0.462971,-0.15221 -0.15221,-0.01268 -0.158552,-0.120499 -0.158552,-0.190262 v -0.02537 -1.522096 c 0,-0.04439 0,-0.07611 0.02537,-0.114157 0.03805,-0.05708 0.291735,-0.260025 0.494681,-0.260025 0.209289,0 0.215631,0.158552 0.374182,0.158552 0.107816,0 0.190262,-0.08245 0.260025,-0.126842 0.05074,-0.04439 0.164894,-0.114157 0.171236,-0.221972 v -0.0063 c 0,-0.177578 -0.291735,-0.279051 -0.494681,-0.279051 -0.06976,0 -0.126842,0.0063 -0.18392,0.02537 -0.171236,0.06342 -0.634207,0.412235 -0.659575,0.412235 z"
       style="font-style:normal;font-variant:normal;font-weight:normal;font-stretch:normal;font-size:6.34206724px;line-height:5.23220491px;font-family:'Goudy Bookletter 1911';-inkscape-font-specification:'Goudy Bookletter 1911, ';stroke-width:0.47565505px"
       id="path3534" />
    <path
       d="m 86.288173,17.941761 c 0,-0.08245 -0.03171,-0.114157 -0.107815,-0.126841 -0.253682,-0.0444 -0.323445,-0.03171 -0.323445,-0.234657 v -4.014528 c 0,-0.05708 -0.01268,-0.1205 -0.08879,-0.1205 -0.03171,0 -0.05708,0.01268 -0.0761,0.02537 -0.76739,0.39955 -0.780074,0.386866 -0.780074,0.437602 v 0.0063 c 0,0.06976 0.08245,0.09513 0.336129,0.247341 0.107816,0.06342 0.145868,0.06342 0.145868,0.158552 v 3.228112 c 0,0.126841 -0.01268,0.221972 -0.177578,0.240998 -0.21563,0.02537 -0.260025,0.01903 -0.260025,0.139526 v 0.01903 c 0,0.0444 0.0063,0.114157 0.08879,0.114157 0.01903,0 0.266367,-0.03171 0.570786,-0.03171 0.317104,0 0.577128,0.03805 0.596155,0.03805 0.06342,0 0.0761,-0.05074 0.0761,-0.126841 z"
       style="font-style:normal;font-variant:normal;font-weight:normal;font-stretch:normal;font-size:6.34206724px;line-height:5.23220491px;font-family:'Goudy Bookletter 1911';-inkscape-font-specification:'Goudy Bookletter 1911, ';stroke-width:0.47565505px"
       id="path3536" />
    <path
       d="m 87.86279,15.601538 c 0.234657,0 0.488339,0.06342 0.678601,0.240999 0.06342,0.06342 0.06342,0.107815 0.06342,0.152209 v 1.420623 c 0,0.05074 -0.0063,0.09513 -0.01903,0.145868 -0.05074,0.164894 -0.355156,0.272709 -0.596154,0.272709 -0.437603,0 -1.10352,-0.386866 -1.10352,-1.173283 0,-0.640548 0.329787,-1.059125 0.976678,-1.059125 z m 0.01268,-0.253682 h -0.0063 c -1.002046,0 -1.407939,0.710311 -1.407939,1.369886 0,0.799101 0.55176,1.445991 1.382571,1.445991 0.494681,0 0.73568,-0.24734 0.754706,-0.24734 0.0063,0 0.01268,0.0063 0.01268,0.01903 v 0.209288 c 0,0.05708 0.03171,0.06342 0.05074,0.06342 0.06342,0 0.145867,-0.120499 0.437602,-0.279051 0.253683,-0.145868 0.374182,-0.145868 0.374182,-0.240999 0,-0.08879 -0.114157,-0.08879 -0.120499,-0.08879 -0.228314,-0.01268 -0.291735,0.0063 -0.298077,-0.08879 -0.0063,-0.05708 -0.01903,-1.236703 -0.01903,-1.864567 0,-1.230361 0.01903,-1.845542 0.01903,-2.05483 0,-0.05074 -0.02537,-0.08879 -0.0761,-0.08879 -0.02537,0 -0.145867,0.05708 -0.818127,0.386866 -0.01903,0.01268 -0.05708,0.03171 -0.05708,0.06976 0,0.06342 0.0761,0.08879 0.120499,0.101473 0.33613,0.133183 0.380524,0.133183 0.380524,0.260025 v 1.065467 c 0,0.03171 -0.01268,0.05708 -0.04439,0.05708 -0.03171,0 -0.272709,-0.09513 -0.684944,-0.09513 z"
       style="font-style:normal;font-variant:normal;font-weight:normal;font-stretch:normal;font-size:6.34206724px;line-height:5.23220491px;font-family:'Goudy Bookletter 1911';-inkscape-font-specification:'Goudy Bookletter 1911, ';stroke-width:0.47565505px"
       id="path3538" />
    <path
       d="m 91.402553,13.717944 c -0.107815,0 -0.139526,0.101473 -0.139526,0.177578 0,0.107815 0.06976,0.126842 0.145868,0.133184 0.329787,0.01903 0.418576,0 0.418576,0.133183 0,0.01903 -0.0063,0.05074 -0.0063,0.08879 v 3.297875 c 0,0.107815 -0.01903,0.171236 -0.133183,0.177578 -0.443945,0.03171 -0.532734,0.0063 -0.532734,0.139525 0,0.01903 0,0.03805 0.0063,0.05708 0.0063,0.06976 0.01268,0.145867 0.107815,0.145867 0.02537,0 0.380524,-0.03805 0.811785,-0.03805 0.431261,0 0.780074,0.03805 0.805443,0.03805 0.107815,0 0.126841,-0.107815 0.126841,-0.18392 0,-0.152209 -0.145868,-0.120499 -0.501023,-0.145867 -0.114158,-0.01268 -0.114158,-0.09513 -0.114158,-0.158552 v -3.424716 c 0,-0.05074 0.01269,-0.101473 0.101473,-0.107815 0.323446,-0.03171 0.399551,-0.01268 0.399551,-0.202946 0,-0.101473 -0.05708,-0.1205 -0.107815,-0.1205 -0.06342,0 -0.260025,0.02537 -0.659575,0.02537 -0.393209,0 -0.70397,-0.03171 -0.729338,-0.03171 z"
       style="font-style:normal;font-variant:normal;font-weight:normal;font-stretch:normal;font-size:6.34206724px;line-height:5.23220491px;font-family:'Goudy Bookletter 1911';-inkscape-font-specification:'Goudy Bookletter 1911, ';stroke-width:0.47565505px"
       id="path3540" />
    <path
       d="m 94.010828,15.639591 c 0,-0.0063 0.0063,-0.02537 0.0063,-0.03805 v -0.24734 c 0,-0.05074 -0.01903,-0.09513 -0.0761,-0.09513 -0.02537,0 -0.04439,0.01268 -0.06342,0.02537 -0.589812,0.317103 -0.602496,0.310761 -0.602496,0.361498 v 0.0063 c 0,0.02537 0.01903,0.04439 0.03805,0.06342 0.285393,0.215631 0.285393,0.202947 0.285393,0.355156 v 1.515754 c 0,0.107815 -0.0063,0.190262 -0.164893,0.215631 -0.196605,0.03171 -0.247341,0.02537 -0.247341,0.152209 0,0.08879 0.06342,0.114157 0.101473,0.114157 0.01903,0 0.253683,-0.03805 0.558102,-0.03805 0.310761,0 0.570786,0.04439 0.589812,0.04439 0.05708,0 0.08245,-0.05074 0.08245,-0.114157 0,-0.139525 -0.0761,-0.126841 -0.342472,-0.171236 -0.133183,-0.01903 -0.139525,-0.107815 -0.139525,-0.177577 v -0.01903 -1.50307 c 0,-0.02537 0,-0.05708 0.0063,-0.08245 0.02537,-0.114158 0.285393,-0.412235 0.653233,-0.412235 0.145868,0 0.494681,0.05708 0.634207,0.380524 0.0761,0.190262 0.08245,0.570786 0.08245,0.684943 v 0.983021 c 0,0.107815 -0.01903,0.139525 -0.101474,0.15221 -0.253682,0.04439 -0.329787,0.03171 -0.329787,0.145867 0,0.06342 0.01268,0.126841 0.08879,0.126841 0.01268,0 0.240998,-0.03805 0.520049,-0.03805 0.317104,0 0.475655,0.03805 0.532734,0.03805 0.03805,0 0.09513,-0.01903 0.09513,-0.126841 0,-0.04439 -0.0063,-0.101473 -0.08879,-0.114157 -0.221972,-0.03171 -0.304419,-0.01903 -0.304419,-0.196604 v -0.01268 c 0,-0.875206 0.0063,-0.989363 0.0063,-1.097178 0,-0.107815 0,-0.21563 -0.01268,-0.323445 -0.06342,-0.786417 -0.615181,-0.913258 -0.900574,-0.913258 h -0.01268 c -0.545418,0.0063 -0.843495,0.380524 -0.868863,0.380524 h -0.0063 c -0.0063,0 -0.01903,-0.0063 -0.01903,-0.02537 z"
       style="font-style:normal;font-variant:normal;font-weight:normal;font-stretch:normal;font-size:6.34206724px;line-height:5.23220491px;font-family:'Goudy Bookletter 1911';-inkscape-font-specification:'Goudy Bookletter 1911, ';stroke-width:0.47565505px"
       id="path3542" />
    <path
       d="m 96.48453,18.068602 c 0.01903,0 0.266367,-0.03805 0.577128,-0.03805 0.304419,0 0.55176,0.03805 0.570786,0.03805 0.0761,0 0.101473,-0.06342 0.101473,-0.139525 0,-0.145868 -0.06976,-0.107815 -0.361498,-0.133183 -0.120499,-0.0063 -0.126841,-0.08879 -0.126841,-0.15221 v -0.01903 -1.820174 c 0,-0.04439 0.01903,-0.05074 0.05708,-0.05074 h 0.596154 c 0.15221,0 0.164894,-0.139526 0.164894,-0.196604 v -0.0063 c 0,-0.101473 -0.06342,-0.126842 -0.139526,-0.126842 h -0.621522 c -0.05708,0 -0.06342,-0.01903 -0.06342,-0.101473 v -0.05708 c 0,-0.742022 0.202946,-1.376229 0.653233,-1.376229 0.196604,0 0.348814,0.15221 0.526392,0.15221 0.171235,0 0.266366,-0.126842 0.266366,-0.247341 0,-0.133183 -0.114157,-0.329787 -0.456628,-0.329787 -0.386867,0 -0.906916,0.260024 -1.160599,0.691285 -0.234656,0.412234 -0.266367,0.970336 -0.272709,1.217677 v 0.0063 c 0,0.07611 -0.0063,0.05074 -0.323445,0.06342 -0.08245,0 -0.133183,0.04439 -0.133183,0.190262 0,0.114157 0.09513,0.114157 0.133183,0.114157 0.304419,0.0063 0.33613,-0.01268 0.33613,0.06342 0,1.230362 -0.01268,1.661622 -0.02537,1.820174 -0.0063,0.0761 0,0.139525 -0.09513,0.152209 -0.234656,0.03805 -0.298077,0.02537 -0.298077,0.126842 0,0.06976 0.01268,0.158551 0.09513,0.158551 z"
       style="font-style:normal;font-variant:normal;font-weight:normal;font-stretch:normal;font-size:6.34206724px;line-height:5.23220491px;font-family:'Goudy Bookletter 1911';-inkscape-font-specification:'Goudy Bookletter 1911, ';stroke-width:0.47565505px"
       id="path3544" />
    <path
       d="m 98.266454,16.736768 c 0,0.780075 0.539075,1.414281 1.344518,1.414281 0.710308,0 1.350858,-0.507365 1.350858,-1.414281 0,-0.849837 -0.57078,-1.445991 -1.32549,-1.445991 -0.710311,0 -1.369886,0.564444 -1.369886,1.445991 z m 1.363544,1.10352 c -0.520049,0 -0.868863,-0.475655 -0.868863,-1.13523 0,-0.849837 0.501023,-1.116204 0.830811,-1.116204 0.481994,0 0.938624,0.494681 0.938624,1.173283 0,0.564444 -0.3615,1.078151 -0.900572,1.078151 z"
       style="font-style:normal;font-variant:normal;font-weight:normal;font-stretch:normal;font-size:6.34206724px;line-height:5.23220491px;font-family:'Goudy Bookletter 1911';-inkscape-font-specification:'Goudy Bookletter 1911, ';stroke-width:0.47565505px"
       id="path3546" />
    <path
       d="m 102.01333,15.639591 c -0.0127,0 -0.019,-0.01268 -0.019,-0.03171 v -0.253682 c 0,-0.05708 -0.006,-0.126842 -0.0761,-0.126842 -0.019,0 -0.0381,0.01268 -0.0571,0.01903 -0.65958,0.323446 -0.66592,0.310762 -0.66592,0.342472 0.006,0.02537 0.019,0.03805 0.0254,0.04439 0.29808,0.21563 0.34881,0.209288 0.34881,0.336129 v 1.680648 c 0,0.09513 -0.0254,0.133183 -0.11416,0.15221 -0.17123,0.04439 -0.28539,0.0063 -0.28539,0.158551 0,0.06342 0.038,0.107815 0.10147,0.107815 0.019,0 0.29174,-0.03805 0.6469,-0.03805 0.34247,0 0.62152,0.03805 0.64054,0.03805 0.0824,0 0.0888,-0.0761 0.0888,-0.126841 0,-0.145867 -0.0824,-0.120499 -0.46297,-0.15221 -0.15221,-0.01268 -0.15855,-0.120499 -0.15855,-0.190262 v -0.02537 -1.522096 c 0,-0.04439 0,-0.07611 0.0254,-0.114157 0.038,-0.05708 0.29173,-0.260025 0.49468,-0.260025 0.20929,0 0.21563,0.158552 0.37418,0.158552 0.10782,0 0.19026,-0.08245 0.26003,-0.126842 0.0507,-0.04439 0.16489,-0.114157 0.17123,-0.221972 v -0.0063 c 0,-0.177578 -0.29173,-0.279051 -0.49468,-0.279051 -0.0698,0 -0.12684,0.0063 -0.18392,0.02537 -0.17123,0.06342 -0.6342,0.412235 -0.65957,0.412235 z"
       style="font-style:normal;font-variant:normal;font-weight:normal;font-stretch:normal;font-size:6.34206724px;line-height:5.23220491px;font-family:'Goudy Bookletter 1911';-inkscape-font-specification:'Goudy Bookletter 1911, ';stroke-width:0.47565505px"
       id="path3548" />
    <path
       d="m 104.2611,15.633249 c -0.019,0 -0.0254,-0.01903 -0.0254,-0.03805 v -0.240998 c 0,-0.03171 -0.006,-0.07611 -0.0571,-0.07611 -0.038,0 -0.0507,0.01903 -0.1205,0.05708 -0.51371,0.329788 -0.51371,0.310762 -0.51371,0.36784 0,0.03805 0.0381,0.06342 0.0571,0.07611 0.23466,0.177578 0.25368,0.171236 0.25368,0.298077 v 1.572833 c -0.0254,0.253683 -0.35515,0.08245 -0.35515,0.279051 0,0.06342 0.0127,0.126841 0.0888,0.126841 0.0444,0 0.18392,-0.02537 0.46297,-0.02537 0.29173,0 0.52005,0.03805 0.53907,0.03805 0.0571,0 0.0825,-0.04439 0.0825,-0.101473 0,-0.06342 0,-0.120499 -0.0888,-0.133183 -0.27905,-0.0444 -0.33613,-0.03171 -0.33613,-0.21563 v -1.528439 c 0,-0.09513 0.0127,-0.133183 0.0254,-0.164893 0.038,-0.06976 0.20295,-0.247341 0.482,-0.247341 0.17758,0 0.33613,0.06976 0.44394,0.15221 0.17758,0.133183 0.20295,0.342471 0.20295,0.55176 v 1.173282 c 0,0.15221 -0.0254,0.21563 -0.16489,0.240999 -0.26637,0.04439 -0.34248,0.03171 -0.34248,0.133183 0,0.08245 0.0127,0.139525 0.0888,0.139525 0.0127,0 0.27271,-0.03805 0.58981,-0.03805 0.31711,0 0.57079,0.03805 0.58982,0.03805 0.0698,0 0.0824,-0.0761 0.0824,-0.133183 0,-0.06976 -0.038,-0.107815 -0.1205,-0.120499 -0.26002,-0.03171 -0.31076,-0.01903 -0.31076,-0.139526 v -0.0063 c 0,-0.01903 0.006,-0.03171 0.006,-0.05074 v -1.224019 c 0,-0.272709 -0.0381,-0.418577 -0.0381,-0.424919 0,-0.09513 0.29808,-0.291735 0.57713,-0.291735 0.19661,0 0.32979,0.08879 0.39321,0.139526 0.241,0.209288 0.26002,0.596154 0.26002,0.925941 v 0.881548 c 0,0.08879 0,0.152209 -0.12684,0.171236 -0.25368,0.05074 -0.29807,0.03805 -0.29807,0.164893 0,0.08245 0.0634,0.107815 0.10147,0.107815 0.0507,0 0.21563,-0.03805 0.53907,-0.03805 0.31711,0 0.482,0.03805 0.53274,0.03805 0.0824,0 0.0951,-0.06976 0.0951,-0.126841 0,-0.04439 -0.006,-0.101473 -0.0888,-0.114157 -0.241,-0.05074 -0.30442,-0.03171 -0.30442,-0.234657 v -0.805442 c 0,-0.253683 0,-0.501023 -0.0698,-0.742022 -0.14587,-0.52005 -0.53274,-0.691285 -0.85618,-0.691285 -0.1205,0 -0.34247,0.02537 -0.61518,0.18392 -0.241,0.139525 -0.21563,0.171235 -0.26637,0.171235 -0.0127,0 -0.019,0 -0.0254,-0.0063 -0.0127,-0.0063 -0.27271,-0.348813 -0.68494,-0.348813 -0.38052,0 -0.65323,0.279051 -0.68494,0.279051 z"
       style="font-style:normal;font-variant:normal;font-weight:normal;font-stretch:normal;font-size:6.34206724px;line-height:5.23220491px;font-family:'Goudy Bookletter 1911';-inkscape-font-specification:'Goudy Bookletter 1911, ';stroke-width:0.47565505px"
       id="path3550" />
    <path
       d="m 108.12758,15.842537 c 0,0.145867 0.13318,0.228314 0.25368,0.228314 0.0825,0 0.1205,-0.04439 0.13953,-0.06976 0.0127,-0.02537 0.18391,-0.424918 0.54541,-0.424918 0.1649,0 0.29174,0.08879 0.36784,0.171236 0.12684,0.145867 0.15221,0.304419 0.15221,0.507365 v 0.228315 c 0,0.04439 -0.006,0.0761 -0.0507,0.08879 -0.0127,0.0063 -0.77374,0.03171 -1.11621,0.304419 -0.15221,0.120499 -0.26636,0.323445 -0.26636,0.564444 v 0.0063 c 0,0.386866 0.28539,0.710311 0.72299,0.710311 0.23466,0 0.44395,-0.08245 0.58981,-0.177578 0.15855,-0.107815 0.13953,-0.139525 0.17124,-0.139525 0.006,0 0.006,0.0063 0.0127,0.0063 0.0127,0.0063 0.1649,0.260025 0.45029,0.260025 0.32979,0 0.48834,-0.355156 0.48834,-0.501024 0,-0.05708 -0.0317,-0.08245 -0.0571,-0.08245 -0.0951,0 -0.0825,0.209288 -0.27905,0.209288 -0.0634,0 -0.21563,-0.03171 -0.21563,-0.279051 v -1.249387 c 0,-0.07611 -0.006,-0.15221 -0.0127,-0.228315 -0.0634,-0.621522 -0.6786,-0.697627 -0.91959,-0.697627 -0.5264,0 -0.97668,0.336129 -0.97668,0.564444 z m 0.90057,1.966041 c -0.0824,0 -0.1966,-0.01268 -0.27271,-0.08245 -0.10147,-0.08879 -0.13318,-0.247341 -0.13318,-0.348814 0,-0.158552 0.0698,-0.272709 0.15221,-0.342472 0.20929,-0.196604 0.64055,-0.228314 0.7547,-0.228314 0.0571,0 0.0634,0.03171 0.0634,0.18392 v 0.260025 0.152209 c 0,0.05708 -0.006,0.101473 -0.038,0.145868 -0.0317,0.04439 -0.21563,0.260025 -0.52639,0.260025 z"
       style="font-style:normal;font-variant:normal;font-weight:normal;font-stretch:normal;font-size:6.34206724px;line-height:5.23220491px;font-family:'Goudy Bookletter 1911';-inkscape-font-specification:'Goudy Bookletter 1911, ';stroke-width:0.47565505px"
       id="path3552" />
    <path
       d="m 110.88529,15.715695 h 0.20294 c 0.038,0 0.0444,0.02537 0.0444,0.05708 0,0.139526 -0.0254,1.122546 -0.0254,1.401597 0,0.06976 0,0.133183 0.006,0.202946 0.0444,0.596154 0.38687,0.773732 0.64055,0.773732 0.34881,0 0.65957,-0.317103 0.88155,-0.570786 0.0127,-0.01903 0.0444,-0.05708 0.0444,-0.107815 0,-0.05708 -0.0444,-0.114157 -0.11416,-0.114157 -0.13952,0 -0.38686,0.380524 -0.69128,0.380524 -0.26637,0 -0.32345,-0.247341 -0.32345,-0.469313 0,-0.15221 0,-0.298077 0.006,-1.484044 0,-0.04439 0.019,-0.05708 0.0634,-0.05708 h 0.74202 c 0.0571,0 0.0888,-0.0063 0.11415,-0.03171 0.0317,-0.03805 0.0571,-0.145867 0.0571,-0.18392 0,-0.120499 -0.10781,-0.120499 -0.16489,-0.120499 -0.019,0 -0.0317,-0.0063 -0.0507,-0.0063 h -0.57078 c -0.0761,0 -0.12684,-0.01903 -0.12684,-0.126841 0,-0.08879 0.006,-0.355156 0.006,-0.443945 0,-0.08245 -0.0444,-0.101473 -0.0824,-0.101473 -0.0698,0 -0.10781,0.08245 -0.12684,0.114157 -0.34247,0.58347 -0.65958,0.697627 -0.65958,0.805443 0,0.0761 0.0698,0.08245 0.12685,0.08245 z"
       style="font-style:normal;font-variant:normal;font-weight:normal;font-stretch:normal;font-size:6.34206724px;line-height:5.23220491px;font-family:'Goudy Bookletter 1911';-inkscape-font-specification:'Goudy Bookletter 1911, ';stroke-width:0.47565505px"
       id="path3554" />
    <path
       d="m 113.40933,14.111152 c 0,0.171236 0.13318,0.298078 0.29807,0.298078 0.1649,0 0.31077,-0.133184 0.31077,-0.30442 0,-0.158551 -0.13953,-0.291735 -0.30442,-0.291735 -0.1649,0 -0.30442,0.133184 -0.30442,0.298077 z m -0.0634,3.152008 v 0.298077 c 0,0.114157 -0.0127,0.202946 -0.17124,0.228314 -0.28539,0.03805 -0.31076,0.02537 -0.31076,0.171236 0,0.06342 0.0317,0.107815 0.0951,0.107815 0.019,0 0.26637,-0.03805 0.58347,-0.03805 0.31076,0 0.56444,0.03805 0.58347,0.03805 0.0698,0 0.0761,-0.08879 0.0761,-0.139525 0,-0.107815 -0.0761,-0.101473 -0.2854,-0.133183 -0.13952,-0.01903 -0.14587,-0.03805 -0.14587,-0.811785 v -0.209288 c 0,-0.773733 0.0381,-1.388913 0.0381,-1.43965 0,-0.0761 -0.0507,-0.101473 -0.0888,-0.101473 h -0.006 c -0.0317,0 -0.0381,0.01268 -0.69763,0.329788 -0.0698,0.03171 -0.17124,0.05708 -0.17124,0.133183 0,0.05074 0.0444,0.06976 0.0761,0.08245 0.40589,0.164894 0.43126,0.158552 0.43126,0.260025 0,0.120499 -0.006,0.488339 -0.006,1.224019 z"
       style="font-style:normal;font-variant:normal;font-weight:normal;font-stretch:normal;font-size:6.34206724px;line-height:5.23220491px;font-family:'Goudy Bookletter 1911';-inkscape-font-specification:'Goudy Bookletter 1911, ';stroke-width:0.47565505px"
       id="path3556" />
    <path
       d="m 114.41891,16.736768 c 0,0.780075 0.53907,1.414281 1.34452,1.414281 0.71031,0 1.35086,-0.507365 1.35086,-1.414281 0,-0.849837 -0.57079,-1.445991 -1.3255,-1.445991 -0.71031,0 -1.36988,0.564444 -1.36988,1.445991 z m 1.36354,1.10352 c -0.52005,0 -0.86886,-0.475655 -0.86886,-1.13523 0,-0.849837 0.50102,-1.116204 0.83081,-1.116204 0.482,0 0.93863,0.494681 0.93863,1.173283 0,0.564444 -0.3615,1.078151 -0.90058,1.078151 z"
       style="font-style:normal;font-variant:normal;font-weight:normal;font-stretch:normal;font-size:6.34206724px;line-height:5.23220491px;font-family:'Goudy Bookletter 1911';-inkscape-font-specification:'Goudy Bookletter 1911, ';stroke-width:0.47565505px"
       id="path3558" />
    <path
       d="m 118.14041,15.639591 c 0,-0.0063 0.006,-0.02537 0.006,-0.03805 v -0.24734 c 0,-0.05074 -0.019,-0.09513 -0.0761,-0.09513 -0.0254,0 -0.0444,0.01268 -0.0634,0.02537 -0.58981,0.317103 -0.6025,0.310761 -0.6025,0.361498 v 0.0063 c 0,0.02537 0.019,0.04439 0.0381,0.06342 0.28539,0.215631 0.28539,0.202947 0.28539,0.355156 v 1.515754 c 0,0.107815 -0.006,0.190262 -0.1649,0.215631 -0.1966,0.03171 -0.24734,0.02537 -0.24734,0.152209 0,0.08879 0.0634,0.114157 0.10148,0.114157 0.019,0 0.25368,-0.03805 0.5581,-0.03805 0.31076,0 0.57079,0.04439 0.58981,0.04439 0.0571,0 0.0824,-0.05074 0.0824,-0.114157 0,-0.139525 -0.0761,-0.126841 -0.34247,-0.171236 -0.13319,-0.01903 -0.13953,-0.107815 -0.13953,-0.177577 v -0.01903 -1.50307 c 0,-0.02537 0,-0.05708 0.006,-0.08245 0.0254,-0.114158 0.2854,-0.412235 0.65324,-0.412235 0.14586,0 0.49468,0.05708 0.6342,0.380524 0.0761,0.190262 0.0825,0.570786 0.0825,0.684943 v 0.983021 c 0,0.107815 -0.019,0.139525 -0.10147,0.15221 -0.25369,0.04439 -0.32979,0.03171 -0.32979,0.145867 0,0.06342 0.0127,0.126841 0.0888,0.126841 0.0127,0 0.241,-0.03805 0.52005,-0.03805 0.3171,0 0.47565,0.03805 0.53273,0.03805 0.038,0 0.0951,-0.01903 0.0951,-0.126841 0,-0.04439 -0.006,-0.101473 -0.0888,-0.114157 -0.22197,-0.03171 -0.30442,-0.01903 -0.30442,-0.196604 v -0.01268 c 0,-0.875206 0.006,-0.989363 0.006,-1.097178 0,-0.107815 0,-0.21563 -0.0127,-0.323445 -0.0634,-0.786417 -0.61518,-0.913258 -0.90057,-0.913258 h -0.0127 c -0.54541,0.0063 -0.84349,0.380524 -0.86886,0.380524 h -0.006 c -0.006,0 -0.019,-0.0063 -0.019,-0.02537 z"
       style="font-style:normal;font-variant:normal;font-weight:normal;font-stretch:normal;font-size:6.34206724px;line-height:5.23220491px;font-family:'Goudy Bookletter 1911';-inkscape-font-specification:'Goudy Bookletter 1911, ';stroke-width:0.47565505px"
       id="path3560" />
    <path
       d="m 122.17426,15.842537 c 0,0.145867 0.13319,0.228314 0.25369,0.228314 0.0824,0 0.1205,-0.04439 0.13952,-0.06976 0.0127,-0.02537 0.18392,-0.424918 0.54542,-0.424918 0.16489,0 0.29174,0.08879 0.36784,0.171236 0.12684,0.145867 0.15221,0.304419 0.15221,0.507365 v 0.228315 c 0,0.04439 -0.006,0.0761 -0.0507,0.08879 -0.0127,0.0063 -0.77373,0.03171 -1.1162,0.304419 -0.15221,0.120499 -0.26637,0.323445 -0.26637,0.564444 v 0.0063 c 0,0.386866 0.2854,0.710311 0.723,0.710311 0.23466,0 0.44394,-0.08245 0.58981,-0.177578 0.15855,-0.107815 0.13953,-0.139525 0.17124,-0.139525 0.006,0 0.006,0.0063 0.0127,0.0063 0.0127,0.0063 0.16489,0.260025 0.45029,0.260025 0.32979,0 0.48834,-0.355156 0.48834,-0.501024 0,-0.05708 -0.0317,-0.08245 -0.0571,-0.08245 -0.0951,0 -0.0825,0.209288 -0.27905,0.209288 -0.0634,0 -0.21563,-0.03171 -0.21563,-0.279051 v -1.249387 c 0,-0.07611 -0.006,-0.15221 -0.0127,-0.228315 -0.0634,-0.621522 -0.6786,-0.697627 -0.9196,-0.697627 -0.52639,0 -0.97668,0.336129 -0.97668,0.564444 z m 0.90058,1.966041 c -0.0824,0 -0.19661,-0.01268 -0.27271,-0.08245 -0.10147,-0.08879 -0.13318,-0.247341 -0.13318,-0.348814 0,-0.158552 0.0698,-0.272709 0.15221,-0.342472 0.20928,-0.196604 0.64054,-0.228314 0.7547,-0.228314 0.0571,0 0.0634,0.03171 0.0634,0.18392 v 0.260025 0.152209 c 0,0.05708 -0.006,0.101473 -0.038,0.145868 -0.0317,0.04439 -0.21563,0.260025 -0.52639,0.260025 z"
       style="font-style:normal;font-variant:normal;font-weight:normal;font-stretch:normal;font-size:6.34206724px;line-height:5.23220491px;font-family:'Goudy Bookletter 1911';-inkscape-font-specification:'Goudy Bookletter 1911, ';stroke-width:0.47565505px"
       id="path3562" />
    <path
       d="m 125.57252,15.639591 c 0,-0.0063 0.006,-0.02537 0.006,-0.03805 v -0.24734 c 0,-0.05074 -0.019,-0.09513 -0.0761,-0.09513 -0.0254,0 -0.0444,0.01268 -0.0634,0.02537 -0.58982,0.317103 -0.6025,0.310761 -0.6025,0.361498 v 0.0063 c 0,0.02537 0.019,0.04439 0.038,0.06342 0.28539,0.215631 0.28539,0.202947 0.28539,0.355156 v 1.515754 c 0,0.107815 -0.006,0.190262 -0.16489,0.215631 -0.1966,0.03171 -0.24734,0.02537 -0.24734,0.152209 0,0.08879 0.0634,0.114157 0.10147,0.114157 0.019,0 0.25369,-0.03805 0.55811,-0.03805 0.31076,0 0.57078,0.04439 0.58981,0.04439 0.0571,0 0.0824,-0.05074 0.0824,-0.114157 0,-0.139525 -0.0761,-0.126841 -0.34247,-0.171236 -0.13318,-0.01903 -0.13952,-0.107815 -0.13952,-0.177577 v -0.01903 -1.50307 c 0,-0.02537 0,-0.05708 0.006,-0.08245 0.0254,-0.114158 0.28539,-0.412235 0.65323,-0.412235 0.14587,0 0.49468,0.05708 0.63421,0.380524 0.0761,0.190262 0.0824,0.570786 0.0824,0.684943 v 0.983021 c 0,0.107815 -0.019,0.139525 -0.10148,0.15221 -0.25368,0.04439 -0.32978,0.03171 -0.32978,0.145867 0,0.06342 0.0127,0.126841 0.0888,0.126841 0.0127,0 0.241,-0.03805 0.52005,-0.03805 0.31711,0 0.47566,0.03805 0.53274,0.03805 0.038,0 0.0951,-0.01903 0.0951,-0.126841 0,-0.04439 -0.006,-0.101473 -0.0888,-0.114157 -0.22197,-0.03171 -0.30442,-0.01903 -0.30442,-0.196604 v -0.01268 c 0,-0.875206 0.006,-0.989363 0.006,-1.097178 0,-0.107815 0,-0.21563 -0.0127,-0.323445 -0.0634,-0.786417 -0.61518,-0.913258 -0.90058,-0.913258 h -0.0127 c -0.54542,0.0063 -0.84349,0.380524 -0.86886,0.380524 h -0.006 c -0.006,0 -0.019,-0.0063 -0.019,-0.02537 z"
       style="font-style:normal;font-variant:normal;font-weight:normal;font-stretch:normal;font-size:6.34206724px;line-height:5.23220491px;font-family:'Goudy Bookletter 1911';-inkscape-font-specification:'Goudy Bookletter 1911, ';stroke-width:0.47565505px"
       id="path3564" />
    <path
       d="m 129.34635,15.601538 c 0.23466,0 0.48834,0.06342 0.6786,0.240999 0.0634,0.06342 0.0634,0.107815 0.0634,0.152209 v 1.420623 c 0,0.05074 -0.006,0.09513 -0.019,0.145868 -0.0507,0.164894 -0.35516,0.272709 -0.59616,0.272709 -0.4376,0 -1.10352,-0.386866 -1.10352,-1.173283 0,-0.640548 0.32979,-1.059125 0.97668,-1.059125 z m 0.0127,-0.253682 h -0.006 c -1.00204,0 -1.40793,0.710311 -1.40793,1.369886 0,0.799101 0.55176,1.445991 1.38257,1.445991 0.49468,0 0.73568,-0.24734 0.7547,-0.24734 0.006,0 0.0127,0.0063 0.0127,0.01903 v 0.209288 c 0,0.05708 0.0317,0.06342 0.0507,0.06342 0.0634,0 0.14587,-0.120499 0.43761,-0.279051 0.25368,-0.145868 0.37418,-0.145868 0.37418,-0.240999 0,-0.08879 -0.11416,-0.08879 -0.1205,-0.08879 -0.22832,-0.01268 -0.29174,0.0063 -0.29808,-0.08879 -0.006,-0.05708 -0.019,-1.236703 -0.019,-1.864567 0,-1.230361 0.019,-1.845542 0.019,-2.05483 0,-0.05074 -0.0254,-0.08879 -0.0761,-0.08879 -0.0254,0 -0.14587,0.05708 -0.81813,0.386866 -0.019,0.01268 -0.0571,0.03171 -0.0571,0.06976 0,0.06342 0.0761,0.08879 0.1205,0.101473 0.33613,0.133183 0.38052,0.133183 0.38052,0.260025 v 1.065467 c 0,0.03171 -0.0127,0.05708 -0.0444,0.05708 -0.0317,0 -0.27271,-0.09513 -0.68494,-0.09513 z"
       style="font-style:normal;font-variant:normal;font-weight:normal;font-stretch:normal;font-size:6.34206724px;line-height:5.23220491px;font-family:'Goudy Bookletter 1911';-inkscape-font-specification:'Goudy Bookletter 1911, ';stroke-width:0.47565505px"
       id="path3566" />
    <path
       d="m 135.33415,14.884885 c 0,0.380524 -0.25368,0.627864 -0.52005,0.735679 -0.17758,0.06976 -0.35516,0.08879 -0.58347,0.08879 -0.37418,0 -0.41858,0 -0.41858,-0.114157 V 14.10481 c 0,-0.0063 -0.006,-0.01268 -0.006,-0.01903 0,-0.04439 0.006,-0.08245 0.038,-0.101473 0.0571,-0.04439 0.29808,-0.06342 0.38053,-0.06342 0.64055,0 1.10986,0.456629 1.10986,0.963995 z m -0.98302,-1.211335 c -0.41858,0 -0.83715,0.07611 -1.4016,0.07611 h -0.22197 c -0.0571,0 -0.0825,0.02537 -0.0825,0.120499 0,0.06342 0.0317,0.08879 0.0951,0.101473 0.43761,0.07611 0.53274,0.06976 0.53274,0.272709 v 3.278849 c 0,0.126841 -0.019,0.202946 -0.17124,0.221972 -0.29173,0.02537 -0.39321,0.01268 -0.39321,0.15221 0,0.0761 0.019,0.171235 0.11416,0.171235 0.0254,0 0.37418,-0.03805 0.81179,-0.03805 0.4376,0 0.79275,0.03805 0.81812,0.03805 0.0825,0 0.12684,-0.05708 0.12684,-0.139525 0,-0.196604 -0.15221,-0.171236 -0.57712,-0.209288 -0.15856,-0.01903 -0.1649,-0.126842 -0.1649,-0.202946 v -0.01903 -1.465017 c 0,-0.07611 0.0317,-0.09513 0.0888,-0.09513 h 0.46297 c 0.0444,0 0.0761,0 0.10782,0.02537 0.038,0.02537 0.019,0 0.58347,0.786416 l 0.6342,0.900574 c 0.0761,0.101473 0.33613,0.462971 0.67226,0.462971 0.36784,0 0.55176,-0.36784 0.55176,-0.462971 0,-0.03805 -0.0254,-0.06976 -0.0634,-0.06976 -0.0824,0 -0.10781,0.139526 -0.27271,0.139526 -0.13318,0 -0.25368,-0.101473 -0.34247,-0.202946 -0.241,-0.285393 -0.39321,-0.716654 -1.17328,-1.629912 -0.006,-0.0063 -0.0127,-0.01268 -0.0127,-0.02537 0,-0.01903 0.019,-0.02537 0.0317,-0.03171 0.17123,-0.06342 0.72299,-0.418577 0.72299,-1.052783 0,-0.443945 -0.33613,-1.10352 -1.4777,-1.10352 z"
       style="font-style:normal;font-variant:normal;font-weight:normal;font-stretch:normal;font-size:6.34206724px;line-height:5.23220491px;font-family:'Goudy Bookletter 1911';-inkscape-font-specification:'Goudy Bookletter 1911, ';stroke-width:0.47565505px"
       id="path3568" />
    <path
       d="m 137.10557,16.724084 c 0,1.084494 0.70397,1.426965 1.22402,1.426965 0.45029,0 0.86252,-0.228314 1.12255,-0.564444 0.0317,-0.03805 0.0444,-0.0761 0.0444,-0.101473 0,-0.05708 -0.0444,-0.09513 -0.10147,-0.09513 -0.0634,0 -0.11416,0.05708 -0.14587,0.08879 -0.1966,0.190262 -0.47566,0.310761 -0.75471,0.310761 -0.7991,0 -0.93862,-0.843494 -0.93862,-0.919599 0,-0.05708 0.038,-0.05074 1.35086,-0.501024 0.18392,-0.06342 0.51371,-0.126841 0.51371,-0.317103 v -0.0063 c 0,-0.05708 -0.0254,-0.107815 -0.0507,-0.139526 -0.23466,-0.323445 -0.65323,-0.608838 -1.09084,-0.608838 -0.6342,0 -1.17328,0.539076 -1.17328,1.426965 z m 1.69967,-0.659575 c 0,0.02537 -0.019,0.05708 -0.0571,0.0761 -0.0127,0.0063 -1.16694,0.456629 -1.18597,0.456629 -0.0127,0 -0.0317,-0.0063 -0.0317,-0.04439 0,-0.564444 0.241,-0.906915 0.60884,-0.906915 0.35515,0 0.66591,0.342471 0.66591,0.418576 z"
       style="font-style:normal;font-variant:normal;font-weight:normal;font-stretch:normal;font-size:6.34206724px;line-height:5.23220491px;font-family:'Goudy Bookletter 1911';-inkscape-font-specification:'Goudy Bookletter 1911, ';stroke-width:0.47565505px"
       id="path3570" />
    <path
       d="m 139.7515,16.070851 c 0,0.310762 0.19026,0.627865 0.70397,0.773732 0.20295,0.05708 0.76105,0.1205 0.76105,0.539076 0,0.253683 -0.22832,0.424919 -0.51371,0.424919 -0.36784,0 -0.65957,-0.240999 -0.72299,-0.374182 -0.0888,-0.177578 0.0127,-0.393208 -0.14587,-0.393208 -0.0951,0 -0.11416,0.03171 -0.11416,0.196604 0,0.08879 0.006,0.209288 0.006,0.380524 0,0.09513 0.0127,0.145867 0.0761,0.21563 0.18392,0.21563 0.58347,0.317103 0.8752,0.317103 0.62787,0 0.964,-0.450286 0.964,-0.856179 0,-0.101473 -0.0254,-0.310761 -0.19026,-0.501023 -0.23466,-0.272709 -0.53274,-0.291735 -0.85618,-0.380524 -0.46932,-0.133184 -0.50103,-0.36784 -0.50103,-0.456629 0,-0.202946 0.18392,-0.33613 0.39955,-0.33613 0.20929,0 0.43761,0.133184 0.52005,0.247341 0.0888,0.126841 0.0698,0.310761 0.20295,0.310761 0.0507,0 0.14587,-0.01903 0.14587,-0.101473 0,-0.02537 -0.0824,-0.443944 -0.1205,-0.665917 -0.006,-0.03171 -0.0254,-0.120499 -0.10148,-0.120499 -0.0761,0 -0.10147,0.06342 -0.15855,0.06342 -0.0317,0 -0.12684,-0.03171 -0.3171,-0.03171 -0.57079,0 -0.91326,0.36784 -0.91326,0.748364 z"
       style="font-style:normal;font-variant:normal;font-weight:normal;font-stretch:normal;font-size:6.34206724px;line-height:5.23220491px;font-family:'Goudy Bookletter 1911';-inkscape-font-specification:'Goudy Bookletter 1911, ';stroke-width:0.47565505px"
       id="path3572" />
    <path
       d="m 141.83735,16.724084 c 0,1.084494 0.70397,1.426965 1.22402,1.426965 0.45029,0 0.86252,-0.228314 1.12255,-0.564444 0.0317,-0.03805 0.0444,-0.0761 0.0444,-0.101473 0,-0.05708 -0.0444,-0.09513 -0.10147,-0.09513 -0.0634,0 -0.11416,0.05708 -0.14587,0.08879 -0.1966,0.190262 -0.47565,0.310761 -0.75471,0.310761 -0.7991,0 -0.93862,-0.843494 -0.93862,-0.919599 0,-0.05708 0.038,-0.05074 1.35086,-0.501024 0.18392,-0.06342 0.51371,-0.126841 0.51371,-0.317103 v -0.0063 c 0,-0.05708 -0.0254,-0.107815 -0.0507,-0.139526 -0.23466,-0.323445 -0.65323,-0.608838 -1.09084,-0.608838 -0.6342,0 -1.17328,0.539076 -1.17328,1.426965 z m 1.69968,-0.659575 c 0,0.02537 -0.019,0.05708 -0.0571,0.0761 -0.0127,0.0063 -1.16694,0.456629 -1.18597,0.456629 -0.0127,0 -0.0317,-0.0063 -0.0317,-0.04439 0,-0.564444 0.241,-0.906915 0.60884,-0.906915 0.35515,0 0.66592,0.342471 0.66592,0.418576 z"
       style="font-style:normal;font-variant:normal;font-weight:normal;font-stretch:normal;font-size:6.34206724px;line-height:5.23220491px;font-family:'Goudy Bookletter 1911';-inkscape-font-specification:'Goudy Bookletter 1911, ';stroke-width:0.47565505px"
       id="path3574" />
    <path
       d="m 144.47059,15.842537 c 0,0.145867 0.13318,0.228314 0.25368,0.228314 0.0825,0 0.1205,-0.04439 0.13953,-0.06976 0.0127,-0.02537 0.18392,-0.424918 0.54542,-0.424918 0.16489,0 0.29173,0.08879 0.36784,0.171236 0.12684,0.145867 0.15221,0.304419 0.15221,0.507365 v 0.228315 c 0,0.04439 -0.006,0.0761 -0.0507,0.08879 -0.0127,0.0063 -0.77373,0.03171 -1.1162,0.304419 -0.15221,0.120499 -0.26637,0.323445 -0.26637,0.564444 v 0.0063 c 0,0.386866 0.28539,0.710311 0.72299,0.710311 0.23466,0 0.44395,-0.08245 0.58982,-0.177578 0.15855,-0.107815 0.13952,-0.139525 0.17123,-0.139525 0.006,0 0.006,0.0063 0.0127,0.0063 0.0127,0.0063 0.16489,0.260025 0.45028,0.260025 0.32979,0 0.48834,-0.355156 0.48834,-0.501024 0,-0.05708 -0.0317,-0.08245 -0.0571,-0.08245 -0.0951,0 -0.0824,0.209288 -0.27905,0.209288 -0.0634,0 -0.21563,-0.03171 -0.21563,-0.279051 v -1.249387 c 0,-0.07611 -0.006,-0.15221 -0.0127,-0.228315 -0.0634,-0.621522 -0.6786,-0.697627 -0.9196,-0.697627 -0.52639,0 -0.97668,0.336129 -0.97668,0.564444 z m 0.90057,1.966041 c -0.0824,0 -0.1966,-0.01268 -0.2727,-0.08245 -0.10148,-0.08879 -0.13319,-0.247341 -0.13319,-0.348814 0,-0.158552 0.0698,-0.272709 0.15221,-0.342472 0.20929,-0.196604 0.64055,-0.228314 0.75471,-0.228314 0.0571,0 0.0634,0.03171 0.0634,0.18392 v 0.260025 0.152209 c 0,0.05708 -0.006,0.101473 -0.038,0.145868 -0.0317,0.04439 -0.21563,0.260025 -0.5264,0.260025 z"
       style="font-style:normal;font-variant:normal;font-weight:normal;font-stretch:normal;font-size:6.34206724px;line-height:5.23220491px;font-family:'Goudy Bookletter 1911';-inkscape-font-specification:'Goudy Bookletter 1911, ';stroke-width:0.47565505px"
       id="path3576" />
    <path
       d="m 147.89422,15.639591 c -0.0127,0 -0.019,-0.01268 -0.019,-0.03171 v -0.253682 c 0,-0.05708 -0.006,-0.126842 -0.0761,-0.126842 -0.019,0 -0.038,0.01268 -0.0571,0.01903 -0.65957,0.323446 -0.66592,0.310762 -0.66592,0.342472 0.006,0.02537 0.019,0.03805 0.0254,0.04439 0.29808,0.21563 0.34882,0.209288 0.34882,0.336129 v 1.680648 c 0,0.09513 -0.0254,0.133183 -0.11416,0.15221 -0.17124,0.04439 -0.28539,0.0063 -0.28539,0.158551 0,0.06342 0.0381,0.107815 0.10147,0.107815 0.019,0 0.29173,-0.03805 0.64689,-0.03805 0.34247,0 0.62152,0.03805 0.64055,0.03805 0.0824,0 0.0888,-0.0761 0.0888,-0.126841 0,-0.145867 -0.0824,-0.120499 -0.46297,-0.15221 -0.15221,-0.01268 -0.15856,-0.120499 -0.15856,-0.190262 v -0.02537 -1.522096 c 0,-0.04439 0,-0.07611 0.0254,-0.114157 0.0381,-0.05708 0.29174,-0.260025 0.49468,-0.260025 0.20929,0 0.21563,0.158552 0.37419,0.158552 0.10781,0 0.19026,-0.08245 0.26002,-0.126842 0.0507,-0.04439 0.16489,-0.114157 0.17124,-0.221972 v -0.0063 c 0,-0.177578 -0.29174,-0.279051 -0.49468,-0.279051 -0.0698,0 -0.12685,0.0063 -0.18392,0.02537 -0.17124,0.06342 -0.63421,0.412235 -0.65958,0.412235 z"
       style="font-style:normal;font-variant:normal;font-weight:normal;font-stretch:normal;font-size:6.34206724px;line-height:5.23220491px;font-family:'Goudy Bookletter 1911';-inkscape-font-specification:'Goudy Bookletter 1911, ';stroke-width:0.47565505px"
       id="path3578" />
    <path
       d="m 150.56691,18.144707 c 0.47565,0 0.84349,-0.260025 1.04644,-0.539076 0.019,-0.02537 0.038,-0.06342 0.038,-0.101473 0,-0.06342 -0.0507,-0.107815 -0.10782,-0.107815 -0.14586,0 -0.27905,0.342472 -0.77373,0.342472 -0.58347,0 -1.00205,-0.526392 -1.00205,-1.116204 0,-0.532734 0.33613,-0.976678 0.723,-0.976678 0.36784,0 0.47566,0.380524 0.76739,0.380524 0.13318,0 0.25368,-0.09513 0.25368,-0.240999 0,-0.240998 -0.34881,-0.469313 -0.80544,-0.469313 -0.81178,0 -1.3572,0.602497 -1.3572,1.465018 0,0.780074 0.48834,1.363544 1.21768,1.363544 z"
       style="font-style:normal;font-variant:normal;font-weight:normal;font-stretch:normal;font-size:6.34206724px;line-height:5.23220491px;font-family:'Goudy Bookletter 1911';-inkscape-font-specification:'Goudy Bookletter 1911, ';stroke-width:0.47565505px"
       id="path3580" />
    <path
       d="m 153.51507,17.979813 c 0,0.0444 0.0127,0.08879 0.0698,0.08879 0.019,0 0.26636,-0.03805 0.57078,-0.03805 0.31711,0 0.55811,0.03805 0.57713,0.03805 0.0507,0 0.0824,-0.02537 0.0824,-0.139525 0,-0.08879 -0.0571,-0.107815 -0.10782,-0.114157 -0.15855,-0.01903 -0.23465,-0.02537 -0.23465,-0.202946 -0.0254,-1.185967 -0.0571,-1.382571 -0.18392,-1.680648 -0.14587,-0.33613 -0.43126,-0.577128 -0.84984,-0.577128 -0.43126,0 -0.71031,0.234656 -0.74836,0.234656 -0.0127,0 -0.0317,-0.0063 -0.0317,-0.04439 l 0.006,-1.953357 c 0,-0.101473 -0.0571,-0.120499 -0.0951,-0.120499 h -0.006 c -0.0444,0 -0.0507,0.01268 -0.72933,0.405892 -0.0127,0.0063 -0.10148,0.04439 -0.10148,0.120499 0,0.164894 0.41858,0.107815 0.45029,0.266367 0.006,0.03805 0.0254,1.040099 0.0254,1.553807 v 0.02537 c 0,0.58347 -0.0127,1.16694 -0.0317,1.744068 -0.006,0.08879 -0.006,0.190262 -0.15221,0.215631 -0.17758,0.03805 -0.23466,0.03171 -0.23466,0.139525 0,0.05708 0,0.126841 0.0761,0.126841 0.019,0 0.27271,-0.03805 0.59615,-0.03805 0.31076,0 0.56445,0.03805 0.58347,0.03805 0.0571,0 0.0698,-0.0761 0.0698,-0.133183 0,-0.228314 -0.42491,-0.02537 -0.47565,-0.298077 -0.0127,-0.0444 -0.0127,-1.528438 -0.0127,-1.566491 0,-0.03171 0,-0.05708 0.006,-0.08245 0.0317,-0.126841 0.27905,-0.310761 0.55176,-0.310761 0.20294,0 0.38686,0.101473 0.5137,0.228314 0.15856,0.171236 0.30442,0.418577 0.30442,1.331835 0,0.481997 0,0.532733 -0.12684,0.551759 -0.27905,0.03805 -0.3615,0.01269 -0.3615,0.145868 z"
       style="font-style:normal;font-variant:normal;font-weight:normal;font-stretch:normal;font-size:6.34206724px;line-height:5.23220491px;font-family:'Goudy Bookletter 1911';-inkscape-font-specification:'Goudy Bookletter 1911, ';stroke-width:0.47565505px"
       id="path3582" />
  </g>
</svg>
