<?xml version="1.0" encoding="UTF-8" standalone="no"?>
<svg
   xmlns:dc="http://purl.org/dc/elements/1.1/"
   xmlns:cc="http://creativecommons.org/ns#"
   xmlns:rdf="http://www.w3.org/1999/02/22-rdf-syntax-ns#"
   xmlns:svg="http://www.w3.org/2000/svg"
   xmlns="http://www.w3.org/2000/svg"
   xmlns:xlink="http://www.w3.org/1999/xlink"
   width="600"
   height="100"
   viewBox="0 0 158.75 26.458334"
   version="1.1"
   id="svg8993">
  <defs
     id="defs8987">
    <linearGradient
       gradientTransform="translate(-111.79475,114.61983)"
       xlink:href="#linearGradient8944"
       id="linearGradient8946"
       x1="116.79678"
       y1="138.77644"
       x2="114.39136"
       y2="242.47702"
       gradientUnits="userSpaceOnUse" />
    <linearGradient
       id="linearGradient8944">
      <stop
         style="stop-color:#82d14b;stop-opacity:1"
         offset="0"
         id="stop8940" />
      <stop
         style="stop-color:#58942e;stop-opacity:1"
         offset="1"
         id="stop8942" />
    </linearGradient>
    <linearGradient
       gradientTransform="translate(-111.79475,114.61983)"
       xlink:href="#linearGradient8952"
       id="linearGradient8954"
       x1="115.72771"
       y1="166.83975"
       x2="132.29842"
       y2="139.04372"
       gradientUnits="userSpaceOnUse" />
    <linearGradient
       id="linearGradient8952">
      <stop
         style="stop-color:#f29628;stop-opacity:1;"
         offset="0"
         id="stop8948" />
      <stop
         style="stop-color:#f29628;stop-opacity:0;"
         offset="1"
         id="stop8950" />
    </linearGradient>
    <linearGradient
       gradientTransform="translate(-111.79475,114.61983)"
       xlink:href="#linearGradient8960"
       id="linearGradient8962"
       x1="90.871643"
       y1="215.75006"
       x2="252.30243"
       y2="206.93018"
       gradientUnits="userSpaceOnUse" />
    <linearGradient
       id="linearGradient8960">
      <stop
         style="stop-color:#0d6328;stop-opacity:1;"
         offset="0"
         id="stop8956" />
      <stop
         style="stop-color:#6da482;stop-opacity:1"
         offset="1"
         id="stop8958" />
    </linearGradient>
  </defs>
  <metadata
     id="metadata8990">
    <rdf:RDF>
      <cc:Work
         rdf:about="">
        <dc:format>image/svg+xml</dc:format>
        <dc:type
           rdf:resource="http://purl.org/dc/dcmitype/StillImage" />
        <dc:title></dc:title>
      </cc:Work>
    </rdf:RDF>
  </metadata>
  <g
     id="layer1"
     transform="matrix(0.77419646,0,0,0.77419646,0.63113872,-206.74774)">
    <g
       id="g9575"
       transform="matrix(0.28100712,0,0,0.28100712,19.259546,198.79607)">
      <path
         id="path8309"
         d="m -55.083094,337.95644 c 0,0 23.070398,-13.84199 44.26541,-19.27656 21.194958,-5.43461 43.657999,-7.42733 49.636058,-7.42733 5.978101,0 20.470371,1.26808 29.165731,2.89846 18.14476,4.27625 30.61496,7.78962 34.781495,10.68808 4.16653,2.89846 2.34482,3.38718 -1.7757,2.16201 -4.120505,-1.22516 -39.889465,-10.85738 -67.243676,-8.86471 -27.3541702,1.99272 -44.926081,6.7027 -57.244541,10.86923 -12.31841,4.16653 -22.179369,8.04794 -29.606649,10.9464 -6.107285,2.46801 -7.607518,1.40006 -1.978128,-1.99558 z"
         style="fill:url(#linearGradient8962);fill-opacity:1;fill-rule:evenodd;stroke:none;stroke-width:1.10358703px;stroke-linecap:butt;stroke-linejoin:miter;stroke-opacity:1" />
      <circle
         r="6.8167634"
         cy="272.90079"
         cx="9.0850086"
         id="path8307"
         style="opacity:1;fill:url(#linearGradient8954);fill-opacity:1;stroke:none;stroke-width:3.9735465;stroke-miterlimit:4;stroke-dasharray:none;stroke-opacity:1" />
      <path
         id="path8305-3"
         d="m -25.299605,270.70381 c 2.148385,-2.46114 5.818206,-0.74383 3.395636,2.43633 -2.42257,3.18016 -12.958173,19.83666 -12.958173,19.83666 0,0 14.371699,-13.50578 22.497254,-17.53475 7.3073518,-3.96127 15.6250528,-2.34999 14.0468028,3.74632 -1.81157003,6.15924 -5.43461,14.85461 -5.43461,14.85461 0,0 24.4557102,-21.9196 38.5856792,-24.81805 14.130021,-2.89846 -15.579198,41.84648 -15.579198,41.84648 0,0 27.173059,-11.77497 43.476899,-15.57921 8.1519,-1.90212 18.35573,-3.98721 28.0898,-4.49328 9.734065,-0.50606 15.313095,-0.37803 24.137255,1.57916 7.25397,2.21351 9.98509,7.64468 9.17663,13.6492 -0.43358,3.22024 -2.84987,11.70324 -4.71743,15.09546 -1.86757,3.39223 -2.42451,3.06523 -2.63154,1.72046 -0.11038,-0.71696 3.44978,-13.91723 3.30754,-15.8629 0.54241,-6.44512 -5.23273,-10.05115 -10.25502,-11.04182 -4.05243,-1.30334 -12.956975,-1.11312 -22.397305,0.0674 -4.40987,0.55144 -18.20007,3.41099 -27.79553,6.51932 -9.58205,3.10398 -19.13092,7.48154 -23.06134,9.68433 -4.27102,2.63139 -28.2130502,16.84562 -30.8227012,18.05366 -3.757999,1.73963 -4.65265,-0.86831 -3.90584,-2.26985 5.573382,-10.45949 21.4745412,-38.04511 21.7462602,-41.39645 1.29944,-5.47427 -1.51348,-4.376 -2.536108,-3.62309 -0.637542,0.46939 -38.161486,32.12133 -40.101782,32.86455 -1.940293,0.74323 -3.324516,-0.45024 -3.222186,-2.23029 0.008,-3.33935 14.7245758,-28.03042 16.2978358,-31.39145 1.584759,-3.38563 -2.28219,-4.96544 -8.5186068,0.2316 -5.434615,4.52883 -30.831729,30.71337 -34.01162,33.42993 -5.518826,4.71469 -10.265598,2.59284 -7.242414,-2.25972 2.079541,-3.3951 5.549631,-8.5186 8.784949,-13.27518 3.235317,-4.75657 10.645808,-15.15979 11.786254,-17.08722 1.925658,-2.68996 7.869293,-10.47642 9.862609,-12.75221 z"
         style="fill:url(#linearGradient8946);fill-opacity:1;fill-rule:evenodd;stroke:none;stroke-width:1.10358703px;stroke-linecap:butt;stroke-linejoin:miter;stroke-opacity:1" />
    </g>
  </g>
  <g
     id="text4559"
     style="font-style:normal;font-weight:normal;font-size:10.58333397px;line-height:1.25;font-family:sans-serif;letter-spacing:0px;word-spacing:0px;fill:#000000;fill-opacity:1;stroke:none;stroke-width:0.26458335"
     aria-label="Pusat Rujukan Sehenti
Penyelidikan Alam Melayu">
    <g
       style="fill:#1a1a1a"
       transform="matrix(0.63964959,0,0,0.63964959,19.232692,3.4210329)"
       id="g4661">
      <path
         d="m 46.0298,11.436939 v -0.444417 h 0.134359 q 0.180868,0 0.335897,-0.02584 0.160197,-0.02584 0.279053,-0.103353 0.118856,-0.08268 0.186035,-0.232544 0.06718,-0.149862 0.06718,-0.397909 V 5.0445637 q 0,-0.232544 -0.07235,-0.3720703 -0.06718,-0.144694 -0.186035,-0.2222087 -0.118856,-0.077515 -0.279053,-0.098185 -0.155029,-0.025838 -0.330729,-0.025838 H 46.0298 V 3.8818439 h 2.971395 q 0.666626,0 1.157553,0.1550293 0.490926,0.1498617 0.81132,0.4392497 0.320394,0.2842204 0.475423,0.6924643 0.160197,0.4082438 0.160197,0.9250081 0,0.4702556 -0.149862,0.9043377 -0.144694,0.434082 -0.480591,0.7699789 -0.335897,0.3307291 -0.878499,0.5322672 -0.542603,0.1963708 -1.328084,0.1963708 h -0.666627 v 1.7880041 q 0,0.232544 0.06718,0.377238 0.07235,0.139527 0.191203,0.211874 0.118855,0.07235 0.273885,0.09818 0.160197,0.02067 0.335897,0.02067 h 0.351399 v 0.444418 z m 2.072225,-3.4416508 h 0.563274 q 0.48059,0 0.821655,-0.098185 0.341064,-0.1033531 0.558105,-0.3255618 0.217041,-0.2273763 0.315227,-0.5787761 0.103353,-0.3565674 0.103353,-0.8578288 0,-0.4444173 -0.08785,-0.7699789 Q 50.287939,5.0342284 50.091568,4.8171874 49.895198,4.6001464 49.579972,4.4967935 49.269913,4.388273 48.820328,4.388273 h -0.718303 z"
         style="font-style:normal;font-variant:normal;font-weight:normal;font-stretch:normal;font-family:'Droid Serif';-inkscape-font-specification:'Droid Serif';stroke-width:0.26458335;fill:#1a1a1a"
         id="path4559" />
      <path
         d="m 57.589819,10.284554 q 0,0.232544 0.06718,0.377238 0.07235,0.139527 0.191203,0.211874 0.118856,0.07235 0.273885,0.09818 0.160197,0.02067 0.335897,0.02067 h 0.03101 v 0.444417 h -1.679489 l -0.139526,-0.857829 h -0.05168 q -0.160197,0.299724 -0.356567,0.485759 -0.191203,0.186035 -0.408244,0.294556 -0.217041,0.103353 -0.454753,0.139526 -0.237711,0.04134 -0.496094,0.04134 -0.418579,0 -0.74414,-0.118856 -0.325559,-0.118848 -0.547767,-0.372063 -0.222209,-0.253215 -0.341065,-0.645956 -0.113688,-0.392741 -0.113688,-0.9353434 v -2.537313 q 0,-0.232544 -0.07235,-0.3720703 Q 53.016451,6.4139892 52.897596,6.3364746 52.77874,6.2589596 52.618543,6.2331217 52.463514,6.2072837 52.287814,6.2072837 h -0.03101 V 5.7628662 h 1.896525 v 3.6535234 q 0,0.3462327 0.05168,0.6149504 0.05684,0.268717 0.180867,0.454752 0.129191,0.186036 0.341065,0.284221 0.217041,0.09302 0.537435,0.09302 0.351399,0 0.599446,-0.124023 0.253215,-0.124024 0.413412,-0.346233 0.165364,-0.227376 0.242879,-0.5426027 0.07751,-0.315226 0.07751,-0.6976317 V 6.9720947 q 0,-0.2480468 -0.07235,-0.3979085 -0.06718,-0.1550293 -0.186036,-0.232544 -0.113688,-0.082682 -0.273885,-0.1085205 -0.155029,-0.025838 -0.335897,-0.025838 h -0.03101 V 5.7628662 h 1.891357 z"
         style="font-style:normal;font-variant:normal;font-weight:normal;font-stretch:normal;font-family:'Droid Serif';-inkscape-font-specification:'Droid Serif';stroke-width:0.26458335;fill:#1a1a1a"
         id="path4561" />
      <path
         d="m 60.953955,11.540292 q -0.397908,0 -0.72347,-0.07235 -0.320394,-0.06718 -0.54777,-0.206706 -0.227376,-0.144694 -0.3514,-0.3514 -0.124023,-0.211873 -0.124023,-0.490926 0,-0.211873 0.06718,-0.3514 0.07235,-0.1446937 0.170533,-0.2273757 0.103352,-0.08268 0.217041,-0.113689 0.118855,-0.03617 0.211873,-0.03617 0,0.279053 0.05684,0.5219327 0.05684,0.242879 0.191203,0.428914 0.134359,0.180868 0.3514,0.289388 0.222208,0.103353 0.542602,0.103353 0.284221,0 0.501262,-0.06718 0.217041,-0.07235 0.361735,-0.19637 0.149861,-0.129191 0.227376,-0.304891 0.07751,-0.180868 0.07751,-0.392741 0,-0.1963707 -0.06201,-0.3358967 -0.05684,-0.144694 -0.2067,-0.2687177 Q 61.770443,9.3440426 61.517229,9.2148516 61.264014,9.0856606 60.881608,8.9202959 60.473365,8.7394289 60.168474,8.5740639 59.86875,8.403532 59.67238,8.2071616 59.476009,8.0107911 59.377824,7.7627442 q -0.09818,-0.2532145 -0.09818,-0.5994466 0,-0.3617351 0.139526,-0.6407878 0.144694,-0.2790528 0.408244,-0.465088 0.26355,-0.1912028 0.630453,-0.289388 0.366902,-0.098185 0.816487,-0.098185 0.377238,0 0.666626,0.077515 0.289388,0.077515 0.485759,0.2118734 0.19637,0.1291911 0.294556,0.3100586 0.09818,0.1756999 0.09818,0.3720704 0,0.289388 -0.201538,0.4650879 -0.196371,0.1705322 -0.563273,0.1705322 0,-0.5322673 -0.222209,-0.8268229 -0.217041,-0.2945557 -0.687297,-0.2945557 -0.268717,0 -0.45992,0.062012 -0.191203,0.062012 -0.315226,0.1756999 -0.118856,0.1136881 -0.1757,0.2687174 -0.05684,0.1550293 -0.05684,0.3410645 0,0.2015381 0.07235,0.3513998 0.07235,0.144694 0.227376,0.2687174 0.160197,0.1240235 0.408244,0.2428793 0.253214,0.1136881 0.604614,0.2583822 0.418579,0.1756998 0.718303,0.3462317 0.299723,0.170533 0.490926,0.372071 0.19637,0.2015377 0.289388,0.4547527 0.09302,0.2532137 0.09302,0.5839437 0,0.4134107 -0.149861,0.7234697 -0.149862,0.310059 -0.423747,0.521933 -0.273885,0.206705 -0.661458,0.310058 -0.382406,0.103353 -0.852662,0.103353 z"
         style="font-style:normal;font-variant:normal;font-weight:normal;font-stretch:normal;font-family:'Droid Serif';-inkscape-font-specification:'Droid Serif';stroke-width:0.26458335;fill:#1a1a1a"
         id="path4563" />
      <path
         d="m 65.062232,9.9021483 q 0,0.4960937 0.206706,0.7441417 0.211873,0.242879 0.651123,0.242879 0.320394,0 0.578776,-0.103353 0.26355,-0.103353 0.444417,-0.294556 0.186035,-0.191203 0.28422,-0.465088 0.09819,-0.2738847 0.09819,-0.6097824 V 8.5585609 l -0.676962,0.03101 q -0.449585,0.02067 -0.754476,0.113688 -0.299723,0.08785 -0.485758,0.2532147 -0.186035,0.160197 -0.268718,0.397909 -0.07751,0.2377117 -0.07751,0.5477697 z m 1.281575,-3.7155354 q -0.304891,0 -0.496093,0.08785 -0.186036,0.082682 -0.294556,0.2377116 -0.103353,0.1550293 -0.139526,0.3669027 -0.03617,0.2118734 -0.03617,0.4599202 -0.43925,0 -0.671794,-0.1498616 -0.227376,-0.1498617 -0.227376,-0.5167644 0,-0.2738851 0.149862,-0.4650879 0.149861,-0.1912028 0.408244,-0.3100586 0.263549,-0.1240235 0.609782,-0.1808675 0.346232,-0.056844 0.738973,-0.056844 0.485758,0 0.847493,0.098185 0.361735,0.093018 0.604614,0.3100586 0.24288,0.2170411 0.361735,0.5684408 0.124024,0.3462321 0.124024,0.8526612 v 2.744019 q 0,0.222208 0.03617,0.366903 0.03617,0.144694 0.113689,0.232544 0.07751,0.08785 0.201538,0.124023 0.129191,0.03617 0.304891,0.03617 h 0.03101 v 0.444417 H 67.578874 L 67.41351,10.527433 h -0.08785 q -0.165365,0.222209 -0.320394,0.408245 -0.15503,0.186035 -0.341065,0.320394 -0.186035,0.134359 -0.423746,0.206706 -0.232544,0.07752 -0.563274,0.07752 -0.351399,0 -0.65629,-0.103353 -0.299724,-0.09818 -0.521932,-0.304891 -0.217041,-0.211874 -0.341065,-0.5271 -0.124023,-0.320394 -0.124023,-0.7544767 0,-0.8423257 0.599446,-1.2505694 0.599447,-0.4082439 1.813843,-0.4444174 l 0.8785,-0.031006 V 7.4888591 q 0,-0.2842204 -0.03101,-0.521932 -0.031,-0.2428792 -0.134355,-0.4134115 -0.103353,-0.1756999 -0.299723,-0.2687174 -0.191203,-0.098185 -0.516765,-0.098185 z"
         style="font-style:normal;font-variant:normal;font-weight:normal;font-stretch:normal;font-family:'Droid Serif';-inkscape-font-specification:'Droid Serif';stroke-width:0.26458335;fill:#1a1a1a"
         id="path4565" />
      <path
         d="m 72.265927,10.982186 q 0.191202,0 0.351399,-0.02067 0.160197,-0.02067 0.325562,-0.05168 v 0.465089 q -0.06718,0.03101 -0.1757,0.06201 -0.108521,0.03101 -0.237712,0.05168 -0.124023,0.02584 -0.263549,0.03617 -0.139527,0.0155 -0.26355,0.0155 -0.403076,0 -0.692465,-0.08785 -0.289388,-0.08268 -0.475423,-0.273886 -0.186035,-0.191198 -0.279052,-0.506424 -0.08785,-0.315227 -0.08785,-0.7699797 V 6.3674805 H 69.661434 V 5.9437337 q 0.191203,0 0.418579,-0.077515 0.232544,-0.077515 0.408244,-0.2583821 0.180868,-0.1963705 0.289388,-0.465088 0.113688,-0.2738851 0.196371,-0.6821289 h 0.485758 v 1.3022462 h 1.384929 v 0.6046143 h -1.384929 v 3.5656741 q 0,0.5426027 0.217041,0.7958177 0.222209,0.253214 0.589112,0.253214 z"
         style="font-style:normal;font-variant:normal;font-weight:normal;font-stretch:normal;font-family:'Droid Serif';-inkscape-font-specification:'Droid Serif';stroke-width:0.26458335;fill:#1a1a1a"
         id="path4567" />
      <path
         d="m 81.795062,10.145028 q 0.268718,0.423747 0.521932,0.63562 0.253215,0.211874 0.589111,0.211874 h 0.03101 v 0.444417 H 82.78725 q -0.496094,0 -0.816488,-0.03617 -0.315226,-0.03617 -0.537435,-0.139526 -0.222209,-0.103356 -0.382406,-0.289392 -0.155029,-0.186035 -0.335896,-0.485759 L 79.283587,8.1038087 h -0.878499 v 2.1807453 q 0,0.232544 0.06718,0.377238 0.07235,0.139527 0.191203,0.211874 0.118856,0.07235 0.273885,0.09818 0.160197,0.02067 0.335897,0.02067 h 0.139526 v 0.444417 h -3.079916 v -0.444417 h 0.134359 q 0.175699,0 0.330729,-0.02067 0.160197,-0.02584 0.279053,-0.09818 0.118855,-0.07235 0.186035,-0.211874 0.07235,-0.144694 0.07235,-0.377238 V 5.0445637 q 0,-0.232544 -0.07235,-0.3720703 -0.06718,-0.144694 -0.186035,-0.2222087 -0.118856,-0.077515 -0.279053,-0.098185 -0.15503,-0.025838 -0.330729,-0.025838 H 76.332863 V 3.8818439 h 2.847371 q 1.374594,0 2.046387,0.5115967 0.671794,0.5064291 0.671794,1.5296225 0,0.4237468 -0.139526,0.7441407 Q 81.62453,6.98243 81.402321,7.214974 81.180113,7.447518 80.90106,7.6025473 80.622007,7.7575766 80.342954,7.8505942 Z M 78.405088,7.6077149 h 0.744141 q 0.465088,0 0.775146,-0.1033529 0.310059,-0.1033528 0.496094,-0.3100586 0.186035,-0.2067057 0.26355,-0.5167643 0.08268,-0.3100586 0.08268,-0.7234701 0,-0.4237468 -0.08785,-0.7183025 -0.08785,-0.2997233 -0.28422,-0.4857585 -0.196371,-0.1912028 -0.511597,-0.2738851 -0.310059,-0.08785 -0.759644,-0.08785 h -0.718302 z"
         style="font-style:normal;font-variant:normal;font-weight:normal;font-stretch:normal;font-family:'Droid Serif';-inkscape-font-specification:'Droid Serif';stroke-width:0.26458335;fill:#1a1a1a"
         id="path4569" />
      <path
         d="m 88.450987,10.284554 q 0,0.232544 0.06718,0.377238 0.07235,0.139527 0.191203,0.211874 0.118856,0.07235 0.273885,0.09818 0.160197,0.02067 0.335897,0.02067 h 0.03101 v 0.444417 h -1.67949 l -0.139526,-0.857829 h -0.05168 q -0.160197,0.299724 -0.356568,0.485759 -0.191203,0.186035 -0.408244,0.294556 -0.217041,0.103353 -0.454752,0.139526 -0.237712,0.04134 -0.496094,0.04134 -0.418579,0 -0.744141,-0.118856 Q 84.69411,11.302581 84.471901,11.049366 84.249692,10.796151 84.130837,10.40341 84.017148,10.010669 84.017148,9.4680666 v -2.537313 q 0,-0.232544 -0.07235,-0.3720703 Q 83.877622,6.4139892 83.758766,6.3364746 83.63991,6.2589599 83.479713,6.2331217 83.324684,6.2072835 83.148984,6.2072835 h -0.03101 V 5.7628662 H 85.0145 v 3.6535234 q 0,0.3462327 0.05168,0.6149504 0.05684,0.268717 0.180868,0.454752 0.129191,0.186036 0.341064,0.284221 0.217041,0.09302 0.537435,0.09302 0.3514,0 0.599447,-0.124023 0.253214,-0.124024 0.413411,-0.346233 0.165365,-0.227376 0.242879,-0.5426027 0.07752,-0.315226 0.07752,-0.6976317 V 6.9720947 q 0,-0.2480468 -0.07235,-0.3979085 -0.06718,-0.1550293 -0.186035,-0.232544 -0.113688,-0.082682 -0.273885,-0.1085205 -0.15503,-0.025838 -0.335897,-0.025838 h -0.03101 V 5.7628662 h 1.891358 z"
         style="font-style:normal;font-variant:normal;font-weight:normal;font-stretch:normal;font-family:'Droid Serif';-inkscape-font-specification:'Droid Serif';stroke-width:0.26458335;fill:#1a1a1a"
         id="path4571" />
      <path
         d="m 91.732441,5.7628662 v 5.7567558 q 0,0.713135 -0.155029,1.18339 -0.15503,0.475424 -0.434082,0.754476 -0.279053,0.284221 -0.666626,0.403076 -0.382406,0.118856 -0.842326,0.118856 h -0.170532 v -0.501261 h 0.07751 q 0.284221,0 0.506429,-0.09819 0.222209,-0.09302 0.372071,-0.320394 0.155029,-0.222209 0.232544,-0.599447 0.08268,-0.37207 0.08268,-0.930176 V 6.9307536 q 0,-0.232544 -0.07235,-0.3720703 Q 90.59555,6.4139892 90.476695,6.3364746 90.357839,6.2589596 90.197642,6.2331217 90.042613,6.2072837 89.866913,6.2072837 h -0.03101 V 5.7628662 Z M 90.590392,4.0472085 q 0,-0.1860352 0.04651,-0.3100586 0.04651,-0.1240235 0.124023,-0.2015381 0.08268,-0.077515 0.191203,-0.1085205 0.113688,-0.031006 0.237712,-0.031006 0.124023,0 0.232543,0.031006 0.113689,0.031006 0.191203,0.1085205 0.08268,0.077515 0.129191,0.2015381 0.05168,0.1240234 0.05168,0.3100586 0,0.1860352 -0.05168,0.3100586 -0.04651,0.1240235 -0.129191,0.2015381 -0.07751,0.077515 -0.191203,0.1136882 -0.10852,0.031006 -0.232543,0.031006 -0.124024,0 -0.237712,-0.031006 -0.108521,-0.036173 -0.191203,-0.1136882 -0.07752,-0.077515 -0.124023,-0.2015381 -0.04651,-0.1240234 -0.04651,-0.3100586 z"
         style="font-style:normal;font-variant:normal;font-weight:normal;font-stretch:normal;font-family:'Droid Serif';-inkscape-font-specification:'Droid Serif';stroke-width:0.26458335;fill:#1a1a1a"
         id="path4573" />
      <path
         d="m 98.35219,10.284554 q 0,0.232544 0.06718,0.377238 0.07235,0.139527 0.191203,0.211874 0.118856,0.07235 0.273885,0.09818 0.160197,0.02067 0.335897,0.02067 h 0.03101 v 0.444417 h -1.679489 l -0.139527,-0.857829 h -0.05168 q -0.160197,0.299724 -0.356568,0.485759 -0.191202,0.186035 -0.408244,0.294556 -0.217041,0.103353 -0.454752,0.139526 -0.237712,0.04134 -0.496094,0.04134 -0.418579,0 -0.744141,-0.118856 Q 94.595313,11.302581 94.373104,11.049366 94.150896,10.796151 94.03204,10.40341 93.918352,10.010669 93.918352,9.4680666 v -2.537313 q 0,-0.232544 -0.07235,-0.3720703 -0.06718,-0.1446941 -0.186036,-0.2222087 -0.118855,-0.077515 -0.279052,-0.1033529 -0.15503,-0.025838 -0.33073,-0.025838 h -0.031 V 5.7628662 h 1.896525 v 3.6535234 q 0,0.3462327 0.05168,0.6149504 0.05684,0.268717 0.180868,0.454752 0.129191,0.186036 0.341064,0.284221 0.217041,0.09302 0.537435,0.09302 0.3514,0 0.599447,-0.124023 0.253214,-0.124024 0.413411,-0.346233 0.165365,-0.227376 0.24288,-0.5426027 0.07751,-0.315226 0.07751,-0.6976317 V 6.9720947 q 0,-0.2480468 -0.07235,-0.3979085 -0.06718,-0.1550293 -0.186035,-0.232544 -0.113688,-0.082682 -0.273885,-0.1085205 -0.155029,-0.025838 -0.335897,-0.025838 h -0.03101 V 5.7628662 h 1.891358 z"
         style="font-style:normal;font-variant:normal;font-weight:normal;font-stretch:normal;font-family:'Droid Serif';-inkscape-font-specification:'Droid Serif';stroke-width:0.26458335;fill:#1a1a1a"
         id="path4575" />
      <path
         d="m 103.08058,8.0314617 1.41077,2.0928953 q 0.27389,0.423747 0.5426,0.645956 0.27389,0.222209 0.63046,0.222209 h 0.031 v 0.444417 h -0.14986 q -0.45992,0 -0.75964,-0.02584 -0.29456,-0.03101 -0.5116,-0.134358 -0.21704,-0.108521 -0.39791,-0.310059 -0.18087,-0.206706 -0.40307,-0.558106 l -1.05937,-1.6588141 -0.78032,0.5787767 v 0.9560144 q 0,0.232543 0.0672,0.377238 0.0724,0.139526 0.19121,0.211873 0.11885,0.07235 0.27388,0.09818 0.1602,0.02067 0.3359,0.02067 h 0.031 v 0.444419 h -2.847387 v -0.444417 h 0.08268 q 0.180867,0 0.335897,-0.02584 0.1602,-0.02584 0.27389,-0.103353 0.11885,-0.08268 0.18603,-0.232544 0.0724,-0.149862 0.0724,-0.397909 V 4.5588052 q 0,-0.2325439 -0.0724,-0.3720703 -0.0672,-0.144694 -0.18603,-0.2222087 -0.11886,-0.077515 -0.27906,-0.098185 -0.155027,-0.025838 -0.330727,-0.025838 h -0.08268 V 3.3960854 h 1.948197 v 4.0824384 q 0,0.144694 -0.005,0.3720704 -0.005,0.2222086 -0.0155,0.4392497 -0.0103,0.248047 -0.0207,0.521932 l 1.32292,-1.4469402 q 0.17053,-0.1912029 0.27905,-0.3358969 0.11369,-0.144694 0.18087,-0.2532145 0.0672,-0.1085205 0.093,-0.1912028 0.0258,-0.08785 0.0258,-0.1653646 0,-0.1343587 -0.1292,-0.1705322 -0.12402,-0.041341 -0.38757,-0.041341 V 5.7628662 h 2.33578 v 0.4444173 q -0.36691,0 -0.72347,0.2583822 -0.3514,0.2583822 -0.76481,0.7286377 z"
         style="font-style:normal;font-variant:normal;font-weight:normal;font-stretch:normal;font-family:'Droid Serif';-inkscape-font-specification:'Droid Serif';stroke-width:0.26458335;fill:#1a1a1a"
         id="path4577" />
      <path
         d="m 107.25087,9.9021483 q 0,0.4960937 0.20671,0.7441417 0.21187,0.242879 0.65112,0.242879 0.3204,0 0.57878,-0.103353 0.26355,-0.103353 0.44441,-0.294556 0.18604,-0.191203 0.28423,-0.465088 0.0982,-0.2738847 0.0982,-0.6097824 V 8.5585609 l -0.67696,0.03101 q -0.44959,0.02067 -0.75448,0.113688 -0.29972,0.08785 -0.48576,0.2532147 -0.18603,0.160197 -0.26871,0.397909 -0.0775,0.2377117 -0.0775,0.5477697 z m 1.28158,-3.7155354 q -0.30489,0 -0.4961,0.08785 -0.18603,0.082682 -0.29455,0.2377116 -0.10335,0.1550293 -0.13953,0.3669027 -0.0362,0.2118734 -0.0362,0.4599202 -0.43925,0 -0.6718,-0.1498616 -0.22737,-0.1498617 -0.22737,-0.5167644 0,-0.2738851 0.14986,-0.4650879 0.14986,-0.1912028 0.40824,-0.3100586 0.26355,-0.1240235 0.60979,-0.1808675 0.34623,-0.056844 0.73897,-0.056844 0.48576,0 0.84749,0.098185 0.36174,0.093018 0.60462,0.3100586 0.24288,0.2170411 0.36173,0.5684408 0.12403,0.3462321 0.12403,0.8526612 v 2.744019 q 0,0.222208 0.0362,0.366903 0.0362,0.144694 0.11369,0.232544 0.0775,0.08785 0.20154,0.124023 0.12919,0.03617 0.30489,0.03617 h 0.031 v 0.444418 h -1.43144 l -0.16536,-0.909506 h -0.0878 q -0.16536,0.222209 -0.32039,0.408244 -0.15503,0.186035 -0.34107,0.320394 -0.18603,0.134359 -0.42374,0.206706 -0.23255,0.07752 -0.56328,0.07752 -0.3514,0 -0.65629,-0.103353 -0.29972,-0.09818 -0.52193,-0.304891 -0.21704,-0.211874 -0.34107,-0.5271 -0.12402,-0.320394 -0.12402,-0.7544757 0,-0.8423267 0.59945,-1.2505704 0.59944,-0.4082435 1.81384,-0.444417 l 0.8785,-0.031006 V 7.4888591 q 0,-0.2842204 -0.031,-0.521932 -0.031,-0.2428792 -0.13435,-0.4134115 -0.10336,-0.1756999 -0.29973,-0.2687174 -0.1912,-0.098185 -0.51676,-0.098185 z"
         style="font-style:normal;font-variant:normal;font-weight:normal;font-stretch:normal;font-family:'Droid Serif';-inkscape-font-specification:'Droid Serif';stroke-width:0.26458335;fill:#1a1a1a"
         id="path4579" />
      <path
         d="m 114.79046,10.992522 v 0.444417 h -2.84737 v -0.444417 h 0.0879 q 0.18087,0 0.3359,-0.02584 0.1602,-0.02584 0.27388,-0.103353 0.11886,-0.08268 0.18604,-0.232544 0.0724,-0.149862 0.0724,-0.397909 V 6.9307536 q 0,-0.232544 -0.0724,-0.3720703 -0.0672,-0.1446941 -0.18604,-0.2222087 -0.11885,-0.077515 -0.27905,-0.1033529 -0.15503,-0.025838 -0.33073,-0.025838 h -0.031 V 5.7628662 h 1.71049 L 113.85,6.620695 h 0.0517 q 0.16536,-0.2945557 0.34623,-0.4805909 0.18604,-0.1912028 0.38757,-0.2945556 0.20671,-0.1085206 0.43409,-0.1446941 0.23254,-0.041341 0.48576,-0.041341 0.41857,0 0.74414,0.1240234 0.33073,0.1188558 0.5581,0.3720704 0.23255,0.2480469 0.3514,0.6407878 0.12402,0.3927409 0.12402,0.9353434 v 2.5011396 q 0,0.248047 0.0569,0.397909 0.062,0.149861 0.17053,0.232544 0.10852,0.07752 0.25838,0.103353 0.14986,0.02584 0.32556,0.02584 h 0.0362 v 0.444417 h -1.84485 V 7.7834147 q 0,-0.3462321 -0.062,-0.6149496 -0.062,-0.2687175 -0.20154,-0.4547526 -0.13436,-0.1860352 -0.35657,-0.2790528 -0.22221,-0.098185 -0.5426,-0.098185 -0.36174,0 -0.60978,0.1395264 -0.24288,0.1395263 -0.39274,0.3772379 -0.14986,0.2377117 -0.21704,0.5477703 -0.062,0.3100586 -0.062,0.651123 v 2.2324217 q 0,0.232544 0.0672,0.377239 0.0724,0.139526 0.19121,0.211873 0.11885,0.07235 0.27388,0.09818 0.1602,0.02067 0.3359,0.02067 z"
         style="font-style:normal;font-variant:normal;font-weight:normal;font-stretch:normal;font-family:'Droid Serif';-inkscape-font-specification:'Droid Serif';stroke-width:0.26458335;fill:#1a1a1a"
         id="path4581" />
      <path
         d="m 123.83384,11.540292 q -0.51676,0 -0.91467,-0.10852 -0.39274,-0.108521 -0.66146,-0.299724 -0.26355,-0.19637 -0.39791,-0.470256 -0.13435,-0.279053 -0.13435,-0.609782 0,-0.3203937 0.19637,-0.5167637 0.20153,-0.1963707 0.56844,-0.1963707 0.0155,0.3307287 0.0982,0.6356197 0.0878,0.3048917 0.25838,0.5374357 0.17054,0.232544 0.43409,0.37207 0.26355,0.139527 0.63562,0.139527 0.71313,0 1.11104,-0.341065 0.40308,-0.346232 0.40308,-0.9921877 0,-0.2893877 -0.0827,-0.5115967 -0.0827,-0.222209 -0.27388,-0.4082437 -0.1912,-0.191203 -0.50643,-0.3617352 -0.31006,-0.1756999 -0.77515,-0.3669027 -0.49092,-0.2015381 -0.85783,-0.4289145 -0.3669,-0.2325439 -0.60978,-0.5115967 -0.24288,-0.2842204 -0.36173,-0.6304525 -0.11886,-0.3462321 -0.11886,-0.7803141 0,-0.4547527 0.17053,-0.8113201 0.1757,-0.3565674 0.48576,-0.5994466 0.31006,-0.2480469 0.73381,-0.377238 0.42374,-0.1291911 0.92501,-0.1291911 0.47542,0 0.84232,0.098185 0.3669,0.098185 0.62012,0.2635498 0.25321,0.1653646 0.3824,0.3824057 0.13436,0.2118734 0.13436,0.4444173 0,0.3410645 -0.22737,0.5167644 -0.22221,0.1705322 -0.60462,0.1705322 0,-0.2480469 -0.062,-0.4857585 -0.0568,-0.2428792 -0.19637,-0.4289144 -0.13953,-0.1912028 -0.3669,-0.3100586 -0.22738,-0.1188558 -0.56327,-0.1188558 -0.3049,0 -0.54778,0.08785 -0.23771,0.082682 -0.40307,0.2428793 -0.16537,0.1550293 -0.25322,0.3772379 -0.0879,0.2222087 -0.0879,0.4960938 0,0.3152263 0.0827,0.5581055 0.0827,0.2377116 0.27388,0.4340821 0.19637,0.1912028 0.5116,0.3669027 0.31522,0.1705322 0.77514,0.3565674 0.46509,0.1912028 0.82683,0.4030762 0.3669,0.2118734 0.62012,0.4754232 0.25321,0.2583822 0.38757,0.5839433 0.13436,0.3203947 0.13436,0.7286377 0,0.5012617 -0.18604,0.8991704 -0.18087,0.392741 -0.52193,0.666626 -0.34106,0.273886 -0.82166,0.41858 -0.48059,0.139526 -1.07487,0.139526 z"
         style="font-style:normal;font-variant:normal;font-weight:normal;font-stretch:normal;font-family:'Droid Serif';-inkscape-font-specification:'Droid Serif';stroke-width:0.26458335;fill:#1a1a1a"
         id="path4583" />
      <path
         d="m 129.89549,6.2279541 q -0.58911,0 -0.90951,0.4805908 -0.31522,0.4754232 -0.37207,1.3952638 h 2.43396 q 0,-0.4185791 -0.062,-0.7648113 -0.062,-0.3462321 -0.19637,-0.594279 -0.13436,-0.2480469 -0.35656,-0.3824056 -0.21705,-0.1343587 -0.53744,-0.1343587 z m 0.12919,5.3123379 q -0.57361,0 -1.03353,-0.191203 -0.45475,-0.19637 -0.76998,-0.568441 -0.31522,-0.37207 -0.48575,-0.9095057 -0.16537,-0.5426017 -0.16537,-1.2298984 0,-1.483114 0.60978,-2.2324223 0.60978,-0.7493083 1.73633,-0.7493083 0.5116,0 0.91984,0.1601969 0.40825,0.160197 0.69247,0.4805909 0.28422,0.3152262 0.43408,0.7906495 0.15503,0.4702555 0.15503,1.0955404 v 0.4857589 h -3.52434 q 0.0103,0.5787757 0.11369,0.9973544 0.10852,0.4134117 0.30489,0.6821297 0.20154,0.268717 0.49093,0.397908 0.28939,0.124024 0.66663,0.124024 0.27388,0 0.50642,-0.06201 0.23772,-0.06201 0.42892,-0.165365 0.1912,-0.103353 0.3359,-0.232544 0.14986,-0.134359 0.24287,-0.279053 0.0724,0.03101 0.13436,0.129191 0.0672,0.09818 0.0672,0.232544 0,0.160198 -0.11369,0.346233 -0.11368,0.180867 -0.34623,0.335897 -0.23254,0.155029 -0.58394,0.258382 -0.34623,0.103353 -0.81649,0.103353 z"
         style="font-style:normal;font-variant:normal;font-weight:normal;font-stretch:normal;font-family:'Droid Serif';-inkscape-font-specification:'Droid Serif';stroke-width:0.26458335;fill:#1a1a1a"
         id="path4585" />
      <path
         d="m 135.68842,10.992522 v 0.444417 h -2.84738 v -0.444417 h 0.0827 q 0.18086,0 0.33589,-0.02584 0.1602,-0.02584 0.27389,-0.103353 0.11885,-0.08268 0.18603,-0.232544 0.0724,-0.149862 0.0724,-0.397909 V 4.5588052 q 0,-0.2325439 -0.0724,-0.3720703 -0.0672,-0.144694 -0.18603,-0.2222087 -0.11886,-0.077515 -0.27905,-0.098185 -0.15503,-0.025838 -0.33073,-0.025838 h -0.0827 V 3.3960854 h 1.94821 V 5.721525 q 0,0.144694 -0.005,0.304891 -0.005,0.1550293 -0.0155,0.289388 -0.0103,0.1550293 -0.0207,0.304891 h 0.0517 q 0.47542,-0.9611817 1.55546,-0.9611817 0.44959,0 0.79582,0.1240234 0.3514,0.1188558 0.58911,0.3720704 0.23771,0.2480469 0.36174,0.6407878 0.12402,0.3927409 0.12402,0.9353434 v 2.5011397 q 0,0.248047 0.062,0.397909 0.062,0.149861 0.17053,0.232544 0.10852,0.07752 0.25838,0.103352 0.14987,0.02584 0.32557,0.02584 h 0.031 v 0.444418 H 137.2337 V 7.7834146 q 0,-0.3462321 -0.062,-0.6149496 -0.062,-0.2687175 -0.20154,-0.4547526 -0.13436,-0.1860352 -0.35657,-0.2790528 -0.2222,-0.098185 -0.5426,-0.098185 -0.33073,0 -0.57361,0.1240234 -0.23771,0.1188558 -0.39791,0.3462322 -0.15502,0.2222086 -0.23254,0.5426025 -0.0775,0.3152263 -0.0775,0.7027995 v 2.2324218 q 0,0.232544 0.0672,0.377238 0.0723,0.139527 0.1912,0.211874 0.11885,0.07235 0.27388,0.09818 0.1602,0.02067 0.3359,0.02067 z"
         style="font-style:normal;font-variant:normal;font-weight:normal;font-stretch:normal;font-family:'Droid Serif';-inkscape-font-specification:'Droid Serif';stroke-width:0.26458335;fill:#1a1a1a"
         id="path4587" />
      <path
         d="m 142.27716,6.2279541 q -0.58911,0 -0.90951,0.4805908 -0.31522,0.4754232 -0.37207,1.3952638 h 2.43396 q 0,-0.4185791 -0.062,-0.7648113 -0.062,-0.3462321 -0.19637,-0.594279 -0.13437,-0.2480469 -0.35658,-0.3824056 -0.21704,-0.1343587 -0.53743,-0.1343587 z m 0.12919,5.3123379 q -0.57361,0 -1.03353,-0.191203 -0.45475,-0.19637 -0.76998,-0.568441 -0.31522,-0.37207 -0.48576,-0.9095057 -0.16536,-0.5426017 -0.16536,-1.2298984 0,-1.483114 0.60978,-2.2324223 0.60978,-0.7493083 1.73633,-0.7493083 0.5116,0 0.91984,0.1601969 0.40824,0.160197 0.69246,0.4805909 0.28422,0.3152262 0.43409,0.7906495 0.15502,0.4702555 0.15502,1.0955404 v 0.4857589 h -3.52433 q 0.0103,0.5787757 0.11369,0.9973544 0.10852,0.4134117 0.30489,0.6821297 0.20154,0.268717 0.49093,0.397908 0.28939,0.124024 0.66662,0.124024 0.27389,0 0.50643,-0.06201 0.23771,-0.06201 0.42892,-0.165365 0.1912,-0.103353 0.33589,-0.232544 0.14987,-0.134359 0.24288,-0.279053 0.0724,0.03101 0.13436,0.129191 0.0672,0.09818 0.0672,0.232544 0,0.160198 -0.11369,0.346233 -0.11369,0.180867 -0.34623,0.335897 -0.23254,0.155029 -0.58394,0.258382 -0.34624,0.103353 -0.81649,0.103353 z"
         style="font-style:normal;font-variant:normal;font-weight:normal;font-stretch:normal;font-family:'Droid Serif';-inkscape-font-specification:'Droid Serif';stroke-width:0.26458335;fill:#1a1a1a"
         id="path4589" />
      <path
         d="m 148.17344,10.992522 v 0.444417 h -2.84737 v -0.444417 h 0.0879 q 0.18087,0 0.3359,-0.02584 0.1602,-0.02584 0.27388,-0.103353 0.11886,-0.08268 0.18604,-0.232544 0.0724,-0.149862 0.0724,-0.397909 V 6.9307536 q 0,-0.232544 -0.0724,-0.3720703 -0.0672,-0.1446941 -0.18604,-0.2222087 -0.11885,-0.077515 -0.27905,-0.1033529 -0.15503,-0.025838 -0.33073,-0.025838 h -0.031 V 5.7628662 h 1.71049 l 0.13952,0.8578288 h 0.0517 q 0.16536,-0.2945557 0.34623,-0.4805909 0.18604,-0.1912028 0.38757,-0.2945556 0.20671,-0.1085206 0.43409,-0.1446941 0.23254,-0.041341 0.48576,-0.041341 0.41857,0 0.74414,0.1240234 0.33073,0.1188558 0.5581,0.3720704 0.23255,0.2480469 0.3514,0.6407878 0.12402,0.3927409 0.12402,0.9353434 v 2.5011396 q 0,0.248047 0.0568,0.397909 0.062,0.149861 0.17053,0.232544 0.10852,0.07752 0.25838,0.103353 0.14987,0.02584 0.32556,0.02584 h 0.0362 v 0.444417 h -1.84485 V 7.7834147 q 0,-0.3462321 -0.062,-0.6149496 -0.062,-0.2687175 -0.20154,-0.4547526 -0.13436,-0.1860352 -0.35657,-0.2790528 -0.22221,-0.098185 -0.5426,-0.098185 -0.36174,0 -0.60978,0.1395264 -0.24288,0.1395263 -0.39274,0.3772379 -0.14986,0.2377117 -0.21704,0.5477703 -0.062,0.3100586 -0.062,0.651123 v 2.2324217 q 0,0.232544 0.0672,0.377239 0.0724,0.139526 0.19121,0.211873 0.11885,0.07235 0.27388,0.09818 0.1602,0.02067 0.3359,0.02067 z"
         style="font-style:normal;font-variant:normal;font-weight:normal;font-stretch:normal;font-family:'Droid Serif';-inkscape-font-specification:'Droid Serif';stroke-width:0.26458335;fill:#1a1a1a"
         id="path4591" />
      <path
         d="m 154.65884,10.982186 q 0.1912,0 0.3514,-0.02067 0.16019,-0.02067 0.32556,-0.05168 v 0.465089 q -0.0672,0.03101 -0.1757,0.06201 -0.10852,0.03101 -0.23771,0.05168 -0.12403,0.02584 -0.26355,0.03617 -0.13953,0.0155 -0.26355,0.0155 -0.40308,0 -0.69247,-0.08785 -0.28939,-0.08268 -0.47542,-0.273886 -0.18604,-0.191203 -0.27905,-0.506429 -0.0879,-0.315226 -0.0879,-0.7699787 V 6.3674805 h -0.80616 V 5.9437337 q 0.19121,0 0.41858,-0.077515 0.23255,-0.077515 0.40825,-0.2583821 0.18086,-0.1963705 0.28939,-0.465088 0.11368,-0.2738851 0.19637,-0.6821289 h 0.48575 v 1.3022462 h 1.38493 v 0.6046143 h -1.38493 v 3.5656741 q 0,0.5426027 0.21705,0.7958177 0.2222,0.253214 0.58911,0.253214 z"
         style="font-style:normal;font-variant:normal;font-weight:normal;font-stretch:normal;font-family:'Droid Serif';-inkscape-font-specification:'Droid Serif';stroke-width:0.26458335;fill:#1a1a1a"
         id="path4593" />
      <path
         d="m 155.95591,10.992522 q 0.1757,0 0.33073,-0.02067 0.1602,-0.02584 0.27906,-0.09818 0.11885,-0.07235 0.18603,-0.211874 0.0724,-0.144694 0.0724,-0.377238 V 6.9307536 q 0,-0.232544 -0.0724,-0.3720703 -0.0672,-0.1446941 -0.18603,-0.2222087 -0.11886,-0.077515 -0.27906,-0.1033529 -0.15503,-0.025838 -0.33073,-0.025838 h -0.031 V 5.7628662 h 1.89136 v 4.4700118 q 0,0.248047 0.0672,0.397909 0.0723,0.149861 0.18603,0.232544 0.11886,0.07752 0.27905,0.103352 0.1602,0.02584 0.3359,0.02584 h 0.13953 v 0.444418 h -3.00757 v -0.444417 z m 0.71831,-6.9453135 q 0,-0.1860352 0.0465,-0.3100586 0.0465,-0.1240235 0.12919,-0.2015381 0.0827,-0.077515 0.1912,-0.1085205 0.10852,-0.031006 0.23771,-0.031006 0.12403,0 0.23255,0.031006 0.10852,0.031006 0.18603,0.1085205 0.0827,0.077515 0.12919,0.2015381 0.0517,0.1240234 0.0517,0.3100586 0,0.1860352 -0.0517,0.3100586 -0.0465,0.1240235 -0.12919,0.2015381 -0.0775,0.077515 -0.18603,0.1136882 -0.10852,0.031006 -0.23255,0.031006 -0.12919,0 -0.23771,-0.031006 -0.10852,-0.036173 -0.1912,-0.1136882 -0.0827,-0.077515 -0.12919,-0.2015381 -0.0465,-0.1240234 -0.0465,-0.3100586 z"
         style="font-style:normal;font-variant:normal;font-weight:normal;font-stretch:normal;font-family:'Droid Serif';-inkscape-font-specification:'Droid Serif';stroke-width:0.26458335;fill:#1a1a1a"
         id="path4595" />
    </g>
    <g
       style="fill:#1a1a1a"
       transform="matrix(0.63964959,0,0,0.63964959,19.232692,3.4210329)"
       id="g4685">
      <path
         d="m 46.0298,23.104412 v -0.444417 h 0.134359 q 0.180868,0 0.335897,-0.02584 0.160197,-0.02584 0.279053,-0.103353 0.118856,-0.08268 0.186035,-0.232544 0.06718,-0.149861 0.06718,-0.397908 v -5.188314 q 0,-0.232544 -0.07235,-0.372071 -0.06718,-0.144694 -0.186035,-0.222208 -0.118856,-0.07751 -0.279053,-0.09818 -0.155029,-0.02584 -0.330729,-0.02584 H 46.0298 V 15.54932 h 2.971395 q 0.666626,0 1.157553,0.155029 0.490926,0.149862 0.81132,0.43925 0.320394,0.28422 0.475423,0.692464 0.160197,0.408244 0.160197,0.925008 0,0.470256 -0.149862,0.904338 -0.144694,0.434082 -0.480591,0.769979 -0.335897,0.330729 -0.878499,0.532267 -0.542603,0.196371 -1.328084,0.196371 h -0.666627 v 1.788004 q 0,0.232544 0.06718,0.377238 0.07235,0.139527 0.191203,0.211874 0.118855,0.07235 0.273885,0.09818 0.160197,0.02067 0.335897,0.02067 h 0.351399 v 0.444417 z m 2.072225,-3.441651 h 0.563274 q 0.48059,0 0.821655,-0.09819 0.341064,-0.103353 0.558105,-0.325561 0.217041,-0.227377 0.315227,-0.578777 0.103353,-0.356567 0.103353,-0.857828 0,-0.444418 -0.08785,-0.769979 -0.08785,-0.330729 -0.284221,-0.54777 -0.19637,-0.217042 -0.511596,-0.320394 -0.310059,-0.108521 -0.759644,-0.108521 h -0.718303 z"
         style="font-style:normal;font-variant:normal;font-weight:normal;font-stretch:normal;font-family:'Droid Serif';-inkscape-font-specification:'Droid Serif';stroke-width:0.26458335;fill:#1a1a1a"
         id="path4597" />
      <path
         d="m 54.923315,17.895427 q -0.589111,0 -0.909505,0.480591 -0.315226,0.475423 -0.372071,1.395264 H 56.0757 q 0,-0.418579 -0.06201,-0.764811 -0.06201,-0.346233 -0.196371,-0.594279 -0.134358,-0.248047 -0.356567,-0.382406 -0.217041,-0.134359 -0.537435,-0.134359 z m 0.129191,5.312338 q -0.573608,0 -1.033529,-0.191203 -0.454752,-0.196371 -0.769978,-0.568441 -0.315227,-0.37207 -0.485759,-0.909505 -0.165365,-0.542603 -0.165365,-1.229899 0,-1.483114 0.609782,-2.232422 0.609782,-0.749309 1.736329,-0.749309 0.511596,0 0.91984,0.160197 0.408244,0.160197 0.692464,0.480591 0.284221,0.315226 0.434082,0.79065 0.15503,0.470255 0.15503,1.09554 v 0.485759 h -3.524333 q 0.01034,0.578776 0.113688,0.997355 0.108521,0.413411 0.304891,0.682129 0.201538,0.268717 0.490926,0.397908 0.289388,0.124024 0.666626,0.124024 0.273885,0 0.506429,-0.06201 0.237712,-0.06201 0.428915,-0.165365 0.191202,-0.103352 0.335896,-0.232544 0.149862,-0.134358 0.24288,-0.279052 0.07235,0.03101 0.134358,0.129191 0.06718,0.09819 0.06718,0.232544 0,0.160197 -0.113688,0.346232 -0.113688,0.180867 -0.346232,0.335897 -0.232544,0.155029 -0.583944,0.258382 -0.346232,0.103353 -0.816488,0.103353 z"
         style="font-style:normal;font-variant:normal;font-weight:normal;font-stretch:normal;font-family:'Droid Serif';-inkscape-font-specification:'Droid Serif';stroke-width:0.26458335;fill:#1a1a1a"
         id="path4599" />
      <path
         d="m 60.819597,22.659995 v 0.444417 h -2.847372 v -0.444417 h 0.08785 q 0.180868,0 0.335897,-0.02584 0.160197,-0.02584 0.273885,-0.103353 0.118856,-0.08268 0.186035,-0.232544 0.07235,-0.149861 0.07235,-0.397908 v -3.302124 q 0,-0.232544 -0.07235,-0.372071 -0.06718,-0.144694 -0.186035,-0.222208 -0.118856,-0.07752 -0.279053,-0.103353 -0.155029,-0.02584 -0.330729,-0.02584 h -0.03101 v -0.444418 h 1.71049 l 0.139527,0.857829 h 0.05168 q 0.165365,-0.294556 0.346232,-0.480591 0.186035,-0.191203 0.387573,-0.294555 0.206706,-0.108521 0.434083,-0.144694 0.232544,-0.04134 0.485758,-0.04134 0.418579,0 0.744141,0.124024 0.330729,0.118856 0.558105,0.37207 0.232544,0.248047 0.3514,0.640788 0.124023,0.392741 0.124023,0.935343 v 2.50114 q 0,0.248047 0.05684,0.397908 0.06201,0.149862 0.170533,0.232544 0.10852,0.07752 0.258382,0.103353 0.149862,0.02584 0.325561,0.02584 h 0.03617 v 0.444417 h -1.844849 v -3.653524 q 0,-0.346232 -0.06201,-0.61495 -0.06201,-0.268717 -0.201538,-0.454752 -0.134358,-0.186035 -0.356567,-0.279053 -0.222209,-0.09818 -0.542603,-0.09818 -0.361735,0 -0.609782,0.139526 -0.242879,0.139526 -0.39274,0.377238 -0.149862,0.237712 -0.217041,0.54777 -0.06201,0.310059 -0.06201,0.651123 v 2.232422 q 0,0.232544 0.06718,0.377238 0.07235,0.139527 0.191203,0.211874 0.118856,0.07235 0.273885,0.09818 0.160197,0.02067 0.335897,0.02067 z"
         style="font-style:normal;font-variant:normal;font-weight:normal;font-stretch:normal;font-family:'Droid Serif';-inkscape-font-specification:'Droid Serif';stroke-width:0.26458335;fill:#1a1a1a"
         id="path4601" />
      <path
         d="m 70.271217,17.430339 v 0.444418 h -0.03101 q -0.155029,0 -0.268717,0.03617 -0.108521,0.03101 -0.201538,0.124024 -0.08785,0.09302 -0.165365,0.253214 -0.07752,0.160197 -0.170532,0.413412 l -1.607137,4.444173 q -0.186035,0.511597 -0.3514,0.89917 -0.165365,0.387573 -0.346232,0.661458 -0.180868,0.279053 -0.397909,0.459921 -0.211873,0.180867 -0.485758,0.289388 -0.273885,0.10852 -0.630453,0.149861 -0.356567,0.04134 -0.826823,0.04134 h -0.09302 v -0.501261 q 0.537435,0 0.925008,-0.160197 0.387573,-0.160197 0.666626,-0.43925 0.28422,-0.279052 0.470255,-0.661458 0.191203,-0.377238 0.320394,-0.821655 l -1.95853,-4.625037 q -0.07235,-0.165365 -0.139526,-0.268718 -0.06718,-0.10852 -0.155029,-0.1757 -0.08268,-0.06718 -0.196371,-0.09302 -0.10852,-0.02584 -0.263549,-0.02584 h -0.03101 v -0.444418 h 2.54248 v 0.444418 h -0.03101 q -0.320393,0 -0.48059,0.124023 -0.15503,0.124024 -0.15503,0.387573 0,0.08785 0.0155,0.180868 0.02067,0.08785 0.06718,0.206706 l 0.775146,1.886189 q 0.07235,0.180868 0.149862,0.397909 0.08268,0.211873 0.149861,0.423747 0.07235,0.206706 0.129191,0.392741 0.05685,0.186035 0.07752,0.320394 h 0.03101 q 0.05684,-0.232544 0.155029,-0.563274 0.103353,-0.335896 0.237712,-0.718302 l 0.707967,-2.06189 q 0.04651,-0.129191 0.06718,-0.248047 0.02584,-0.118855 0.02584,-0.206705 0,-0.273885 -0.1757,-0.397909 -0.170532,-0.124023 -0.521932,-0.124023 h -0.03101 v -0.444418 z"
         style="font-style:normal;font-variant:normal;font-weight:normal;font-stretch:normal;font-family:'Droid Serif';-inkscape-font-specification:'Droid Serif';stroke-width:0.26458335;fill:#1a1a1a"
         id="path4603" />
      <path
         d="m 73.175432,17.895427 q -0.589112,0 -0.909506,0.480591 -0.315226,0.475423 -0.37207,1.395264 h 2.43396 q 0,-0.418579 -0.06201,-0.764811 -0.06201,-0.346233 -0.196371,-0.594279 -0.134359,-0.248047 -0.356567,-0.382406 -0.217041,-0.134359 -0.537435,-0.134359 z m 0.129191,5.312338 q -0.573609,0 -1.033529,-0.191203 -0.454753,-0.196371 -0.769979,-0.568441 -0.315226,-0.37207 -0.485758,-0.909505 -0.165365,-0.542603 -0.165365,-1.229899 0,-1.483114 0.609782,-2.232422 0.609782,-0.749309 1.736328,-0.749309 0.511597,0 0.919841,0.160197 0.408244,0.160197 0.692464,0.480591 0.28422,0.315226 0.434082,0.79065 0.155029,0.470255 0.155029,1.09554 v 0.485759 h -3.524332 q 0.01033,0.578776 0.113688,0.997355 0.10852,0.413411 0.304891,0.682129 0.201538,0.268717 0.490926,0.397908 0.289388,0.124024 0.666626,0.124024 0.273885,0 0.506429,-0.06201 0.237712,-0.06201 0.428914,-0.165365 0.191203,-0.103352 0.335897,-0.232544 0.149862,-0.134358 0.242879,-0.279052 0.07235,0.03101 0.134359,0.129191 0.06718,0.09819 0.06718,0.232544 0,0.160197 -0.113689,0.346232 -0.113688,0.180867 -0.346232,0.335897 -0.232544,0.155029 -0.583943,0.258382 -0.346233,0.103353 -0.816488,0.103353 z"
         style="font-style:normal;font-variant:normal;font-weight:normal;font-stretch:normal;font-family:'Droid Serif';-inkscape-font-specification:'Droid Serif';stroke-width:0.26458335;fill:#1a1a1a"
         id="path4605" />
      <path
         d="m 76.203672,22.659995 q 0.180867,0 0.335897,-0.02584 0.160197,-0.02584 0.273885,-0.103353 0.118856,-0.08268 0.186035,-0.232544 0.07235,-0.149861 0.07235,-0.397908 v -5.674073 q 0,-0.232544 -0.07235,-0.37207 -0.06718,-0.144694 -0.186035,-0.222209 -0.118856,-0.07751 -0.279053,-0.09819 -0.155029,-0.02584 -0.330729,-0.02584 h -0.134359 v -0.444417 h 1.999878 v 6.836792 q 0,0.248047 0.06718,0.397908 0.06718,0.149862 0.186036,0.232544 0.118855,0.07752 0.273885,0.103353 0.160197,0.02584 0.341064,0.02584 h 0.134359 v 0.444417 h -3.002401 v -0.444417 z"
         style="font-style:normal;font-variant:normal;font-weight:normal;font-stretch:normal;font-family:'Droid Serif';-inkscape-font-specification:'Droid Serif';stroke-width:0.26458335;fill:#1a1a1a"
         id="path4607" />
      <path
         d="m 79.598813,22.659995 q 0.1757,0 0.33073,-0.02067 0.160197,-0.02584 0.279052,-0.09818 0.118856,-0.07235 0.186036,-0.211874 0.07235,-0.144694 0.07235,-0.377238 v -3.3538 q 0,-0.232544 -0.07235,-0.372071 -0.06718,-0.144694 -0.186036,-0.222208 -0.118855,-0.07752 -0.279052,-0.103353 -0.15503,-0.02584 -0.33073,-0.02584 h -0.03101 v -0.444418 h 1.891357 v 4.470012 q 0,0.248047 0.06718,0.397908 0.07235,0.149862 0.186036,0.232544 0.118855,0.07752 0.279052,0.103353 0.160197,0.02584 0.335897,0.02584 h 0.139527 v 0.444417 H 79.459283 V 22.66 Z m 0.718303,-6.945313 q 0,-0.186036 0.04651,-0.310059 0.04651,-0.124023 0.129191,-0.201538 0.08268,-0.07752 0.191203,-0.108521 0.10852,-0.03101 0.237711,-0.03101 0.124024,0 0.232544,0.03101 0.108521,0.03101 0.186035,0.108521 0.08268,0.07752 0.129191,0.201538 0.05168,0.124023 0.05168,0.310059 0,0.186035 -0.05168,0.310058 -0.04651,0.124024 -0.129191,0.201538 -0.07751,0.07751 -0.186035,0.113688 -0.10852,0.03101 -0.232544,0.03101 -0.129191,0 -0.237711,-0.03101 -0.108521,-0.03617 -0.191203,-0.113688 -0.08268,-0.07751 -0.129191,-0.201538 -0.04651,-0.124023 -0.04651,-0.310058 z"
         style="font-style:normal;font-variant:normal;font-weight:normal;font-stretch:normal;font-family:'Droid Serif';-inkscape-font-specification:'Droid Serif';stroke-width:0.26458335;fill:#1a1a1a"
         id="path4609" />
      <path
         d="m 87.960059,21.941692 q 0,0.232544 0.06718,0.377238 0.07235,0.139526 0.191202,0.217041 0.118856,0.07752 0.273885,0.103353 0.160197,0.02067 0.335897,0.02067 h 0.08785 v 0.444417 h -1.793172 l -0.113688,-0.950847 h -0.04134 q -0.118856,0.24288 -0.273885,0.43925 -0.149862,0.191203 -0.346233,0.330729 -0.19637,0.134359 -0.444417,0.206706 -0.248047,0.07751 -0.558105,0.07751 -0.521932,0 -0.925009,-0.170532 -0.403076,-0.1757 -0.676961,-0.532268 -0.273885,-0.361735 -0.413411,-0.914673 -0.139527,-0.552938 -0.139527,-1.312581 0,-0.764811 0.139527,-1.322917 0.139526,-0.558105 0.413411,-0.91984 0.273885,-0.361735 0.676961,-0.532268 0.403077,-0.1757 0.925009,-0.1757 0.304891,0 0.552937,0.06718 0.248047,0.06718 0.444418,0.191203 0.201538,0.124023 0.356567,0.294555 0.155029,0.170532 0.268718,0.377238 h 0.06201 q -0.0155,-0.258382 -0.03101,-0.485758 -0.01033,-0.196371 -0.02067,-0.387574 -0.01033,-0.19637 -0.01033,-0.289388 v -0.868164 q 0,-0.232544 -0.07235,-0.37207 -0.06718,-0.144694 -0.186036,-0.222209 -0.118855,-0.07751 -0.279052,-0.09819 -0.15503,-0.02584 -0.33073,-0.02584 h -0.08785 v -0.444417 h 1.948201 z m -2.43396,0.589111 q 0.413412,0 0.687297,-0.134358 0.279052,-0.139527 0.444417,-0.418579 0.170532,-0.279053 0.237712,-0.7028 0.07235,-0.423747 0.07235,-0.997355 0,-0.552938 -0.07235,-0.976685 -0.06718,-0.423747 -0.237712,-0.707967 -0.165365,-0.289388 -0.444417,-0.43925 -0.279053,-0.149861 -0.697632,-0.149861 -0.346232,0 -0.594279,0.149861 -0.248047,0.149862 -0.408244,0.43925 -0.155029,0.289388 -0.227376,0.718303 -0.07235,0.423746 -0.07235,0.976684 0,1.126546 0.304891,1.684652 0.304891,0.558105 1.00769,0.558105 z"
         style="font-style:normal;font-variant:normal;font-weight:normal;font-stretch:normal;font-family:'Droid Serif';-inkscape-font-specification:'Droid Serif';stroke-width:0.26458335;fill:#1a1a1a"
         id="path4611" />
      <path
         d="m 89.479349,22.659995 q 0.175699,0 0.330729,-0.02067 0.160197,-0.02584 0.279052,-0.09818 0.118856,-0.07235 0.186036,-0.211874 0.07235,-0.144694 0.07235,-0.377238 v -3.3538 q 0,-0.232544 -0.07235,-0.372071 -0.06718,-0.144694 -0.186036,-0.222208 -0.118855,-0.07752 -0.279052,-0.103353 -0.15503,-0.02584 -0.330729,-0.02584 h -0.03101 V 17.430339 H 91.3397 v 4.470012 q 0,0.248047 0.06718,0.397908 0.07235,0.149862 0.186035,0.232544 0.118856,0.07752 0.279052,0.103353 0.160197,0.02584 0.335897,0.02584 h 0.139527 v 0.444417 h -3.007569 v -0.444417 z m 0.718302,-6.945313 q 0,-0.186036 0.04651,-0.310059 0.04651,-0.124023 0.129191,-0.201538 0.08268,-0.07752 0.191203,-0.108521 0.10852,-0.03101 0.237711,-0.03101 0.124024,0 0.232544,0.03101 0.108521,0.03101 0.186035,0.108521 0.08268,0.07752 0.129191,0.201538 0.05168,0.124023 0.05168,0.310059 0,0.186035 -0.05168,0.310058 -0.04651,0.124024 -0.129191,0.201538 -0.07751,0.07751 -0.186035,0.113688 -0.10852,0.03101 -0.232544,0.03101 -0.129191,0 -0.237711,-0.03101 -0.108521,-0.03617 -0.191203,-0.113688 -0.08268,-0.07751 -0.129191,-0.201538 -0.04651,-0.124023 -0.04651,-0.310058 z"
         style="font-style:normal;font-variant:normal;font-weight:normal;font-stretch:normal;font-family:'Droid Serif';-inkscape-font-specification:'Droid Serif';stroke-width:0.26458335;fill:#1a1a1a"
         id="path4613" />
      <path
         d="m 96.07326,19.698935 1.410767,2.092895 q 0.273885,0.423747 0.542602,0.645956 0.273886,0.222209 0.630453,0.222209 h 0.03101 v 0.444417 H 98.53823 q -0.45992,0 -0.759643,-0.02584 -0.294556,-0.03101 -0.511597,-0.134359 -0.217041,-0.108521 -0.397909,-0.310059 -0.180867,-0.206705 -0.403076,-0.558105 l -1.059367,-1.658814 -0.780314,0.578776 v 0.956014 q 0,0.232544 0.06718,0.377238 0.07235,0.139527 0.191203,0.211874 0.118856,0.07235 0.273885,0.09818 0.160197,0.02067 0.335897,0.02067 h 0.03101 v 0.444417 h -2.847372 v -0.444417 h 0.08268 q 0.180867,0 0.335897,-0.02584 0.160196,-0.02584 0.273885,-0.103353 0.118855,-0.08268 0.186035,-0.232544 0.07235,-0.149861 0.07235,-0.397908 v -5.674073 q 0,-0.232544 -0.07235,-0.37207 -0.06718,-0.144694 -0.186035,-0.222209 -0.118856,-0.07751 -0.279053,-0.09819 -0.155029,-0.02584 -0.330729,-0.02584 h -0.08268 v -0.444417 h 1.948202 v 4.082438 q 0,0.144694 -0.0052,0.37207 -0.0052,0.222209 -0.0155,0.43925 -0.01033,0.248047 -0.02067,0.521932 l 1.322917,-1.44694 q 0.170532,-0.191203 0.279052,-0.335897 0.113689,-0.144694 0.180868,-0.253215 0.06718,-0.10852 0.09302,-0.191202 0.02584,-0.08785 0.02584,-0.165365 0,-0.134359 -0.129191,-0.170532 -0.124024,-0.04134 -0.387574,-0.04134 v -0.444418 h 2.335775 v 0.444418 q -0.366902,0 -0.72347,0.258382 -0.3514,0.258382 -0.764811,0.728638 z"
         style="font-style:normal;font-variant:normal;font-weight:normal;font-stretch:normal;font-family:'Droid Serif';-inkscape-font-specification:'Droid Serif';stroke-width:0.26458335;fill:#1a1a1a"
         id="path4615" />
      <path
         d="m 100.24355,21.569622 q 0,0.496094 0.2067,0.74414 0.21188,0.24288 0.65113,0.24288 0.32039,0 0.57877,-0.103353 0.26355,-0.103353 0.44442,-0.294556 0.18604,-0.191203 0.28422,-0.465088 0.0982,-0.273885 0.0982,-0.609782 v -0.857829 l -0.67697,0.03101 q -0.44958,0.02067 -0.75447,0.113688 -0.29972,0.08785 -0.48576,0.253215 -0.18603,0.160197 -0.26872,0.397909 -0.0775,0.237711 -0.0775,0.54777 z m 1.28157,-3.715536 q -0.30489,0 -0.49609,0.08785 -0.18604,0.08268 -0.29456,0.237712 -0.10335,0.155029 -0.13952,0.366902 -0.0362,0.211874 -0.0362,0.459921 -0.43925,0 -0.671789,-0.149862 -0.227377,-0.149862 -0.227377,-0.516764 0,-0.273886 0.149862,-0.465088 0.149862,-0.191203 0.408244,-0.310059 0.26355,-0.124023 0.60978,-0.180868 0.34623,-0.05684 0.73897,-0.05684 0.48576,0 0.8475,0.09819 0.36173,0.09302 0.60461,0.310058 0.24288,0.217041 0.36174,0.568441 0.12402,0.346232 0.12402,0.852661 v 2.744019 q 0,0.222209 0.0362,0.366903 0.0362,0.144694 0.11369,0.232544 0.0775,0.08785 0.20154,0.124023 0.12919,0.03617 0.30489,0.03617 h 0.031 v 0.444417 h -1.43144 l -0.16536,-0.909505 h -0.0879 q -0.16537,0.222208 -0.3204,0.408243 -0.15503,0.186036 -0.34106,0.320394 -0.18604,0.134359 -0.42375,0.206706 -0.23254,0.07751 -0.56327,0.07751 -0.3514,0 -0.65629,-0.103353 -0.299726,-0.09819 -0.521935,-0.304891 -0.217041,-0.211873 -0.341064,-0.5271 -0.124024,-0.320394 -0.124024,-0.754476 0,-0.842326 0.599447,-1.250569 0.599446,-0.408244 1.813846,-0.444418 l 0.8785,-0.03101 v -0.63562 q 0,-0.28422 -0.031,-0.521932 -0.031,-0.242879 -0.13436,-0.413411 -0.10335,-0.1757 -0.29972,-0.268718 -0.1912,-0.09819 -0.51677,-0.09819 z"
         style="font-style:normal;font-variant:normal;font-weight:normal;font-stretch:normal;font-family:'Droid Serif';-inkscape-font-specification:'Droid Serif';stroke-width:0.26458335;fill:#1a1a1a"
         id="path4617" />
      <path
         d="m 107.78314,22.659995 v 0.444417 h -2.84737 v -0.444417 h 0.0878 q 0.18087,0 0.33589,-0.02584 0.1602,-0.02584 0.27389,-0.103353 0.11886,-0.08268 0.18604,-0.232544 0.0723,-0.149861 0.0723,-0.397908 v -3.302124 q 0,-0.232544 -0.0723,-0.372071 -0.0672,-0.144694 -0.18604,-0.222208 -0.11886,-0.07752 -0.27905,-0.103353 -0.15503,-0.02584 -0.33073,-0.02584 h -0.031 v -0.444418 h 1.71049 l 0.13953,0.857829 h 0.0517 q 0.16536,-0.294556 0.34623,-0.480591 0.18603,-0.191203 0.38757,-0.294555 0.20671,-0.108521 0.43408,-0.144694 0.23255,-0.04134 0.48576,-0.04134 0.41858,0 0.74414,0.124024 0.33073,0.118856 0.55811,0.37207 0.23254,0.248047 0.3514,0.640788 0.12402,0.392741 0.12402,0.935343 v 2.50114 q 0,0.248047 0.0568,0.397908 0.062,0.149862 0.17054,0.232544 0.10852,0.07752 0.25838,0.103353 0.14986,0.02584 0.32556,0.02584 h 0.0362 v 0.444417 h -1.84484 v -3.653524 q 0,-0.346232 -0.062,-0.61495 -0.062,-0.268717 -0.20153,-0.454752 -0.13436,-0.186035 -0.35657,-0.279053 -0.22221,-0.09818 -0.5426,-0.09818 -0.36174,0 -0.60979,0.139526 -0.24288,0.139526 -0.39274,0.377238 -0.14986,0.237712 -0.21704,0.54777 -0.062,0.310059 -0.062,0.651123 v 2.232422 q 0,0.232544 0.0672,0.377238 0.0724,0.139527 0.1912,0.211874 0.11886,0.07235 0.27389,0.09818 0.16019,0.02067 0.33589,0.02067 z"
         style="font-style:normal;font-variant:normal;font-weight:normal;font-stretch:normal;font-family:'Droid Serif';-inkscape-font-specification:'Droid Serif';stroke-width:0.26458335;fill:#1a1a1a"
         id="path4619" />
      <path
         d="m 116.3511,20.577434 -0.40308,1.111044 q -0.0465,0.124023 -0.0724,0.248046 -0.0258,0.118856 -0.0258,0.206706 0,0.268718 0.17053,0.392741 0.1757,0.124024 0.53227,0.124024 h 0.24287 v 0.444417 h -2.58382 v -0.444417 h 0.20154 q 0.15503,0 0.26355,-0.03101 0.10852,-0.03617 0.19637,-0.129191 0.0879,-0.09302 0.16537,-0.253215 0.0827,-0.160197 0.18086,-0.413411 l 2.34611,-6.283855 h 0.82683 l 2.39262,6.547404 q 0.062,0.165365 0.12402,0.273885 0.0672,0.108521 0.15503,0.1757 0.0879,0.06201 0.20154,0.08785 0.11368,0.02584 0.26871,0.02584 h 0.13953 v 0.444417 h -2.90938 v -0.444417 h 0.24288 q 0.63562,0 0.63562,-0.50643 0,-0.08785 -0.0258,-0.180867 -0.0207,-0.09302 -0.062,-0.211873 l -0.42375,-1.183391 z m 1.9327,-2.382283 q -0.16537,-0.470256 -0.3049,-0.8785 -0.13435,-0.413411 -0.2222,-0.795817 -0.0362,0.191203 -0.0878,0.37207 -0.0465,0.1757 -0.10336,0.361735 -0.0568,0.186036 -0.12919,0.392741 -0.0723,0.201538 -0.16536,0.449585 l -0.7183,1.948202 h 2.38745 z"
         style="font-style:normal;font-variant:normal;font-weight:normal;font-stretch:normal;font-family:'Droid Serif';-inkscape-font-specification:'Droid Serif';stroke-width:0.26458335;fill:#1a1a1a"
         id="path4621" />
      <path
         d="m 121.94765,22.659995 q 0.18087,0 0.3359,-0.02584 0.1602,-0.02584 0.27388,-0.103353 0.11886,-0.08268 0.18604,-0.232544 0.0724,-0.149861 0.0724,-0.397908 v -5.674073 q 0,-0.232544 -0.0724,-0.37207 -0.0672,-0.144694 -0.18604,-0.222209 -0.11885,-0.07751 -0.27905,-0.09819 -0.15503,-0.02584 -0.33073,-0.02584 h -0.13436 v -0.444417 h 1.99988 v 6.836792 q 0,0.248047 0.0672,0.397908 0.0672,0.149862 0.18604,0.232544 0.11885,0.07752 0.27388,0.103353 0.1602,0.02584 0.34107,0.02584 h 0.13435 v 0.444417 h -3.0024 v -0.444417 z"
         style="font-style:normal;font-variant:normal;font-weight:normal;font-stretch:normal;font-family:'Droid Serif';-inkscape-font-specification:'Droid Serif';stroke-width:0.26458335;fill:#1a1a1a"
         id="path4623" />
      <path
         d="m 126.51585,21.569622 q 0,0.496094 0.2067,0.74414 0.21188,0.24288 0.65113,0.24288 0.32039,0 0.57877,-0.103353 0.26355,-0.103353 0.44442,-0.294556 0.18604,-0.191203 0.28422,-0.465088 0.0982,-0.273885 0.0982,-0.609782 v -0.857829 l -0.67696,0.03101 q -0.44959,0.02067 -0.75448,0.113688 -0.29972,0.08785 -0.48576,0.253215 -0.18603,0.160197 -0.26872,0.397909 -0.0775,0.237711 -0.0775,0.54777 z m 1.28157,-3.715536 q -0.30489,0 -0.49609,0.08785 -0.18603,0.08268 -0.29455,0.237712 -0.10336,0.155029 -0.13953,0.366902 -0.0362,0.211874 -0.0362,0.459921 -0.43925,0 -0.6718,-0.149862 -0.22737,-0.149862 -0.22737,-0.516764 0,-0.273886 0.14986,-0.465088 0.14986,-0.191203 0.40824,-0.310059 0.26355,-0.124023 0.60978,-0.180868 0.34623,-0.05684 0.73898,-0.05684 0.48575,0 0.84749,0.09819 0.36173,0.09302 0.60461,0.310058 0.24288,0.217041 0.36174,0.568441 0.12402,0.346232 0.12402,0.852661 v 2.744019 q 0,0.222209 0.0362,0.366903 0.0362,0.144694 0.11368,0.232544 0.0775,0.08785 0.20154,0.124023 0.12919,0.03617 0.30489,0.03617 h 0.031 v 0.444417 h -1.43144 l -0.16536,-0.909505 h -0.0879 q -0.16537,0.222208 -0.3204,0.408243 -0.15503,0.186036 -0.34106,0.320394 -0.18604,0.134359 -0.42375,0.206706 -0.23254,0.07751 -0.56327,0.07751 -0.3514,0 -0.65629,-0.103353 -0.29973,-0.09819 -0.52193,-0.304891 -0.21705,-0.211873 -0.34107,-0.5271 -0.12402,-0.320394 -0.12402,-0.754476 0,-0.842326 0.59944,-1.250569 0.59945,-0.408244 1.81385,-0.444418 l 0.8785,-0.03101 v -0.63562 q 0,-0.28422 -0.031,-0.521932 -0.031,-0.242879 -0.13436,-0.413411 -0.10335,-0.1757 -0.29972,-0.268718 -0.1912,-0.09819 -0.51677,-0.09819 z"
         style="font-style:normal;font-variant:normal;font-weight:normal;font-stretch:normal;font-family:'Droid Serif';-inkscape-font-specification:'Droid Serif';stroke-width:0.26458335;fill:#1a1a1a"
         id="path4625" />
      <path
         d="m 134.05544,22.659995 v 0.444417 h -2.84737 v -0.444417 h 0.13953 q 0.18086,0 0.33072,-0.02584 0.14987,-0.02584 0.25839,-0.103353 0.10852,-0.08268 0.16536,-0.232544 0.062,-0.149861 0.062,-0.397908 v -3.302124 q 0,-0.232544 -0.062,-0.372071 -0.062,-0.144694 -0.17053,-0.222208 -0.10852,-0.07752 -0.25838,-0.103353 -0.14986,-0.02584 -0.32556,-0.02584 h -0.031 v -0.444418 h 1.65881 l 0.13953,0.857829 h 0.0517 q 0.16019,-0.294556 0.33589,-0.480591 0.1757,-0.191203 0.37207,-0.294555 0.20154,-0.108521 0.41858,-0.144694 0.22221,-0.04134 0.47026,-0.04134 0.25838,0 0.49092,0.05168 0.23255,0.05168 0.42892,0.165364 0.20154,0.113689 0.35657,0.299724 0.16019,0.180867 0.25838,0.444417 h 0.0879 q 0.16019,-0.294556 0.34623,-0.480591 0.18603,-0.191203 0.39274,-0.294555 0.21187,-0.108521 0.43925,-0.144694 0.23254,-0.04134 0.48059,-0.04134 0.40308,0 0.72347,0.124024 0.3204,0.118856 0.5426,0.37207 0.22221,0.248047 0.34107,0.640788 0.11885,0.392741 0.11885,0.935343 v 2.50114 q 0,0.248047 0.062,0.397908 0.062,0.149862 0.17053,0.232544 0.10852,0.07752 0.25838,0.103353 0.14986,0.02584 0.32556,0.02584 h 0.031 v 0.444417 h -1.83968 v -3.653524 q 0,-0.346232 -0.062,-0.61495 -0.0568,-0.268717 -0.1912,-0.454752 -0.12919,-0.186035 -0.34106,-0.279053 -0.21188,-0.09818 -0.51677,-0.09818 -0.33073,0 -0.5581,0.129191 -0.22221,0.124023 -0.36174,0.341064 -0.13952,0.217041 -0.20154,0.501262 -0.0568,0.28422 -0.0568,0.604614 v 2.320272 q 0,0.248047 0.062,0.397908 0.062,0.149862 0.17053,0.232544 0.10853,0.07752 0.25839,0.103353 0.14986,0.02584 0.32556,0.02584 h 0.031 v 0.444417 h -1.83968 v -3.653524 q 0,-0.346232 -0.062,-0.61495 -0.0568,-0.268717 -0.1912,-0.454752 -0.12919,-0.186035 -0.34107,-0.279053 -0.21187,-0.09818 -0.51676,-0.09818 -0.34623,0 -0.58394,0.139526 -0.23255,0.139526 -0.37724,0.377238 -0.1447,0.237712 -0.20671,0.54777 -0.062,0.310059 -0.062,0.651123 v 2.232422 q 0,0.232544 0.0672,0.377238 0.0724,0.139527 0.1912,0.211874 0.11886,0.07235 0.27389,0.09818 0.16019,0.02067 0.33589,0.02067 z"
         style="font-style:normal;font-variant:normal;font-weight:normal;font-stretch:normal;font-family:'Droid Serif';-inkscape-font-specification:'Droid Serif';stroke-width:0.26458335;fill:#1a1a1a"
         id="path4627" />
      <path
         d="m 150.37486,23.104412 v -0.444417 h 0.0362 q 0.17054,0 0.3049,-0.02067 0.13952,-0.02584 0.23254,-0.09302 0.0982,-0.07235 0.15503,-0.201538 0.0568,-0.134358 0.0672,-0.351399 v -5.653403 l -2.42363,6.764446 h -0.57361 l -2.45463,-6.743775 v 5.539714 q 0,0.248047 0.0517,0.397908 0.0517,0.149862 0.14986,0.232544 0.10335,0.07752 0.24288,0.103353 0.1447,0.02584 0.32039,0.02584 h 0.031 v 0.444417 h -2.44429 v -0.444417 h 0.13435 q 0.1757,0 0.33073,-0.02067 0.1602,-0.02584 0.27906,-0.09818 0.11885,-0.07235 0.18603,-0.211874 0.0724,-0.144694 0.0724,-0.377238 v -5.23999 q 0,-0.232544 -0.0724,-0.372071 -0.0672,-0.144694 -0.18603,-0.222208 -0.11886,-0.07751 -0.27906,-0.09818 -0.15503,-0.02584 -0.33073,-0.02584 h -0.13435 v -0.444417 h 2.41328 l 2.19109,6.051311 2.17041,-6.051311 h 2.34611 v 0.444417 h -0.13436 q -0.18087,0 -0.34107,0.02584 -0.15503,0.02584 -0.27388,0.10852 -0.11886,0.07752 -0.18604,0.227376 -0.0672,0.149862 -0.0672,0.397909 v 5.146973 q 0,0.248047 0.0672,0.397908 0.0672,0.149862 0.18604,0.232544 0.11885,0.07752 0.27388,0.103353 0.1602,0.02584 0.34107,0.02584 h 0.13436 v 0.444417 z"
         style="font-style:normal;font-variant:normal;font-weight:normal;font-stretch:normal;font-family:'Droid Serif';-inkscape-font-specification:'Droid Serif';stroke-width:0.26458335;fill:#1a1a1a"
         id="path4629" />
      <path
         d="m 156.49852,17.895427 q -0.58911,0 -0.90951,0.480591 -0.31522,0.475423 -0.37207,1.395264 h 2.43396 q 0,-0.418579 -0.062,-0.764811 -0.062,-0.346233 -0.19637,-0.594279 -0.13436,-0.248047 -0.35657,-0.382406 -0.21704,-0.134359 -0.53743,-0.134359 z m 0.12919,5.312338 q -0.57361,0 -1.03353,-0.191203 -0.45475,-0.196371 -0.76998,-0.568441 -0.31523,-0.37207 -0.48576,-0.909505 -0.16536,-0.542603 -0.16536,-1.229899 0,-1.483114 0.60978,-2.232422 0.60978,-0.749309 1.73633,-0.749309 0.51159,0 0.91984,0.160197 0.40824,0.160197 0.69246,0.480591 0.28422,0.315226 0.43408,0.79065 0.15503,0.470255 0.15503,1.09554 v 0.485759 h -3.52433 q 0.0103,0.578776 0.11369,0.997355 0.10852,0.413411 0.30489,0.682129 0.20154,0.268717 0.49093,0.397908 0.28938,0.124024 0.66662,0.124024 0.27389,0 0.50643,-0.06201 0.23771,-0.06201 0.42892,-0.165365 0.1912,-0.103352 0.33589,-0.232544 0.14986,-0.134358 0.24288,-0.279052 0.0724,0.03101 0.13436,0.129191 0.0672,0.09819 0.0672,0.232544 0,0.160197 -0.11369,0.346232 -0.11369,0.180867 -0.34623,0.335897 -0.23254,0.155029 -0.58394,0.258382 -0.34624,0.103353 -0.81649,0.103353 z"
         style="font-style:normal;font-variant:normal;font-weight:normal;font-stretch:normal;font-family:'Droid Serif';-inkscape-font-specification:'Droid Serif';stroke-width:0.26458335;fill:#1a1a1a"
         id="path4631" />
      <path
         d="m 159.52675,22.659995 q 0.18087,0 0.3359,-0.02584 0.1602,-0.02584 0.27389,-0.103353 0.11885,-0.08268 0.18603,-0.232544 0.0724,-0.149861 0.0724,-0.397908 v -5.674073 q 0,-0.232544 -0.0724,-0.37207 -0.0672,-0.144694 -0.18603,-0.222209 -0.11886,-0.07751 -0.27906,-0.09819 -0.15503,-0.02584 -0.33073,-0.02584 h -0.13435 v -0.444417 h 1.99987 v 6.836792 q 0,0.248047 0.0672,0.397908 0.0672,0.149862 0.18604,0.232544 0.11885,0.07752 0.27388,0.103353 0.1602,0.02584 0.34107,0.02584 h 0.13436 v 0.444417 h -3.0024 v -0.444417 z"
         style="font-style:normal;font-variant:normal;font-weight:normal;font-stretch:normal;font-family:'Droid Serif';-inkscape-font-specification:'Droid Serif';stroke-width:0.26458335;fill:#1a1a1a"
         id="path4633" />
      <path
         d="m 164.09495,21.569622 q 0,0.496094 0.20671,0.74414 0.21187,0.24288 0.65112,0.24288 0.32039,0 0.57878,-0.103353 0.26355,-0.103353 0.44441,-0.294556 0.18604,-0.191203 0.28422,-0.465088 0.0982,-0.273885 0.0982,-0.609782 v -0.857829 l -0.67696,0.03101 q -0.44959,0.02067 -0.75448,0.113688 -0.29972,0.08785 -0.48576,0.253215 -0.18603,0.160197 -0.26871,0.397909 -0.0775,0.237711 -0.0775,0.54777 z m 1.28158,-3.715536 q -0.30489,0 -0.4961,0.08785 -0.18603,0.08268 -0.29455,0.237712 -0.10336,0.155029 -0.13953,0.366902 -0.0362,0.211874 -0.0362,0.459921 -0.43925,0 -0.6718,-0.149862 -0.22737,-0.149862 -0.22737,-0.516764 0,-0.273886 0.14986,-0.465088 0.14986,-0.191203 0.40824,-0.310059 0.26355,-0.124023 0.60978,-0.180868 0.34624,-0.05684 0.73898,-0.05684 0.48576,0 0.84749,0.09819 0.36174,0.09302 0.60462,0.310058 0.24287,0.217041 0.36173,0.568441 0.12402,0.346232 0.12402,0.852661 v 2.744019 q 0,0.222209 0.0362,0.366903 0.0362,0.144694 0.11369,0.232544 0.0775,0.08785 0.20153,0.124023 0.12919,0.03617 0.30489,0.03617 h 0.031 v 0.444417 h -1.43144 l -0.16536,-0.909505 h -0.0879 q -0.16537,0.222208 -0.3204,0.408243 -0.15502,0.186036 -0.34106,0.320394 -0.18604,0.134359 -0.42375,0.206706 -0.23254,0.07751 -0.56327,0.07751 -0.3514,0 -0.65629,-0.103353 -0.29972,-0.09819 -0.52193,-0.304891 -0.21704,-0.211873 -0.34107,-0.5271 -0.12402,-0.320394 -0.12402,-0.754476 0,-0.842326 0.59945,-1.250569 0.59944,-0.408244 1.81384,-0.444418 l 0.8785,-0.03101 v -0.63562 q 0,-0.28422 -0.031,-0.521932 -0.031,-0.242879 -0.13436,-0.413411 -0.10335,-0.1757 -0.29972,-0.268718 -0.1912,-0.09819 -0.51676,-0.09819 z"
         style="font-style:normal;font-variant:normal;font-weight:normal;font-stretch:normal;font-family:'Droid Serif';-inkscape-font-specification:'Droid Serif';stroke-width:0.26458335;fill:#1a1a1a"
         id="path4635" />
      <path
         d="m 174.26488,17.430339 v 0.444418 h -0.031 q -0.15503,0 -0.26872,0.03617 -0.10852,0.03101 -0.20154,0.124024 -0.0879,0.09302 -0.16536,0.253214 -0.0775,0.160197 -0.17053,0.413412 l -1.60714,4.444173 q -0.18604,0.511597 -0.3514,0.89917 -0.16536,0.387573 -0.34623,0.661458 -0.18087,0.279053 -0.39791,0.459921 -0.21187,0.180867 -0.48576,0.289388 -0.27388,0.10852 -0.63045,0.149861 -0.35657,0.04134 -0.82682,0.04134 h -0.093 v -0.501261 q 0.53743,0 0.92501,-0.160197 0.38757,-0.160197 0.66662,-0.43925 0.28422,-0.279052 0.47026,-0.661458 0.1912,-0.377238 0.32039,-0.821655 l -1.95854,-4.625041 q -0.0723,-0.165365 -0.13952,-0.268718 -0.0672,-0.10852 -0.15503,-0.1757 -0.0827,-0.06718 -0.19637,-0.09302 -0.10852,-0.02584 -0.26355,-0.02584 h -0.031 V 17.43033 h 2.54248 v 0.444418 h -0.031 q -0.3204,0 -0.48059,0.124023 -0.15503,0.124024 -0.15503,0.387573 0,0.08785 0.0155,0.180868 0.0207,0.08785 0.0672,0.206706 l 0.77515,1.886189 q 0.0723,0.180868 0.14986,0.397909 0.0827,0.211873 0.14986,0.423747 0.0724,0.206706 0.12919,0.392741 0.0568,0.186035 0.0775,0.320394 h 0.031 q 0.0569,-0.232544 0.15503,-0.563274 0.10335,-0.335896 0.23771,-0.718302 l 0.70797,-2.06189 q 0.0465,-0.129191 0.0672,-0.248047 0.0258,-0.118855 0.0258,-0.206705 0,-0.273885 -0.1757,-0.397909 -0.17054,-0.124023 -0.52194,-0.124023 h -0.031 V 17.43033 Z"
         style="font-style:normal;font-variant:normal;font-weight:normal;font-stretch:normal;font-family:'Droid Serif';-inkscape-font-specification:'Droid Serif';stroke-width:0.26458335;fill:#1a1a1a"
         id="path4637" />
      <path
         d="m 179.83559,21.952027 q 0,0.232544 0.0672,0.377238 0.0724,0.139527 0.1912,0.211874 0.11886,0.07235 0.27389,0.09818 0.1602,0.02067 0.3359,0.02067 h 0.031 v 0.444417 h -1.67948 l -0.13953,-0.857829 h -0.0517 q -0.16019,0.299723 -0.35656,0.485759 -0.19121,0.186035 -0.40825,0.294555 -0.21704,0.103353 -0.45475,0.139527 -0.23771,0.04134 -0.49609,0.04134 -0.41858,0 -0.74414,-0.118856 -0.32556,-0.118856 -0.54777,-0.37207 -0.22221,-0.253215 -0.34107,-0.645956 -0.11369,-0.392741 -0.11369,-0.935343 V 18.59822 q 0,-0.232544 -0.0723,-0.372071 -0.0672,-0.144694 -0.18604,-0.222208 -0.11885,-0.07752 -0.27905,-0.103353 -0.15503,-0.02584 -0.33073,-0.02584 h -0.031 V 17.43033 h 1.89653 v 3.653524 q 0,0.346232 0.0517,0.61495 0.0568,0.268717 0.18086,0.454752 0.12919,0.186036 0.34107,0.284221 0.21704,0.09302 0.53743,0.09302 0.3514,0 0.59945,-0.124023 0.25321,-0.124023 0.41341,-0.346232 0.16537,-0.227376 0.24288,-0.542603 0.0775,-0.315226 0.0775,-0.697632 v -2.180745 q 0,-0.248047 -0.0723,-0.397909 -0.0672,-0.155029 -0.18604,-0.232544 -0.11369,-0.08268 -0.27388,-0.10852 -0.15503,-0.02584 -0.3359,-0.02584 h -0.031 v -0.444418 h 1.89136 z"
         style="font-style:normal;font-variant:normal;font-weight:normal;font-stretch:normal;font-family:'Droid Serif';-inkscape-font-specification:'Droid Serif';stroke-width:0.26458335;fill:#1a1a1a"
         id="path4639" />
    </g>
  </g>
</svg>
