<?xml version="1.0" encoding="utf-8"?>
<!-- Generator: Adobe Illustrator 17.0.0, SVG Export Plug-In . SVG Version: 6.00 Build 0)  -->
<!DOCTYPE svg PUBLIC "-//W3C//DTD SVG 1.1//EN" "http://www.w3.org/Graphics/SVG/1.1/DTD/svg11.dtd">
<svg version="1.1" id="Layer_1" xmlns="http://www.w3.org/2000/svg" xmlns:xlink="http://www.w3.org/1999/xlink" x="0px" y="0px"
	 width="16px" height="16px" viewBox="0 0 16 16" enable-background="new 0 0 16 16" xml:space="preserve">
<g>
	<path fill="#00AEEF" d="M15.854,12.974c0,0.719-0.589,1.308-1.31,1.308H1.455c-0.72,0-1.309-0.589-1.309-1.308V3.026
		c0-0.72,0.589-1.309,1.309-1.309h13.09c0.72,0,1.31,0.589,1.31,1.309V12.974z M1.455,2.764c-0.139,0-0.262,0.123-0.262,0.262v9.948
		c0,0.138,0.123,0.261,0.262,0.261h13.09c0.14,0,0.262-0.123,0.262-0.261V3.026c0-0.139-0.123-0.262-0.262-0.262H1.455z
		 M3.811,6.953c-0.867,0-1.571-0.704-1.571-1.571s0.704-1.571,1.571-1.571s1.571,0.704,1.571,1.571S4.678,6.953,3.811,6.953z
		 M13.76,12.188H2.24v-1.571L4.858,8l1.309,1.31l4.189-4.189l3.404,3.403V12.188z"/>
</g>
</svg>
